<?xml version="1.0" encoding="utf-8" standalone="no"?>
<!DOCTYPE svg PUBLIC "-//W3C//DTD SVG 1.1//EN"
  "http://www.w3.org/Graphics/SVG/1.1/DTD/svg11.dtd">
<!-- Created with matplotlib (https://matplotlib.org/) -->
<svg height="864pt" version="1.1" viewBox="0 0 864 864" width="864pt" xmlns="http://www.w3.org/2000/svg" xmlns:xlink="http://www.w3.org/1999/xlink">
 <defs>
  <style type="text/css">
*{stroke-linecap:butt;stroke-linejoin:round;}
  </style>
 </defs>
 <g id="figure_1">
  <g id="patch_1">
   <path d="M 0 864 
L 864 864 
L 864 0 
L 0 0 
z
" style="fill:#ffffff;"/>
  </g>
  <g id="axes_1">
   <g id="patch_2">
    <path d="M 108 768.96 
L 777.6 768.96 
L 777.6 103.68 
L 108 103.68 
z
" style="fill:#ffffff;"/>
   </g>
   <g id="patch_3">
    <path clip-path="url(#pc6e98ee477)" d="M 138.436364 768.96 
L 176.481818 768.96 
L 176.481818 349.085127 
L 138.436364 349.085127 
z
" style="fill:#ffa530;"/>
   </g>
   <g id="patch_4">
    <path clip-path="url(#pc6e98ee477)" d="M 185.993182 768.96 
L 224.038636 768.96 
L 224.038636 280.161568 
L 185.993182 280.161568 
z
" style="fill:#ffa530;"/>
   </g>
   <g id="patch_5">
    <path clip-path="url(#pc6e98ee477)" d="M 233.55 768.96 
L 271.595455 768.96 
L 271.595455 364.028914 
L 233.55 364.028914 
z
" style="fill:#ffa530;"/>
   </g>
   <g id="patch_6">
    <path clip-path="url(#pc6e98ee477)" d="M 281.106818 768.96 
L 319.152273 768.96 
L 319.152273 371.811274 
L 281.106818 371.811274 
z
" style="fill:#ffa530;"/>
   </g>
   <g id="patch_7">
    <path clip-path="url(#pc6e98ee477)" d="M 328.663636 768.96 
L 366.709091 768.96 
L 366.709091 331.699004 
L 328.663636 331.699004 
z
" style="fill:#ffa530;"/>
   </g>
   <g id="patch_8">
    <path clip-path="url(#pc6e98ee477)" d="M 376.220455 768.96 
L 414.265909 768.96 
L 414.265909 274.821544 
L 376.220455 274.821544 
z
" style="fill:#ffa530;"/>
   </g>
   <g id="patch_9">
    <path clip-path="url(#pc6e98ee477)" d="M 423.777273 768.96 
L 461.822727 768.96 
L 461.822727 317.541733 
L 423.777273 317.541733 
z
" style="fill:#ffa530;"/>
   </g>
   <g id="patch_10">
    <path clip-path="url(#pc6e98ee477)" d="M 471.334091 768.96 
L 509.379545 768.96 
L 509.379545 290.717428 
L 471.334091 290.717428 
z
" style="fill:#ffa530;"/>
   </g>
   <g id="patch_11">
    <path clip-path="url(#pc6e98ee477)" d="M 518.890909 768.96 
L 556.936364 768.96 
L 556.936364 275.028522 
L 518.890909 275.028522 
z
" style="fill:#ffa530;"/>
   </g>
   <g id="patch_12">
    <path clip-path="url(#pc6e98ee477)" d="M 566.447727 768.96 
L 604.493182 768.96 
L 604.493182 296.305825 
L 566.447727 296.305825 
z
" style="fill:#ffa530;"/>
   </g>
   <g id="patch_13">
    <path clip-path="url(#pc6e98ee477)" d="M 614.004545 768.96 
L 652.05 768.96 
L 652.05 361.296809 
L 614.004545 361.296809 
z
" style="fill:#ffa530;"/>
   </g>
   <g id="patch_14">
    <path clip-path="url(#pc6e98ee477)" d="M 661.561364 768.96 
L 699.606818 768.96 
L 699.606818 230.528326 
L 661.561364 230.528326 
z
" style="fill:#ffa530;"/>
   </g>
   <g id="patch_15">
    <path clip-path="url(#pc6e98ee477)" d="M 709.118182 768.96 
L 747.163636 768.96 
L 747.163636 135.36 
L 709.118182 135.36 
z
" style="fill:#ffa530;"/>
   </g>
   <g id="patch_16">
    <path clip-path="url(#pc6e98ee477)" d="M 138.436364 768.96 
L 176.481818 768.96 
L 176.481818 349.085127 
L 138.436364 349.085127 
z
" style="fill:#6c004f;"/>
   </g>
   <g id="patch_17">
    <path clip-path="url(#pc6e98ee477)" d="M 185.993182 768.96 
L 224.038636 768.96 
L 224.038636 280.161568 
L 185.993182 280.161568 
z
" style="fill:#6c004f;"/>
   </g>
   <g id="patch_18">
    <path clip-path="url(#pc6e98ee477)" d="M 233.55 768.96 
L 271.595455 768.96 
L 271.595455 364.028914 
L 233.55 364.028914 
z
" style="fill:#6c004f;"/>
   </g>
   <g id="patch_19">
    <path clip-path="url(#pc6e98ee477)" d="M 281.106818 768.96 
L 319.152273 768.96 
L 319.152273 371.811274 
L 281.106818 371.811274 
z
" style="fill:#6c004f;"/>
   </g>
   <g id="patch_20">
    <path clip-path="url(#pc6e98ee477)" d="M 328.663636 768.96 
L 366.709091 768.96 
L 366.709091 331.699004 
L 328.663636 331.699004 
z
" style="fill:#6c004f;"/>
   </g>
   <g id="patch_21">
    <path clip-path="url(#pc6e98ee477)" d="M 376.220455 768.96 
L 414.265909 768.96 
L 414.265909 274.821544 
L 376.220455 274.821544 
z
" style="fill:#6c004f;"/>
   </g>
   <g id="patch_22">
    <path clip-path="url(#pc6e98ee477)" d="M 423.777273 768.96 
L 461.822727 768.96 
L 461.822727 317.541733 
L 423.777273 317.541733 
z
" style="fill:#6c004f;"/>
   </g>
   <g id="patch_23">
    <path clip-path="url(#pc6e98ee477)" d="M 471.334091 768.96 
L 509.379545 768.96 
L 509.379545 290.717428 
L 471.334091 290.717428 
z
" style="fill:#6c004f;"/>
   </g>
   <g id="patch_24">
    <path clip-path="url(#pc6e98ee477)" d="M 518.890909 768.96 
L 556.936364 768.96 
L 556.936364 275.028522 
L 518.890909 275.028522 
z
" style="fill:#6c004f;"/>
   </g>
   <g id="patch_25">
    <path clip-path="url(#pc6e98ee477)" d="M 566.447727 768.96 
L 604.493182 768.96 
L 604.493182 296.305825 
L 566.447727 296.305825 
z
" style="fill:#6c004f;"/>
   </g>
   <g id="patch_26">
    <path clip-path="url(#pc6e98ee477)" d="M 614.004545 768.96 
L 652.05 768.96 
L 652.05 361.296809 
L 614.004545 361.296809 
z
" style="fill:#6c004f;"/>
   </g>
   <g id="patch_27">
    <path clip-path="url(#pc6e98ee477)" d="M 661.561364 768.96 
L 699.606818 768.96 
L 699.606818 230.528326 
L 661.561364 230.528326 
z
" style="fill:#6c004f;"/>
   </g>
   <g id="patch_28">
    <path clip-path="url(#pc6e98ee477)" d="M 709.118182 768.96 
L 747.163636 768.96 
L 747.163636 135.36 
L 709.118182 135.36 
z
" style="fill:#6c004f;"/>
   </g>
   <g id="patch_29">
    <path clip-path="url(#pc6e98ee477)" d="M 138.436364 768.96 
L 176.481818 768.96 
L 176.481818 605.323465 
L 138.436364 605.323465 
z
" style="fill:#ff7fd1;"/>
   </g>
   <g id="patch_30">
    <path clip-path="url(#pc6e98ee477)" d="M 185.993182 768.96 
L 224.038636 768.96 
L 224.038636 536.399906 
L 185.993182 536.399906 
z
" style="fill:#ff7fd1;"/>
   </g>
   <g id="patch_31">
    <path clip-path="url(#pc6e98ee477)" d="M 233.55 768.96 
L 271.595455 768.96 
L 271.595455 620.267252 
L 233.55 620.267252 
z
" style="fill:#ff7fd1;"/>
   </g>
   <g id="patch_32">
    <path clip-path="url(#pc6e98ee477)" d="M 281.106818 768.96 
L 319.152273 768.96 
L 319.152273 628.049612 
L 281.106818 628.049612 
z
" style="fill:#ff7fd1;"/>
   </g>
   <g id="patch_33">
    <path clip-path="url(#pc6e98ee477)" d="M 328.663636 768.96 
L 366.709091 768.96 
L 366.709091 587.937342 
L 328.663636 587.937342 
z
" style="fill:#ff7fd1;"/>
   </g>
   <g id="patch_34">
    <path clip-path="url(#pc6e98ee477)" d="M 376.220455 768.96 
L 414.265909 768.96 
L 414.265909 531.059882 
L 376.220455 531.059882 
z
" style="fill:#ff7fd1;"/>
   </g>
   <g id="patch_35">
    <path clip-path="url(#pc6e98ee477)" d="M 423.777273 768.96 
L 461.822727 768.96 
L 461.822727 573.780071 
L 423.777273 573.780071 
z
" style="fill:#ff7fd1;"/>
   </g>
   <g id="patch_36">
    <path clip-path="url(#pc6e98ee477)" d="M 471.334091 768.96 
L 509.379545 768.96 
L 509.379545 546.955766 
L 471.334091 546.955766 
z
" style="fill:#ff7fd1;"/>
   </g>
   <g id="patch_37">
    <path clip-path="url(#pc6e98ee477)" d="M 518.890909 768.96 
L 556.936364 768.96 
L 556.936364 531.26686 
L 518.890909 531.26686 
z
" style="fill:#ff7fd1;"/>
   </g>
   <g id="patch_38">
    <path clip-path="url(#pc6e98ee477)" d="M 566.447727 768.96 
L 604.493182 768.96 
L 604.493182 552.544163 
L 566.447727 552.544163 
z
" style="fill:#ff7fd1;"/>
   </g>
   <g id="patch_39">
    <path clip-path="url(#pc6e98ee477)" d="M 614.004545 768.96 
L 652.05 768.96 
L 652.05 617.535147 
L 614.004545 617.535147 
z
" style="fill:#ff7fd1;"/>
   </g>
   <g id="patch_40">
    <path clip-path="url(#pc6e98ee477)" d="M 661.561364 768.96 
L 699.606818 768.96 
L 699.606818 486.766664 
L 661.561364 486.766664 
z
" style="fill:#ff7fd1;"/>
   </g>
   <g id="patch_41">
    <path clip-path="url(#pc6e98ee477)" d="M 709.118182 768.96 
L 747.163636 768.96 
L 747.163636 391.598338 
L 709.118182 391.598338 
z
" style="fill:#ff7fd1;"/>
   </g>
   <g id="patch_42">
    <path clip-path="url(#pc6e98ee477)" d="M 138.436364 768.96 
L 176.481818 768.96 
L 176.481818 701.609471 
L 138.436364 701.609471 
z
" style="fill:#98ff00;"/>
   </g>
   <g id="patch_43">
    <path clip-path="url(#pc6e98ee477)" d="M 185.993182 768.96 
L 224.038636 768.96 
L 224.038636 653.466468 
L 185.993182 653.466468 
z
" style="fill:#98ff00;"/>
   </g>
   <g id="patch_44">
    <path clip-path="url(#pc6e98ee477)" d="M 233.55 768.96 
L 271.595455 768.96 
L 271.595455 706.369957 
L 233.55 706.369957 
z
" style="fill:#98ff00;"/>
   </g>
   <g id="patch_45">
    <path clip-path="url(#pc6e98ee477)" d="M 281.106818 768.96 
L 319.152273 768.96 
L 319.152273 705.003904 
L 281.106818 705.003904 
z
" style="fill:#98ff00;"/>
   </g>
   <g id="patch_46">
    <path clip-path="url(#pc6e98ee477)" d="M 328.663636 768.96 
L 366.709091 768.96 
L 366.709091 688.983834 
L 328.663636 688.983834 
z
" style="fill:#98ff00;"/>
   </g>
   <g id="patch_47">
    <path clip-path="url(#pc6e98ee477)" d="M 376.220455 768.96 
L 414.265909 768.96 
L 414.265909 647.919467 
L 376.220455 647.919467 
z
" style="fill:#98ff00;"/>
   </g>
   <g id="patch_48">
    <path clip-path="url(#pc6e98ee477)" d="M 423.777273 768.96 
L 461.822727 768.96 
L 461.822727 687.328013 
L 423.777273 687.328013 
z
" style="fill:#98ff00;"/>
   </g>
   <g id="patch_49">
    <path clip-path="url(#pc6e98ee477)" d="M 471.334091 768.96 
L 509.379545 768.96 
L 509.379545 662.532089 
L 471.334091 662.532089 
z
" style="fill:#98ff00;"/>
   </g>
   <g id="patch_50">
    <path clip-path="url(#pc6e98ee477)" d="M 518.890909 768.96 
L 556.936364 768.96 
L 556.936364 647.050161 
L 518.890909 647.050161 
z
" style="fill:#98ff00;"/>
   </g>
   <g id="patch_51">
    <path clip-path="url(#pc6e98ee477)" d="M 566.447727 768.96 
L 604.493182 768.96 
L 604.493182 668.700024 
L 566.447727 668.700024 
z
" style="fill:#98ff00;"/>
   </g>
   <g id="patch_52">
    <path clip-path="url(#pc6e98ee477)" d="M 614.004545 768.96 
L 652.05 768.96 
L 652.05 696.145261 
L 614.004545 696.145261 
z
" style="fill:#98ff00;"/>
   </g>
   <g id="patch_53">
    <path clip-path="url(#pc6e98ee477)" d="M 661.561364 768.96 
L 699.606818 768.96 
L 699.606818 604.205786 
L 661.561364 604.205786 
z
" style="fill:#98ff00;"/>
   </g>
   <g id="patch_54">
    <path clip-path="url(#pc6e98ee477)" d="M 709.118182 768.96 
L 747.163636 768.96 
L 747.163636 509.327229 
L 709.118182 509.327229 
z
" style="fill:#98ff00;"/>
   </g>
   <g id="patch_55">
    <path clip-path="url(#pc6e98ee477)" d="M 138.436364 768.96 
L 176.481818 768.96 
L 176.481818 728.930521 
L 138.436364 728.930521 
z
" style="fill:#00acc7;"/>
   </g>
   <g id="patch_56">
    <path clip-path="url(#pc6e98ee477)" d="M 185.993182 768.96 
L 224.038636 768.96 
L 224.038636 703.265292 
L 185.993182 703.265292 
z
" style="fill:#00acc7;"/>
   </g>
   <g id="patch_57">
    <path clip-path="url(#pc6e98ee477)" d="M 233.55 768.96 
L 271.595455 768.96 
L 271.595455 732.697515 
L 233.55 732.697515 
z
" style="fill:#00acc7;"/>
   </g>
   <g id="patch_58">
    <path clip-path="url(#pc6e98ee477)" d="M 281.106818 768.96 
L 319.152273 768.96 
L 319.152273 728.226797 
L 281.106818 728.226797 
z
" style="fill:#00acc7;"/>
   </g>
   <g id="patch_59">
    <path clip-path="url(#pc6e98ee477)" d="M 328.663636 768.96 
L 366.709091 768.96 
L 366.709091 724.749573 
L 328.663636 724.749573 
z
" style="fill:#00acc7;"/>
   </g>
   <g id="patch_60">
    <path clip-path="url(#pc6e98ee477)" d="M 376.220455 768.96 
L 414.265909 768.96 
L 414.265909 696.51782 
L 376.220455 696.51782 
z
" style="fill:#00acc7;"/>
   </g>
   <g id="patch_61">
    <path clip-path="url(#pc6e98ee477)" d="M 423.777273 768.96 
L 461.822727 768.96 
L 461.822727 726.653767 
L 423.777273 726.653767 
z
" style="fill:#00acc7;"/>
   </g>
   <g id="patch_62">
    <path clip-path="url(#pc6e98ee477)" d="M 471.334091 768.96 
L 509.379545 768.96 
L 509.379545 707.197868 
L 471.334091 707.197868 
z
" style="fill:#00acc7;"/>
   </g>
   <g id="patch_63">
    <path clip-path="url(#pc6e98ee477)" d="M 518.890909 768.96 
L 556.936364 768.96 
L 556.936364 696.021074 
L 518.890909 696.021074 
z
" style="fill:#00acc7;"/>
   </g>
   <g id="patch_64">
    <path clip-path="url(#pc6e98ee477)" d="M 566.447727 768.96 
L 604.493182 768.96 
L 604.493182 715.642556 
L 566.447727 715.642556 
z
" style="fill:#00acc7;"/>
   </g>
   <g id="patch_65">
    <path clip-path="url(#pc6e98ee477)" d="M 614.004545 768.96 
L 652.05 768.96 
L 652.05 723.300729 
L 614.004545 723.300729 
z
" style="fill:#00acc7;"/>
   </g>
   <g id="patch_66">
    <path clip-path="url(#pc6e98ee477)" d="M 661.561364 768.96 
L 699.606818 768.96 
L 699.606818 657.440439 
L 661.561364 657.440439 
z
" style="fill:#00acc7;"/>
   </g>
   <g id="patch_67">
    <path clip-path="url(#pc6e98ee477)" d="M 709.118182 768.96 
L 747.163636 768.96 
L 747.163636 564.383285 
L 709.118182 564.383285 
z
" style="fill:#00acc7;"/>
   </g>
   <g id="patch_68">
    <path clip-path="url(#pc6e98ee477)" d="M 138.436364 768.96 
L 176.481818 768.96 
L 176.481818 745.530129 
L 138.436364 745.530129 
z
" style="fill:#028800;"/>
   </g>
   <g id="patch_69">
    <path clip-path="url(#pc6e98ee477)" d="M 185.993182 768.96 
L 224.038636 768.96 
L 224.038636 732.697515 
L 185.993182 732.697515 
z
" style="fill:#028800;"/>
   </g>
   <g id="patch_70">
    <path clip-path="url(#pc6e98ee477)" d="M 233.55 768.96 
L 271.595455 768.96 
L 271.595455 748.220839 
L 233.55 748.220839 
z
" style="fill:#028800;"/>
   </g>
   <g id="patch_71">
    <path clip-path="url(#pc6e98ee477)" d="M 281.106818 768.96 
L 319.152273 768.96 
L 319.152273 742.301278 
L 281.106818 742.301278 
z
" style="fill:#028800;"/>
   </g>
   <g id="patch_72">
    <path clip-path="url(#pc6e98ee477)" d="M 328.663636 768.96 
L 366.709091 768.96 
L 366.709091 745.116174 
L 328.663636 745.116174 
z
" style="fill:#028800;"/>
   </g>
   <g id="patch_73">
    <path clip-path="url(#pc6e98ee477)" d="M 376.220455 768.96 
L 414.265909 768.96 
L 414.265909 726.363998 
L 376.220455 726.363998 
z
" style="fill:#028800;"/>
   </g>
   <g id="patch_74">
    <path clip-path="url(#pc6e98ee477)" d="M 423.777273 768.96 
L 461.822727 768.96 
L 461.822727 745.654316 
L 423.777273 745.654316 
z
" style="fill:#028800;"/>
   </g>
   <g id="patch_75">
    <path clip-path="url(#pc6e98ee477)" d="M 471.334091 768.96 
L 509.379545 768.96 
L 509.379545 733.691007 
L 471.334091 733.691007 
z
" style="fill:#028800;"/>
   </g>
   <g id="patch_76">
    <path clip-path="url(#pc6e98ee477)" d="M 518.890909 768.96 
L 556.936364 768.96 
L 556.936364 727.812842 
L 518.890909 727.812842 
z
" style="fill:#028800;"/>
   </g>
   <g id="patch_77">
    <path clip-path="url(#pc6e98ee477)" d="M 566.447727 768.96 
L 604.493182 768.96 
L 604.493182 741.514763 
L 566.447727 741.514763 
z
" style="fill:#028800;"/>
   </g>
   <g id="patch_78">
    <path clip-path="url(#pc6e98ee477)" d="M 614.004545 768.96 
L 652.05 768.96 
L 652.05 739.444986 
L 614.004545 739.444986 
z
" style="fill:#028800;"/>
   </g>
   <g id="patch_79">
    <path clip-path="url(#pc6e98ee477)" d="M 661.561364 768.96 
L 699.606818 768.96 
L 699.606818 694.034089 
L 661.561364 694.034089 
z
" style="fill:#028800;"/>
   </g>
   <g id="patch_80">
    <path clip-path="url(#pc6e98ee477)" d="M 709.118182 768.96 
L 747.163636 768.96 
L 747.163636 607.724406 
L 709.118182 607.724406 
z
" style="fill:#028800;"/>
   </g>
   <g id="patch_81">
    <path clip-path="url(#pc6e98ee477)" d="M 138.436364 768.96 
L 176.481818 768.96 
L 176.481818 756.872505 
L 138.436364 756.872505 
z
" style="fill:#8c3cff;"/>
   </g>
   <g id="patch_82">
    <path clip-path="url(#pc6e98ee477)" d="M 185.993182 768.96 
L 224.038636 768.96 
L 224.038636 752.815743 
L 185.993182 752.815743 
z
" style="fill:#8c3cff;"/>
   </g>
   <g id="patch_83">
    <path clip-path="url(#pc6e98ee477)" d="M 233.55 768.96 
L 271.595455 768.96 
L 271.595455 760.142752 
L 233.55 760.142752 
z
" style="fill:#8c3cff;"/>
   </g>
   <g id="patch_84">
    <path clip-path="url(#pc6e98ee477)" d="M 281.106818 768.96 
L 319.152273 768.96 
L 319.152273 751.739459 
L 281.106818 751.739459 
z
" style="fill:#8c3cff;"/>
   </g>
   <g id="patch_85">
    <path clip-path="url(#pc6e98ee477)" d="M 328.663636 768.96 
L 366.709091 768.96 
L 366.709091 759.480423 
L 328.663636 759.480423 
z
" style="fill:#8c3cff;"/>
   </g>
   <g id="patch_86">
    <path clip-path="url(#pc6e98ee477)" d="M 376.220455 768.96 
L 414.265909 768.96 
L 414.265909 748.179443 
L 376.220455 748.179443 
z
" style="fill:#8c3cff;"/>
   </g>
   <g id="patch_87">
    <path clip-path="url(#pc6e98ee477)" d="M 423.777273 768.96 
L 461.822727 768.96 
L 461.822727 758.03158 
L 423.777273 758.03158 
z
" style="fill:#8c3cff;"/>
   </g>
   <g id="patch_88">
    <path clip-path="url(#pc6e98ee477)" d="M 471.334091 768.96 
L 509.379545 768.96 
L 509.379545 750.787362 
L 471.334091 750.787362 
z
" style="fill:#8c3cff;"/>
   </g>
   <g id="patch_89">
    <path clip-path="url(#pc6e98ee477)" d="M 518.890909 768.96 
L 556.936364 768.96 
L 556.936364 750.000847 
L 518.890909 750.000847 
z
" style="fill:#8c3cff;"/>
   </g>
   <g id="patch_90">
    <path clip-path="url(#pc6e98ee477)" d="M 566.447727 768.96 
L 604.493182 768.96 
L 604.493182 757.824602 
L 566.447727 757.824602 
z
" style="fill:#8c3cff;"/>
   </g>
   <g id="patch_91">
    <path clip-path="url(#pc6e98ee477)" d="M 614.004545 768.96 
L 652.05 768.96 
L 652.05 750.042242 
L 614.004545 750.042242 
z
" style="fill:#8c3cff;"/>
   </g>
   <g id="patch_92">
    <path clip-path="url(#pc6e98ee477)" d="M 661.561364 768.96 
L 699.606818 768.96 
L 699.606818 724.12864 
L 661.561364 724.12864 
z
" style="fill:#8c3cff;"/>
   </g>
   <g id="patch_93">
    <path clip-path="url(#pc6e98ee477)" d="M 709.118182 768.96 
L 747.163636 768.96 
L 747.163636 651.852042 
L 709.118182 651.852042 
z
" style="fill:#8c3cff;"/>
   </g>
   <g id="patch_94">
    <path clip-path="url(#pc6e98ee477)" d="M 138.436364 768.96 
L 176.481818 768.96 
L 176.481818 766.062313 
L 138.436364 766.062313 
z
" style="fill:#d70000;"/>
   </g>
   <g id="patch_95">
    <path clip-path="url(#pc6e98ee477)" d="M 185.993182 768.96 
L 224.038636 768.96 
L 224.038636 766.352082 
L 185.993182 766.352082 
z
" style="fill:#d70000;"/>
   </g>
   <g id="patch_96">
    <path clip-path="url(#pc6e98ee477)" d="M 233.55 768.96 
L 271.595455 768.96 
L 271.595455 768.007903 
L 233.55 768.007903 
z
" style="fill:#d70000;"/>
   </g>
   <g id="patch_97">
    <path clip-path="url(#pc6e98ee477)" d="M 281.106818 768.96 
L 319.152273 768.96 
L 319.152273 762.088342 
L 281.106818 762.088342 
z
" style="fill:#d70000;"/>
   </g>
   <g id="patch_98">
    <path clip-path="url(#pc6e98ee477)" d="M 328.663636 768.96 
L 366.709091 768.96 
L 366.709091 767.38697 
L 328.663636 767.38697 
z
" style="fill:#d70000;"/>
   </g>
   <g id="patch_99">
    <path clip-path="url(#pc6e98ee477)" d="M 376.220455 768.96 
L 414.265909 768.96 
L 414.265909 764.654865 
L 376.220455 764.654865 
z
" style="fill:#d70000;"/>
   </g>
   <g id="patch_100">
    <path clip-path="url(#pc6e98ee477)" d="M 423.777273 768.96 
L 461.822727 768.96 
L 461.822727 766.26929 
L 423.777273 766.26929 
z
" style="fill:#d70000;"/>
   </g>
   <g id="patch_101">
    <path clip-path="url(#pc6e98ee477)" d="M 471.334091 768.96 
L 509.379545 768.96 
L 509.379545 764.033932 
L 471.334091 764.033932 
z
" style="fill:#d70000;"/>
   </g>
   <g id="patch_102">
    <path clip-path="url(#pc6e98ee477)" d="M 518.890909 768.96 
L 556.936364 768.96 
L 556.936364 764.323701 
L 518.890909 764.323701 
z
" style="fill:#d70000;"/>
   </g>
   <g id="patch_103">
    <path clip-path="url(#pc6e98ee477)" d="M 566.447727 768.96 
L 604.493182 768.96 
L 604.493182 767.469761 
L 566.447727 767.469761 
z
" style="fill:#d70000;"/>
   </g>
   <g id="patch_104">
    <path clip-path="url(#pc6e98ee477)" d="M 614.004545 768.96 
L 652.05 768.96 
L 652.05 760.763685 
L 614.004545 760.763685 
z
" style="fill:#d70000;"/>
   </g>
   <g id="patch_105">
    <path clip-path="url(#pc6e98ee477)" d="M 661.561364 768.96 
L 699.606818 768.96 
L 699.606818 754.926915 
L 661.561364 754.926915 
z
" style="fill:#d70000;"/>
   </g>
   <g id="patch_106">
    <path clip-path="url(#pc6e98ee477)" d="M 709.118182 768.96 
L 747.163636 768.96 
L 747.163636 713.779757 
L 709.118182 713.779757 
z
" style="fill:#d70000;"/>
   </g>
   <g id="matplotlib.axis_1">
    <g id="xtick_1">
     <g id="line2d_1">
      <defs>
       <path d="M 0 0 
L 0 3.5 
" id="m43b741bf96" style="stroke:#000000;stroke-width:0.8;"/>
      </defs>
      <g>
       <use style="stroke:#000000;stroke-width:0.8;" x="157.459091" xlink:href="#m43b741bf96" y="768.96"/>
      </g>
     </g>
     <g id="text_1">
      <!-- Liver -->
      <defs>
       <path d="M 9.8125 72.90625 
L 19.671875 72.90625 
L 19.671875 8.296875 
L 55.171875 8.296875 
L 55.171875 0 
L 9.8125 0 
z
" id="DejaVuSans-76"/>
       <path d="M 9.421875 54.6875 
L 18.40625 54.6875 
L 18.40625 0 
L 9.421875 0 
z
M 9.421875 75.984375 
L 18.40625 75.984375 
L 18.40625 64.59375 
L 9.421875 64.59375 
z
" id="DejaVuSans-105"/>
       <path d="M 2.984375 54.6875 
L 12.5 54.6875 
L 29.59375 8.796875 
L 46.6875 54.6875 
L 56.203125 54.6875 
L 35.6875 0 
L 23.484375 0 
z
" id="DejaVuSans-118"/>
       <path d="M 56.203125 29.59375 
L 56.203125 25.203125 
L 14.890625 25.203125 
Q 15.484375 15.921875 20.484375 11.0625 
Q 25.484375 6.203125 34.421875 6.203125 
Q 39.59375 6.203125 44.453125 7.46875 
Q 49.3125 8.734375 54.109375 11.28125 
L 54.109375 2.78125 
Q 49.265625 0.734375 44.1875 -0.34375 
Q 39.109375 -1.421875 33.890625 -1.421875 
Q 20.796875 -1.421875 13.15625 6.1875 
Q 5.515625 13.8125 5.515625 26.8125 
Q 5.515625 40.234375 12.765625 48.109375 
Q 20.015625 56 32.328125 56 
Q 43.359375 56 49.78125 48.890625 
Q 56.203125 41.796875 56.203125 29.59375 
z
M 47.21875 32.234375 
Q 47.125 39.59375 43.09375 43.984375 
Q 39.0625 48.390625 32.421875 48.390625 
Q 24.90625 48.390625 20.390625 44.140625 
Q 15.875 39.890625 15.1875 32.171875 
z
" id="DejaVuSans-101"/>
       <path d="M 41.109375 46.296875 
Q 39.59375 47.171875 37.8125 47.578125 
Q 36.03125 48 33.890625 48 
Q 26.265625 48 22.1875 43.046875 
Q 18.109375 38.09375 18.109375 28.8125 
L 18.109375 0 
L 9.078125 0 
L 9.078125 54.6875 
L 18.109375 54.6875 
L 18.109375 46.1875 
Q 20.953125 51.171875 25.484375 53.578125 
Q 30.03125 56 36.53125 56 
Q 37.453125 56 38.578125 55.875 
Q 39.703125 55.765625 41.0625 55.515625 
z
" id="DejaVuSans-114"/>
      </defs>
      <g transform="translate(160.218466 800.492813)rotate(-90)scale(0.1 -0.1)">
       <use xlink:href="#DejaVuSans-76"/>
       <use x="55.712891" xlink:href="#DejaVuSans-105"/>
       <use x="83.496094" xlink:href="#DejaVuSans-118"/>
       <use x="142.675781" xlink:href="#DejaVuSans-101"/>
       <use x="204.199219" xlink:href="#DejaVuSans-114"/>
      </g>
     </g>
    </g>
    <g id="xtick_2">
     <g id="line2d_2">
      <g>
       <use style="stroke:#000000;stroke-width:0.8;" x="205.015909" xlink:href="#m43b741bf96" y="768.96"/>
      </g>
     </g>
     <g id="text_2">
      <!-- FemaleReproductive -->
      <defs>
       <path d="M 9.8125 72.90625 
L 51.703125 72.90625 
L 51.703125 64.59375 
L 19.671875 64.59375 
L 19.671875 43.109375 
L 48.578125 43.109375 
L 48.578125 34.8125 
L 19.671875 34.8125 
L 19.671875 0 
L 9.8125 0 
z
" id="DejaVuSans-70"/>
       <path d="M 52 44.1875 
Q 55.375 50.25 60.0625 53.125 
Q 64.75 56 71.09375 56 
Q 79.640625 56 84.28125 50.015625 
Q 88.921875 44.046875 88.921875 33.015625 
L 88.921875 0 
L 79.890625 0 
L 79.890625 32.71875 
Q 79.890625 40.578125 77.09375 44.375 
Q 74.3125 48.1875 68.609375 48.1875 
Q 61.625 48.1875 57.5625 43.546875 
Q 53.515625 38.921875 53.515625 30.90625 
L 53.515625 0 
L 44.484375 0 
L 44.484375 32.71875 
Q 44.484375 40.625 41.703125 44.40625 
Q 38.921875 48.1875 33.109375 48.1875 
Q 26.21875 48.1875 22.15625 43.53125 
Q 18.109375 38.875 18.109375 30.90625 
L 18.109375 0 
L 9.078125 0 
L 9.078125 54.6875 
L 18.109375 54.6875 
L 18.109375 46.1875 
Q 21.1875 51.21875 25.484375 53.609375 
Q 29.78125 56 35.6875 56 
Q 41.65625 56 45.828125 52.96875 
Q 50 49.953125 52 44.1875 
z
" id="DejaVuSans-109"/>
       <path d="M 34.28125 27.484375 
Q 23.390625 27.484375 19.1875 25 
Q 14.984375 22.515625 14.984375 16.5 
Q 14.984375 11.71875 18.140625 8.90625 
Q 21.296875 6.109375 26.703125 6.109375 
Q 34.1875 6.109375 38.703125 11.40625 
Q 43.21875 16.703125 43.21875 25.484375 
L 43.21875 27.484375 
z
M 52.203125 31.203125 
L 52.203125 0 
L 43.21875 0 
L 43.21875 8.296875 
Q 40.140625 3.328125 35.546875 0.953125 
Q 30.953125 -1.421875 24.3125 -1.421875 
Q 15.921875 -1.421875 10.953125 3.296875 
Q 6 8.015625 6 15.921875 
Q 6 25.140625 12.171875 29.828125 
Q 18.359375 34.515625 30.609375 34.515625 
L 43.21875 34.515625 
L 43.21875 35.40625 
Q 43.21875 41.609375 39.140625 45 
Q 35.0625 48.390625 27.6875 48.390625 
Q 23 48.390625 18.546875 47.265625 
Q 14.109375 46.140625 10.015625 43.890625 
L 10.015625 52.203125 
Q 14.9375 54.109375 19.578125 55.046875 
Q 24.21875 56 28.609375 56 
Q 40.484375 56 46.34375 49.84375 
Q 52.203125 43.703125 52.203125 31.203125 
z
" id="DejaVuSans-97"/>
       <path d="M 9.421875 75.984375 
L 18.40625 75.984375 
L 18.40625 0 
L 9.421875 0 
z
" id="DejaVuSans-108"/>
       <path d="M 44.390625 34.1875 
Q 47.5625 33.109375 50.5625 29.59375 
Q 53.5625 26.078125 56.59375 19.921875 
L 66.609375 0 
L 56 0 
L 46.6875 18.703125 
Q 43.0625 26.03125 39.671875 28.421875 
Q 36.28125 30.8125 30.421875 30.8125 
L 19.671875 30.8125 
L 19.671875 0 
L 9.8125 0 
L 9.8125 72.90625 
L 32.078125 72.90625 
Q 44.578125 72.90625 50.734375 67.671875 
Q 56.890625 62.453125 56.890625 51.90625 
Q 56.890625 45.015625 53.6875 40.46875 
Q 50.484375 35.9375 44.390625 34.1875 
z
M 19.671875 64.796875 
L 19.671875 38.921875 
L 32.078125 38.921875 
Q 39.203125 38.921875 42.84375 42.21875 
Q 46.484375 45.515625 46.484375 51.90625 
Q 46.484375 58.296875 42.84375 61.546875 
Q 39.203125 64.796875 32.078125 64.796875 
z
" id="DejaVuSans-82"/>
       <path d="M 18.109375 8.203125 
L 18.109375 -20.796875 
L 9.078125 -20.796875 
L 9.078125 54.6875 
L 18.109375 54.6875 
L 18.109375 46.390625 
Q 20.953125 51.265625 25.265625 53.625 
Q 29.59375 56 35.59375 56 
Q 45.5625 56 51.78125 48.09375 
Q 58.015625 40.1875 58.015625 27.296875 
Q 58.015625 14.40625 51.78125 6.484375 
Q 45.5625 -1.421875 35.59375 -1.421875 
Q 29.59375 -1.421875 25.265625 0.953125 
Q 20.953125 3.328125 18.109375 8.203125 
z
M 48.6875 27.296875 
Q 48.6875 37.203125 44.609375 42.84375 
Q 40.53125 48.484375 33.40625 48.484375 
Q 26.265625 48.484375 22.1875 42.84375 
Q 18.109375 37.203125 18.109375 27.296875 
Q 18.109375 17.390625 22.1875 11.75 
Q 26.265625 6.109375 33.40625 6.109375 
Q 40.53125 6.109375 44.609375 11.75 
Q 48.6875 17.390625 48.6875 27.296875 
z
" id="DejaVuSans-112"/>
       <path d="M 30.609375 48.390625 
Q 23.390625 48.390625 19.1875 42.75 
Q 14.984375 37.109375 14.984375 27.296875 
Q 14.984375 17.484375 19.15625 11.84375 
Q 23.34375 6.203125 30.609375 6.203125 
Q 37.796875 6.203125 41.984375 11.859375 
Q 46.1875 17.53125 46.1875 27.296875 
Q 46.1875 37.015625 41.984375 42.703125 
Q 37.796875 48.390625 30.609375 48.390625 
z
M 30.609375 56 
Q 42.328125 56 49.015625 48.375 
Q 55.71875 40.765625 55.71875 27.296875 
Q 55.71875 13.875 49.015625 6.21875 
Q 42.328125 -1.421875 30.609375 -1.421875 
Q 18.84375 -1.421875 12.171875 6.21875 
Q 5.515625 13.875 5.515625 27.296875 
Q 5.515625 40.765625 12.171875 48.375 
Q 18.84375 56 30.609375 56 
z
" id="DejaVuSans-111"/>
       <path d="M 45.40625 46.390625 
L 45.40625 75.984375 
L 54.390625 75.984375 
L 54.390625 0 
L 45.40625 0 
L 45.40625 8.203125 
Q 42.578125 3.328125 38.25 0.953125 
Q 33.9375 -1.421875 27.875 -1.421875 
Q 17.96875 -1.421875 11.734375 6.484375 
Q 5.515625 14.40625 5.515625 27.296875 
Q 5.515625 40.1875 11.734375 48.09375 
Q 17.96875 56 27.875 56 
Q 33.9375 56 38.25 53.625 
Q 42.578125 51.265625 45.40625 46.390625 
z
M 14.796875 27.296875 
Q 14.796875 17.390625 18.875 11.75 
Q 22.953125 6.109375 30.078125 6.109375 
Q 37.203125 6.109375 41.296875 11.75 
Q 45.40625 17.390625 45.40625 27.296875 
Q 45.40625 37.203125 41.296875 42.84375 
Q 37.203125 48.484375 30.078125 48.484375 
Q 22.953125 48.484375 18.875 42.84375 
Q 14.796875 37.203125 14.796875 27.296875 
z
" id="DejaVuSans-100"/>
       <path d="M 8.5 21.578125 
L 8.5 54.6875 
L 17.484375 54.6875 
L 17.484375 21.921875 
Q 17.484375 14.15625 20.5 10.265625 
Q 23.53125 6.390625 29.59375 6.390625 
Q 36.859375 6.390625 41.078125 11.03125 
Q 45.3125 15.671875 45.3125 23.6875 
L 45.3125 54.6875 
L 54.296875 54.6875 
L 54.296875 0 
L 45.3125 0 
L 45.3125 8.40625 
Q 42.046875 3.421875 37.71875 1 
Q 33.40625 -1.421875 27.6875 -1.421875 
Q 18.265625 -1.421875 13.375 4.4375 
Q 8.5 10.296875 8.5 21.578125 
z
M 31.109375 56 
z
" id="DejaVuSans-117"/>
       <path d="M 48.78125 52.59375 
L 48.78125 44.1875 
Q 44.96875 46.296875 41.140625 47.34375 
Q 37.3125 48.390625 33.40625 48.390625 
Q 24.65625 48.390625 19.8125 42.84375 
Q 14.984375 37.3125 14.984375 27.296875 
Q 14.984375 17.28125 19.8125 11.734375 
Q 24.65625 6.203125 33.40625 6.203125 
Q 37.3125 6.203125 41.140625 7.25 
Q 44.96875 8.296875 48.78125 10.40625 
L 48.78125 2.09375 
Q 45.015625 0.34375 40.984375 -0.53125 
Q 36.96875 -1.421875 32.421875 -1.421875 
Q 20.0625 -1.421875 12.78125 6.34375 
Q 5.515625 14.109375 5.515625 27.296875 
Q 5.515625 40.671875 12.859375 48.328125 
Q 20.21875 56 33.015625 56 
Q 37.15625 56 41.109375 55.140625 
Q 45.0625 54.296875 48.78125 52.59375 
z
" id="DejaVuSans-99"/>
       <path d="M 18.3125 70.21875 
L 18.3125 54.6875 
L 36.8125 54.6875 
L 36.8125 47.703125 
L 18.3125 47.703125 
L 18.3125 18.015625 
Q 18.3125 11.328125 20.140625 9.421875 
Q 21.96875 7.515625 27.59375 7.515625 
L 36.8125 7.515625 
L 36.8125 0 
L 27.59375 0 
Q 17.1875 0 13.234375 3.875 
Q 9.28125 7.765625 9.28125 18.015625 
L 9.28125 47.703125 
L 2.6875 47.703125 
L 2.6875 54.6875 
L 9.28125 54.6875 
L 9.28125 70.21875 
z
" id="DejaVuSans-116"/>
      </defs>
      <g transform="translate(207.775284 879.281875)rotate(-90)scale(0.1 -0.1)">
       <use xlink:href="#DejaVuSans-70"/>
       <use x="57.441406" xlink:href="#DejaVuSans-101"/>
       <use x="118.964844" xlink:href="#DejaVuSans-109"/>
       <use x="216.376953" xlink:href="#DejaVuSans-97"/>
       <use x="277.65625" xlink:href="#DejaVuSans-108"/>
       <use x="305.439453" xlink:href="#DejaVuSans-101"/>
       <use x="366.962891" xlink:href="#DejaVuSans-82"/>
       <use x="436.382812" xlink:href="#DejaVuSans-101"/>
       <use x="497.90625" xlink:href="#DejaVuSans-112"/>
       <use x="561.382812" xlink:href="#DejaVuSans-114"/>
       <use x="602.464844" xlink:href="#DejaVuSans-111"/>
       <use x="663.646484" xlink:href="#DejaVuSans-100"/>
       <use x="727.123047" xlink:href="#DejaVuSans-117"/>
       <use x="790.501953" xlink:href="#DejaVuSans-99"/>
       <use x="845.482422" xlink:href="#DejaVuSans-116"/>
       <use x="884.691406" xlink:href="#DejaVuSans-105"/>
       <use x="912.474609" xlink:href="#DejaVuSans-118"/>
       <use x="971.654297" xlink:href="#DejaVuSans-101"/>
      </g>
     </g>
    </g>
    <g id="xtick_3">
     <g id="line2d_3">
      <g>
       <use style="stroke:#000000;stroke-width:0.8;" x="252.572727" xlink:href="#m43b741bf96" y="768.96"/>
      </g>
     </g>
     <g id="text_3">
      <!-- Pancreas -->
      <defs>
       <path d="M 19.671875 64.796875 
L 19.671875 37.40625 
L 32.078125 37.40625 
Q 38.96875 37.40625 42.71875 40.96875 
Q 46.484375 44.53125 46.484375 51.125 
Q 46.484375 57.671875 42.71875 61.234375 
Q 38.96875 64.796875 32.078125 64.796875 
z
M 9.8125 72.90625 
L 32.078125 72.90625 
Q 44.34375 72.90625 50.609375 67.359375 
Q 56.890625 61.8125 56.890625 51.125 
Q 56.890625 40.328125 50.609375 34.8125 
Q 44.34375 29.296875 32.078125 29.296875 
L 19.671875 29.296875 
L 19.671875 0 
L 9.8125 0 
z
" id="DejaVuSans-80"/>
       <path d="M 54.890625 33.015625 
L 54.890625 0 
L 45.90625 0 
L 45.90625 32.71875 
Q 45.90625 40.484375 42.875 44.328125 
Q 39.84375 48.1875 33.796875 48.1875 
Q 26.515625 48.1875 22.3125 43.546875 
Q 18.109375 38.921875 18.109375 30.90625 
L 18.109375 0 
L 9.078125 0 
L 9.078125 54.6875 
L 18.109375 54.6875 
L 18.109375 46.1875 
Q 21.34375 51.125 25.703125 53.5625 
Q 30.078125 56 35.796875 56 
Q 45.21875 56 50.046875 50.171875 
Q 54.890625 44.34375 54.890625 33.015625 
z
" id="DejaVuSans-110"/>
       <path d="M 44.28125 53.078125 
L 44.28125 44.578125 
Q 40.484375 46.53125 36.375 47.5 
Q 32.28125 48.484375 27.875 48.484375 
Q 21.1875 48.484375 17.84375 46.4375 
Q 14.5 44.390625 14.5 40.28125 
Q 14.5 37.15625 16.890625 35.375 
Q 19.28125 33.59375 26.515625 31.984375 
L 29.59375 31.296875 
Q 39.15625 29.25 43.1875 25.515625 
Q 47.21875 21.78125 47.21875 15.09375 
Q 47.21875 7.46875 41.1875 3.015625 
Q 35.15625 -1.421875 24.609375 -1.421875 
Q 20.21875 -1.421875 15.453125 -0.5625 
Q 10.6875 0.296875 5.421875 2 
L 5.421875 11.28125 
Q 10.40625 8.6875 15.234375 7.390625 
Q 20.0625 6.109375 24.8125 6.109375 
Q 31.15625 6.109375 34.5625 8.28125 
Q 37.984375 10.453125 37.984375 14.40625 
Q 37.984375 18.0625 35.515625 20.015625 
Q 33.0625 21.96875 24.703125 23.78125 
L 21.578125 24.515625 
Q 13.234375 26.265625 9.515625 29.90625 
Q 5.8125 33.546875 5.8125 39.890625 
Q 5.8125 47.609375 11.28125 51.796875 
Q 16.75 56 26.8125 56 
Q 31.78125 56 36.171875 55.265625 
Q 40.578125 54.546875 44.28125 53.078125 
z
" id="DejaVuSans-115"/>
      </defs>
      <g transform="translate(255.332102 821.545938)rotate(-90)scale(0.1 -0.1)">
       <use xlink:href="#DejaVuSans-80"/>
       <use x="60.240234" xlink:href="#DejaVuSans-97"/>
       <use x="121.519531" xlink:href="#DejaVuSans-110"/>
       <use x="184.898438" xlink:href="#DejaVuSans-99"/>
       <use x="239.878906" xlink:href="#DejaVuSans-114"/>
       <use x="280.960938" xlink:href="#DejaVuSans-101"/>
       <use x="342.484375" xlink:href="#DejaVuSans-97"/>
       <use x="403.763672" xlink:href="#DejaVuSans-115"/>
      </g>
     </g>
    </g>
    <g id="xtick_4">
     <g id="line2d_4">
      <g>
       <use style="stroke:#000000;stroke-width:0.8;" x="300.129545" xlink:href="#m43b741bf96" y="768.96"/>
      </g>
     </g>
     <g id="text_4">
      <!-- BMDM -->
      <defs>
       <path d="M 19.671875 34.8125 
L 19.671875 8.109375 
L 35.5 8.109375 
Q 43.453125 8.109375 47.28125 11.40625 
Q 51.125 14.703125 51.125 21.484375 
Q 51.125 28.328125 47.28125 31.5625 
Q 43.453125 34.8125 35.5 34.8125 
z
M 19.671875 64.796875 
L 19.671875 42.828125 
L 34.28125 42.828125 
Q 41.5 42.828125 45.03125 45.53125 
Q 48.578125 48.25 48.578125 53.8125 
Q 48.578125 59.328125 45.03125 62.0625 
Q 41.5 64.796875 34.28125 64.796875 
z
M 9.8125 72.90625 
L 35.015625 72.90625 
Q 46.296875 72.90625 52.390625 68.21875 
Q 58.5 63.53125 58.5 54.890625 
Q 58.5 48.1875 55.375 44.234375 
Q 52.25 40.28125 46.1875 39.3125 
Q 53.46875 37.75 57.5 32.78125 
Q 61.53125 27.828125 61.53125 20.40625 
Q 61.53125 10.640625 54.890625 5.3125 
Q 48.25 0 35.984375 0 
L 9.8125 0 
z
" id="DejaVuSans-66"/>
       <path d="M 9.8125 72.90625 
L 24.515625 72.90625 
L 43.109375 23.296875 
L 61.8125 72.90625 
L 76.515625 72.90625 
L 76.515625 0 
L 66.890625 0 
L 66.890625 64.015625 
L 48.09375 14.015625 
L 38.1875 14.015625 
L 19.390625 64.015625 
L 19.390625 0 
L 9.8125 0 
z
" id="DejaVuSans-77"/>
       <path d="M 19.671875 64.796875 
L 19.671875 8.109375 
L 31.59375 8.109375 
Q 46.6875 8.109375 53.6875 14.9375 
Q 60.6875 21.78125 60.6875 36.53125 
Q 60.6875 51.171875 53.6875 57.984375 
Q 46.6875 64.796875 31.59375 64.796875 
z
M 9.8125 72.90625 
L 30.078125 72.90625 
Q 51.265625 72.90625 61.171875 64.09375 
Q 71.09375 55.28125 71.09375 36.53125 
Q 71.09375 17.671875 61.125 8.828125 
Q 51.171875 0 30.078125 0 
L 9.8125 0 
z
" id="DejaVuSans-68"/>
      </defs>
      <g transform="translate(302.88892 807.777187)rotate(-90)scale(0.1 -0.1)">
       <use xlink:href="#DejaVuSans-66"/>
       <use x="68.603516" xlink:href="#DejaVuSans-77"/>
       <use x="154.882812" xlink:href="#DejaVuSans-68"/>
       <use x="231.884766" xlink:href="#DejaVuSans-77"/>
      </g>
     </g>
    </g>
    <g id="xtick_5">
     <g id="line2d_5">
      <g>
       <use style="stroke:#000000;stroke-width:0.8;" x="347.686364" xlink:href="#m43b741bf96" y="768.96"/>
      </g>
     </g>
     <g id="text_5">
      <!-- Heart -->
      <defs>
       <path d="M 9.8125 72.90625 
L 19.671875 72.90625 
L 19.671875 43.015625 
L 55.515625 43.015625 
L 55.515625 72.90625 
L 65.375 72.90625 
L 65.375 0 
L 55.515625 0 
L 55.515625 34.71875 
L 19.671875 34.71875 
L 19.671875 0 
L 9.8125 0 
z
" id="DejaVuSans-72"/>
      </defs>
      <g transform="translate(350.445739 803.792812)rotate(-90)scale(0.1 -0.1)">
       <use xlink:href="#DejaVuSans-72"/>
       <use x="75.195312" xlink:href="#DejaVuSans-101"/>
       <use x="136.71875" xlink:href="#DejaVuSans-97"/>
       <use x="197.998047" xlink:href="#DejaVuSans-114"/>
       <use x="239.111328" xlink:href="#DejaVuSans-116"/>
      </g>
     </g>
    </g>
    <g id="xtick_6">
     <g id="line2d_6">
      <g>
       <use style="stroke:#000000;stroke-width:0.8;" x="395.243182" xlink:href="#m43b741bf96" y="768.96"/>
      </g>
     </g>
     <g id="text_6">
      <!-- Lung -->
      <defs>
       <path d="M 45.40625 27.984375 
Q 45.40625 37.75 41.375 43.109375 
Q 37.359375 48.484375 30.078125 48.484375 
Q 22.859375 48.484375 18.828125 43.109375 
Q 14.796875 37.75 14.796875 27.984375 
Q 14.796875 18.265625 18.828125 12.890625 
Q 22.859375 7.515625 30.078125 7.515625 
Q 37.359375 7.515625 41.375 12.890625 
Q 45.40625 18.265625 45.40625 27.984375 
z
M 54.390625 6.78125 
Q 54.390625 -7.171875 48.1875 -13.984375 
Q 42 -20.796875 29.203125 -20.796875 
Q 24.46875 -20.796875 20.265625 -20.09375 
Q 16.0625 -19.390625 12.109375 -17.921875 
L 12.109375 -9.1875 
Q 16.0625 -11.328125 19.921875 -12.34375 
Q 23.78125 -13.375 27.78125 -13.375 
Q 36.625 -13.375 41.015625 -8.765625 
Q 45.40625 -4.15625 45.40625 5.171875 
L 45.40625 9.625 
Q 42.625 4.78125 38.28125 2.390625 
Q 33.9375 0 27.875 0 
Q 17.828125 0 11.671875 7.65625 
Q 5.515625 15.328125 5.515625 27.984375 
Q 5.515625 40.671875 11.671875 48.328125 
Q 17.828125 56 27.875 56 
Q 33.9375 56 38.28125 53.609375 
Q 42.625 51.21875 45.40625 46.390625 
L 45.40625 54.6875 
L 54.390625 54.6875 
z
" id="DejaVuSans-103"/>
      </defs>
      <g transform="translate(398.002557 800.55375)rotate(-90)scale(0.1 -0.1)">
       <use xlink:href="#DejaVuSans-76"/>
       <use x="55.697266" xlink:href="#DejaVuSans-117"/>
       <use x="119.076172" xlink:href="#DejaVuSans-110"/>
       <use x="182.455078" xlink:href="#DejaVuSans-103"/>
      </g>
     </g>
    </g>
    <g id="xtick_7">
     <g id="line2d_7">
      <g>
       <use style="stroke:#000000;stroke-width:0.8;" x="442.8" xlink:href="#m43b741bf96" y="768.96"/>
      </g>
     </g>
     <g id="text_7">
      <!-- Spleen -->
      <defs>
       <path d="M 53.515625 70.515625 
L 53.515625 60.890625 
Q 47.90625 63.578125 42.921875 64.890625 
Q 37.9375 66.21875 33.296875 66.21875 
Q 25.25 66.21875 20.875 63.09375 
Q 16.5 59.96875 16.5 54.203125 
Q 16.5 49.359375 19.40625 46.890625 
Q 22.3125 44.4375 30.421875 42.921875 
L 36.375 41.703125 
Q 47.40625 39.59375 52.65625 34.296875 
Q 57.90625 29 57.90625 20.125 
Q 57.90625 9.515625 50.796875 4.046875 
Q 43.703125 -1.421875 29.984375 -1.421875 
Q 24.8125 -1.421875 18.96875 -0.25 
Q 13.140625 0.921875 6.890625 3.21875 
L 6.890625 13.375 
Q 12.890625 10.015625 18.65625 8.296875 
Q 24.421875 6.59375 29.984375 6.59375 
Q 38.421875 6.59375 43.015625 9.90625 
Q 47.609375 13.234375 47.609375 19.390625 
Q 47.609375 24.75 44.3125 27.78125 
Q 41.015625 30.8125 33.5 32.328125 
L 27.484375 33.5 
Q 16.453125 35.6875 11.515625 40.375 
Q 6.59375 45.0625 6.59375 53.421875 
Q 6.59375 63.09375 13.40625 68.65625 
Q 20.21875 74.21875 32.171875 74.21875 
Q 37.3125 74.21875 42.625 73.28125 
Q 47.953125 72.359375 53.515625 70.515625 
z
" id="DejaVuSans-83"/>
      </defs>
      <g transform="translate(445.559375 810.07875)rotate(-90)scale(0.1 -0.1)">
       <use xlink:href="#DejaVuSans-83"/>
       <use x="63.476562" xlink:href="#DejaVuSans-112"/>
       <use x="126.953125" xlink:href="#DejaVuSans-108"/>
       <use x="154.736328" xlink:href="#DejaVuSans-101"/>
       <use x="216.259766" xlink:href="#DejaVuSans-101"/>
       <use x="277.783203" xlink:href="#DejaVuSans-110"/>
      </g>
     </g>
    </g>
    <g id="xtick_8">
     <g id="line2d_8">
      <g>
       <use style="stroke:#000000;stroke-width:0.8;" x="490.356818" xlink:href="#m43b741bf96" y="768.96"/>
      </g>
     </g>
     <g id="text_8">
      <!-- Kidney -->
      <defs>
       <path d="M 9.8125 72.90625 
L 19.671875 72.90625 
L 19.671875 42.09375 
L 52.390625 72.90625 
L 65.09375 72.90625 
L 28.90625 38.921875 
L 67.671875 0 
L 54.6875 0 
L 19.671875 35.109375 
L 19.671875 0 
L 9.8125 0 
z
" id="DejaVuSans-75"/>
       <path d="M 32.171875 -5.078125 
Q 28.375 -14.84375 24.75 -17.8125 
Q 21.140625 -20.796875 15.09375 -20.796875 
L 7.90625 -20.796875 
L 7.90625 -13.28125 
L 13.1875 -13.28125 
Q 16.890625 -13.28125 18.9375 -11.515625 
Q 21 -9.765625 23.484375 -3.21875 
L 25.09375 0.875 
L 2.984375 54.6875 
L 12.5 54.6875 
L 29.59375 11.921875 
L 46.6875 54.6875 
L 56.203125 54.6875 
z
" id="DejaVuSans-121"/>
      </defs>
      <g transform="translate(493.116193 810.05375)rotate(-90)scale(0.1 -0.1)">
       <use xlink:href="#DejaVuSans-75"/>
       <use x="65.576172" xlink:href="#DejaVuSans-105"/>
       <use x="93.359375" xlink:href="#DejaVuSans-100"/>
       <use x="156.835938" xlink:href="#DejaVuSans-110"/>
       <use x="220.214844" xlink:href="#DejaVuSans-101"/>
       <use x="281.738281" xlink:href="#DejaVuSans-121"/>
      </g>
     </g>
    </g>
    <g id="xtick_9">
     <g id="line2d_9">
      <g>
       <use style="stroke:#000000;stroke-width:0.8;" x="537.913636" xlink:href="#m43b741bf96" y="768.96"/>
      </g>
     </g>
     <g id="text_9">
      <!-- MiscOrgans -->
      <defs>
       <path d="M 39.40625 66.21875 
Q 28.65625 66.21875 22.328125 58.203125 
Q 16.015625 50.203125 16.015625 36.375 
Q 16.015625 22.609375 22.328125 14.59375 
Q 28.65625 6.59375 39.40625 6.59375 
Q 50.140625 6.59375 56.421875 14.59375 
Q 62.703125 22.609375 62.703125 36.375 
Q 62.703125 50.203125 56.421875 58.203125 
Q 50.140625 66.21875 39.40625 66.21875 
z
M 39.40625 74.21875 
Q 54.734375 74.21875 63.90625 63.9375 
Q 73.09375 53.65625 73.09375 36.375 
Q 73.09375 19.140625 63.90625 8.859375 
Q 54.734375 -1.421875 39.40625 -1.421875 
Q 24.03125 -1.421875 14.8125 8.828125 
Q 5.609375 19.09375 5.609375 36.375 
Q 5.609375 53.65625 14.8125 63.9375 
Q 24.03125 74.21875 39.40625 74.21875 
z
" id="DejaVuSans-79"/>
      </defs>
      <g transform="translate(540.673011 834.07875)rotate(-90)scale(0.1 -0.1)">
       <use xlink:href="#DejaVuSans-77"/>
       <use x="86.279297" xlink:href="#DejaVuSans-105"/>
       <use x="114.0625" xlink:href="#DejaVuSans-115"/>
       <use x="166.162109" xlink:href="#DejaVuSans-99"/>
       <use x="221.142578" xlink:href="#DejaVuSans-79"/>
       <use x="299.853516" xlink:href="#DejaVuSans-114"/>
       <use x="340.951172" xlink:href="#DejaVuSans-103"/>
       <use x="404.427734" xlink:href="#DejaVuSans-97"/>
       <use x="465.707031" xlink:href="#DejaVuSans-110"/>
       <use x="529.085938" xlink:href="#DejaVuSans-115"/>
      </g>
     </g>
    </g>
    <g id="xtick_10">
     <g id="line2d_10">
      <g>
       <use style="stroke:#000000;stroke-width:0.8;" x="585.470455" xlink:href="#m43b741bf96" y="768.96"/>
      </g>
     </g>
     <g id="text_10">
      <!-- Muscle -->
      <g transform="translate(588.22983 810.564687)rotate(-90)scale(0.1 -0.1)">
       <use xlink:href="#DejaVuSans-77"/>
       <use x="86.279297" xlink:href="#DejaVuSans-117"/>
       <use x="149.658203" xlink:href="#DejaVuSans-115"/>
       <use x="201.757812" xlink:href="#DejaVuSans-99"/>
       <use x="256.738281" xlink:href="#DejaVuSans-108"/>
       <use x="284.521484" xlink:href="#DejaVuSans-101"/>
      </g>
     </g>
    </g>
    <g id="xtick_11">
     <g id="line2d_11">
      <g>
       <use style="stroke:#000000;stroke-width:0.8;" x="633.027273" xlink:href="#m43b741bf96" y="768.96"/>
      </g>
     </g>
     <g id="text_11">
      <!-- CHO -->
      <defs>
       <path d="M 64.40625 67.28125 
L 64.40625 56.890625 
Q 59.421875 61.53125 53.78125 63.8125 
Q 48.140625 66.109375 41.796875 66.109375 
Q 29.296875 66.109375 22.65625 58.46875 
Q 16.015625 50.828125 16.015625 36.375 
Q 16.015625 21.96875 22.65625 14.328125 
Q 29.296875 6.6875 41.796875 6.6875 
Q 48.140625 6.6875 53.78125 8.984375 
Q 59.421875 11.28125 64.40625 15.921875 
L 64.40625 5.609375 
Q 59.234375 2.09375 53.4375 0.328125 
Q 47.65625 -1.421875 41.21875 -1.421875 
Q 24.65625 -1.421875 15.125 8.703125 
Q 5.609375 18.84375 5.609375 36.375 
Q 5.609375 53.953125 15.125 64.078125 
Q 24.65625 74.21875 41.21875 74.21875 
Q 47.75 74.21875 53.53125 72.484375 
Q 59.328125 70.75 64.40625 67.28125 
z
" id="DejaVuSans-67"/>
      </defs>
      <g transform="translate(635.786648 798.335)rotate(-90)scale(0.1 -0.1)">
       <use xlink:href="#DejaVuSans-67"/>
       <use x="69.824219" xlink:href="#DejaVuSans-72"/>
       <use x="145.019531" xlink:href="#DejaVuSans-79"/>
      </g>
     </g>
    </g>
    <g id="xtick_12">
     <g id="line2d_12">
      <g>
       <use style="stroke:#000000;stroke-width:0.8;" x="680.584091" xlink:href="#m43b741bf96" y="768.96"/>
      </g>
     </g>
     <g id="text_12">
      <!-- Brain -->
      <g transform="translate(683.343466 802.175625)rotate(-90)scale(0.1 -0.1)">
       <use xlink:href="#DejaVuSans-66"/>
       <use x="68.603516" xlink:href="#DejaVuSans-114"/>
       <use x="109.716797" xlink:href="#DejaVuSans-97"/>
       <use x="170.996094" xlink:href="#DejaVuSans-105"/>
       <use x="198.779297" xlink:href="#DejaVuSans-110"/>
      </g>
     </g>
    </g>
    <g id="xtick_13">
     <g id="line2d_13">
      <g>
       <use style="stroke:#000000;stroke-width:0.8;" x="728.140909" xlink:href="#m43b741bf96" y="768.96"/>
      </g>
     </g>
     <g id="text_13">
      <!-- Cumulative -->
      <g transform="translate(730.900284 833.035)rotate(-90)scale(0.1 -0.1)">
       <use xlink:href="#DejaVuSans-67"/>
       <use x="69.824219" xlink:href="#DejaVuSans-117"/>
       <use x="133.203125" xlink:href="#DejaVuSans-109"/>
       <use x="230.615234" xlink:href="#DejaVuSans-117"/>
       <use x="293.994141" xlink:href="#DejaVuSans-108"/>
       <use x="321.777344" xlink:href="#DejaVuSans-97"/>
       <use x="383.056641" xlink:href="#DejaVuSans-116"/>
       <use x="422.265625" xlink:href="#DejaVuSans-105"/>
       <use x="450.048828" xlink:href="#DejaVuSans-118"/>
       <use x="509.228516" xlink:href="#DejaVuSans-101"/>
      </g>
     </g>
    </g>
   </g>
   <g id="matplotlib.axis_2">
    <g id="ytick_1">
     <g id="line2d_14">
      <defs>
       <path d="M 0 0 
L -3.5 0 
" id="ma8cec13095" style="stroke:#000000;stroke-width:0.8;"/>
      </defs>
      <g>
       <use style="stroke:#000000;stroke-width:0.8;" x="108" xlink:href="#ma8cec13095" y="768.96"/>
      </g>
     </g>
     <g id="text_14">
      <!-- 0 -->
      <defs>
       <path d="M 31.78125 66.40625 
Q 24.171875 66.40625 20.328125 58.90625 
Q 16.5 51.421875 16.5 36.375 
Q 16.5 21.390625 20.328125 13.890625 
Q 24.171875 6.390625 31.78125 6.390625 
Q 39.453125 6.390625 43.28125 13.890625 
Q 47.125 21.390625 47.125 36.375 
Q 47.125 51.421875 43.28125 58.90625 
Q 39.453125 66.40625 31.78125 66.40625 
z
M 31.78125 74.21875 
Q 44.046875 74.21875 50.515625 64.515625 
Q 56.984375 54.828125 56.984375 36.375 
Q 56.984375 17.96875 50.515625 8.265625 
Q 44.046875 -1.421875 31.78125 -1.421875 
Q 19.53125 -1.421875 13.0625 8.265625 
Q 6.59375 17.96875 6.59375 36.375 
Q 6.59375 54.828125 13.0625 64.515625 
Q 19.53125 74.21875 31.78125 74.21875 
z
" id="DejaVuSans-48"/>
      </defs>
      <g transform="translate(94.6375 772.759219)scale(0.1 -0.1)">
       <use xlink:href="#DejaVuSans-48"/>
      </g>
     </g>
    </g>
    <g id="ytick_2">
     <g id="line2d_15">
      <g>
       <use style="stroke:#000000;stroke-width:0.8;" x="108" xlink:href="#ma8cec13095" y="686.168938"/>
      </g>
     </g>
     <g id="text_15">
      <!-- 2000 -->
      <defs>
       <path d="M 19.1875 8.296875 
L 53.609375 8.296875 
L 53.609375 0 
L 7.328125 0 
L 7.328125 8.296875 
Q 12.9375 14.109375 22.625 23.890625 
Q 32.328125 33.6875 34.8125 36.53125 
Q 39.546875 41.84375 41.421875 45.53125 
Q 43.3125 49.21875 43.3125 52.78125 
Q 43.3125 58.59375 39.234375 62.25 
Q 35.15625 65.921875 28.609375 65.921875 
Q 23.96875 65.921875 18.8125 64.3125 
Q 13.671875 62.703125 7.8125 59.421875 
L 7.8125 69.390625 
Q 13.765625 71.78125 18.9375 73 
Q 24.125 74.21875 28.421875 74.21875 
Q 39.75 74.21875 46.484375 68.546875 
Q 53.21875 62.890625 53.21875 53.421875 
Q 53.21875 48.921875 51.53125 44.890625 
Q 49.859375 40.875 45.40625 35.40625 
Q 44.1875 33.984375 37.640625 27.21875 
Q 31.109375 20.453125 19.1875 8.296875 
z
" id="DejaVuSans-50"/>
      </defs>
      <g transform="translate(75.55 689.968156)scale(0.1 -0.1)">
       <use xlink:href="#DejaVuSans-50"/>
       <use x="63.623047" xlink:href="#DejaVuSans-48"/>
       <use x="127.246094" xlink:href="#DejaVuSans-48"/>
       <use x="190.869141" xlink:href="#DejaVuSans-48"/>
      </g>
     </g>
    </g>
    <g id="ytick_3">
     <g id="line2d_16">
      <g>
       <use style="stroke:#000000;stroke-width:0.8;" x="108" xlink:href="#ma8cec13095" y="603.377875"/>
      </g>
     </g>
     <g id="text_16">
      <!-- 4000 -->
      <defs>
       <path d="M 37.796875 64.3125 
L 12.890625 25.390625 
L 37.796875 25.390625 
z
M 35.203125 72.90625 
L 47.609375 72.90625 
L 47.609375 25.390625 
L 58.015625 25.390625 
L 58.015625 17.1875 
L 47.609375 17.1875 
L 47.609375 0 
L 37.796875 0 
L 37.796875 17.1875 
L 4.890625 17.1875 
L 4.890625 26.703125 
z
" id="DejaVuSans-52"/>
      </defs>
      <g transform="translate(75.55 607.177094)scale(0.1 -0.1)">
       <use xlink:href="#DejaVuSans-52"/>
       <use x="63.623047" xlink:href="#DejaVuSans-48"/>
       <use x="127.246094" xlink:href="#DejaVuSans-48"/>
       <use x="190.869141" xlink:href="#DejaVuSans-48"/>
      </g>
     </g>
    </g>
    <g id="ytick_4">
     <g id="line2d_17">
      <g>
       <use style="stroke:#000000;stroke-width:0.8;" x="108" xlink:href="#ma8cec13095" y="520.586813"/>
      </g>
     </g>
     <g id="text_17">
      <!-- 6000 -->
      <defs>
       <path d="M 33.015625 40.375 
Q 26.375 40.375 22.484375 35.828125 
Q 18.609375 31.296875 18.609375 23.390625 
Q 18.609375 15.53125 22.484375 10.953125 
Q 26.375 6.390625 33.015625 6.390625 
Q 39.65625 6.390625 43.53125 10.953125 
Q 47.40625 15.53125 47.40625 23.390625 
Q 47.40625 31.296875 43.53125 35.828125 
Q 39.65625 40.375 33.015625 40.375 
z
M 52.59375 71.296875 
L 52.59375 62.3125 
Q 48.875 64.0625 45.09375 64.984375 
Q 41.3125 65.921875 37.59375 65.921875 
Q 27.828125 65.921875 22.671875 59.328125 
Q 17.53125 52.734375 16.796875 39.40625 
Q 19.671875 43.65625 24.015625 45.921875 
Q 28.375 48.1875 33.59375 48.1875 
Q 44.578125 48.1875 50.953125 41.515625 
Q 57.328125 34.859375 57.328125 23.390625 
Q 57.328125 12.15625 50.6875 5.359375 
Q 44.046875 -1.421875 33.015625 -1.421875 
Q 20.359375 -1.421875 13.671875 8.265625 
Q 6.984375 17.96875 6.984375 36.375 
Q 6.984375 53.65625 15.1875 63.9375 
Q 23.390625 74.21875 37.203125 74.21875 
Q 40.921875 74.21875 44.703125 73.484375 
Q 48.484375 72.75 52.59375 71.296875 
z
" id="DejaVuSans-54"/>
      </defs>
      <g transform="translate(75.55 524.386032)scale(0.1 -0.1)">
       <use xlink:href="#DejaVuSans-54"/>
       <use x="63.623047" xlink:href="#DejaVuSans-48"/>
       <use x="127.246094" xlink:href="#DejaVuSans-48"/>
       <use x="190.869141" xlink:href="#DejaVuSans-48"/>
      </g>
     </g>
    </g>
    <g id="ytick_5">
     <g id="line2d_18">
      <g>
       <use style="stroke:#000000;stroke-width:0.8;" x="108" xlink:href="#ma8cec13095" y="437.795751"/>
      </g>
     </g>
     <g id="text_18">
      <!-- 8000 -->
      <defs>
       <path d="M 31.78125 34.625 
Q 24.75 34.625 20.71875 30.859375 
Q 16.703125 27.09375 16.703125 20.515625 
Q 16.703125 13.921875 20.71875 10.15625 
Q 24.75 6.390625 31.78125 6.390625 
Q 38.8125 6.390625 42.859375 10.171875 
Q 46.921875 13.96875 46.921875 20.515625 
Q 46.921875 27.09375 42.890625 30.859375 
Q 38.875 34.625 31.78125 34.625 
z
M 21.921875 38.8125 
Q 15.578125 40.375 12.03125 44.71875 
Q 8.5 49.078125 8.5 55.328125 
Q 8.5 64.0625 14.71875 69.140625 
Q 20.953125 74.21875 31.78125 74.21875 
Q 42.671875 74.21875 48.875 69.140625 
Q 55.078125 64.0625 55.078125 55.328125 
Q 55.078125 49.078125 51.53125 44.71875 
Q 48 40.375 41.703125 38.8125 
Q 48.828125 37.15625 52.796875 32.3125 
Q 56.78125 27.484375 56.78125 20.515625 
Q 56.78125 9.90625 50.3125 4.234375 
Q 43.84375 -1.421875 31.78125 -1.421875 
Q 19.734375 -1.421875 13.25 4.234375 
Q 6.78125 9.90625 6.78125 20.515625 
Q 6.78125 27.484375 10.78125 32.3125 
Q 14.796875 37.15625 21.921875 38.8125 
z
M 18.3125 54.390625 
Q 18.3125 48.734375 21.84375 45.5625 
Q 25.390625 42.390625 31.78125 42.390625 
Q 38.140625 42.390625 41.71875 45.5625 
Q 45.3125 48.734375 45.3125 54.390625 
Q 45.3125 60.0625 41.71875 63.234375 
Q 38.140625 66.40625 31.78125 66.40625 
Q 25.390625 66.40625 21.84375 63.234375 
Q 18.3125 60.0625 18.3125 54.390625 
z
" id="DejaVuSans-56"/>
      </defs>
      <g transform="translate(75.55 441.594969)scale(0.1 -0.1)">
       <use xlink:href="#DejaVuSans-56"/>
       <use x="63.623047" xlink:href="#DejaVuSans-48"/>
       <use x="127.246094" xlink:href="#DejaVuSans-48"/>
       <use x="190.869141" xlink:href="#DejaVuSans-48"/>
      </g>
     </g>
    </g>
    <g id="ytick_6">
     <g id="line2d_19">
      <g>
       <use style="stroke:#000000;stroke-width:0.8;" x="108" xlink:href="#ma8cec13095" y="355.004688"/>
      </g>
     </g>
     <g id="text_19">
      <!-- 10000 -->
      <defs>
       <path d="M 12.40625 8.296875 
L 28.515625 8.296875 
L 28.515625 63.921875 
L 10.984375 60.40625 
L 10.984375 69.390625 
L 28.421875 72.90625 
L 38.28125 72.90625 
L 38.28125 8.296875 
L 54.390625 8.296875 
L 54.390625 0 
L 12.40625 0 
z
" id="DejaVuSans-49"/>
      </defs>
      <g transform="translate(69.1875 358.803907)scale(0.1 -0.1)">
       <use xlink:href="#DejaVuSans-49"/>
       <use x="63.623047" xlink:href="#DejaVuSans-48"/>
       <use x="127.246094" xlink:href="#DejaVuSans-48"/>
       <use x="190.869141" xlink:href="#DejaVuSans-48"/>
       <use x="254.492188" xlink:href="#DejaVuSans-48"/>
      </g>
     </g>
    </g>
    <g id="ytick_7">
     <g id="line2d_20">
      <g>
       <use style="stroke:#000000;stroke-width:0.8;" x="108" xlink:href="#ma8cec13095" y="272.213626"/>
      </g>
     </g>
     <g id="text_20">
      <!-- 12000 -->
      <g transform="translate(69.1875 276.012845)scale(0.1 -0.1)">
       <use xlink:href="#DejaVuSans-49"/>
       <use x="63.623047" xlink:href="#DejaVuSans-50"/>
       <use x="127.246094" xlink:href="#DejaVuSans-48"/>
       <use x="190.869141" xlink:href="#DejaVuSans-48"/>
       <use x="254.492188" xlink:href="#DejaVuSans-48"/>
      </g>
     </g>
    </g>
    <g id="ytick_8">
     <g id="line2d_21">
      <g>
       <use style="stroke:#000000;stroke-width:0.8;" x="108" xlink:href="#ma8cec13095" y="189.422564"/>
      </g>
     </g>
     <g id="text_21">
      <!-- 14000 -->
      <g transform="translate(69.1875 193.221782)scale(0.1 -0.1)">
       <use xlink:href="#DejaVuSans-49"/>
       <use x="63.623047" xlink:href="#DejaVuSans-52"/>
       <use x="127.246094" xlink:href="#DejaVuSans-48"/>
       <use x="190.869141" xlink:href="#DejaVuSans-48"/>
       <use x="254.492188" xlink:href="#DejaVuSans-48"/>
      </g>
     </g>
    </g>
    <g id="ytick_9">
     <g id="line2d_22">
      <g>
       <use style="stroke:#000000;stroke-width:0.8;" x="108" xlink:href="#ma8cec13095" y="106.631501"/>
      </g>
     </g>
     <g id="text_22">
      <!-- 16000 -->
      <g transform="translate(69.1875 110.43072)scale(0.1 -0.1)">
       <use xlink:href="#DejaVuSans-49"/>
       <use x="63.623047" xlink:href="#DejaVuSans-54"/>
       <use x="127.246094" xlink:href="#DejaVuSans-48"/>
       <use x="190.869141" xlink:href="#DejaVuSans-48"/>
       <use x="254.492188" xlink:href="#DejaVuSans-48"/>
      </g>
     </g>
    </g>
    <g id="text_23">
     <!-- Fraction of mRNA genes covered by tissue -->
     <defs>
      <path id="DejaVuSans-32"/>
      <path d="M 37.109375 75.984375 
L 37.109375 68.5 
L 28.515625 68.5 
Q 23.6875 68.5 21.796875 66.546875 
Q 19.921875 64.59375 19.921875 59.515625 
L 19.921875 54.6875 
L 34.71875 54.6875 
L 34.71875 47.703125 
L 19.921875 47.703125 
L 19.921875 0 
L 10.890625 0 
L 10.890625 47.703125 
L 2.296875 47.703125 
L 2.296875 54.6875 
L 10.890625 54.6875 
L 10.890625 58.5 
Q 10.890625 67.625 15.140625 71.796875 
Q 19.390625 75.984375 28.609375 75.984375 
z
" id="DejaVuSans-102"/>
      <path d="M 9.8125 72.90625 
L 23.09375 72.90625 
L 55.421875 11.921875 
L 55.421875 72.90625 
L 64.984375 72.90625 
L 64.984375 0 
L 51.703125 0 
L 19.390625 60.984375 
L 19.390625 0 
L 9.8125 0 
z
" id="DejaVuSans-78"/>
      <path d="M 34.1875 63.1875 
L 20.796875 26.90625 
L 47.609375 26.90625 
z
M 28.609375 72.90625 
L 39.796875 72.90625 
L 67.578125 0 
L 57.328125 0 
L 50.6875 18.703125 
L 17.828125 18.703125 
L 11.1875 0 
L 0.78125 0 
z
" id="DejaVuSans-65"/>
      <path d="M 48.6875 27.296875 
Q 48.6875 37.203125 44.609375 42.84375 
Q 40.53125 48.484375 33.40625 48.484375 
Q 26.265625 48.484375 22.1875 42.84375 
Q 18.109375 37.203125 18.109375 27.296875 
Q 18.109375 17.390625 22.1875 11.75 
Q 26.265625 6.109375 33.40625 6.109375 
Q 40.53125 6.109375 44.609375 11.75 
Q 48.6875 17.390625 48.6875 27.296875 
z
M 18.109375 46.390625 
Q 20.953125 51.265625 25.265625 53.625 
Q 29.59375 56 35.59375 56 
Q 45.5625 56 51.78125 48.09375 
Q 58.015625 40.1875 58.015625 27.296875 
Q 58.015625 14.40625 51.78125 6.484375 
Q 45.5625 -1.421875 35.59375 -1.421875 
Q 29.59375 -1.421875 25.265625 0.953125 
Q 20.953125 3.328125 18.109375 8.203125 
L 18.109375 0 
L 9.078125 0 
L 9.078125 75.984375 
L 18.109375 75.984375 
z
" id="DejaVuSans-98"/>
     </defs>
     <g transform="translate(60.612187 670.319219)rotate(-90)scale(0.22 -0.22)">
      <use xlink:href="#DejaVuSans-70"/>
      <use x="57.410156" xlink:href="#DejaVuSans-114"/>
      <use x="98.523438" xlink:href="#DejaVuSans-97"/>
      <use x="159.802734" xlink:href="#DejaVuSans-99"/>
      <use x="214.783203" xlink:href="#DejaVuSans-116"/>
      <use x="253.992188" xlink:href="#DejaVuSans-105"/>
      <use x="281.775391" xlink:href="#DejaVuSans-111"/>
      <use x="342.957031" xlink:href="#DejaVuSans-110"/>
      <use x="406.335938" xlink:href="#DejaVuSans-32"/>
      <use x="438.123047" xlink:href="#DejaVuSans-111"/>
      <use x="499.304688" xlink:href="#DejaVuSans-102"/>
      <use x="534.509766" xlink:href="#DejaVuSans-32"/>
      <use x="566.296875" xlink:href="#DejaVuSans-109"/>
      <use x="663.708984" xlink:href="#DejaVuSans-82"/>
      <use x="733.191406" xlink:href="#DejaVuSans-78"/>
      <use x="807.996094" xlink:href="#DejaVuSans-65"/>
      <use x="876.404297" xlink:href="#DejaVuSans-32"/>
      <use x="908.191406" xlink:href="#DejaVuSans-103"/>
      <use x="971.667969" xlink:href="#DejaVuSans-101"/>
      <use x="1033.191406" xlink:href="#DejaVuSans-110"/>
      <use x="1096.570312" xlink:href="#DejaVuSans-101"/>
      <use x="1158.09375" xlink:href="#DejaVuSans-115"/>
      <use x="1210.193359" xlink:href="#DejaVuSans-32"/>
      <use x="1241.980469" xlink:href="#DejaVuSans-99"/>
      <use x="1296.960938" xlink:href="#DejaVuSans-111"/>
      <use x="1358.142578" xlink:href="#DejaVuSans-118"/>
      <use x="1417.322266" xlink:href="#DejaVuSans-101"/>
      <use x="1478.845703" xlink:href="#DejaVuSans-114"/>
      <use x="1519.927734" xlink:href="#DejaVuSans-101"/>
      <use x="1581.451172" xlink:href="#DejaVuSans-100"/>
      <use x="1644.927734" xlink:href="#DejaVuSans-32"/>
      <use x="1676.714844" xlink:href="#DejaVuSans-98"/>
      <use x="1740.191406" xlink:href="#DejaVuSans-121"/>
      <use x="1799.371094" xlink:href="#DejaVuSans-32"/>
      <use x="1831.158203" xlink:href="#DejaVuSans-116"/>
      <use x="1870.367188" xlink:href="#DejaVuSans-105"/>
      <use x="1898.150391" xlink:href="#DejaVuSans-115"/>
      <use x="1950.25" xlink:href="#DejaVuSans-115"/>
      <use x="2002.349609" xlink:href="#DejaVuSans-117"/>
      <use x="2065.728516" xlink:href="#DejaVuSans-101"/>
     </g>
    </g>
   </g>
   <g id="text_24">
    <!-- TSS across tissues -->
    <defs>
     <path d="M -0.296875 72.90625 
L 61.375 72.90625 
L 61.375 64.59375 
L 35.5 64.59375 
L 35.5 0 
L 25.59375 0 
L 25.59375 64.59375 
L -0.296875 64.59375 
z
" id="DejaVuSans-84"/>
    </defs>
    <g transform="translate(341.325 97.68)scale(0.22 -0.22)">
     <use xlink:href="#DejaVuSans-84"/>
     <use x="61.083984" xlink:href="#DejaVuSans-83"/>
     <use x="124.560547" xlink:href="#DejaVuSans-83"/>
     <use x="188.037109" xlink:href="#DejaVuSans-32"/>
     <use x="219.824219" xlink:href="#DejaVuSans-97"/>
     <use x="281.103516" xlink:href="#DejaVuSans-99"/>
     <use x="336.083984" xlink:href="#DejaVuSans-114"/>
     <use x="377.166016" xlink:href="#DejaVuSans-111"/>
     <use x="438.347656" xlink:href="#DejaVuSans-115"/>
     <use x="490.447266" xlink:href="#DejaVuSans-115"/>
     <use x="542.546875" xlink:href="#DejaVuSans-32"/>
     <use x="574.333984" xlink:href="#DejaVuSans-116"/>
     <use x="613.542969" xlink:href="#DejaVuSans-105"/>
     <use x="641.326172" xlink:href="#DejaVuSans-115"/>
     <use x="693.425781" xlink:href="#DejaVuSans-115"/>
     <use x="745.525391" xlink:href="#DejaVuSans-117"/>
     <use x="808.904297" xlink:href="#DejaVuSans-101"/>
     <use x="870.427734" xlink:href="#DejaVuSans-115"/>
    </g>
   </g>
   <g id="legend_1">
    <g id="patch_107">
     <path d="M 768.382187 395.425 
L 871.04 395.425 
Q 873.04 395.425 873.04 393.425 
L 873.04 277 
Q 873.04 275 871.04 275 
L 768.382187 275 
Q 766.382187 275 766.382187 277 
L 766.382187 393.425 
Q 766.382187 395.425 768.382187 395.425 
z
" style="fill:#ffffff;opacity:0.8;stroke:#cccccc;stroke-linejoin:miter;"/>
    </g>
    <g id="line2d_23"/>
    <g id="line2d_24">
     <defs>
      <path d="M 0 3 
C 0.795609 3 1.55874 2.683901 2.12132 2.12132 
C 2.683901 1.55874 3 0.795609 3 0 
C 3 -0.795609 2.683901 -1.55874 2.12132 -2.12132 
C 1.55874 -2.683901 0.795609 -3 0 -3 
C -0.795609 -3 -1.55874 -2.683901 -2.12132 -2.12132 
C -2.683901 -1.55874 -3 -0.795609 -3 0 
C -3 0.795609 -2.683901 1.55874 -2.12132 2.12132 
C -1.55874 2.683901 -0.795609 3 0 3 
z
" id="m0318f2d73a" style="stroke:#d70000;"/>
     </defs>
     <g>
      <use style="fill:#d70000;stroke:#d70000;" x="780.382187" xlink:href="#m0318f2d73a" y="283.098437"/>
     </g>
    </g>
    <g id="text_25">
     <!-- &lt;= 1 tissues -->
     <defs>
      <path d="M 73.1875 49.21875 
L 22.796875 31.296875 
L 73.1875 13.484375 
L 73.1875 4.59375 
L 10.59375 27.296875 
L 10.59375 35.40625 
L 73.1875 58.109375 
z
" id="DejaVuSans-60"/>
      <path d="M 10.59375 45.40625 
L 73.1875 45.40625 
L 73.1875 37.203125 
L 10.59375 37.203125 
z
M 10.59375 25.484375 
L 73.1875 25.484375 
L 73.1875 17.1875 
L 10.59375 17.1875 
z
" id="DejaVuSans-61"/>
     </defs>
     <g transform="translate(798.382187 286.598437)scale(0.1 -0.1)">
      <use xlink:href="#DejaVuSans-60"/>
      <use x="83.789062" xlink:href="#DejaVuSans-61"/>
      <use x="167.578125" xlink:href="#DejaVuSans-32"/>
      <use x="199.365234" xlink:href="#DejaVuSans-49"/>
      <use x="262.988281" xlink:href="#DejaVuSans-32"/>
      <use x="294.775391" xlink:href="#DejaVuSans-116"/>
      <use x="333.984375" xlink:href="#DejaVuSans-105"/>
      <use x="361.767578" xlink:href="#DejaVuSans-115"/>
      <use x="413.867188" xlink:href="#DejaVuSans-115"/>
      <use x="465.966797" xlink:href="#DejaVuSans-117"/>
      <use x="529.345703" xlink:href="#DejaVuSans-101"/>
      <use x="590.869141" xlink:href="#DejaVuSans-115"/>
     </g>
    </g>
    <g id="line2d_25"/>
    <g id="line2d_26">
     <defs>
      <path d="M 0 3 
C 0.795609 3 1.55874 2.683901 2.12132 2.12132 
C 2.683901 1.55874 3 0.795609 3 0 
C 3 -0.795609 2.683901 -1.55874 2.12132 -2.12132 
C 1.55874 -2.683901 0.795609 -3 0 -3 
C -0.795609 -3 -1.55874 -2.683901 -2.12132 -2.12132 
C -2.683901 -1.55874 -3 -0.795609 -3 0 
C -3 0.795609 -2.683901 1.55874 -2.12132 2.12132 
C -1.55874 2.683901 -0.795609 3 0 3 
z
" id="m4d58be3cbe" style="stroke:#8c3cff;"/>
     </defs>
     <g>
      <use style="fill:#8c3cff;stroke:#8c3cff;" x="780.382187" xlink:href="#m4d58be3cbe" y="297.776562"/>
     </g>
    </g>
    <g id="text_26">
     <!-- &lt;= 3 tissues -->
     <defs>
      <path d="M 40.578125 39.3125 
Q 47.65625 37.796875 51.625 33 
Q 55.609375 28.21875 55.609375 21.1875 
Q 55.609375 10.40625 48.1875 4.484375 
Q 40.765625 -1.421875 27.09375 -1.421875 
Q 22.515625 -1.421875 17.65625 -0.515625 
Q 12.796875 0.390625 7.625 2.203125 
L 7.625 11.71875 
Q 11.71875 9.328125 16.59375 8.109375 
Q 21.484375 6.890625 26.8125 6.890625 
Q 36.078125 6.890625 40.9375 10.546875 
Q 45.796875 14.203125 45.796875 21.1875 
Q 45.796875 27.640625 41.28125 31.265625 
Q 36.765625 34.90625 28.71875 34.90625 
L 20.21875 34.90625 
L 20.21875 43.015625 
L 29.109375 43.015625 
Q 36.375 43.015625 40.234375 45.921875 
Q 44.09375 48.828125 44.09375 54.296875 
Q 44.09375 59.90625 40.109375 62.90625 
Q 36.140625 65.921875 28.71875 65.921875 
Q 24.65625 65.921875 20.015625 65.03125 
Q 15.375 64.15625 9.8125 62.3125 
L 9.8125 71.09375 
Q 15.4375 72.65625 20.34375 73.4375 
Q 25.25 74.21875 29.59375 74.21875 
Q 40.828125 74.21875 47.359375 69.109375 
Q 53.90625 64.015625 53.90625 55.328125 
Q 53.90625 49.265625 50.4375 45.09375 
Q 46.96875 40.921875 40.578125 39.3125 
z
" id="DejaVuSans-51"/>
     </defs>
     <g transform="translate(798.382187 301.276562)scale(0.1 -0.1)">
      <use xlink:href="#DejaVuSans-60"/>
      <use x="83.789062" xlink:href="#DejaVuSans-61"/>
      <use x="167.578125" xlink:href="#DejaVuSans-32"/>
      <use x="199.365234" xlink:href="#DejaVuSans-51"/>
      <use x="262.988281" xlink:href="#DejaVuSans-32"/>
      <use x="294.775391" xlink:href="#DejaVuSans-116"/>
      <use x="333.984375" xlink:href="#DejaVuSans-105"/>
      <use x="361.767578" xlink:href="#DejaVuSans-115"/>
      <use x="413.867188" xlink:href="#DejaVuSans-115"/>
      <use x="465.966797" xlink:href="#DejaVuSans-117"/>
      <use x="529.345703" xlink:href="#DejaVuSans-101"/>
      <use x="590.869141" xlink:href="#DejaVuSans-115"/>
     </g>
    </g>
    <g id="line2d_27"/>
    <g id="line2d_28">
     <defs>
      <path d="M 0 3 
C 0.795609 3 1.55874 2.683901 2.12132 2.12132 
C 2.683901 1.55874 3 0.795609 3 0 
C 3 -0.795609 2.683901 -1.55874 2.12132 -2.12132 
C 1.55874 -2.683901 0.795609 -3 0 -3 
C -0.795609 -3 -1.55874 -2.683901 -2.12132 -2.12132 
C -2.683901 -1.55874 -3 -0.795609 -3 0 
C -3 0.795609 -2.683901 1.55874 -2.12132 2.12132 
C -1.55874 2.683901 -0.795609 3 0 3 
z
" id="m95c39e5a5b" style="stroke:#028800;"/>
     </defs>
     <g>
      <use style="fill:#028800;stroke:#028800;" x="780.382187" xlink:href="#m95c39e5a5b" y="312.454687"/>
     </g>
    </g>
    <g id="text_27">
     <!-- &lt;= 5 tissues -->
     <defs>
      <path d="M 10.796875 72.90625 
L 49.515625 72.90625 
L 49.515625 64.59375 
L 19.828125 64.59375 
L 19.828125 46.734375 
Q 21.96875 47.46875 24.109375 47.828125 
Q 26.265625 48.1875 28.421875 48.1875 
Q 40.625 48.1875 47.75 41.5 
Q 54.890625 34.8125 54.890625 23.390625 
Q 54.890625 11.625 47.5625 5.09375 
Q 40.234375 -1.421875 26.90625 -1.421875 
Q 22.3125 -1.421875 17.546875 -0.640625 
Q 12.796875 0.140625 7.71875 1.703125 
L 7.71875 11.625 
Q 12.109375 9.234375 16.796875 8.0625 
Q 21.484375 6.890625 26.703125 6.890625 
Q 35.15625 6.890625 40.078125 11.328125 
Q 45.015625 15.765625 45.015625 23.390625 
Q 45.015625 31 40.078125 35.4375 
Q 35.15625 39.890625 26.703125 39.890625 
Q 22.75 39.890625 18.8125 39.015625 
Q 14.890625 38.140625 10.796875 36.28125 
z
" id="DejaVuSans-53"/>
     </defs>
     <g transform="translate(798.382187 315.954687)scale(0.1 -0.1)">
      <use xlink:href="#DejaVuSans-60"/>
      <use x="83.789062" xlink:href="#DejaVuSans-61"/>
      <use x="167.578125" xlink:href="#DejaVuSans-32"/>
      <use x="199.365234" xlink:href="#DejaVuSans-53"/>
      <use x="262.988281" xlink:href="#DejaVuSans-32"/>
      <use x="294.775391" xlink:href="#DejaVuSans-116"/>
      <use x="333.984375" xlink:href="#DejaVuSans-105"/>
      <use x="361.767578" xlink:href="#DejaVuSans-115"/>
      <use x="413.867188" xlink:href="#DejaVuSans-115"/>
      <use x="465.966797" xlink:href="#DejaVuSans-117"/>
      <use x="529.345703" xlink:href="#DejaVuSans-101"/>
      <use x="590.869141" xlink:href="#DejaVuSans-115"/>
     </g>
    </g>
    <g id="line2d_29"/>
    <g id="line2d_30">
     <defs>
      <path d="M 0 3 
C 0.795609 3 1.55874 2.683901 2.12132 2.12132 
C 2.683901 1.55874 3 0.795609 3 0 
C 3 -0.795609 2.683901 -1.55874 2.12132 -2.12132 
C 1.55874 -2.683901 0.795609 -3 0 -3 
C -0.795609 -3 -1.55874 -2.683901 -2.12132 -2.12132 
C -2.683901 -1.55874 -3 -0.795609 -3 0 
C -3 0.795609 -2.683901 1.55874 -2.12132 2.12132 
C -1.55874 2.683901 -0.795609 3 0 3 
z
" id="mf18e09c7c0" style="stroke:#00acc7;"/>
     </defs>
     <g>
      <use style="fill:#00acc7;stroke:#00acc7;" x="780.382187" xlink:href="#mf18e09c7c0" y="327.132812"/>
     </g>
    </g>
    <g id="text_28">
     <!-- &lt;= 7 tissues -->
     <defs>
      <path d="M 8.203125 72.90625 
L 55.078125 72.90625 
L 55.078125 68.703125 
L 28.609375 0 
L 18.3125 0 
L 43.21875 64.59375 
L 8.203125 64.59375 
z
" id="DejaVuSans-55"/>
     </defs>
     <g transform="translate(798.382187 330.632812)scale(0.1 -0.1)">
      <use xlink:href="#DejaVuSans-60"/>
      <use x="83.789062" xlink:href="#DejaVuSans-61"/>
      <use x="167.578125" xlink:href="#DejaVuSans-32"/>
      <use x="199.365234" xlink:href="#DejaVuSans-55"/>
      <use x="262.988281" xlink:href="#DejaVuSans-32"/>
      <use x="294.775391" xlink:href="#DejaVuSans-116"/>
      <use x="333.984375" xlink:href="#DejaVuSans-105"/>
      <use x="361.767578" xlink:href="#DejaVuSans-115"/>
      <use x="413.867188" xlink:href="#DejaVuSans-115"/>
      <use x="465.966797" xlink:href="#DejaVuSans-117"/>
      <use x="529.345703" xlink:href="#DejaVuSans-101"/>
      <use x="590.869141" xlink:href="#DejaVuSans-115"/>
     </g>
    </g>
    <g id="line2d_31"/>
    <g id="line2d_32">
     <defs>
      <path d="M 0 3 
C 0.795609 3 1.55874 2.683901 2.12132 2.12132 
C 2.683901 1.55874 3 0.795609 3 0 
C 3 -0.795609 2.683901 -1.55874 2.12132 -2.12132 
C 1.55874 -2.683901 0.795609 -3 0 -3 
C -0.795609 -3 -1.55874 -2.683901 -2.12132 -2.12132 
C -2.683901 -1.55874 -3 -0.795609 -3 0 
C -3 0.795609 -2.683901 1.55874 -2.12132 2.12132 
C -1.55874 2.683901 -0.795609 3 0 3 
z
" id="m50606e34c7" style="stroke:#98ff00;"/>
     </defs>
     <g>
      <use style="fill:#98ff00;stroke:#98ff00;" x="780.382187" xlink:href="#m50606e34c7" y="341.810937"/>
     </g>
    </g>
    <g id="text_29">
     <!-- &lt;= 9 tissues -->
     <defs>
      <path d="M 10.984375 1.515625 
L 10.984375 10.5 
Q 14.703125 8.734375 18.5 7.8125 
Q 22.3125 6.890625 25.984375 6.890625 
Q 35.75 6.890625 40.890625 13.453125 
Q 46.046875 20.015625 46.78125 33.40625 
Q 43.953125 29.203125 39.59375 26.953125 
Q 35.25 24.703125 29.984375 24.703125 
Q 19.046875 24.703125 12.671875 31.3125 
Q 6.296875 37.9375 6.296875 49.421875 
Q 6.296875 60.640625 12.9375 67.421875 
Q 19.578125 74.21875 30.609375 74.21875 
Q 43.265625 74.21875 49.921875 64.515625 
Q 56.59375 54.828125 56.59375 36.375 
Q 56.59375 19.140625 48.40625 8.859375 
Q 40.234375 -1.421875 26.421875 -1.421875 
Q 22.703125 -1.421875 18.890625 -0.6875 
Q 15.09375 0.046875 10.984375 1.515625 
z
M 30.609375 32.421875 
Q 37.25 32.421875 41.125 36.953125 
Q 45.015625 41.5 45.015625 49.421875 
Q 45.015625 57.28125 41.125 61.84375 
Q 37.25 66.40625 30.609375 66.40625 
Q 23.96875 66.40625 20.09375 61.84375 
Q 16.21875 57.28125 16.21875 49.421875 
Q 16.21875 41.5 20.09375 36.953125 
Q 23.96875 32.421875 30.609375 32.421875 
z
" id="DejaVuSans-57"/>
     </defs>
     <g transform="translate(798.382187 345.310937)scale(0.1 -0.1)">
      <use xlink:href="#DejaVuSans-60"/>
      <use x="83.789062" xlink:href="#DejaVuSans-61"/>
      <use x="167.578125" xlink:href="#DejaVuSans-32"/>
      <use x="199.365234" xlink:href="#DejaVuSans-57"/>
      <use x="262.988281" xlink:href="#DejaVuSans-32"/>
      <use x="294.775391" xlink:href="#DejaVuSans-116"/>
      <use x="333.984375" xlink:href="#DejaVuSans-105"/>
      <use x="361.767578" xlink:href="#DejaVuSans-115"/>
      <use x="413.867188" xlink:href="#DejaVuSans-115"/>
      <use x="465.966797" xlink:href="#DejaVuSans-117"/>
      <use x="529.345703" xlink:href="#DejaVuSans-101"/>
      <use x="590.869141" xlink:href="#DejaVuSans-115"/>
     </g>
    </g>
    <g id="line2d_33"/>
    <g id="line2d_34">
     <defs>
      <path d="M 0 3 
C 0.795609 3 1.55874 2.683901 2.12132 2.12132 
C 2.683901 1.55874 3 0.795609 3 0 
C 3 -0.795609 2.683901 -1.55874 2.12132 -2.12132 
C 1.55874 -2.683901 0.795609 -3 0 -3 
C -0.795609 -3 -1.55874 -2.683901 -2.12132 -2.12132 
C -2.683901 -1.55874 -3 -0.795609 -3 0 
C -3 0.795609 -2.683901 1.55874 -2.12132 2.12132 
C -1.55874 2.683901 -0.795609 3 0 3 
z
" id="mf1904df5ca" style="stroke:#ff7fd1;"/>
     </defs>
     <g>
      <use style="fill:#ff7fd1;stroke:#ff7fd1;" x="780.382187" xlink:href="#mf1904df5ca" y="356.489062"/>
     </g>
    </g>
    <g id="text_30">
     <!-- &lt;= 11 tissues -->
     <g transform="translate(798.382187 359.989062)scale(0.1 -0.1)">
      <use xlink:href="#DejaVuSans-60"/>
      <use x="83.789062" xlink:href="#DejaVuSans-61"/>
      <use x="167.578125" xlink:href="#DejaVuSans-32"/>
      <use x="199.365234" xlink:href="#DejaVuSans-49"/>
      <use x="262.988281" xlink:href="#DejaVuSans-49"/>
      <use x="326.611328" xlink:href="#DejaVuSans-32"/>
      <use x="358.398438" xlink:href="#DejaVuSans-116"/>
      <use x="397.607422" xlink:href="#DejaVuSans-105"/>
      <use x="425.390625" xlink:href="#DejaVuSans-115"/>
      <use x="477.490234" xlink:href="#DejaVuSans-115"/>
      <use x="529.589844" xlink:href="#DejaVuSans-117"/>
      <use x="592.96875" xlink:href="#DejaVuSans-101"/>
      <use x="654.492188" xlink:href="#DejaVuSans-115"/>
     </g>
    </g>
    <g id="line2d_35"/>
    <g id="line2d_36">
     <defs>
      <path d="M 0 3 
C 0.795609 3 1.55874 2.683901 2.12132 2.12132 
C 2.683901 1.55874 3 0.795609 3 0 
C 3 -0.795609 2.683901 -1.55874 2.12132 -2.12132 
C 1.55874 -2.683901 0.795609 -3 0 -3 
C -0.795609 -3 -1.55874 -2.683901 -2.12132 -2.12132 
C -2.683901 -1.55874 -3 -0.795609 -3 0 
C -3 0.795609 -2.683901 1.55874 -2.12132 2.12132 
C -1.55874 2.683901 -0.795609 3 0 3 
z
" id="mb4dc141510" style="stroke:#6c004f;"/>
     </defs>
     <g>
      <use style="fill:#6c004f;stroke:#6c004f;" x="780.382187" xlink:href="#mb4dc141510" y="371.167187"/>
     </g>
    </g>
    <g id="text_31">
     <!-- &lt;= 13 tissues -->
     <g transform="translate(798.382187 374.667187)scale(0.1 -0.1)">
      <use xlink:href="#DejaVuSans-60"/>
      <use x="83.789062" xlink:href="#DejaVuSans-61"/>
      <use x="167.578125" xlink:href="#DejaVuSans-32"/>
      <use x="199.365234" xlink:href="#DejaVuSans-49"/>
      <use x="262.988281" xlink:href="#DejaVuSans-51"/>
      <use x="326.611328" xlink:href="#DejaVuSans-32"/>
      <use x="358.398438" xlink:href="#DejaVuSans-116"/>
      <use x="397.607422" xlink:href="#DejaVuSans-105"/>
      <use x="425.390625" xlink:href="#DejaVuSans-115"/>
      <use x="477.490234" xlink:href="#DejaVuSans-115"/>
      <use x="529.589844" xlink:href="#DejaVuSans-117"/>
      <use x="592.96875" xlink:href="#DejaVuSans-101"/>
      <use x="654.492188" xlink:href="#DejaVuSans-115"/>
     </g>
    </g>
    <g id="line2d_37"/>
    <g id="line2d_38">
     <defs>
      <path d="M 0 3 
C 0.795609 3 1.55874 2.683901 2.12132 2.12132 
C 2.683901 1.55874 3 0.795609 3 0 
C 3 -0.795609 2.683901 -1.55874 2.12132 -2.12132 
C 1.55874 -2.683901 0.795609 -3 0 -3 
C -0.795609 -3 -1.55874 -2.683901 -2.12132 -2.12132 
C -2.683901 -1.55874 -3 -0.795609 -3 0 
C -3 0.795609 -2.683901 1.55874 -2.12132 2.12132 
C -1.55874 2.683901 -0.795609 3 0 3 
z
" id="m2b02089808" style="stroke:#ffa530;"/>
     </defs>
     <g>
      <use style="fill:#ffa530;stroke:#ffa530;" x="780.382187" xlink:href="#m2b02089808" y="385.845312"/>
     </g>
    </g>
    <g id="text_32">
     <!-- Overall -->
     <g transform="translate(798.382187 389.345312)scale(0.1 -0.1)">
      <use xlink:href="#DejaVuSans-79"/>
      <use x="78.710938" xlink:href="#DejaVuSans-118"/>
      <use x="137.890625" xlink:href="#DejaVuSans-101"/>
      <use x="199.414062" xlink:href="#DejaVuSans-114"/>
      <use x="240.527344" xlink:href="#DejaVuSans-97"/>
      <use x="301.806641" xlink:href="#DejaVuSans-108"/>
      <use x="329.589844" xlink:href="#DejaVuSans-108"/>
     </g>
    </g>
   </g>
  </g>
  <g id="axes_2">
   <g id="matplotlib.axis_3">
    <g id="ytick_10">
     <g id="line2d_39">
      <defs>
       <path d="M 0 0 
L 3.5 0 
" id="m5e299011a7" style="stroke:#000000;stroke-width:0.8;"/>
      </defs>
      <g>
       <use style="stroke:#000000;stroke-width:0.8;" x="777.6" xlink:href="#m5e299011a7" y="768.96"/>
      </g>
     </g>
     <g id="text_33">
      <!-- 0.00 -->
      <defs>
       <path d="M 10.6875 12.40625 
L 21 12.40625 
L 21 0 
L 10.6875 0 
z
" id="DejaVuSans-46"/>
      </defs>
      <g transform="translate(784.6 772.759219)scale(0.1 -0.1)">
       <use xlink:href="#DejaVuSans-48"/>
       <use x="63.623047" xlink:href="#DejaVuSans-46"/>
       <use x="95.410156" xlink:href="#DejaVuSans-48"/>
       <use x="159.033203" xlink:href="#DejaVuSans-48"/>
      </g>
     </g>
    </g>
    <g id="ytick_11">
     <g id="line2d_40">
      <g>
       <use style="stroke:#000000;stroke-width:0.8;" x="777.6" xlink:href="#m5e299011a7" y="686.168938"/>
      </g>
     </g>
     <g id="text_34">
      <!-- 0.09 -->
      <g transform="translate(784.6 689.968156)scale(0.1 -0.1)">
       <use xlink:href="#DejaVuSans-48"/>
       <use x="63.623047" xlink:href="#DejaVuSans-46"/>
       <use x="95.410156" xlink:href="#DejaVuSans-48"/>
       <use x="159.033203" xlink:href="#DejaVuSans-57"/>
      </g>
     </g>
    </g>
    <g id="ytick_12">
     <g id="line2d_41">
      <g>
       <use style="stroke:#000000;stroke-width:0.8;" x="777.6" xlink:href="#m5e299011a7" y="603.377875"/>
      </g>
     </g>
     <g id="text_35">
      <!-- 0.19 -->
      <g transform="translate(784.6 607.177094)scale(0.1 -0.1)">
       <use xlink:href="#DejaVuSans-48"/>
       <use x="63.623047" xlink:href="#DejaVuSans-46"/>
       <use x="95.410156" xlink:href="#DejaVuSans-49"/>
       <use x="159.033203" xlink:href="#DejaVuSans-57"/>
      </g>
     </g>
    </g>
    <g id="ytick_13">
     <g id="line2d_42">
      <g>
       <use style="stroke:#000000;stroke-width:0.8;" x="777.6" xlink:href="#m5e299011a7" y="520.586813"/>
      </g>
     </g>
     <g id="text_36">
      <!-- 0.28 -->
      <g transform="translate(784.6 524.386032)scale(0.1 -0.1)">
       <use xlink:href="#DejaVuSans-48"/>
       <use x="63.623047" xlink:href="#DejaVuSans-46"/>
       <use x="95.410156" xlink:href="#DejaVuSans-50"/>
       <use x="159.033203" xlink:href="#DejaVuSans-56"/>
      </g>
     </g>
    </g>
    <g id="ytick_14">
     <g id="line2d_43">
      <g>
       <use style="stroke:#000000;stroke-width:0.8;" x="777.6" xlink:href="#m5e299011a7" y="437.795751"/>
      </g>
     </g>
     <g id="text_37">
      <!-- 0.37 -->
      <g transform="translate(784.6 441.594969)scale(0.1 -0.1)">
       <use xlink:href="#DejaVuSans-48"/>
       <use x="63.623047" xlink:href="#DejaVuSans-46"/>
       <use x="95.410156" xlink:href="#DejaVuSans-51"/>
       <use x="159.033203" xlink:href="#DejaVuSans-55"/>
      </g>
     </g>
    </g>
    <g id="ytick_15">
     <g id="line2d_44">
      <g>
       <use style="stroke:#000000;stroke-width:0.8;" x="777.6" xlink:href="#m5e299011a7" y="355.004688"/>
      </g>
     </g>
     <g id="text_38">
      <!-- 0.47 -->
      <g transform="translate(784.6 358.803907)scale(0.1 -0.1)">
       <use xlink:href="#DejaVuSans-48"/>
       <use x="63.623047" xlink:href="#DejaVuSans-46"/>
       <use x="95.410156" xlink:href="#DejaVuSans-52"/>
       <use x="159.033203" xlink:href="#DejaVuSans-55"/>
      </g>
     </g>
    </g>
    <g id="ytick_16">
     <g id="line2d_45">
      <g>
       <use style="stroke:#000000;stroke-width:0.8;" x="777.6" xlink:href="#m5e299011a7" y="272.213626"/>
      </g>
     </g>
     <g id="text_39">
      <!-- 0.56 -->
      <g transform="translate(784.6 276.012845)scale(0.1 -0.1)">
       <use xlink:href="#DejaVuSans-48"/>
       <use x="63.623047" xlink:href="#DejaVuSans-46"/>
       <use x="95.410156" xlink:href="#DejaVuSans-53"/>
       <use x="159.033203" xlink:href="#DejaVuSans-54"/>
      </g>
     </g>
    </g>
    <g id="ytick_17">
     <g id="line2d_46">
      <g>
       <use style="stroke:#000000;stroke-width:0.8;" x="777.6" xlink:href="#m5e299011a7" y="189.422564"/>
      </g>
     </g>
     <g id="text_40">
      <!-- 0.65 -->
      <g transform="translate(784.6 193.221782)scale(0.1 -0.1)">
       <use xlink:href="#DejaVuSans-48"/>
       <use x="63.623047" xlink:href="#DejaVuSans-46"/>
       <use x="95.410156" xlink:href="#DejaVuSans-54"/>
       <use x="159.033203" xlink:href="#DejaVuSans-53"/>
      </g>
     </g>
    </g>
    <g id="ytick_18">
     <g id="line2d_47">
      <g>
       <use style="stroke:#000000;stroke-width:0.8;" x="777.6" xlink:href="#m5e299011a7" y="106.631501"/>
      </g>
     </g>
     <g id="text_41">
      <!-- 0.75 -->
      <g transform="translate(784.6 110.43072)scale(0.1 -0.1)">
       <use xlink:href="#DejaVuSans-48"/>
       <use x="63.623047" xlink:href="#DejaVuSans-46"/>
       <use x="95.410156" xlink:href="#DejaVuSans-55"/>
       <use x="159.033203" xlink:href="#DejaVuSans-53"/>
      </g>
     </g>
    </g>
   </g>
  </g>
 </g>
 <defs>
  <clipPath id="pc6e98ee477">
   <rect height="665.28" width="669.6" x="108" y="103.68"/>
  </clipPath>
 </defs>
</svg>
