<?xml version="1.0" encoding="utf-8" standalone="no"?>
<!DOCTYPE svg PUBLIC "-//W3C//DTD SVG 1.1//EN"
  "http://www.w3.org/Graphics/SVG/1.1/DTD/svg11.dtd">
<!-- Created with matplotlib (https://matplotlib.org/) -->
<svg height="432pt" version="1.1" viewBox="0 0 576 432" width="576pt" xmlns="http://www.w3.org/2000/svg" xmlns:xlink="http://www.w3.org/1999/xlink">
 <defs>
  <style type="text/css">
*{stroke-linecap:butt;stroke-linejoin:round;}
  </style>
 </defs>
 <g id="figure_1">
  <g id="patch_1">
   <path d="M 0 432 
L 576 432 
L 576 0 
L 0 0 
z
" style="fill:#f0f0f0;"/>
  </g>
  <g id="axes_1">
   <g id="patch_2">
    <path d="M 46.08 210.894545 
L 273.861818 210.894545 
L 273.861818 51.84 
L 46.08 51.84 
z
" style="fill:#ffffff;"/>
   </g>
   <g id="matplotlib.axis_1">
    <g id="xtick_1">
     <g id="line2d_1">
      <path clip-path="url(#pa3b6cbe580)" d="M 56.433719 210.894545 
L 56.433719 51.84 
" style="fill:none;stroke:#ffffff;"/>
     </g>
     <g id="line2d_2"/>
     <g id="text_1">
      <!-- −100 -->
      <defs>
       <path d="M 10.59375 35.5 
L 73.1875 35.5 
L 73.1875 27.203125 
L 10.59375 27.203125 
z
" id="DejaVuSans-8722"/>
       <path d="M 12.40625 8.296875 
L 28.515625 8.296875 
L 28.515625 63.921875 
L 10.984375 60.40625 
L 10.984375 69.390625 
L 28.421875 72.90625 
L 38.28125 72.90625 
L 38.28125 8.296875 
L 54.390625 8.296875 
L 54.390625 0 
L 12.40625 0 
z
" id="DejaVuSans-49"/>
       <path d="M 31.78125 66.40625 
Q 24.171875 66.40625 20.328125 58.90625 
Q 16.5 51.421875 16.5 36.375 
Q 16.5 21.390625 20.328125 13.890625 
Q 24.171875 6.390625 31.78125 6.390625 
Q 39.453125 6.390625 43.28125 13.890625 
Q 47.125 21.390625 47.125 36.375 
Q 47.125 51.421875 43.28125 58.90625 
Q 39.453125 66.40625 31.78125 66.40625 
z
M 31.78125 74.21875 
Q 44.046875 74.21875 50.515625 64.515625 
Q 56.984375 54.828125 56.984375 36.375 
Q 56.984375 17.96875 50.515625 8.265625 
Q 44.046875 -1.421875 31.78125 -1.421875 
Q 19.53125 -1.421875 13.0625 8.265625 
Q 6.59375 17.96875 6.59375 36.375 
Q 6.59375 54.828125 13.0625 64.515625 
Q 19.53125 74.21875 31.78125 74.21875 
z
" id="DejaVuSans-48"/>
      </defs>
      <g style="fill:#555555;" transform="translate(42.700125 221.992983)scale(0.1 -0.1)">
       <use xlink:href="#DejaVuSans-8722"/>
       <use x="83.789062" xlink:href="#DejaVuSans-49"/>
       <use x="147.412109" xlink:href="#DejaVuSans-48"/>
       <use x="211.035156" xlink:href="#DejaVuSans-48"/>
      </g>
     </g>
    </g>
    <g id="xtick_2">
     <g id="line2d_3">
      <path clip-path="url(#pa3b6cbe580)" d="M 108.202314 210.894545 
L 108.202314 51.84 
" style="fill:none;stroke:#ffffff;"/>
     </g>
     <g id="line2d_4"/>
     <g id="text_2">
      <!-- −50 -->
      <defs>
       <path d="M 10.796875 72.90625 
L 49.515625 72.90625 
L 49.515625 64.59375 
L 19.828125 64.59375 
L 19.828125 46.734375 
Q 21.96875 47.46875 24.109375 47.828125 
Q 26.265625 48.1875 28.421875 48.1875 
Q 40.625 48.1875 47.75 41.5 
Q 54.890625 34.8125 54.890625 23.390625 
Q 54.890625 11.625 47.5625 5.09375 
Q 40.234375 -1.421875 26.90625 -1.421875 
Q 22.3125 -1.421875 17.546875 -0.640625 
Q 12.796875 0.140625 7.71875 1.703125 
L 7.71875 11.625 
Q 12.109375 9.234375 16.796875 8.0625 
Q 21.484375 6.890625 26.703125 6.890625 
Q 35.15625 6.890625 40.078125 11.328125 
Q 45.015625 15.765625 45.015625 23.390625 
Q 45.015625 31 40.078125 35.4375 
Q 35.15625 39.890625 26.703125 39.890625 
Q 22.75 39.890625 18.8125 39.015625 
Q 14.890625 38.140625 10.796875 36.28125 
z
" id="DejaVuSans-53"/>
      </defs>
      <g style="fill:#555555;" transform="translate(97.64997 221.992983)scale(0.1 -0.1)">
       <use xlink:href="#DejaVuSans-8722"/>
       <use x="83.789062" xlink:href="#DejaVuSans-53"/>
       <use x="147.412109" xlink:href="#DejaVuSans-48"/>
      </g>
     </g>
    </g>
    <g id="xtick_3">
     <g id="line2d_5">
      <path clip-path="url(#pa3b6cbe580)" d="M 159.970909 210.894545 
L 159.970909 51.84 
" style="fill:none;stroke:#ffffff;"/>
     </g>
     <g id="line2d_6"/>
     <g id="text_3">
      <!-- 0 -->
      <g style="fill:#555555;" transform="translate(156.789659 221.992983)scale(0.1 -0.1)">
       <use xlink:href="#DejaVuSans-48"/>
      </g>
     </g>
    </g>
    <g id="xtick_4">
     <g id="line2d_7">
      <path clip-path="url(#pa3b6cbe580)" d="M 211.739504 210.894545 
L 211.739504 51.84 
" style="fill:none;stroke:#ffffff;"/>
     </g>
     <g id="line2d_8"/>
     <g id="text_4">
      <!-- 50 -->
      <g style="fill:#555555;" transform="translate(205.377004 221.992983)scale(0.1 -0.1)">
       <use xlink:href="#DejaVuSans-53"/>
       <use x="63.623047" xlink:href="#DejaVuSans-48"/>
      </g>
     </g>
    </g>
    <g id="xtick_5">
     <g id="line2d_9">
      <path clip-path="url(#pa3b6cbe580)" d="M 263.508099 210.894545 
L 263.508099 51.84 
" style="fill:none;stroke:#ffffff;"/>
     </g>
     <g id="line2d_10"/>
     <g id="text_5">
      <!-- 100 -->
      <g style="fill:#555555;" transform="translate(253.964349 221.992983)scale(0.1 -0.1)">
       <use xlink:href="#DejaVuSans-49"/>
       <use x="63.623047" xlink:href="#DejaVuSans-48"/>
       <use x="127.246094" xlink:href="#DejaVuSans-48"/>
      </g>
     </g>
    </g>
    <g id="text_6">
     <!-- bp from TSS -->
     <defs>
      <path d="M 48.6875 27.296875 
Q 48.6875 37.203125 44.609375 42.84375 
Q 40.53125 48.484375 33.40625 48.484375 
Q 26.265625 48.484375 22.1875 42.84375 
Q 18.109375 37.203125 18.109375 27.296875 
Q 18.109375 17.390625 22.1875 11.75 
Q 26.265625 6.109375 33.40625 6.109375 
Q 40.53125 6.109375 44.609375 11.75 
Q 48.6875 17.390625 48.6875 27.296875 
z
M 18.109375 46.390625 
Q 20.953125 51.265625 25.265625 53.625 
Q 29.59375 56 35.59375 56 
Q 45.5625 56 51.78125 48.09375 
Q 58.015625 40.1875 58.015625 27.296875 
Q 58.015625 14.40625 51.78125 6.484375 
Q 45.5625 -1.421875 35.59375 -1.421875 
Q 29.59375 -1.421875 25.265625 0.953125 
Q 20.953125 3.328125 18.109375 8.203125 
L 18.109375 0 
L 9.078125 0 
L 9.078125 75.984375 
L 18.109375 75.984375 
z
" id="DejaVuSans-98"/>
      <path d="M 18.109375 8.203125 
L 18.109375 -20.796875 
L 9.078125 -20.796875 
L 9.078125 54.6875 
L 18.109375 54.6875 
L 18.109375 46.390625 
Q 20.953125 51.265625 25.265625 53.625 
Q 29.59375 56 35.59375 56 
Q 45.5625 56 51.78125 48.09375 
Q 58.015625 40.1875 58.015625 27.296875 
Q 58.015625 14.40625 51.78125 6.484375 
Q 45.5625 -1.421875 35.59375 -1.421875 
Q 29.59375 -1.421875 25.265625 0.953125 
Q 20.953125 3.328125 18.109375 8.203125 
z
M 48.6875 27.296875 
Q 48.6875 37.203125 44.609375 42.84375 
Q 40.53125 48.484375 33.40625 48.484375 
Q 26.265625 48.484375 22.1875 42.84375 
Q 18.109375 37.203125 18.109375 27.296875 
Q 18.109375 17.390625 22.1875 11.75 
Q 26.265625 6.109375 33.40625 6.109375 
Q 40.53125 6.109375 44.609375 11.75 
Q 48.6875 17.390625 48.6875 27.296875 
z
" id="DejaVuSans-112"/>
      <path id="DejaVuSans-32"/>
      <path d="M 37.109375 75.984375 
L 37.109375 68.5 
L 28.515625 68.5 
Q 23.6875 68.5 21.796875 66.546875 
Q 19.921875 64.59375 19.921875 59.515625 
L 19.921875 54.6875 
L 34.71875 54.6875 
L 34.71875 47.703125 
L 19.921875 47.703125 
L 19.921875 0 
L 10.890625 0 
L 10.890625 47.703125 
L 2.296875 47.703125 
L 2.296875 54.6875 
L 10.890625 54.6875 
L 10.890625 58.5 
Q 10.890625 67.625 15.140625 71.796875 
Q 19.390625 75.984375 28.609375 75.984375 
z
" id="DejaVuSans-102"/>
      <path d="M 41.109375 46.296875 
Q 39.59375 47.171875 37.8125 47.578125 
Q 36.03125 48 33.890625 48 
Q 26.265625 48 22.1875 43.046875 
Q 18.109375 38.09375 18.109375 28.8125 
L 18.109375 0 
L 9.078125 0 
L 9.078125 54.6875 
L 18.109375 54.6875 
L 18.109375 46.1875 
Q 20.953125 51.171875 25.484375 53.578125 
Q 30.03125 56 36.53125 56 
Q 37.453125 56 38.578125 55.875 
Q 39.703125 55.765625 41.0625 55.515625 
z
" id="DejaVuSans-114"/>
      <path d="M 30.609375 48.390625 
Q 23.390625 48.390625 19.1875 42.75 
Q 14.984375 37.109375 14.984375 27.296875 
Q 14.984375 17.484375 19.15625 11.84375 
Q 23.34375 6.203125 30.609375 6.203125 
Q 37.796875 6.203125 41.984375 11.859375 
Q 46.1875 17.53125 46.1875 27.296875 
Q 46.1875 37.015625 41.984375 42.703125 
Q 37.796875 48.390625 30.609375 48.390625 
z
M 30.609375 56 
Q 42.328125 56 49.015625 48.375 
Q 55.71875 40.765625 55.71875 27.296875 
Q 55.71875 13.875 49.015625 6.21875 
Q 42.328125 -1.421875 30.609375 -1.421875 
Q 18.84375 -1.421875 12.171875 6.21875 
Q 5.515625 13.875 5.515625 27.296875 
Q 5.515625 40.765625 12.171875 48.375 
Q 18.84375 56 30.609375 56 
z
" id="DejaVuSans-111"/>
      <path d="M 52 44.1875 
Q 55.375 50.25 60.0625 53.125 
Q 64.75 56 71.09375 56 
Q 79.640625 56 84.28125 50.015625 
Q 88.921875 44.046875 88.921875 33.015625 
L 88.921875 0 
L 79.890625 0 
L 79.890625 32.71875 
Q 79.890625 40.578125 77.09375 44.375 
Q 74.3125 48.1875 68.609375 48.1875 
Q 61.625 48.1875 57.5625 43.546875 
Q 53.515625 38.921875 53.515625 30.90625 
L 53.515625 0 
L 44.484375 0 
L 44.484375 32.71875 
Q 44.484375 40.625 41.703125 44.40625 
Q 38.921875 48.1875 33.109375 48.1875 
Q 26.21875 48.1875 22.15625 43.53125 
Q 18.109375 38.875 18.109375 30.90625 
L 18.109375 0 
L 9.078125 0 
L 9.078125 54.6875 
L 18.109375 54.6875 
L 18.109375 46.1875 
Q 21.1875 51.21875 25.484375 53.609375 
Q 29.78125 56 35.6875 56 
Q 41.65625 56 45.828125 52.96875 
Q 50 49.953125 52 44.1875 
z
" id="DejaVuSans-109"/>
      <path d="M -0.296875 72.90625 
L 61.375 72.90625 
L 61.375 64.59375 
L 35.5 64.59375 
L 35.5 0 
L 25.59375 0 
L 25.59375 64.59375 
L -0.296875 64.59375 
z
" id="DejaVuSans-84"/>
      <path d="M 53.515625 70.515625 
L 53.515625 60.890625 
Q 47.90625 63.578125 42.921875 64.890625 
Q 37.9375 66.21875 33.296875 66.21875 
Q 25.25 66.21875 20.875 63.09375 
Q 16.5 59.96875 16.5 54.203125 
Q 16.5 49.359375 19.40625 46.890625 
Q 22.3125 44.4375 30.421875 42.921875 
L 36.375 41.703125 
Q 47.40625 39.59375 52.65625 34.296875 
Q 57.90625 29 57.90625 20.125 
Q 57.90625 9.515625 50.796875 4.046875 
Q 43.703125 -1.421875 29.984375 -1.421875 
Q 24.8125 -1.421875 18.96875 -0.25 
Q 13.140625 0.921875 6.890625 3.21875 
L 6.890625 13.375 
Q 12.890625 10.015625 18.65625 8.296875 
Q 24.421875 6.59375 29.984375 6.59375 
Q 38.421875 6.59375 43.015625 9.90625 
Q 47.609375 13.234375 47.609375 19.390625 
Q 47.609375 24.75 44.3125 27.78125 
Q 41.015625 30.8125 33.5 32.328125 
L 27.484375 33.5 
Q 16.453125 35.6875 11.515625 40.375 
Q 6.59375 45.0625 6.59375 53.421875 
Q 6.59375 63.09375 13.40625 68.65625 
Q 20.21875 74.21875 32.171875 74.21875 
Q 37.3125 74.21875 42.625 73.28125 
Q 47.953125 72.359375 53.515625 70.515625 
z
" id="DejaVuSans-83"/>
     </defs>
     <g style="fill:#555555;" transform="translate(123.163722 237.190795)scale(0.12 -0.12)">
      <use xlink:href="#DejaVuSans-98"/>
      <use x="63.476562" xlink:href="#DejaVuSans-112"/>
      <use x="126.953125" xlink:href="#DejaVuSans-32"/>
      <use x="158.740234" xlink:href="#DejaVuSans-102"/>
      <use x="193.945312" xlink:href="#DejaVuSans-114"/>
      <use x="235.027344" xlink:href="#DejaVuSans-111"/>
      <use x="296.208984" xlink:href="#DejaVuSans-109"/>
      <use x="393.621094" xlink:href="#DejaVuSans-32"/>
      <use x="425.408203" xlink:href="#DejaVuSans-84"/>
      <use x="486.492188" xlink:href="#DejaVuSans-83"/>
      <use x="549.96875" xlink:href="#DejaVuSans-83"/>
     </g>
    </g>
   </g>
   <g id="matplotlib.axis_2">
    <g id="ytick_1">
     <g id="line2d_11">
      <path clip-path="url(#pa3b6cbe580)" d="M 46.08 203.664793 
L 273.861818 203.664793 
" style="fill:none;stroke:#ffffff;"/>
     </g>
     <g id="line2d_12"/>
     <g id="text_7">
      <!-- 0.1 -->
      <defs>
       <path d="M 10.6875 12.40625 
L 21 12.40625 
L 21 0 
L 10.6875 0 
z
" id="DejaVuSans-46"/>
      </defs>
      <g style="fill:#555555;" transform="translate(26.676875 207.464012)scale(0.1 -0.1)">
       <use xlink:href="#DejaVuSans-48"/>
       <use x="63.623047" xlink:href="#DejaVuSans-46"/>
       <use x="95.410156" xlink:href="#DejaVuSans-49"/>
      </g>
     </g>
    </g>
    <g id="ytick_2">
     <g id="line2d_13">
      <path clip-path="url(#pa3b6cbe580)" d="M 46.08 177.374786 
L 273.861818 177.374786 
" style="fill:none;stroke:#ffffff;"/>
     </g>
     <g id="line2d_14"/>
     <g id="text_8">
      <!-- 0.2 -->
      <defs>
       <path d="M 19.1875 8.296875 
L 53.609375 8.296875 
L 53.609375 0 
L 7.328125 0 
L 7.328125 8.296875 
Q 12.9375 14.109375 22.625 23.890625 
Q 32.328125 33.6875 34.8125 36.53125 
Q 39.546875 41.84375 41.421875 45.53125 
Q 43.3125 49.21875 43.3125 52.78125 
Q 43.3125 58.59375 39.234375 62.25 
Q 35.15625 65.921875 28.609375 65.921875 
Q 23.96875 65.921875 18.8125 64.3125 
Q 13.671875 62.703125 7.8125 59.421875 
L 7.8125 69.390625 
Q 13.765625 71.78125 18.9375 73 
Q 24.125 74.21875 28.421875 74.21875 
Q 39.75 74.21875 46.484375 68.546875 
Q 53.21875 62.890625 53.21875 53.421875 
Q 53.21875 48.921875 51.53125 44.890625 
Q 49.859375 40.875 45.40625 35.40625 
Q 44.1875 33.984375 37.640625 27.21875 
Q 31.109375 20.453125 19.1875 8.296875 
z
" id="DejaVuSans-50"/>
      </defs>
      <g style="fill:#555555;" transform="translate(26.676875 181.174005)scale(0.1 -0.1)">
       <use xlink:href="#DejaVuSans-48"/>
       <use x="63.623047" xlink:href="#DejaVuSans-46"/>
       <use x="95.410156" xlink:href="#DejaVuSans-50"/>
      </g>
     </g>
    </g>
    <g id="ytick_3">
     <g id="line2d_15">
      <path clip-path="url(#pa3b6cbe580)" d="M 46.08 151.084778 
L 273.861818 151.084778 
" style="fill:none;stroke:#ffffff;"/>
     </g>
     <g id="line2d_16"/>
     <g id="text_9">
      <!-- 0.3 -->
      <defs>
       <path d="M 40.578125 39.3125 
Q 47.65625 37.796875 51.625 33 
Q 55.609375 28.21875 55.609375 21.1875 
Q 55.609375 10.40625 48.1875 4.484375 
Q 40.765625 -1.421875 27.09375 -1.421875 
Q 22.515625 -1.421875 17.65625 -0.515625 
Q 12.796875 0.390625 7.625 2.203125 
L 7.625 11.71875 
Q 11.71875 9.328125 16.59375 8.109375 
Q 21.484375 6.890625 26.8125 6.890625 
Q 36.078125 6.890625 40.9375 10.546875 
Q 45.796875 14.203125 45.796875 21.1875 
Q 45.796875 27.640625 41.28125 31.265625 
Q 36.765625 34.90625 28.71875 34.90625 
L 20.21875 34.90625 
L 20.21875 43.015625 
L 29.109375 43.015625 
Q 36.375 43.015625 40.234375 45.921875 
Q 44.09375 48.828125 44.09375 54.296875 
Q 44.09375 59.90625 40.109375 62.90625 
Q 36.140625 65.921875 28.71875 65.921875 
Q 24.65625 65.921875 20.015625 65.03125 
Q 15.375 64.15625 9.8125 62.3125 
L 9.8125 71.09375 
Q 15.4375 72.65625 20.34375 73.4375 
Q 25.25 74.21875 29.59375 74.21875 
Q 40.828125 74.21875 47.359375 69.109375 
Q 53.90625 64.015625 53.90625 55.328125 
Q 53.90625 49.265625 50.4375 45.09375 
Q 46.96875 40.921875 40.578125 39.3125 
z
" id="DejaVuSans-51"/>
      </defs>
      <g style="fill:#555555;" transform="translate(26.676875 154.883997)scale(0.1 -0.1)">
       <use xlink:href="#DejaVuSans-48"/>
       <use x="63.623047" xlink:href="#DejaVuSans-46"/>
       <use x="95.410156" xlink:href="#DejaVuSans-51"/>
      </g>
     </g>
    </g>
    <g id="ytick_4">
     <g id="line2d_17">
      <path clip-path="url(#pa3b6cbe580)" d="M 46.08 124.794771 
L 273.861818 124.794771 
" style="fill:none;stroke:#ffffff;"/>
     </g>
     <g id="line2d_18"/>
     <g id="text_10">
      <!-- 0.4 -->
      <defs>
       <path d="M 37.796875 64.3125 
L 12.890625 25.390625 
L 37.796875 25.390625 
z
M 35.203125 72.90625 
L 47.609375 72.90625 
L 47.609375 25.390625 
L 58.015625 25.390625 
L 58.015625 17.1875 
L 47.609375 17.1875 
L 47.609375 0 
L 37.796875 0 
L 37.796875 17.1875 
L 4.890625 17.1875 
L 4.890625 26.703125 
z
" id="DejaVuSans-52"/>
      </defs>
      <g style="fill:#555555;" transform="translate(26.676875 128.59399)scale(0.1 -0.1)">
       <use xlink:href="#DejaVuSans-48"/>
       <use x="63.623047" xlink:href="#DejaVuSans-46"/>
       <use x="95.410156" xlink:href="#DejaVuSans-52"/>
      </g>
     </g>
    </g>
    <g id="ytick_5">
     <g id="line2d_19">
      <path clip-path="url(#pa3b6cbe580)" d="M 46.08 98.504763 
L 273.861818 98.504763 
" style="fill:none;stroke:#ffffff;"/>
     </g>
     <g id="line2d_20"/>
     <g id="text_11">
      <!-- 0.5 -->
      <g style="fill:#555555;" transform="translate(26.676875 102.303982)scale(0.1 -0.1)">
       <use xlink:href="#DejaVuSans-48"/>
       <use x="63.623047" xlink:href="#DejaVuSans-46"/>
       <use x="95.410156" xlink:href="#DejaVuSans-53"/>
      </g>
     </g>
    </g>
    <g id="ytick_6">
     <g id="line2d_21">
      <path clip-path="url(#pa3b6cbe580)" d="M 46.08 72.214756 
L 273.861818 72.214756 
" style="fill:none;stroke:#ffffff;"/>
     </g>
     <g id="line2d_22"/>
     <g id="text_12">
      <!-- 0.6 -->
      <defs>
       <path d="M 33.015625 40.375 
Q 26.375 40.375 22.484375 35.828125 
Q 18.609375 31.296875 18.609375 23.390625 
Q 18.609375 15.53125 22.484375 10.953125 
Q 26.375 6.390625 33.015625 6.390625 
Q 39.65625 6.390625 43.53125 10.953125 
Q 47.40625 15.53125 47.40625 23.390625 
Q 47.40625 31.296875 43.53125 35.828125 
Q 39.65625 40.375 33.015625 40.375 
z
M 52.59375 71.296875 
L 52.59375 62.3125 
Q 48.875 64.0625 45.09375 64.984375 
Q 41.3125 65.921875 37.59375 65.921875 
Q 27.828125 65.921875 22.671875 59.328125 
Q 17.53125 52.734375 16.796875 39.40625 
Q 19.671875 43.65625 24.015625 45.921875 
Q 28.375 48.1875 33.59375 48.1875 
Q 44.578125 48.1875 50.953125 41.515625 
Q 57.328125 34.859375 57.328125 23.390625 
Q 57.328125 12.15625 50.6875 5.359375 
Q 44.046875 -1.421875 33.015625 -1.421875 
Q 20.359375 -1.421875 13.671875 8.265625 
Q 6.984375 17.96875 6.984375 36.375 
Q 6.984375 53.65625 15.1875 63.9375 
Q 23.390625 74.21875 37.203125 74.21875 
Q 40.921875 74.21875 44.703125 73.484375 
Q 48.484375 72.75 52.59375 71.296875 
z
" id="DejaVuSans-54"/>
      </defs>
      <g style="fill:#555555;" transform="translate(26.676875 76.013975)scale(0.1 -0.1)">
       <use xlink:href="#DejaVuSans-48"/>
       <use x="63.623047" xlink:href="#DejaVuSans-46"/>
       <use x="95.410156" xlink:href="#DejaVuSans-54"/>
      </g>
     </g>
    </g>
    <g id="text_13">
     <!-- Frequency -->
     <defs>
      <path d="M 9.8125 72.90625 
L 51.703125 72.90625 
L 51.703125 64.59375 
L 19.671875 64.59375 
L 19.671875 43.109375 
L 48.578125 43.109375 
L 48.578125 34.8125 
L 19.671875 34.8125 
L 19.671875 0 
L 9.8125 0 
z
" id="DejaVuSans-70"/>
      <path d="M 56.203125 29.59375 
L 56.203125 25.203125 
L 14.890625 25.203125 
Q 15.484375 15.921875 20.484375 11.0625 
Q 25.484375 6.203125 34.421875 6.203125 
Q 39.59375 6.203125 44.453125 7.46875 
Q 49.3125 8.734375 54.109375 11.28125 
L 54.109375 2.78125 
Q 49.265625 0.734375 44.1875 -0.34375 
Q 39.109375 -1.421875 33.890625 -1.421875 
Q 20.796875 -1.421875 13.15625 6.1875 
Q 5.515625 13.8125 5.515625 26.8125 
Q 5.515625 40.234375 12.765625 48.109375 
Q 20.015625 56 32.328125 56 
Q 43.359375 56 49.78125 48.890625 
Q 56.203125 41.796875 56.203125 29.59375 
z
M 47.21875 32.234375 
Q 47.125 39.59375 43.09375 43.984375 
Q 39.0625 48.390625 32.421875 48.390625 
Q 24.90625 48.390625 20.390625 44.140625 
Q 15.875 39.890625 15.1875 32.171875 
z
" id="DejaVuSans-101"/>
      <path d="M 14.796875 27.296875 
Q 14.796875 17.390625 18.875 11.75 
Q 22.953125 6.109375 30.078125 6.109375 
Q 37.203125 6.109375 41.296875 11.75 
Q 45.40625 17.390625 45.40625 27.296875 
Q 45.40625 37.203125 41.296875 42.84375 
Q 37.203125 48.484375 30.078125 48.484375 
Q 22.953125 48.484375 18.875 42.84375 
Q 14.796875 37.203125 14.796875 27.296875 
z
M 45.40625 8.203125 
Q 42.578125 3.328125 38.25 0.953125 
Q 33.9375 -1.421875 27.875 -1.421875 
Q 17.96875 -1.421875 11.734375 6.484375 
Q 5.515625 14.40625 5.515625 27.296875 
Q 5.515625 40.1875 11.734375 48.09375 
Q 17.96875 56 27.875 56 
Q 33.9375 56 38.25 53.625 
Q 42.578125 51.265625 45.40625 46.390625 
L 45.40625 54.6875 
L 54.390625 54.6875 
L 54.390625 -20.796875 
L 45.40625 -20.796875 
z
" id="DejaVuSans-113"/>
      <path d="M 8.5 21.578125 
L 8.5 54.6875 
L 17.484375 54.6875 
L 17.484375 21.921875 
Q 17.484375 14.15625 20.5 10.265625 
Q 23.53125 6.390625 29.59375 6.390625 
Q 36.859375 6.390625 41.078125 11.03125 
Q 45.3125 15.671875 45.3125 23.6875 
L 45.3125 54.6875 
L 54.296875 54.6875 
L 54.296875 0 
L 45.3125 0 
L 45.3125 8.40625 
Q 42.046875 3.421875 37.71875 1 
Q 33.40625 -1.421875 27.6875 -1.421875 
Q 18.265625 -1.421875 13.375 4.4375 
Q 8.5 10.296875 8.5 21.578125 
z
M 31.109375 56 
z
" id="DejaVuSans-117"/>
      <path d="M 54.890625 33.015625 
L 54.890625 0 
L 45.90625 0 
L 45.90625 32.71875 
Q 45.90625 40.484375 42.875 44.328125 
Q 39.84375 48.1875 33.796875 48.1875 
Q 26.515625 48.1875 22.3125 43.546875 
Q 18.109375 38.921875 18.109375 30.90625 
L 18.109375 0 
L 9.078125 0 
L 9.078125 54.6875 
L 18.109375 54.6875 
L 18.109375 46.1875 
Q 21.34375 51.125 25.703125 53.5625 
Q 30.078125 56 35.796875 56 
Q 45.21875 56 50.046875 50.171875 
Q 54.890625 44.34375 54.890625 33.015625 
z
" id="DejaVuSans-110"/>
      <path d="M 48.78125 52.59375 
L 48.78125 44.1875 
Q 44.96875 46.296875 41.140625 47.34375 
Q 37.3125 48.390625 33.40625 48.390625 
Q 24.65625 48.390625 19.8125 42.84375 
Q 14.984375 37.3125 14.984375 27.296875 
Q 14.984375 17.28125 19.8125 11.734375 
Q 24.65625 6.203125 33.40625 6.203125 
Q 37.3125 6.203125 41.140625 7.25 
Q 44.96875 8.296875 48.78125 10.40625 
L 48.78125 2.09375 
Q 45.015625 0.34375 40.984375 -0.53125 
Q 36.96875 -1.421875 32.421875 -1.421875 
Q 20.0625 -1.421875 12.78125 6.34375 
Q 5.515625 14.109375 5.515625 27.296875 
Q 5.515625 40.671875 12.859375 48.328125 
Q 20.21875 56 33.015625 56 
Q 37.15625 56 41.109375 55.140625 
Q 45.0625 54.296875 48.78125 52.59375 
z
" id="DejaVuSans-99"/>
      <path d="M 32.171875 -5.078125 
Q 28.375 -14.84375 24.75 -17.8125 
Q 21.140625 -20.796875 15.09375 -20.796875 
L 7.90625 -20.796875 
L 7.90625 -13.28125 
L 13.1875 -13.28125 
Q 16.890625 -13.28125 18.9375 -11.515625 
Q 21 -9.765625 23.484375 -3.21875 
L 25.09375 0.875 
L 2.984375 54.6875 
L 12.5 54.6875 
L 29.59375 11.921875 
L 46.6875 54.6875 
L 56.203125 54.6875 
z
" id="DejaVuSans-121"/>
     </defs>
     <g style="fill:#555555;" transform="translate(20.18125 162.92446)rotate(-90)scale(0.12 -0.12)">
      <use xlink:href="#DejaVuSans-70"/>
      <use x="57.410156" xlink:href="#DejaVuSans-114"/>
      <use x="98.492188" xlink:href="#DejaVuSans-101"/>
      <use x="160.015625" xlink:href="#DejaVuSans-113"/>
      <use x="223.492188" xlink:href="#DejaVuSans-117"/>
      <use x="286.871094" xlink:href="#DejaVuSans-101"/>
      <use x="348.394531" xlink:href="#DejaVuSans-110"/>
      <use x="411.773438" xlink:href="#DejaVuSans-99"/>
      <use x="466.753906" xlink:href="#DejaVuSans-121"/>
     </g>
    </g>
   </g>
   <g id="LineCollection_1">
    <path clip-path="url(#pa3b6cbe580)" d="M 159.970909 203.664793 
L 159.970909 59.069752 
" style="fill:none;stroke:#000000;stroke-width:0.5;"/>
   </g>
   <g id="line2d_23">
    <path clip-path="url(#pa3b6cbe580)" d="M 56.433719 154.879478 
L 57.469091 154.049765 
L 58.504463 153.84444 
L 59.539835 155.138698 
L 60.575207 155.220459 
L 61.610579 155.126341 
L 62.64595 153.817625 
L 63.681322 154.091304 
L 65.752066 154.481184 
L 66.787438 154.395742 
L 67.82281 154.763539 
L 68.858182 154.455683 
L 69.893554 155.003041 
L 70.928926 155.054307 
L 71.964298 154.363931 
L 72.999669 154.004809 
L 74.035041 153.380422 
L 75.070413 154.081839 
L 76.105785 154.33843 
L 77.141157 153.92778 
L 78.176529 154.269813 
L 79.211901 155.612706 
L 80.247273 153.388835 
L 81.282645 153.739543 
L 82.318017 152.542296 
L 83.353388 154.321078 
L 84.38876 152.578839 
L 85.424132 152.339338 
L 86.459504 153.5797 
L 87.494876 154.460415 
L 88.530248 152.997902 
L 89.56562 153.693273 
L 90.600992 153.821568 
L 92.671736 153.667509 
L 93.707107 152.170819 
L 94.742479 153.180092 
L 95.777851 153.000531 
L 96.813223 151.734667 
L 97.848595 152.932177 
L 98.883967 153.171679 
L 99.919339 152.718177 
L 100.954711 152.598557 
L 103.025455 151.692078 
L 104.060826 151.880051 
L 105.096198 151.335322 
L 106.13157 151.951034 
L 107.166942 153.225311 
L 108.202314 152.41295 
L 109.237686 152.857514 
L 110.273058 152.295696 
L 111.30843 151.528554 
L 112.343802 151.881628 
L 113.379174 150.892336 
L 114.414545 149.139318 
L 115.449917 150.544256 
L 116.485289 148.817002 
L 117.520661 149.287331 
L 118.556033 150.655463 
L 119.591405 150.390459 
L 120.626777 151.177056 
L 121.662149 150.997496 
L 122.697521 152.203155 
L 123.732893 154.383649 
L 124.768264 155.563544 
L 125.803636 154.802711 
L 126.839008 156.008371 
L 127.87438 155.241229 
L 128.909752 154.625517 
L 129.945124 157.096514 
L 130.980496 158.584266 
L 132.015868 158.627119 
L 133.05124 158.943387 
L 134.086612 159.584864 
L 135.121983 154.59134 
L 136.157355 153.76189 
L 137.192727 150.897594 
L 138.228099 150.735121 
L 139.263471 149.786052 
L 140.298843 150.427265 
L 141.334215 149.589403 
L 142.369587 149.896996 
L 143.404959 150.410177 
L 144.440331 149.879907 
L 145.475702 150.683856 
L 146.511074 151.915017 
L 147.546446 149.734786 
L 148.581818 149.62358 
L 149.61719 149.067809 
L 150.652562 152.718702 
L 151.687934 153.796067 
L 152.723306 144.347964 
L 153.758678 160.068074 
L 154.79405 155.716289 
L 155.829421 162.051655 
L 157.900165 141.702926 
L 158.935537 172.628651 
L 159.970909 122.030114 
L 161.006281 196.136913 
L 162.041653 173.893726 
L 163.077025 176.073693 
L 164.112397 164.285254 
L 165.147769 162.601379 
L 166.18314 160.0197 
L 167.218512 159.019366 
L 168.253884 161.473012 
L 169.289256 159.286735 
L 170.324628 160.868079 
L 171.36 162.030886 
L 173.430744 162.577718 
L 175.501488 155.140801 
L 176.53686 157.662538 
L 177.572231 158.645785 
L 178.607603 159.132938 
L 179.642975 161.235876 
L 180.678347 160.406689 
L 181.713719 160.902519 
L 182.749091 162.330066 
L 183.784463 164.347298 
L 184.819835 163.601451 
L 185.855207 166.114776 
L 186.890579 163.097209 
L 187.92595 160.865976 
L 188.961322 163.191064 
L 191.032066 157.751924 
L 192.067438 158.589787 
L 193.10281 156.076462 
L 194.138182 155.461013 
L 195.173554 156.786029 
L 196.208926 156.495262 
L 198.279669 156.51866 
L 199.315041 156.800752 
L 200.350413 156.51866 
L 201.385785 155.150791 
L 202.421157 157.450378 
L 203.456529 155.364529 
L 204.491901 155.142115 
L 205.527273 155.364529 
L 206.562645 153.697479 
L 207.598017 153.823146 
L 208.633388 153.575231 
L 209.66876 155.404752 
L 210.704132 154.652332 
L 211.739504 155.302221 
L 212.774876 157.294215 
L 213.810248 156.644326 
L 214.84562 157.875487 
L 215.880992 158.884235 
L 217.951736 157.336805 
L 218.987107 157.499277 
L 220.022479 157.140156 
L 221.057851 155.473106 
L 222.093223 156.105907 
L 224.163967 155.113985 
L 225.199339 156.977946 
L 226.234711 156.233939 
L 227.270083 156.935094 
L 228.305455 155.9947 
L 229.340826 157.037625 
L 230.376198 156.011789 
L 231.41157 156.122995 
L 232.446942 155.798051 
L 233.482314 153.583644 
L 234.517686 153.412759 
L 235.553058 153.77188 
L 236.58843 155.832228 
L 238.659174 155.481782 
L 239.694545 154.276122 
L 240.729917 155.592726 
L 241.765289 153.410392 
L 242.800661 155.915304 
L 243.836033 155.804098 
L 244.871405 154.67573 
L 245.906777 152.99133 
L 246.942149 153.906222 
L 247.977521 154.615789 
L 249.012893 154.726996 
L 250.048264 155.351121 
L 251.083636 155.735744 
L 252.119008 155.188649 
L 253.15438 154.889468 
L 254.189752 153.62413 
L 256.260496 153.826826 
L 257.295868 152.826491 
L 258.33124 153.706944 
L 259.366612 155.476787 
L 260.401983 155.02381 
L 261.437355 154.998046 
L 262.472727 157.639929 
L 263.508099 155.93844 
L 263.508099 155.93844 
" style="fill:none;stroke:#e24a33;stroke-width:2;"/>
   </g>
   <g id="line2d_24">
    <path clip-path="url(#pa3b6cbe580)" d="M 56.433719 175.846811 
L 57.469091 175.838398 
L 58.504463 176.094988 
L 59.539835 176.182271 
L 60.575207 175.971951 
L 61.610579 177.494668 
L 62.64595 175.347563 
L 63.681322 177.828026 
L 64.716694 176.786416 
L 65.752066 176.326077 
L 66.787438 175.684601 
L 67.82281 176.463048 
L 68.858182 175.530805 
L 69.893554 176.770904 
L 70.928926 176.77958 
L 71.964298 176.652862 
L 72.999669 176.122593 
L 74.035041 176.550331 
L 75.070413 176.447537 
L 76.105785 177.148955 
L 77.141157 177.046424 
L 78.176529 177.662136 
L 79.211901 177.508339 
L 81.282645 178.354877 
L 82.318017 177.76493 
L 83.353388 178.765527 
L 84.38876 178.698751 
L 85.424132 177.706566 
L 86.459504 178.553367 
L 87.494876 177.441562 
L 88.530248 177.911891 
L 89.56562 177.434727 
L 90.600992 177.89638 
L 91.636364 179.324716 
L 92.671736 179.512952 
L 93.707107 179.530041 
L 94.742479 178.854387 
L 95.777851 179.675424 
L 96.813223 178.589121 
L 97.848595 179.239273 
L 98.883967 178.837299 
L 99.919339 178.803122 
L 100.954711 179.598395 
L 101.990083 179.358893 
L 103.025455 178.614886 
L 104.060826 180.077399 
L 105.096198 180.138917 
L 106.13157 180.369744 
L 107.166942 179.31788 
L 108.202314 179.078378 
L 109.237686 180.446773 
L 110.273058 179.661491 
L 111.30843 180.868991 
L 112.343802 181.161336 
L 113.379174 181.31671 
L 114.414545 181.778625 
L 115.449917 181.574877 
L 116.485289 182.139324 
L 117.520661 181.959763 
L 118.556033 181.318287 
L 119.591405 179.462738 
L 120.626777 180.121303 
L 121.662149 179.009761 
L 122.697521 179.676739 
L 123.732893 177.513334 
L 124.768264 175.880199 
L 125.803636 176.273497 
L 126.839008 177.179714 
L 127.87438 178.746336 
L 128.909752 178.233155 
L 129.945124 175.822098 
L 130.980496 172.769565 
L 132.015868 170.144508 
L 133.05124 170.777308 
L 134.086612 170.041977 
L 136.157355 178.370126 
L 137.192727 180.738592 
L 138.228099 182.38014 
L 139.263471 182.072284 
L 140.298843 181.909812 
L 141.334215 182.175078 
L 142.369587 181.568042 
L 143.404959 181.439747 
L 144.440331 181.619308 
L 145.475702 180.276677 
L 146.511074 180.251176 
L 147.546446 182.978764 
L 148.581818 180.567444 
L 149.61719 181.097714 
L 150.652562 180.362382 
L 151.687934 182.345963 
L 152.723306 184.816961 
L 153.758678 163.599348 
L 154.79405 176.304257 
L 155.829421 176.013752 
L 156.864793 181.271754 
L 157.900165 190.693829 
L 158.935537 157.010546 
L 159.970909 198.333969 
L 161.006281 107.335314 
L 162.041653 179.809503 
L 163.077025 169.8845 
L 164.112397 179.441706 
L 165.147769 181.416612 
L 166.18314 182.288388 
L 167.218512 182.177444 
L 168.253884 180.416277 
L 169.289256 182.640411 
L 170.324628 182.31573 
L 171.36 181.22154 
L 172.395372 180.811153 
L 173.430744 178.785245 
L 174.466116 181.178687 
L 175.501488 181.86249 
L 176.53686 182.289966 
L 177.572231 181.469455 
L 178.607603 181.751546 
L 179.642975 177.896117 
L 180.678347 177.485993 
L 181.713719 175.408819 
L 182.749091 177.391874 
L 183.784463 174.83596 
L 184.819835 175.851543 
L 185.855207 173.979431 
L 186.890579 175.039445 
L 187.92595 175.1333 
L 188.961322 175.962487 
L 189.996694 179.525571 
L 191.032066 179.440129 
L 192.067438 179.79925 
L 193.10281 182.26131 
L 194.138182 183.218792 
L 195.173554 181.790981 
L 196.208926 180.59426 
L 197.244298 180.473063 
L 198.279669 180.840598 
L 199.315041 180.943129 
L 200.350413 180.584007 
L 201.385785 180.908952 
L 202.421157 180.575594 
L 203.456529 181.396368 
L 204.491901 183.430952 
L 205.527273 183.593424 
L 206.562645 184.311404 
L 207.598017 182.822338 
L 208.633388 182.959309 
L 209.66876 180.890286 
L 210.704132 180.744902 
L 211.739504 179.736154 
L 212.774876 178.094606 
L 213.810248 177.872456 
L 214.84562 177.855367 
L 215.880992 176.897622 
L 216.916364 177.727072 
L 217.951736 177.008829 
L 218.987107 177.342186 
L 220.022479 178.180049 
L 221.057851 178.795761 
L 222.093223 178.470816 
L 223.128595 179.231649 
L 224.163967 180.231984 
L 225.199339 178.804174 
L 226.234711 177.008829 
L 227.270083 177.94081 
L 228.305455 177.333773 
L 229.340826 177.607452 
L 230.376198 177.496246 
L 231.41157 178.769997 
L 232.446942 178.573347 
L 233.482314 179.394121 
L 234.517686 177.86378 
L 235.553058 178.727407 
L 236.58843 178.069105 
L 237.623802 178.31702 
L 238.659174 177.632954 
L 239.694545 177.897957 
L 240.729917 177.992075 
L 241.765289 178.588858 
L 242.800661 177.263579 
L 243.836033 178.768419 
L 244.871405 178.486327 
L 245.906777 179.349691 
L 246.942149 178.409298 
L 247.977521 178.802596 
L 249.012893 177.862203 
L 251.083636 177.793586 
L 252.119008 177.862203 
L 253.15438 177.426051 
L 254.189752 177.331933 
L 255.225124 178.033088 
L 256.260496 177.509917 
L 257.295868 178.390632 
L 258.33124 178.689812 
L 259.366612 176.740408 
L 260.401983 176.868703 
L 261.437355 176.441228 
L 262.472727 176.441228 
L 263.508099 177.014087 
L 263.508099 177.014087 
" style="fill:none;stroke:#348abd;stroke-opacity:0.8;stroke-width:2;"/>
   </g>
   <g id="line2d_25">
    <path clip-path="url(#pa3b6cbe580)" d="M 56.433719 174.649301 
L 58.504463 175.393571 
L 59.539835 174.993174 
L 60.575207 175.296298 
L 61.610579 174.244172 
L 62.64595 175.467183 
L 63.681322 174.629057 
L 64.716694 175.973791 
L 65.752066 175.316804 
L 66.787438 174.880653 
L 67.82281 174.931918 
L 68.858182 175.599159 
L 69.893554 174.983184 
L 70.928926 175.17142 
L 71.964298 176.208035 
L 72.999669 176.396272 
L 75.070413 175.207438 
L 76.105785 175.549471 
L 77.141157 176.738568 
L 78.176529 174.58305 
L 79.211901 173.924485 
L 80.247273 175.669353 
L 81.282645 176.541656 
L 82.318017 176.755656 
L 83.353388 175.062054 
L 84.38876 176.329758 
L 85.424132 175.500045 
L 86.459504 175.893344 
L 87.494876 175.594164 
L 89.56562 177.161048 
L 90.600992 176.707808 
L 91.636364 175.202443 
L 92.671736 176.622103 
L 93.707107 177.06693 
L 94.742479 176.69072 
L 95.777851 176.53666 
L 96.813223 177.485993 
L 97.848595 177.229402 
L 98.883967 176.827428 
L 99.919339 176.630779 
L 100.954711 177.887967 
L 101.990083 177.126871 
L 103.025455 178.597797 
L 104.060826 177.964997 
L 105.096198 177.701571 
L 106.13157 178.248929 
L 107.166942 177.171301 
L 108.202314 178.15481 
L 109.237686 177.881131 
L 110.273058 178.712421 
L 111.30843 178.731087 
L 112.343802 177.338769 
L 113.379174 177.597199 
L 114.414545 178.811272 
L 115.449917 178.129046 
L 116.485289 179.035263 
L 117.520661 178.163223 
L 118.556033 177.538836 
L 119.591405 177.650042 
L 120.626777 177.256744 
L 121.662149 178.590699 
L 122.697521 176.008494 
L 123.732893 177.342186 
L 124.768264 177.641629 
L 125.803636 176.743826 
L 126.839008 175.076251 
L 127.87438 174.394025 
L 128.909752 172.38468 
L 129.945124 170.862751 
L 130.980496 169.118409 
L 132.015868 171.675112 
L 133.05124 170.546482 
L 134.086612 174.436878 
L 135.121983 177.831443 
L 136.157355 179.302106 
L 137.192727 179.49008 
L 138.228099 179.413313 
L 139.263471 179.951995 
L 140.298843 179.361785 
L 141.334215 178.31886 
L 142.369587 177.805679 
L 143.404959 176.55743 
L 144.440331 177.591941 
L 145.475702 177.514912 
L 146.511074 179.387549 
L 147.546446 179.096781 
L 148.581818 177.788591 
L 149.61719 178.139299 
L 150.652562 175.582596 
L 151.687934 171.837584 
L 152.723306 173.684458 
L 153.758678 178.911963 
L 154.79405 176.757496 
L 155.829421 167.814425 
L 156.864793 168.720641 
L 157.900165 165.762227 
L 158.935537 174.440821 
L 159.970909 162.190992 
L 161.006281 188.041694 
L 162.041653 163.763923 
L 163.077025 151.454153 
L 164.112397 162.293523 
L 165.147769 167.217379 
L 166.18314 170.739451 
L 167.218512 175.996664 
L 168.253884 174.184493 
L 169.289256 174.049626 
L 171.36 175.870209 
L 172.395372 178.563094 
L 173.430744 178.058589 
L 174.466116 178.597271 
L 175.501488 178.109854 
L 176.53686 176.708071 
L 177.572231 177.708143 
L 178.607603 177.562759 
L 179.642975 178.751068 
L 180.678347 179.528989 
L 181.713719 181.708694 
L 182.749091 182.110405 
L 183.784463 181.255717 
L 184.819835 180.022978 
L 185.855207 179.971713 
L 186.890579 180.134185 
L 187.92595 179.313674 
L 188.961322 179.638356 
L 189.996694 178.850181 
L 191.032066 175.499257 
L 192.067438 173.148404 
L 193.10281 171.874391 
L 194.138182 170.010955 
L 195.173554 169.660509 
L 196.208926 169.694686 
L 197.244298 169.239606 
L 198.279669 170.043029 
L 199.315041 170.308032 
L 201.385785 171.171659 
L 202.421157 170.957921 
L 203.456529 171.983757 
L 204.491901 170.299619 
L 205.527273 170.470504 
L 206.562645 170.470504 
L 207.598017 170.947405 
L 208.633388 171.87071 
L 209.66876 172.161477 
L 210.704132 172.050271 
L 211.739504 172.332362 
L 212.774876 171.716913 
L 213.810248 172.734337 
L 214.84562 171.186907 
L 216.916364 170.477077 
L 217.951736 171.323615 
L 218.987107 170.836198 
L 220.022479 171.605707 
L 221.057851 170.562782 
L 222.093223 172.24692 
L 223.128595 172.024506 
L 224.163967 171.588618 
L 225.199339 170.066952 
L 226.234711 171.759503 
L 227.270083 170.793608 
L 228.305455 171.511588 
L 229.340826 171.597031 
L 230.376198 173.084782 
L 231.41157 173.537759 
L 232.446942 173.743084 
L 233.482314 173.255667 
L 234.517686 174.333032 
L 235.553058 173.392638 
L 236.58843 172.871045 
L 237.623802 172.657307 
L 239.694545 174.204737 
L 240.729917 174.503917 
L 241.765289 175.59653 
L 242.800661 175.536589 
L 243.836033 173.407887 
L 244.871405 175.194556 
L 245.906777 174.142955 
L 246.942149 174.416634 
L 247.977521 173.407887 
L 249.012893 175.211644 
L 250.048264 174.245749 
L 251.083636 174.741579 
L 252.119008 174.117454 
L 253.15438 175.964064 
L 254.189752 175.553677 
L 255.225124 175.810268 
L 256.260496 175.355187 
L 257.295868 175.645955 
L 258.33124 174.688473 
L 259.366612 174.22682 
L 260.401983 174.662709 
L 261.437355 176.090519 
L 262.472727 174.158203 
L 263.508099 175.201391 
L 263.508099 175.201391 
" style="fill:none;stroke:#988ed5;stroke-opacity:0.6;stroke-width:2;"/>
   </g>
   <g id="line2d_26">
    <path clip-path="url(#pa3b6cbe580)" d="M 56.433719 151.543276 
L 57.469091 152.02228 
L 58.504463 151.586129 
L 59.539835 150.604986 
L 60.575207 150.43042 
L 61.610579 150.053947 
L 62.64595 152.286495 
L 63.681322 150.370479 
L 64.716694 149.928281 
L 65.752066 150.7948 
L 66.787438 151.958132 
L 67.82281 150.760623 
L 68.858182 151.333745 
L 69.893554 150.161999 
L 71.964298 149.694037 
L 74.035041 151.199403 
L 75.070413 151.182314 
L 76.105785 149.882273 
L 77.141157 149.20662 
L 78.176529 150.403867 
L 79.211901 149.873598 
L 80.247273 149.873598 
L 81.282645 148.282789 
L 82.318017 149.856509 
L 83.353388 148.770469 
L 84.38876 149.31178 
L 85.424132 151.372917 
L 86.459504 148.892718 
L 87.494876 149.422987 
L 88.530248 149.559958 
L 89.56562 148.630343 
L 90.600992 148.493372 
L 91.636364 148.690022 
L 92.671736 147.116565 
L 93.707107 148.151339 
L 94.742479 148.194192 
L 95.777851 147.706512 
L 96.813223 149.109084 
L 97.848595 147.518539 
L 99.919339 148.767051 
L 100.954711 146.83421 
L 101.990083 148.3309 
L 103.025455 148.014368 
L 104.060826 146.996682 
L 105.096198 147.743581 
L 106.13157 146.349422 
L 107.166942 147.204636 
L 108.202314 147.27299 
L 109.237686 145.73371 
L 110.273058 146.24952 
L 111.30843 145.790497 
L 112.343802 146.537133 
L 113.379174 147.112884 
L 114.414545 147.189914 
L 115.449917 146.670949 
L 116.485289 146.927539 
L 117.520661 147.508812 
L 118.556033 147.406281 
L 119.591405 149.415626 
L 120.626777 148.364025 
L 121.662149 148.321173 
L 122.697521 149.031003 
L 123.732893 147.679959 
L 124.768264 147.833756 
L 125.803636 149.099357 
L 126.839008 148.654793 
L 127.87438 148.53754 
L 128.909752 151.675515 
L 129.945124 153.137765 
L 130.980496 156.446625 
L 132.015868 156.47239 
L 133.05124 156.65195 
L 134.086612 152.855673 
L 135.121983 150.076557 
L 136.157355 145.485007 
L 137.192727 145.792863 
L 138.228099 144.390554 
L 139.263471 145.108797 
L 140.298843 145.220003 
L 141.334215 146.83605 
L 143.404959 148.512038 
L 144.440331 147.827972 
L 145.475702 148.443421 
L 146.511074 145.365387 
L 147.546446 145.108797 
L 148.581818 148.939514 
L 150.652562 148.255448 
L 151.687934 148.939514 
L 152.723306 154.069746 
L 153.758678 154.339744 
L 154.79405 148.141086 
L 155.829421 151.03956 
L 156.864793 155.305902 
L 157.900165 158.759883 
L 158.935537 152.838848 
L 159.970909 174.364054 
L 161.006281 165.405208 
L 162.041653 139.451976 
L 163.077025 159.506782 
L 164.112397 150.898382 
L 165.147769 145.683759 
L 166.18314 143.871589 
L 167.218512 139.725655 
L 168.253884 140.845346 
L 169.289256 140.942356 
L 170.324628 138.762652 
L 171.36 137.796494 
L 172.395372 135.257668 
L 173.430744 137.497314 
L 174.466116 138.087262 
L 175.501488 141.80572 
L 176.53686 140.258553 
L 177.572231 139.096009 
L 178.607603 138.471884 
L 180.678347 139.49772 
L 181.713719 138.89936 
L 182.749091 135.086783 
L 183.784463 136.480153 
L 184.819835 137.443156 
L 185.855207 136.853209 
L 186.890579 138.648553 
L 187.92595 141.606179 
L 188.961322 138.126959 
L 189.996694 138.13248 
L 191.032066 144.227819 
L 192.067438 145.38195 
L 193.10281 146.706966 
L 194.138182 148.228632 
L 195.173554 148.681609 
L 196.208926 150.13492 
L 197.244298 150.730915 
L 198.279669 149.516842 
L 199.315041 148.867216 
L 200.350413 149.029688 
L 201.385785 149.68799 
L 202.421157 147.935235 
L 203.456529 148.174737 
L 204.491901 148.046442 
L 205.527273 147.490671 
L 207.598017 149.32624 
L 208.633388 148.513879 
L 209.66876 148.462613 
L 210.704132 149.471624 
L 211.739504 149.54839 
L 212.774876 149.813394 
L 213.810248 149.668273 
L 216.916364 150.565814 
L 217.951736 151.24988 
L 218.987107 151.241204 
L 220.022479 149.992954 
L 221.057851 152.087742 
L 222.093223 150.095748 
L 224.163967 149.984542 
L 225.199339 151.070319 
L 226.234711 151.916594 
L 227.270083 151.24988 
L 228.305455 152.079066 
L 229.340826 150.67702 
L 230.376198 150.326575 
L 231.41157 148.488377 
L 232.446942 148.804646 
L 233.482314 150.685433 
L 234.517686 151.309558 
L 235.553058 151.027466 
L 236.58843 150.147014 
L 237.623802 150.30081 
L 238.659174 150.317899 
L 239.694545 150.540312 
L 240.729917 148.83041 
L 241.765289 149.323611 
L 242.800661 148.203656 
L 243.836033 148.938725 
L 244.871405 148.562778 
L 245.906777 150.434889 
L 246.942149 150.186975 
L 247.977521 150.093119 
L 249.012893 149.118286 
L 250.048264 149.545761 
L 251.083636 148.64822 
L 252.119008 149.751086 
L 253.15438 148.639545 
L 254.189752 150.409388 
L 255.225124 149.314935 
L 256.260496 150.227198 
L 258.33124 149.8339 
L 259.366612 150.475113 
L 260.401983 150.363906 
L 261.437355 149.389336 
L 262.472727 148.679768 
L 263.508099 148.765211 
L 263.508099 148.765211 
" style="fill:none;stroke:#777777;stroke-opacity:0.4;stroke-width:2;"/>
   </g>
   <g id="text_14">
    <!-- Experimental -->
    <defs>
     <path d="M 9.8125 72.90625 
L 55.90625 72.90625 
L 55.90625 64.59375 
L 19.671875 64.59375 
L 19.671875 43.015625 
L 54.390625 43.015625 
L 54.390625 34.71875 
L 19.671875 34.71875 
L 19.671875 8.296875 
L 56.78125 8.296875 
L 56.78125 0 
L 9.8125 0 
z
" id="DejaVuSans-69"/>
     <path d="M 54.890625 54.6875 
L 35.109375 28.078125 
L 55.90625 0 
L 45.3125 0 
L 29.390625 21.484375 
L 13.484375 0 
L 2.875 0 
L 24.125 28.609375 
L 4.6875 54.6875 
L 15.28125 54.6875 
L 29.78125 35.203125 
L 44.28125 54.6875 
z
" id="DejaVuSans-120"/>
     <path d="M 9.421875 54.6875 
L 18.40625 54.6875 
L 18.40625 0 
L 9.421875 0 
z
M 9.421875 75.984375 
L 18.40625 75.984375 
L 18.40625 64.59375 
L 9.421875 64.59375 
z
" id="DejaVuSans-105"/>
     <path d="M 18.3125 70.21875 
L 18.3125 54.6875 
L 36.8125 54.6875 
L 36.8125 47.703125 
L 18.3125 47.703125 
L 18.3125 18.015625 
Q 18.3125 11.328125 20.140625 9.421875 
Q 21.96875 7.515625 27.59375 7.515625 
L 36.8125 7.515625 
L 36.8125 0 
L 27.59375 0 
Q 17.1875 0 13.234375 3.875 
Q 9.28125 7.765625 9.28125 18.015625 
L 9.28125 47.703125 
L 2.6875 47.703125 
L 2.6875 54.6875 
L 9.28125 54.6875 
L 9.28125 70.21875 
z
" id="DejaVuSans-116"/>
     <path d="M 34.28125 27.484375 
Q 23.390625 27.484375 19.1875 25 
Q 14.984375 22.515625 14.984375 16.5 
Q 14.984375 11.71875 18.140625 8.90625 
Q 21.296875 6.109375 26.703125 6.109375 
Q 34.1875 6.109375 38.703125 11.40625 
Q 43.21875 16.703125 43.21875 25.484375 
L 43.21875 27.484375 
z
M 52.203125 31.203125 
L 52.203125 0 
L 43.21875 0 
L 43.21875 8.296875 
Q 40.140625 3.328125 35.546875 0.953125 
Q 30.953125 -1.421875 24.3125 -1.421875 
Q 15.921875 -1.421875 10.953125 3.296875 
Q 6 8.015625 6 15.921875 
Q 6 25.140625 12.171875 29.828125 
Q 18.359375 34.515625 30.609375 34.515625 
L 43.21875 34.515625 
L 43.21875 35.40625 
Q 43.21875 41.609375 39.140625 45 
Q 35.0625 48.390625 27.6875 48.390625 
Q 23 48.390625 18.546875 47.265625 
Q 14.109375 46.140625 10.015625 43.890625 
L 10.015625 52.203125 
Q 14.9375 54.109375 19.578125 55.046875 
Q 24.21875 56 28.609375 56 
Q 40.484375 56 46.34375 49.84375 
Q 52.203125 43.703125 52.203125 31.203125 
z
" id="DejaVuSans-97"/>
     <path d="M 9.421875 75.984375 
L 18.40625 75.984375 
L 18.40625 0 
L 9.421875 0 
z
" id="DejaVuSans-108"/>
    </defs>
    <g transform="translate(111.957034 45.84)scale(0.144 -0.144)">
     <use xlink:href="#DejaVuSans-69"/>
     <use x="63.183594" xlink:href="#DejaVuSans-120"/>
     <use x="122.363281" xlink:href="#DejaVuSans-112"/>
     <use x="185.839844" xlink:href="#DejaVuSans-101"/>
     <use x="247.363281" xlink:href="#DejaVuSans-114"/>
     <use x="288.476562" xlink:href="#DejaVuSans-105"/>
     <use x="316.259766" xlink:href="#DejaVuSans-109"/>
     <use x="413.671875" xlink:href="#DejaVuSans-101"/>
     <use x="475.195312" xlink:href="#DejaVuSans-110"/>
     <use x="538.574219" xlink:href="#DejaVuSans-116"/>
     <use x="577.783203" xlink:href="#DejaVuSans-97"/>
     <use x="639.0625" xlink:href="#DejaVuSans-108"/>
    </g>
   </g>
  </g>
  <g id="axes_2">
   <g id="patch_3">
    <path d="M 319.418182 210.894545 
L 547.2 210.894545 
L 547.2 51.84 
L 319.418182 51.84 
z
" style="fill:#ffffff;"/>
   </g>
   <g id="matplotlib.axis_3">
    <g id="xtick_6">
     <g id="line2d_27">
      <path clip-path="url(#pc12e3064fb)" d="M 329.771901 210.894545 
L 329.771901 51.84 
" style="fill:none;stroke:#ffffff;"/>
     </g>
     <g id="line2d_28"/>
     <g id="text_15">
      <!-- −100 -->
      <g style="fill:#555555;" transform="translate(316.038307 221.992983)scale(0.1 -0.1)">
       <use xlink:href="#DejaVuSans-8722"/>
       <use x="83.789062" xlink:href="#DejaVuSans-49"/>
       <use x="147.412109" xlink:href="#DejaVuSans-48"/>
       <use x="211.035156" xlink:href="#DejaVuSans-48"/>
      </g>
     </g>
    </g>
    <g id="xtick_7">
     <g id="line2d_29">
      <path clip-path="url(#pc12e3064fb)" d="M 381.540496 210.894545 
L 381.540496 51.84 
" style="fill:none;stroke:#ffffff;"/>
     </g>
     <g id="line2d_30"/>
     <g id="text_16">
      <!-- −50 -->
      <g style="fill:#555555;" transform="translate(370.988152 221.992983)scale(0.1 -0.1)">
       <use xlink:href="#DejaVuSans-8722"/>
       <use x="83.789062" xlink:href="#DejaVuSans-53"/>
       <use x="147.412109" xlink:href="#DejaVuSans-48"/>
      </g>
     </g>
    </g>
    <g id="xtick_8">
     <g id="line2d_31">
      <path clip-path="url(#pc12e3064fb)" d="M 433.309091 210.894545 
L 433.309091 51.84 
" style="fill:none;stroke:#ffffff;"/>
     </g>
     <g id="line2d_32"/>
     <g id="text_17">
      <!-- 0 -->
      <g style="fill:#555555;" transform="translate(430.127841 221.992983)scale(0.1 -0.1)">
       <use xlink:href="#DejaVuSans-48"/>
      </g>
     </g>
    </g>
    <g id="xtick_9">
     <g id="line2d_33">
      <path clip-path="url(#pc12e3064fb)" d="M 485.077686 210.894545 
L 485.077686 51.84 
" style="fill:none;stroke:#ffffff;"/>
     </g>
     <g id="line2d_34"/>
     <g id="text_18">
      <!-- 50 -->
      <g style="fill:#555555;" transform="translate(478.715186 221.992983)scale(0.1 -0.1)">
       <use xlink:href="#DejaVuSans-53"/>
       <use x="63.623047" xlink:href="#DejaVuSans-48"/>
      </g>
     </g>
    </g>
    <g id="xtick_10">
     <g id="line2d_35">
      <path clip-path="url(#pc12e3064fb)" d="M 536.846281 210.894545 
L 536.846281 51.84 
" style="fill:none;stroke:#ffffff;"/>
     </g>
     <g id="line2d_36"/>
     <g id="text_19">
      <!-- 100 -->
      <g style="fill:#555555;" transform="translate(527.302531 221.992983)scale(0.1 -0.1)">
       <use xlink:href="#DejaVuSans-49"/>
       <use x="63.623047" xlink:href="#DejaVuSans-48"/>
       <use x="127.246094" xlink:href="#DejaVuSans-48"/>
      </g>
     </g>
    </g>
    <g id="text_20">
     <!-- bp from TSS -->
     <g style="fill:#555555;" transform="translate(396.501903 237.190795)scale(0.12 -0.12)">
      <use xlink:href="#DejaVuSans-98"/>
      <use x="63.476562" xlink:href="#DejaVuSans-112"/>
      <use x="126.953125" xlink:href="#DejaVuSans-32"/>
      <use x="158.740234" xlink:href="#DejaVuSans-102"/>
      <use x="193.945312" xlink:href="#DejaVuSans-114"/>
      <use x="235.027344" xlink:href="#DejaVuSans-111"/>
      <use x="296.208984" xlink:href="#DejaVuSans-109"/>
      <use x="393.621094" xlink:href="#DejaVuSans-32"/>
      <use x="425.408203" xlink:href="#DejaVuSans-84"/>
      <use x="486.492188" xlink:href="#DejaVuSans-83"/>
      <use x="549.96875" xlink:href="#DejaVuSans-83"/>
     </g>
    </g>
   </g>
   <g id="matplotlib.axis_4">
    <g id="ytick_7">
     <g id="line2d_37">
      <path clip-path="url(#pc12e3064fb)" d="M 319.418182 203.664793 
L 547.2 203.664793 
" style="fill:none;stroke:#ffffff;"/>
     </g>
     <g id="line2d_38"/>
     <g id="text_21">
      <!-- 0.1 -->
      <g style="fill:#555555;" transform="translate(300.015057 207.464012)scale(0.1 -0.1)">
       <use xlink:href="#DejaVuSans-48"/>
       <use x="63.623047" xlink:href="#DejaVuSans-46"/>
       <use x="95.410156" xlink:href="#DejaVuSans-49"/>
      </g>
     </g>
    </g>
    <g id="ytick_8">
     <g id="line2d_39">
      <path clip-path="url(#pc12e3064fb)" d="M 319.418182 177.374786 
L 547.2 177.374786 
" style="fill:none;stroke:#ffffff;"/>
     </g>
     <g id="line2d_40"/>
     <g id="text_22">
      <!-- 0.2 -->
      <g style="fill:#555555;" transform="translate(300.015057 181.174005)scale(0.1 -0.1)">
       <use xlink:href="#DejaVuSans-48"/>
       <use x="63.623047" xlink:href="#DejaVuSans-46"/>
       <use x="95.410156" xlink:href="#DejaVuSans-50"/>
      </g>
     </g>
    </g>
    <g id="ytick_9">
     <g id="line2d_41">
      <path clip-path="url(#pc12e3064fb)" d="M 319.418182 151.084778 
L 547.2 151.084778 
" style="fill:none;stroke:#ffffff;"/>
     </g>
     <g id="line2d_42"/>
     <g id="text_23">
      <!-- 0.3 -->
      <g style="fill:#555555;" transform="translate(300.015057 154.883997)scale(0.1 -0.1)">
       <use xlink:href="#DejaVuSans-48"/>
       <use x="63.623047" xlink:href="#DejaVuSans-46"/>
       <use x="95.410156" xlink:href="#DejaVuSans-51"/>
      </g>
     </g>
    </g>
    <g id="ytick_10">
     <g id="line2d_43">
      <path clip-path="url(#pc12e3064fb)" d="M 319.418182 124.794771 
L 547.2 124.794771 
" style="fill:none;stroke:#ffffff;"/>
     </g>
     <g id="line2d_44"/>
     <g id="text_24">
      <!-- 0.4 -->
      <g style="fill:#555555;" transform="translate(300.015057 128.59399)scale(0.1 -0.1)">
       <use xlink:href="#DejaVuSans-48"/>
       <use x="63.623047" xlink:href="#DejaVuSans-46"/>
       <use x="95.410156" xlink:href="#DejaVuSans-52"/>
      </g>
     </g>
    </g>
    <g id="ytick_11">
     <g id="line2d_45">
      <path clip-path="url(#pc12e3064fb)" d="M 319.418182 98.504763 
L 547.2 98.504763 
" style="fill:none;stroke:#ffffff;"/>
     </g>
     <g id="line2d_46"/>
     <g id="text_25">
      <!-- 0.5 -->
      <g style="fill:#555555;" transform="translate(300.015057 102.303982)scale(0.1 -0.1)">
       <use xlink:href="#DejaVuSans-48"/>
       <use x="63.623047" xlink:href="#DejaVuSans-46"/>
       <use x="95.410156" xlink:href="#DejaVuSans-53"/>
      </g>
     </g>
    </g>
    <g id="ytick_12">
     <g id="line2d_47">
      <path clip-path="url(#pc12e3064fb)" d="M 319.418182 72.214756 
L 547.2 72.214756 
" style="fill:none;stroke:#ffffff;"/>
     </g>
     <g id="line2d_48"/>
     <g id="text_26">
      <!-- 0.6 -->
      <g style="fill:#555555;" transform="translate(300.015057 76.013975)scale(0.1 -0.1)">
       <use xlink:href="#DejaVuSans-48"/>
       <use x="63.623047" xlink:href="#DejaVuSans-46"/>
       <use x="95.410156" xlink:href="#DejaVuSans-54"/>
      </g>
     </g>
    </g>
    <g id="text_27">
     <!-- Frequency -->
     <g style="fill:#555555;" transform="translate(293.519432 162.92446)rotate(-90)scale(0.12 -0.12)">
      <use xlink:href="#DejaVuSans-70"/>
      <use x="57.410156" xlink:href="#DejaVuSans-114"/>
      <use x="98.492188" xlink:href="#DejaVuSans-101"/>
      <use x="160.015625" xlink:href="#DejaVuSans-113"/>
      <use x="223.492188" xlink:href="#DejaVuSans-117"/>
      <use x="286.871094" xlink:href="#DejaVuSans-101"/>
      <use x="348.394531" xlink:href="#DejaVuSans-110"/>
      <use x="411.773438" xlink:href="#DejaVuSans-99"/>
      <use x="466.753906" xlink:href="#DejaVuSans-121"/>
     </g>
    </g>
   </g>
   <g id="LineCollection_2">
    <path clip-path="url(#pc12e3064fb)" d="M 433.309091 203.664793 
L 433.309091 59.069752 
" style="fill:none;stroke:#000000;stroke-width:0.5;"/>
   </g>
   <g id="line2d_49">
    <path clip-path="url(#pc12e3064fb)" d="M 329.771901 151.933683 
L 330.807273 151.014584 
L 331.842645 153.852065 
L 332.878017 152.486299 
L 333.913388 152.894845 
L 334.94876 152.384293 
L 335.984132 152.320409 
L 337.019504 150.788753 
L 338.054876 150.115992 
L 339.090248 152.222084 
L 340.12562 150.885763 
L 341.160992 151.281428 
L 342.196364 151.33243 
L 343.231736 151.051653 
L 344.267107 151.051653 
L 345.302479 151.396315 
L 346.337851 151.408934 
L 347.373223 150.05605 
L 348.408595 150.541101 
L 349.443967 149.749772 
L 350.479339 150.030549 
L 351.514711 149.022327 
L 352.550083 150.838441 
L 353.585455 150.1875 
L 354.620826 149.217662 
L 355.656198 149.872283 
L 356.69157 151.161282 
L 357.726942 151.174164 
L 358.762314 149.221606 
L 359.797686 150.61261 
L 360.833058 151.437064 
L 361.86843 149.701398 
L 362.903802 149.956674 
L 363.939174 149.969556 
L 364.974545 150.939395 
L 366.009917 150.888129 
L 367.045289 150.339457 
L 368.080661 149.089104 
L 369.116033 149.037838 
L 370.151405 150.684119 
L 371.186777 150.850009 
L 374.292893 149.586774 
L 375.328264 148.629555 
L 376.363636 148.922951 
L 377.399008 150.454344 
L 379.469752 149.624894 
L 380.505124 149.624894 
L 381.540496 149.896733 
L 382.575868 149.871232 
L 383.61124 150.368901 
L 384.646612 150.228513 
L 385.681983 152.283077 
L 386.717355 148.81227 
L 387.752727 150.904955 
L 388.788099 150.266896 
L 389.823471 150.14307 
L 390.858843 150.513234 
L 391.894215 150.334462 
L 392.929587 150.347344 
L 393.964959 148.356664 
L 395.000331 149.563901 
L 397.071074 150.324471 
L 399.141818 150.617868 
L 400.17719 148.857489 
L 401.212562 150.286088 
L 402.247934 149.329395 
L 403.283306 151.523559 
L 404.318678 150.962267 
L 405.35405 148.512827 
L 406.389421 149.189006 
L 407.424793 149.482402 
L 408.460165 149.992691 
L 409.495537 150.107579 
L 410.530909 149.8013 
L 411.566281 150.749318 
L 412.601653 149.907249 
L 413.637025 149.613852 
L 414.672397 150.251648 
L 417.778512 149.129328 
L 418.813884 151.272226 
L 419.849256 150.557927 
L 420.884628 149.001558 
L 421.92 151.553003 
L 422.955372 151.046395 
L 423.990744 152.551761 
L 425.026116 149.515791 
L 426.061488 151.990469 
L 427.09686 145.69112 
L 428.132231 151.453101 
L 429.167603 148.028039 
L 430.202975 153.496624 
L 431.238347 151.227533 
L 432.273719 148.537802 
L 433.309091 152.58252 
L 434.344463 151.10397 
L 435.379835 150.51744 
L 436.415207 154.622099 
L 437.450579 148.605631 
L 438.48595 151.193093 
L 439.521322 150.237189 
L 440.556694 148.873263 
L 441.592066 150.284248 
L 442.627438 152.145317 
L 443.66281 149.901728 
L 444.698182 149.570474 
L 445.733554 151.163911 
L 446.768926 150.449875 
L 447.804298 148.754695 
L 448.839669 151.265917 
L 449.875041 148.512301 
L 450.910413 151.431544 
L 451.945785 151.890304 
L 452.981157 150.016615 
L 454.016529 151.406042 
L 455.051901 153.216109 
L 456.087273 151.482546 
L 458.158017 152.476834 
L 459.193388 151.661055 
L 460.22876 151.214914 
L 461.264132 152.514955 
L 463.334876 150.947019 
L 464.370248 152.425832 
L 465.40562 150.704888 
L 466.440992 151.240415 
L 467.476364 149.91461 
L 468.511736 149.430085 
L 470.582479 152.298325 
L 471.617851 151.431544 
L 472.653223 150.768772 
L 473.688595 151.418661 
L 476.794711 150.921517 
L 477.830083 151.992309 
L 478.865455 151.112909 
L 479.900826 151.13841 
L 480.936198 152.272824 
L 481.97157 151.418661 
L 483.006942 151.77568 
L 484.042314 152.502336 
L 486.113058 150.564762 
L 487.14843 152.387448 
L 488.183802 151.750178 
L 489.219174 153.776875 
L 490.254545 151.699176 
L 491.289917 151.77568 
L 492.325289 153.343616 
L 493.360661 153.101485 
L 494.396033 151.520667 
L 495.431405 152.234703 
L 496.466777 151.77568 
L 497.502149 152.629842 
L 498.537521 151.087407 
L 499.572893 152.361947 
L 500.608264 150.195125 
L 501.643636 150.360752 
L 502.679008 150.97252 
L 503.71438 151.13841 
L 504.749752 152.298325 
L 505.785124 151.253034 
L 506.820496 150.97252 
L 507.855868 152.591459 
L 510.961983 149.927229 
L 511.997355 151.97969 
L 513.032727 151.661055 
L 514.068099 151.482546 
L 515.103471 151.010903 
L 516.138843 151.571669 
L 517.174215 151.482546 
L 518.209587 152.170819 
L 519.244959 150.870515 
L 520.280331 151.890304 
L 521.315702 151.329538 
L 522.351074 152.209202 
L 523.386446 152.260205 
L 524.421818 151.342158 
L 526.492562 151.227533 
L 527.527934 153.585747 
L 528.563306 152.40033 
L 529.598678 151.699176 
L 530.63405 151.546168 
L 531.669421 150.97252 
L 532.704793 152.706346 
L 533.740165 151.520667 
L 534.775537 151.928688 
L 535.810909 152.718965 
L 536.846281 152.179757 
L 536.846281 152.179757 
" style="fill:none;stroke:#e24a33;stroke-width:2;"/>
   </g>
   <g id="line2d_50">
    <path clip-path="url(#pc12e3064fb)" d="M 329.771901 177.847217 
L 330.807273 178.204499 
L 331.842645 177.083755 
L 332.878017 178.717679 
L 333.913388 178.513406 
L 334.94876 178.015473 
L 335.984132 178.015473 
L 337.019504 179.853671 
L 338.054876 177.558553 
L 339.090248 178.937201 
L 340.12562 179.450119 
L 341.160992 178.454516 
L 343.231736 178.441897 
L 344.267107 179.463001 
L 345.302479 179.105457 
L 346.337851 178.173739 
L 347.373223 179.552124 
L 348.408595 179.692513 
L 349.443967 180.662614 
L 350.479339 180.598729 
L 351.514711 179.360733 
L 352.550083 179.095204 
L 353.585455 180.613978 
L 354.620826 180.205694 
L 355.656198 179.595503 
L 357.726942 179.799513 
L 359.797686 181.70107 
L 360.833058 179.868393 
L 361.86843 180.965738 
L 362.903802 180.876352 
L 363.939174 180.442567 
L 364.974545 181.284636 
L 366.009917 181.297518 
L 367.045289 180.684961 
L 368.080661 181.667681 
L 369.116033 181.386904 
L 370.151405 180.863733 
L 371.186777 181.297518 
L 372.222149 180.480687 
L 373.257521 181.718684 
L 374.292893 181.986579 
L 375.328264 182.114086 
L 376.363636 181.986579 
L 377.399008 181.131628 
L 378.43438 180.889234 
L 379.469752 181.437907 
L 380.505124 181.6803 
L 381.540496 182.984285 
L 382.575868 183.392569 
L 383.61124 182.652505 
L 384.646612 182.665124 
L 385.681983 181.452892 
L 386.717355 182.869397 
L 387.752727 181.478393 
L 388.788099 182.678006 
L 389.823471 182.399595 
L 390.858843 181.378754 
L 391.894215 182.144319 
L 392.929587 182.208204 
L 393.964959 183.16516 
L 395.000331 183.093125 
L 396.035702 182.215039 
L 399.141818 182.587306 
L 400.17719 184.105554 
L 401.212562 183.595265 
L 403.283306 183.046592 
L 404.318678 182.778697 
L 405.35405 184.118173 
L 406.389421 184.284063 
L 407.424793 183.390991 
L 408.460165 182.995589 
L 409.495537 184.016168 
L 410.530909 183.36549 
L 411.566281 182.997956 
L 412.601653 182.90857 
L 413.637025 182.57679 
L 414.672397 182.500286 
L 415.707769 183.431478 
L 416.74314 183.699373 
L 417.778512 182.793682 
L 418.813884 183.482743 
L 419.849256 183.712255 
L 420.884628 185.523637 
L 421.92 183.44436 
L 422.955372 183.663356 
L 423.990744 182.349644 
L 425.026116 182.630158 
L 426.061488 182.706662 
L 427.09686 187.746457 
L 428.132231 185.706878 
L 429.167603 183.184878 
L 430.202975 180.087389 
L 431.238347 181.081677 
L 432.273719 181.145562 
L 433.309091 178.674827 
L 434.344463 187.189634 
L 435.379835 186.412239 
L 436.415207 180.752526 
L 437.450579 182.67748 
L 438.48595 182.575475 
L 439.521322 184.474665 
L 440.556694 182.065449 
L 441.592066 185.326462 
L 442.627438 182.381981 
L 443.66281 183.643901 
L 444.698182 183.758525 
L 445.733554 183.605781 
L 446.768926 182.726117 
L 447.804298 184.918704 
L 448.839669 180.826664 
L 449.875041 183.745906 
L 450.910413 183.65652 
L 451.945785 182.930127 
L 452.981157 183.949917 
L 454.016529 183.937035 
L 455.051901 181.859335 
L 456.087273 181.374811 
L 457.122645 183.478274 
L 458.158017 182.075965 
L 460.22876 183.82241 
L 461.264132 182.904626 
L 462.299504 182.853623 
L 464.370248 183.503775 
L 465.40562 181.769949 
L 466.440992 182.789739 
L 467.476364 182.77712 
L 468.511736 183.465392 
L 469.547107 182.968248 
L 470.582479 183.032133 
L 471.617851 182.279975 
L 472.653223 182.700616 
L 473.688595 182.420101 
L 474.723967 182.917245 
L 475.759339 182.81524 
L 476.794711 181.999461 
L 477.830083 182.662232 
L 478.865455 184.523565 
L 479.900826 182.891744 
L 480.936198 182.840741 
L 481.97157 184.752814 
L 483.006942 183.146757 
L 484.042314 182.050464 
L 485.077686 184.217549 
L 486.113058 183.478274 
L 487.14843 183.490893 
L 488.183802 184.600069 
L 489.219174 182.56049 
L 490.254545 183.82241 
L 491.289917 183.529277 
L 492.325289 182.445603 
L 493.360661 183.439891 
L 494.396033 183.337885 
L 495.431405 182.165088 
L 496.466777 182.458485 
L 497.502149 184.67631 
L 498.537521 183.605781 
L 499.572893 181.323808 
L 500.608264 183.65652 
L 501.643636 183.465392 
L 502.679008 181.986842 
L 503.71438 183.146757 
L 504.749752 182.381981 
L 505.785124 182.037845 
L 506.820496 183.146757 
L 508.89124 181.642706 
L 509.926612 184.090042 
L 510.961983 182.063346 
L 511.997355 182.3946 
L 513.032727 182.152469 
L 514.068099 183.223261 
L 515.103471 183.350767 
L 517.174215 182.585991 
L 518.209587 182.547608 
L 519.244959 184.115544 
L 520.280331 181.438695 
L 521.315702 181.642706 
L 522.351074 183.070253 
L 523.386446 182.305477 
L 524.421818 182.649613 
L 525.45719 183.261381 
L 526.492562 182.088847 
L 527.527934 181.910338 
L 528.563306 181.285687 
L 529.598678 182.241592 
L 530.63405 181.13268 
L 531.669421 182.241592 
L 533.740165 181.502317 
L 534.775537 183.376269 
L 535.810909 182.228973 
L 536.846281 182.762134 
L 536.846281 182.762134 
" style="fill:none;stroke:#348abd;stroke-opacity:0.8;stroke-width:2;"/>
   </g>
   <g id="line2d_51">
    <path clip-path="url(#pc12e3064fb)" d="M 329.771901 177.974724 
L 330.807273 177.808834 
L 331.842645 177.300648 
L 332.878017 176.611587 
L 334.94876 177.773079 
L 335.984132 177.785699 
L 337.019504 178.845186 
L 338.054876 178.567038 
L 339.090248 177.124505 
L 340.12562 178.505519 
L 341.160992 177.637686 
L 342.196364 177.739691 
L 343.231736 178.454516 
L 344.267107 179.32235 
L 345.302479 177.369791 
L 346.337851 178.633289 
L 348.408595 178.416396 
L 349.443967 177.778075 
L 350.479339 179.386234 
L 351.514711 179.960671 
L 352.550083 179.261094 
L 353.585455 177.563548 
L 354.620826 179.68226 
L 355.656198 179.467733 
L 356.69157 178.816793 
L 357.726942 178.93168 
L 358.762314 180.003787 
L 359.797686 179.429613 
L 360.833058 179.868393 
L 361.86843 179.485348 
L 362.903802 179.421726 
L 363.939174 181.182631 
L 364.974545 179.16645 
L 366.009917 179.842629 
L 367.045289 180.097905 
L 368.080661 181.003859 
L 369.116033 180.404183 
L 370.151405 180.187291 
L 371.186777 179.217453 
L 372.222149 180.340299 
L 373.257521 179.472728 
L 374.292893 180.391564 
L 375.328264 180.174409 
L 376.363636 179.766125 
L 377.399008 180.901853 
L 378.43438 180.519071 
L 379.469752 180.825349 
L 380.505124 180.263795 
L 381.540496 179.883378 
L 382.575868 178.645645 
L 383.61124 179.513478 
L 384.646612 179.89626 
L 385.681983 178.262862 
L 386.717355 181.006488 
L 387.752727 179.194317 
L 388.788099 179.602601 
L 389.823471 180.498302 
L 390.858843 180.766197 
L 391.894215 180.14102 
L 392.929587 180.613189 
L 393.964959 181.736035 
L 395.000331 180.452031 
L 396.035702 181.028571 
L 397.071074 180.316638 
L 398.106446 180.571651 
L 399.141818 179.972239 
L 400.17719 180.099745 
L 401.212562 179.487451 
L 402.247934 180.418643 
L 403.283306 179.525571 
L 404.318678 179.716963 
L 405.35405 180.788543 
L 406.389421 180.393142 
L 408.460165 180.099745 
L 409.495537 179.33418 
L 410.530909 180.137866 
L 411.566281 179.19642 
L 412.601653 180.574017 
L 413.637025 179.783213 
L 414.672397 179.923602 
L 415.707769 178.775517 
L 416.74314 179.36231 
L 417.778512 180.331886 
L 418.813884 179.54082 
L 419.849256 180.421009 
L 420.884628 180.255119 
L 421.92 179.834216 
L 422.955372 180.015354 
L 423.990744 179.581569 
L 425.026116 182.464531 
L 426.061488 180.027973 
L 427.09686 185.260737 
L 428.132231 176.57925 
L 429.167603 183.172258 
L 430.202975 181.846453 
L 431.238347 184.523565 
L 433.309091 180.650784 
L 434.344463 171.574947 
L 435.379835 180.943917 
L 436.415207 180.956536 
L 437.450579 182.447969 
L 439.521322 180.905534 
L 440.556694 179.13385 
L 441.592066 179.297111 
L 442.627438 181.094559 
L 443.66281 179.69225 
L 444.698182 180.087389 
L 445.733554 180.852165 
L 446.768926 180.814045 
L 447.804298 181.629824 
L 448.839669 180.724659 
L 449.875041 179.322613 
L 450.910413 181.693445 
L 451.945785 181.451314 
L 452.981157 180.686538 
L 454.016529 179.679368 
L 455.051901 181.33669 
L 456.087273 182.573109 
L 457.122645 179.972764 
L 458.158017 179.297111 
L 459.193388 179.781373 
L 460.22876 179.182224 
L 462.299504 180.393405 
L 463.334876 181.884837 
L 464.370248 179.297111 
L 465.40562 179.182224 
L 466.440992 180.673656 
L 467.476364 181.413194 
L 468.511736 180.53353 
L 469.547107 180.406024 
L 470.582479 180.597415 
L 471.617851 179.959882 
L 472.653223 180.571914 
L 473.688595 180.151274 
L 474.723967 178.991096 
L 475.759339 180.061888 
L 476.794711 179.857877 
L 477.830083 179.513741 
L 479.900826 179.666749 
L 480.936198 177.461543 
L 481.97157 178.88909 
L 483.006942 178.876471 
L 484.042314 178.379327 
L 485.077686 178.876471 
L 486.113058 179.207725 
L 487.14843 176.658383 
L 488.183802 178.340944 
L 489.219174 177.767296 
L 490.254545 178.251821 
L 491.289917 179.89626 
L 492.325289 177.525165 
L 493.360661 177.168409 
L 494.396033 177.996807 
L 495.431405 179.233227 
L 496.466777 177.882183 
L 497.502149 177.308535 
L 498.537521 178.060692 
L 499.572893 177.933186 
L 500.608264 178.838088 
L 501.643636 178.863589 
L 502.679008 179.067599 
L 503.71438 179.48824 
L 504.749752 179.462738 
L 505.785124 179.042098 
L 506.820496 179.233227 
L 507.855868 178.111695 
L 508.89124 177.741794 
L 509.926612 178.04781 
L 510.961983 179.156985 
L 511.997355 178.073311 
L 513.032727 179.348114 
L 514.068099 178.532335 
L 515.103471 177.117407 
L 516.138843 177.741794 
L 517.174215 179.131484 
L 518.209587 179.246109 
L 519.244959 178.238938 
L 520.280331 178.736082 
L 521.315702 178.532335 
L 522.351074 178.672461 
L 523.386446 178.340944 
L 524.421818 178.774466 
L 525.45719 178.442949 
L 526.492562 178.901972 
L 527.527934 177.193648 
L 528.563306 179.819757 
L 529.598678 178.544954 
L 530.63405 178.68508 
L 531.669421 178.991096 
L 532.704793 178.85097 
L 533.740165 179.348114 
L 534.775537 178.825468 
L 535.810909 179.806874 
L 536.846281 179.536876 
L 536.846281 179.536876 
" style="fill:none;stroke:#988ed5;stroke-opacity:0.6;stroke-width:2;"/>
   </g>
   <g id="line2d_52">
    <path clip-path="url(#pc12e3064fb)" d="M 329.771901 149.163505 
L 330.807273 149.891212 
L 331.842645 148.682397 
L 332.878017 149.103826 
L 333.913388 148.274114 
L 334.94876 148.746282 
L 335.984132 148.797285 
L 337.019504 147.431519 
L 338.054876 150.677546 
L 339.090248 148.635338 
L 340.12562 148.077727 
L 341.160992 149.545498 
L 342.196364 149.392228 
L 343.231736 148.971062 
L 344.267107 147.082125 
L 345.302479 149.047829 
L 346.337851 148.703167 
L 347.373223 148.805172 
L 348.408595 148.269119 
L 349.443967 148.728668 
L 350.479339 146.903616 
L 351.514711 148.575397 
L 352.550083 147.72439 
L 353.585455 148.553839 
L 354.620826 147.813776 
L 355.656198 147.983609 
L 356.69157 147.217781 
L 357.726942 147.013771 
L 358.762314 146.975387 
L 359.797686 145.175836 
L 360.833058 145.745541 
L 361.86843 146.766382 
L 362.903802 146.664376 
L 363.939174 145.324638 
L 364.974545 145.528648 
L 366.009917 144.89059 
L 367.045289 145.796543 
L 368.080661 145.158485 
L 369.116033 146.090203 
L 370.151405 145.184249 
L 371.186777 145.554149 
L 373.257521 145.809425 
L 374.292893 144.954474 
L 375.328264 146.000817 
L 376.363636 146.243211 
L 377.399008 144.431303 
L 378.43438 145.413761 
L 379.469752 145.030978 
L 380.505124 145.350139 
L 381.540496 144.154732 
L 382.575868 145.009683 
L 383.61124 144.384244 
L 384.646612 144.129231 
L 385.681983 144.920297 
L 386.717355 144.231236 
L 387.752727 145.341463 
L 388.788099 144.371625 
L 389.823471 143.878162 
L 390.858843 144.260944 
L 391.894215 144.299065 
L 392.929587 143.750655 
L 393.964959 143.661269 
L 395.000331 143.809807 
L 396.035702 143.699389 
L 397.071074 143.958609 
L 398.106446 143.333433 
L 399.141818 143.741716 
L 400.17719 143.856604 
L 401.212562 143.550325 
L 402.247934 143.805601 
L 403.283306 142.823144 
L 404.318678 143.461202 
L 405.35405 143.499322 
L 406.389421 143.052918 
L 407.424793 143.843722 
L 408.460165 143.831102 
L 409.495537 143.461202 
L 410.530909 143.61421 
L 411.566281 143.975435 
L 412.601653 143.52903 
L 413.637025 144.94501 
L 414.672397 144.24333 
L 415.707769 144.868506 
L 416.74314 144.383718 
L 417.778512 144.664496 
L 418.813884 142.623339 
L 419.849256 142.227938 
L 421.92 142.087549 
L 422.955372 142.193761 
L 423.990744 142.436155 
L 426.061488 142.193761 
L 427.09686 138.220815 
L 428.132231 143.179899 
L 429.167603 142.533953 
L 430.202975 141.488663 
L 431.238347 140.086354 
L 432.273719 144.72654 
L 433.309091 145.010998 
L 434.344463 147.050577 
L 435.379835 139.045532 
L 436.415207 140.587967 
L 437.450579 143.188312 
L 438.48595 141.441867 
L 439.521322 141.301741 
L 440.556694 146.846566 
L 441.592066 142.011308 
L 442.627438 141.297534 
L 443.66281 143.681249 
L 444.698182 143.50274 
L 445.733554 141.297534 
L 446.768926 142.929092 
L 447.804298 141.616169 
L 448.839669 144.101889 
L 449.875041 145.338309 
L 450.910413 140.137356 
L 451.945785 140.647382 
L 452.981157 142.266321 
L 454.016529 141.896421 
L 455.051901 140.506994 
L 456.087273 141.488663 
L 457.122645 141.450279 
L 458.158017 143.069218 
L 459.193388 142.546573 
L 460.22876 142.69958 
L 461.264132 141.769177 
L 462.299504 141.985807 
L 463.334876 140.876631 
L 464.370248 141.692673 
L 465.40562 145.261805 
L 466.440992 142.215319 
L 468.511736 143.489858 
L 469.547107 142.69958 
L 470.582479 140.991519 
L 471.617851 143.247727 
L 472.653223 142.87809 
L 473.688595 142.929092 
L 474.723967 143.732252 
L 475.759339 142.941711 
L 476.794711 144.14001 
L 477.830083 142.750583 
L 478.865455 141.65429 
L 479.900826 143.222226 
L 480.936198 144.34402 
L 481.97157 141.8583 
L 483.006942 143.120221 
L 484.042314 143.987002 
L 485.077686 142.329943 
L 486.113058 143.668367 
L 487.14843 144.382141 
L 488.183802 142.227938 
L 489.219174 142.814468 
L 490.254545 143.145722 
L 491.289917 141.718174 
L 492.325289 143.604745 
L 493.360661 143.209607 
L 494.396033 144.063506 
L 495.431405 143.286111 
L 496.466777 144.803044 
L 497.502149 142.304442 
L 498.537521 144.165511 
L 499.572893 145.300188 
L 500.608264 144.229396 
L 501.643636 144.229396 
L 502.679008 144.892167 
L 503.71438 143.145722 
L 504.749752 142.776084 
L 505.785124 144.586151 
L 506.820496 143.566362 
L 507.855868 143.757753 
L 508.89124 145.873573 
L 509.926612 143.936 
L 510.961983 145.771831 
L 511.997355 144.471527 
L 513.032727 143.757753 
L 514.068099 143.681249 
L 515.103471 145.440314 
L 518.209587 142.954594 
L 519.244959 143.693869 
L 520.280331 144.853784 
L 521.315702 145.414812 
L 522.351074 142.967213 
L 523.386446 144.012503 
L 524.421818 144.152892 
L 525.45719 143.961501 
L 526.492562 144.701039 
L 527.527934 144.229396 
L 528.563306 143.413354 
L 530.63405 145.554938 
L 531.669421 144.713658 
L 532.704793 143.451738 
L 533.740165 144.548031 
L 534.775537 142.788966 
L 535.810909 142.164316 
L 536.846281 142.440361 
L 536.846281 142.440361 
" style="fill:none;stroke:#777777;stroke-opacity:0.4;stroke-width:2;"/>
   </g>
   <g id="text_28">
    <!-- RefSeq -->
    <defs>
     <path d="M 44.390625 34.1875 
Q 47.5625 33.109375 50.5625 29.59375 
Q 53.5625 26.078125 56.59375 19.921875 
L 66.609375 0 
L 56 0 
L 46.6875 18.703125 
Q 43.0625 26.03125 39.671875 28.421875 
Q 36.28125 30.8125 30.421875 30.8125 
L 19.671875 30.8125 
L 19.671875 0 
L 9.8125 0 
L 9.8125 72.90625 
L 32.078125 72.90625 
Q 44.578125 72.90625 50.734375 67.671875 
Q 56.890625 62.453125 56.890625 51.90625 
Q 56.890625 45.015625 53.6875 40.46875 
Q 50.484375 35.9375 44.390625 34.1875 
z
M 19.671875 64.796875 
L 19.671875 38.921875 
L 32.078125 38.921875 
Q 39.203125 38.921875 42.84375 42.21875 
Q 46.484375 45.515625 46.484375 51.90625 
Q 46.484375 58.296875 42.84375 61.546875 
Q 39.203125 64.796875 32.078125 64.796875 
z
" id="DejaVuSans-82"/>
    </defs>
    <g transform="translate(407.773841 45.84)scale(0.144 -0.144)">
     <use xlink:href="#DejaVuSans-82"/>
     <use x="69.419922" xlink:href="#DejaVuSans-101"/>
     <use x="130.943359" xlink:href="#DejaVuSans-102"/>
     <use x="166.148438" xlink:href="#DejaVuSans-83"/>
     <use x="229.625" xlink:href="#DejaVuSans-101"/>
     <use x="291.148438" xlink:href="#DejaVuSans-113"/>
    </g>
   </g>
   <g id="legend_1">
    <g id="patch_4">
     <path d="M 563.311273 64.84 
L 567.311273 64.84 
Q 569.311273 64.84 569.311273 62.84 
L 569.311273 58.84 
Q 569.311273 56.84 567.311273 56.84 
L 563.311273 56.84 
Q 561.311273 56.84 561.311273 58.84 
L 561.311273 62.84 
Q 561.311273 64.84 563.311273 64.84 
z
" style="fill:#e5e5e5;opacity:0.8;stroke:#cccccc;stroke-linejoin:miter;stroke-width:0.5;"/>
    </g>
   </g>
  </g>
 </g>
 <defs>
  <clipPath id="pa3b6cbe580">
   <rect height="159.054545" width="227.781818" x="46.08" y="51.84"/>
  </clipPath>
  <clipPath id="pc12e3064fb">
   <rect height="159.054545" width="227.781818" x="319.418182" y="51.84"/>
  </clipPath>
 </defs>
</svg>
