<?xml version="1.0" encoding="utf-8" standalone="no"?>
<!DOCTYPE svg PUBLIC "-//W3C//DTD SVG 1.1//EN"
  "http://www.w3.org/Graphics/SVG/1.1/DTD/svg11.dtd">
<!-- Created with matplotlib (https://matplotlib.org/) -->
<svg height="288pt" version="1.1" viewBox="0 0 432 288" width="432pt" xmlns="http://www.w3.org/2000/svg" xmlns:xlink="http://www.w3.org/1999/xlink">
 <defs>
  <style type="text/css">
*{stroke-linecap:butt;stroke-linejoin:round;}
  </style>
 </defs>
 <g id="figure_1">
  <g id="patch_1">
   <path d="M 0 288 
L 432 288 
L 432 0 
L 0 0 
z
" style="fill:#f0f0f0;"/>
  </g>
  <g id="axes_1">
   <g id="patch_2">
    <path d="M 34.56 252 
L 410.4 252 
L 410.4 34.56 
L 34.56 34.56 
z
" style="fill:#ffffff;"/>
   </g>
   <g id="matplotlib.axis_1">
    <g id="xtick_1">
     <g id="line2d_1"/>
     <g id="text_1">
      <!-- N-glycan -->
      <defs>
       <path d="M 9.8125 72.90625 
L 23.09375 72.90625 
L 55.421875 11.921875 
L 55.421875 72.90625 
L 64.984375 72.90625 
L 64.984375 0 
L 51.703125 0 
L 19.390625 60.984375 
L 19.390625 0 
L 9.8125 0 
z
" id="DejaVuSans-78"/>
       <path d="M 4.890625 31.390625 
L 31.203125 31.390625 
L 31.203125 23.390625 
L 4.890625 23.390625 
z
" id="DejaVuSans-45"/>
       <path d="M 45.40625 27.984375 
Q 45.40625 37.75 41.375 43.109375 
Q 37.359375 48.484375 30.078125 48.484375 
Q 22.859375 48.484375 18.828125 43.109375 
Q 14.796875 37.75 14.796875 27.984375 
Q 14.796875 18.265625 18.828125 12.890625 
Q 22.859375 7.515625 30.078125 7.515625 
Q 37.359375 7.515625 41.375 12.890625 
Q 45.40625 18.265625 45.40625 27.984375 
z
M 54.390625 6.78125 
Q 54.390625 -7.171875 48.1875 -13.984375 
Q 42 -20.796875 29.203125 -20.796875 
Q 24.46875 -20.796875 20.265625 -20.09375 
Q 16.0625 -19.390625 12.109375 -17.921875 
L 12.109375 -9.1875 
Q 16.0625 -11.328125 19.921875 -12.34375 
Q 23.78125 -13.375 27.78125 -13.375 
Q 36.625 -13.375 41.015625 -8.765625 
Q 45.40625 -4.15625 45.40625 5.171875 
L 45.40625 9.625 
Q 42.625 4.78125 38.28125 2.390625 
Q 33.9375 0 27.875 0 
Q 17.828125 0 11.671875 7.65625 
Q 5.515625 15.328125 5.515625 27.984375 
Q 5.515625 40.671875 11.671875 48.328125 
Q 17.828125 56 27.875 56 
Q 33.9375 56 38.28125 53.609375 
Q 42.625 51.21875 45.40625 46.390625 
L 45.40625 54.6875 
L 54.390625 54.6875 
z
" id="DejaVuSans-103"/>
       <path d="M 9.421875 75.984375 
L 18.40625 75.984375 
L 18.40625 0 
L 9.421875 0 
z
" id="DejaVuSans-108"/>
       <path d="M 32.171875 -5.078125 
Q 28.375 -14.84375 24.75 -17.8125 
Q 21.140625 -20.796875 15.09375 -20.796875 
L 7.90625 -20.796875 
L 7.90625 -13.28125 
L 13.1875 -13.28125 
Q 16.890625 -13.28125 18.9375 -11.515625 
Q 21 -9.765625 23.484375 -3.21875 
L 25.09375 0.875 
L 2.984375 54.6875 
L 12.5 54.6875 
L 29.59375 11.921875 
L 46.6875 54.6875 
L 56.203125 54.6875 
z
" id="DejaVuSans-121"/>
       <path d="M 48.78125 52.59375 
L 48.78125 44.1875 
Q 44.96875 46.296875 41.140625 47.34375 
Q 37.3125 48.390625 33.40625 48.390625 
Q 24.65625 48.390625 19.8125 42.84375 
Q 14.984375 37.3125 14.984375 27.296875 
Q 14.984375 17.28125 19.8125 11.734375 
Q 24.65625 6.203125 33.40625 6.203125 
Q 37.3125 6.203125 41.140625 7.25 
Q 44.96875 8.296875 48.78125 10.40625 
L 48.78125 2.09375 
Q 45.015625 0.34375 40.984375 -0.53125 
Q 36.96875 -1.421875 32.421875 -1.421875 
Q 20.0625 -1.421875 12.78125 6.34375 
Q 5.515625 14.109375 5.515625 27.296875 
Q 5.515625 40.671875 12.859375 48.328125 
Q 20.21875 56 33.015625 56 
Q 37.15625 56 41.109375 55.140625 
Q 45.0625 54.296875 48.78125 52.59375 
z
" id="DejaVuSans-99"/>
       <path d="M 34.28125 27.484375 
Q 23.390625 27.484375 19.1875 25 
Q 14.984375 22.515625 14.984375 16.5 
Q 14.984375 11.71875 18.140625 8.90625 
Q 21.296875 6.109375 26.703125 6.109375 
Q 34.1875 6.109375 38.703125 11.40625 
Q 43.21875 16.703125 43.21875 25.484375 
L 43.21875 27.484375 
z
M 52.203125 31.203125 
L 52.203125 0 
L 43.21875 0 
L 43.21875 8.296875 
Q 40.140625 3.328125 35.546875 0.953125 
Q 30.953125 -1.421875 24.3125 -1.421875 
Q 15.921875 -1.421875 10.953125 3.296875 
Q 6 8.015625 6 15.921875 
Q 6 25.140625 12.171875 29.828125 
Q 18.359375 34.515625 30.609375 34.515625 
L 43.21875 34.515625 
L 43.21875 35.40625 
Q 43.21875 41.609375 39.140625 45 
Q 35.0625 48.390625 27.6875 48.390625 
Q 23 48.390625 18.546875 47.265625 
Q 14.109375 46.140625 10.015625 43.890625 
L 10.015625 52.203125 
Q 14.9375 54.109375 19.578125 55.046875 
Q 24.21875 56 28.609375 56 
Q 40.484375 56 46.34375 49.84375 
Q 52.203125 43.703125 52.203125 31.203125 
z
" id="DejaVuSans-97"/>
       <path d="M 54.890625 33.015625 
L 54.890625 0 
L 45.90625 0 
L 45.90625 32.71875 
Q 45.90625 40.484375 42.875 44.328125 
Q 39.84375 48.1875 33.796875 48.1875 
Q 26.515625 48.1875 22.3125 43.546875 
Q 18.109375 38.921875 18.109375 30.90625 
L 18.109375 0 
L 9.078125 0 
L 9.078125 54.6875 
L 18.109375 54.6875 
L 18.109375 46.1875 
Q 21.34375 51.125 25.703125 53.5625 
Q 30.078125 56 35.796875 56 
Q 45.21875 56 50.046875 50.171875 
Q 54.890625 44.34375 54.890625 33.015625 
z
" id="DejaVuSans-110"/>
      </defs>
      <g transform="translate(47.759375 299.598437)rotate(-90)scale(0.1 -0.1)">
       <use xlink:href="#DejaVuSans-78"/>
       <use x="74.804688" xlink:href="#DejaVuSans-45"/>
       <use x="110.888672" xlink:href="#DejaVuSans-103"/>
       <use x="174.365234" xlink:href="#DejaVuSans-108"/>
       <use x="202.148438" xlink:href="#DejaVuSans-121"/>
       <use x="261.328125" xlink:href="#DejaVuSans-99"/>
       <use x="316.308594" xlink:href="#DejaVuSans-97"/>
       <use x="377.587891" xlink:href="#DejaVuSans-110"/>
      </g>
     </g>
    </g>
    <g id="xtick_2">
     <g id="line2d_2"/>
     <g id="text_2">
      <!-- O-glycan_Mucin -->
      <defs>
       <path d="M 39.40625 66.21875 
Q 28.65625 66.21875 22.328125 58.203125 
Q 16.015625 50.203125 16.015625 36.375 
Q 16.015625 22.609375 22.328125 14.59375 
Q 28.65625 6.59375 39.40625 6.59375 
Q 50.140625 6.59375 56.421875 14.59375 
Q 62.703125 22.609375 62.703125 36.375 
Q 62.703125 50.203125 56.421875 58.203125 
Q 50.140625 66.21875 39.40625 66.21875 
z
M 39.40625 74.21875 
Q 54.734375 74.21875 63.90625 63.9375 
Q 73.09375 53.65625 73.09375 36.375 
Q 73.09375 19.140625 63.90625 8.859375 
Q 54.734375 -1.421875 39.40625 -1.421875 
Q 24.03125 -1.421875 14.8125 8.828125 
Q 5.609375 19.09375 5.609375 36.375 
Q 5.609375 53.65625 14.8125 63.9375 
Q 24.03125 74.21875 39.40625 74.21875 
z
" id="DejaVuSans-79"/>
       <path d="M 50.984375 -16.609375 
L 50.984375 -23.578125 
L -0.984375 -23.578125 
L -0.984375 -16.609375 
z
" id="DejaVuSans-95"/>
       <path d="M 9.8125 72.90625 
L 24.515625 72.90625 
L 43.109375 23.296875 
L 61.8125 72.90625 
L 76.515625 72.90625 
L 76.515625 0 
L 66.890625 0 
L 66.890625 64.015625 
L 48.09375 14.015625 
L 38.1875 14.015625 
L 19.390625 64.015625 
L 19.390625 0 
L 9.8125 0 
z
" id="DejaVuSans-77"/>
       <path d="M 8.5 21.578125 
L 8.5 54.6875 
L 17.484375 54.6875 
L 17.484375 21.921875 
Q 17.484375 14.15625 20.5 10.265625 
Q 23.53125 6.390625 29.59375 6.390625 
Q 36.859375 6.390625 41.078125 11.03125 
Q 45.3125 15.671875 45.3125 23.6875 
L 45.3125 54.6875 
L 54.296875 54.6875 
L 54.296875 0 
L 45.3125 0 
L 45.3125 8.40625 
Q 42.046875 3.421875 37.71875 1 
Q 33.40625 -1.421875 27.6875 -1.421875 
Q 18.265625 -1.421875 13.375 4.4375 
Q 8.5 10.296875 8.5 21.578125 
z
M 31.109375 56 
z
" id="DejaVuSans-117"/>
       <path d="M 9.421875 54.6875 
L 18.40625 54.6875 
L 18.40625 0 
L 9.421875 0 
z
M 9.421875 75.984375 
L 18.40625 75.984375 
L 18.40625 64.59375 
L 9.421875 64.59375 
z
" id="DejaVuSans-105"/>
      </defs>
      <g transform="translate(68.500312 334.571875)rotate(-90)scale(0.1 -0.1)">
       <use xlink:href="#DejaVuSans-79"/>
       <use x="78.742188" xlink:href="#DejaVuSans-45"/>
       <use x="114.826172" xlink:href="#DejaVuSans-103"/>
       <use x="178.302734" xlink:href="#DejaVuSans-108"/>
       <use x="206.085938" xlink:href="#DejaVuSans-121"/>
       <use x="265.265625" xlink:href="#DejaVuSans-99"/>
       <use x="320.246094" xlink:href="#DejaVuSans-97"/>
       <use x="381.525391" xlink:href="#DejaVuSans-110"/>
       <use x="444.904297" xlink:href="#DejaVuSans-95"/>
       <use x="494.904297" xlink:href="#DejaVuSans-77"/>
       <use x="581.183594" xlink:href="#DejaVuSans-117"/>
       <use x="644.5625" xlink:href="#DejaVuSans-99"/>
       <use x="699.542969" xlink:href="#DejaVuSans-105"/>
       <use x="727.326172" xlink:href="#DejaVuSans-110"/>
      </g>
     </g>
    </g>
    <g id="xtick_3">
     <g id="line2d_3"/>
     <g id="text_3">
      <!-- O-glycan_notMucin -->
      <defs>
       <path d="M 30.609375 48.390625 
Q 23.390625 48.390625 19.1875 42.75 
Q 14.984375 37.109375 14.984375 27.296875 
Q 14.984375 17.484375 19.15625 11.84375 
Q 23.34375 6.203125 30.609375 6.203125 
Q 37.796875 6.203125 41.984375 11.859375 
Q 46.1875 17.53125 46.1875 27.296875 
Q 46.1875 37.015625 41.984375 42.703125 
Q 37.796875 48.390625 30.609375 48.390625 
z
M 30.609375 56 
Q 42.328125 56 49.015625 48.375 
Q 55.71875 40.765625 55.71875 27.296875 
Q 55.71875 13.875 49.015625 6.21875 
Q 42.328125 -1.421875 30.609375 -1.421875 
Q 18.84375 -1.421875 12.171875 6.21875 
Q 5.515625 13.875 5.515625 27.296875 
Q 5.515625 40.765625 12.171875 48.375 
Q 18.84375 56 30.609375 56 
z
" id="DejaVuSans-111"/>
       <path d="M 18.3125 70.21875 
L 18.3125 54.6875 
L 36.8125 54.6875 
L 36.8125 47.703125 
L 18.3125 47.703125 
L 18.3125 18.015625 
Q 18.3125 11.328125 20.140625 9.421875 
Q 21.96875 7.515625 27.59375 7.515625 
L 36.8125 7.515625 
L 36.8125 0 
L 27.59375 0 
Q 17.1875 0 13.234375 3.875 
Q 9.28125 7.765625 9.28125 18.015625 
L 9.28125 47.703125 
L 2.6875 47.703125 
L 2.6875 54.6875 
L 9.28125 54.6875 
L 9.28125 70.21875 
z
" id="DejaVuSans-116"/>
      </defs>
      <g transform="translate(89.380312 350.948438)rotate(-90)scale(0.1 -0.1)">
       <use xlink:href="#DejaVuSans-79"/>
       <use x="78.742188" xlink:href="#DejaVuSans-45"/>
       <use x="114.826172" xlink:href="#DejaVuSans-103"/>
       <use x="178.302734" xlink:href="#DejaVuSans-108"/>
       <use x="206.085938" xlink:href="#DejaVuSans-121"/>
       <use x="265.265625" xlink:href="#DejaVuSans-99"/>
       <use x="320.246094" xlink:href="#DejaVuSans-97"/>
       <use x="381.525391" xlink:href="#DejaVuSans-110"/>
       <use x="444.904297" xlink:href="#DejaVuSans-95"/>
       <use x="494.904297" xlink:href="#DejaVuSans-110"/>
       <use x="558.283203" xlink:href="#DejaVuSans-111"/>
       <use x="619.464844" xlink:href="#DejaVuSans-116"/>
       <use x="658.673828" xlink:href="#DejaVuSans-77"/>
       <use x="744.953125" xlink:href="#DejaVuSans-117"/>
       <use x="808.332031" xlink:href="#DejaVuSans-99"/>
       <use x="863.3125" xlink:href="#DejaVuSans-105"/>
       <use x="891.095703" xlink:href="#DejaVuSans-110"/>
      </g>
     </g>
    </g>
    <g id="xtick_4">
     <g id="line2d_4"/>
     <g id="text_4">
      <!-- chondroitin sulfate -->
      <defs>
       <path d="M 54.890625 33.015625 
L 54.890625 0 
L 45.90625 0 
L 45.90625 32.71875 
Q 45.90625 40.484375 42.875 44.328125 
Q 39.84375 48.1875 33.796875 48.1875 
Q 26.515625 48.1875 22.3125 43.546875 
Q 18.109375 38.921875 18.109375 30.90625 
L 18.109375 0 
L 9.078125 0 
L 9.078125 75.984375 
L 18.109375 75.984375 
L 18.109375 46.1875 
Q 21.34375 51.125 25.703125 53.5625 
Q 30.078125 56 35.796875 56 
Q 45.21875 56 50.046875 50.171875 
Q 54.890625 44.34375 54.890625 33.015625 
z
" id="DejaVuSans-104"/>
       <path d="M 45.40625 46.390625 
L 45.40625 75.984375 
L 54.390625 75.984375 
L 54.390625 0 
L 45.40625 0 
L 45.40625 8.203125 
Q 42.578125 3.328125 38.25 0.953125 
Q 33.9375 -1.421875 27.875 -1.421875 
Q 17.96875 -1.421875 11.734375 6.484375 
Q 5.515625 14.40625 5.515625 27.296875 
Q 5.515625 40.1875 11.734375 48.09375 
Q 17.96875 56 27.875 56 
Q 33.9375 56 38.25 53.625 
Q 42.578125 51.265625 45.40625 46.390625 
z
M 14.796875 27.296875 
Q 14.796875 17.390625 18.875 11.75 
Q 22.953125 6.109375 30.078125 6.109375 
Q 37.203125 6.109375 41.296875 11.75 
Q 45.40625 17.390625 45.40625 27.296875 
Q 45.40625 37.203125 41.296875 42.84375 
Q 37.203125 48.484375 30.078125 48.484375 
Q 22.953125 48.484375 18.875 42.84375 
Q 14.796875 37.203125 14.796875 27.296875 
z
" id="DejaVuSans-100"/>
       <path d="M 41.109375 46.296875 
Q 39.59375 47.171875 37.8125 47.578125 
Q 36.03125 48 33.890625 48 
Q 26.265625 48 22.1875 43.046875 
Q 18.109375 38.09375 18.109375 28.8125 
L 18.109375 0 
L 9.078125 0 
L 9.078125 54.6875 
L 18.109375 54.6875 
L 18.109375 46.1875 
Q 20.953125 51.171875 25.484375 53.578125 
Q 30.03125 56 36.53125 56 
Q 37.453125 56 38.578125 55.875 
Q 39.703125 55.765625 41.0625 55.515625 
z
" id="DejaVuSans-114"/>
       <path id="DejaVuSans-32"/>
       <path d="M 44.28125 53.078125 
L 44.28125 44.578125 
Q 40.484375 46.53125 36.375 47.5 
Q 32.28125 48.484375 27.875 48.484375 
Q 21.1875 48.484375 17.84375 46.4375 
Q 14.5 44.390625 14.5 40.28125 
Q 14.5 37.15625 16.890625 35.375 
Q 19.28125 33.59375 26.515625 31.984375 
L 29.59375 31.296875 
Q 39.15625 29.25 43.1875 25.515625 
Q 47.21875 21.78125 47.21875 15.09375 
Q 47.21875 7.46875 41.1875 3.015625 
Q 35.15625 -1.421875 24.609375 -1.421875 
Q 20.21875 -1.421875 15.453125 -0.5625 
Q 10.6875 0.296875 5.421875 2 
L 5.421875 11.28125 
Q 10.40625 8.6875 15.234375 7.390625 
Q 20.0625 6.109375 24.8125 6.109375 
Q 31.15625 6.109375 34.5625 8.28125 
Q 37.984375 10.453125 37.984375 14.40625 
Q 37.984375 18.0625 35.515625 20.015625 
Q 33.0625 21.96875 24.703125 23.78125 
L 21.578125 24.515625 
Q 13.234375 26.265625 9.515625 29.90625 
Q 5.8125 33.546875 5.8125 39.890625 
Q 5.8125 47.609375 11.28125 51.796875 
Q 16.75 56 26.8125 56 
Q 31.78125 56 36.171875 55.265625 
Q 40.578125 54.546875 44.28125 53.078125 
z
" id="DejaVuSans-115"/>
       <path d="M 37.109375 75.984375 
L 37.109375 68.5 
L 28.515625 68.5 
Q 23.6875 68.5 21.796875 66.546875 
Q 19.921875 64.59375 19.921875 59.515625 
L 19.921875 54.6875 
L 34.71875 54.6875 
L 34.71875 47.703125 
L 19.921875 47.703125 
L 19.921875 0 
L 10.890625 0 
L 10.890625 47.703125 
L 2.296875 47.703125 
L 2.296875 54.6875 
L 10.890625 54.6875 
L 10.890625 58.5 
Q 10.890625 67.625 15.140625 71.796875 
Q 19.390625 75.984375 28.609375 75.984375 
z
" id="DejaVuSans-102"/>
       <path d="M 56.203125 29.59375 
L 56.203125 25.203125 
L 14.890625 25.203125 
Q 15.484375 15.921875 20.484375 11.0625 
Q 25.484375 6.203125 34.421875 6.203125 
Q 39.59375 6.203125 44.453125 7.46875 
Q 49.3125 8.734375 54.109375 11.28125 
L 54.109375 2.78125 
Q 49.265625 0.734375 44.1875 -0.34375 
Q 39.109375 -1.421875 33.890625 -1.421875 
Q 20.796875 -1.421875 13.15625 6.1875 
Q 5.515625 13.8125 5.515625 26.8125 
Q 5.515625 40.234375 12.765625 48.109375 
Q 20.015625 56 32.328125 56 
Q 43.359375 56 49.78125 48.890625 
Q 56.203125 41.796875 56.203125 29.59375 
z
M 47.21875 32.234375 
Q 47.125 39.59375 43.09375 43.984375 
Q 39.0625 48.390625 32.421875 48.390625 
Q 24.90625 48.390625 20.390625 44.140625 
Q 15.875 39.890625 15.1875 32.171875 
z
" id="DejaVuSans-101"/>
      </defs>
      <g transform="translate(110.399375 349.40625)rotate(-90)scale(0.1 -0.1)">
       <use xlink:href="#DejaVuSans-99"/>
       <use x="54.980469" xlink:href="#DejaVuSans-104"/>
       <use x="118.359375" xlink:href="#DejaVuSans-111"/>
       <use x="179.541016" xlink:href="#DejaVuSans-110"/>
       <use x="242.919922" xlink:href="#DejaVuSans-100"/>
       <use x="306.396484" xlink:href="#DejaVuSans-114"/>
       <use x="347.478516" xlink:href="#DejaVuSans-111"/>
       <use x="408.660156" xlink:href="#DejaVuSans-105"/>
       <use x="436.443359" xlink:href="#DejaVuSans-116"/>
       <use x="475.652344" xlink:href="#DejaVuSans-105"/>
       <use x="503.435547" xlink:href="#DejaVuSans-110"/>
       <use x="566.814453" xlink:href="#DejaVuSans-32"/>
       <use x="598.601562" xlink:href="#DejaVuSans-115"/>
       <use x="650.701172" xlink:href="#DejaVuSans-117"/>
       <use x="714.080078" xlink:href="#DejaVuSans-108"/>
       <use x="741.863281" xlink:href="#DejaVuSans-102"/>
       <use x="777.068359" xlink:href="#DejaVuSans-97"/>
       <use x="838.347656" xlink:href="#DejaVuSans-116"/>
       <use x="877.556641" xlink:href="#DejaVuSans-101"/>
      </g>
     </g>
    </g>
    <g id="xtick_5">
     <g id="line2d_5"/>
     <g id="text_5">
      <!-- heparan sulfate -->
      <defs>
       <path d="M 18.109375 8.203125 
L 18.109375 -20.796875 
L 9.078125 -20.796875 
L 9.078125 54.6875 
L 18.109375 54.6875 
L 18.109375 46.390625 
Q 20.953125 51.265625 25.265625 53.625 
Q 29.59375 56 35.59375 56 
Q 45.5625 56 51.78125 48.09375 
Q 58.015625 40.1875 58.015625 27.296875 
Q 58.015625 14.40625 51.78125 6.484375 
Q 45.5625 -1.421875 35.59375 -1.421875 
Q 29.59375 -1.421875 25.265625 0.953125 
Q 20.953125 3.328125 18.109375 8.203125 
z
M 48.6875 27.296875 
Q 48.6875 37.203125 44.609375 42.84375 
Q 40.53125 48.484375 33.40625 48.484375 
Q 26.265625 48.484375 22.1875 42.84375 
Q 18.109375 37.203125 18.109375 27.296875 
Q 18.109375 17.390625 22.1875 11.75 
Q 26.265625 6.109375 33.40625 6.109375 
Q 40.53125 6.109375 44.609375 11.75 
Q 48.6875 17.390625 48.6875 27.296875 
z
" id="DejaVuSans-112"/>
      </defs>
      <g transform="translate(131.279375 334.26875)rotate(-90)scale(0.1 -0.1)">
       <use xlink:href="#DejaVuSans-104"/>
       <use x="63.378906" xlink:href="#DejaVuSans-101"/>
       <use x="124.902344" xlink:href="#DejaVuSans-112"/>
       <use x="188.378906" xlink:href="#DejaVuSans-97"/>
       <use x="249.658203" xlink:href="#DejaVuSans-114"/>
       <use x="290.771484" xlink:href="#DejaVuSans-97"/>
       <use x="352.050781" xlink:href="#DejaVuSans-110"/>
       <use x="415.429688" xlink:href="#DejaVuSans-32"/>
       <use x="447.216797" xlink:href="#DejaVuSans-115"/>
       <use x="499.316406" xlink:href="#DejaVuSans-117"/>
       <use x="562.695312" xlink:href="#DejaVuSans-108"/>
       <use x="590.478516" xlink:href="#DejaVuSans-102"/>
       <use x="625.683594" xlink:href="#DejaVuSans-97"/>
       <use x="686.962891" xlink:href="#DejaVuSans-116"/>
       <use x="726.171875" xlink:href="#DejaVuSans-101"/>
      </g>
     </g>
    </g>
    <g id="xtick_6">
     <g id="line2d_6"/>
     <g id="text_6">
      <!-- keratan sulfate -->
      <defs>
       <path d="M 9.078125 75.984375 
L 18.109375 75.984375 
L 18.109375 31.109375 
L 44.921875 54.6875 
L 56.390625 54.6875 
L 27.390625 29.109375 
L 57.625 0 
L 45.90625 0 
L 18.109375 26.703125 
L 18.109375 0 
L 9.078125 0 
z
" id="DejaVuSans-107"/>
      </defs>
      <g transform="translate(152.159375 331.289062)rotate(-90)scale(0.1 -0.1)">
       <use xlink:href="#DejaVuSans-107"/>
       <use x="57.863281" xlink:href="#DejaVuSans-101"/>
       <use x="119.386719" xlink:href="#DejaVuSans-114"/>
       <use x="160.5" xlink:href="#DejaVuSans-97"/>
       <use x="221.779297" xlink:href="#DejaVuSans-116"/>
       <use x="260.988281" xlink:href="#DejaVuSans-97"/>
       <use x="322.267578" xlink:href="#DejaVuSans-110"/>
       <use x="385.646484" xlink:href="#DejaVuSans-32"/>
       <use x="417.433594" xlink:href="#DejaVuSans-115"/>
       <use x="469.533203" xlink:href="#DejaVuSans-117"/>
       <use x="532.912109" xlink:href="#DejaVuSans-108"/>
       <use x="560.695312" xlink:href="#DejaVuSans-102"/>
       <use x="595.900391" xlink:href="#DejaVuSans-97"/>
       <use x="657.179688" xlink:href="#DejaVuSans-116"/>
       <use x="696.388672" xlink:href="#DejaVuSans-101"/>
      </g>
     </g>
    </g>
    <g id="xtick_7">
     <g id="line2d_7"/>
     <g id="text_7">
      <!-- GPI-anchor -->
      <defs>
       <path d="M 59.515625 10.40625 
L 59.515625 29.984375 
L 43.40625 29.984375 
L 43.40625 38.09375 
L 69.28125 38.09375 
L 69.28125 6.78125 
Q 63.578125 2.734375 56.6875 0.65625 
Q 49.8125 -1.421875 42 -1.421875 
Q 24.90625 -1.421875 15.25 8.5625 
Q 5.609375 18.5625 5.609375 36.375 
Q 5.609375 54.25 15.25 64.234375 
Q 24.90625 74.21875 42 74.21875 
Q 49.125 74.21875 55.546875 72.453125 
Q 61.96875 70.703125 67.390625 67.28125 
L 67.390625 56.78125 
Q 61.921875 61.421875 55.765625 63.765625 
Q 49.609375 66.109375 42.828125 66.109375 
Q 29.4375 66.109375 22.71875 58.640625 
Q 16.015625 51.171875 16.015625 36.375 
Q 16.015625 21.625 22.71875 14.15625 
Q 29.4375 6.6875 42.828125 6.6875 
Q 48.046875 6.6875 52.140625 7.59375 
Q 56.25 8.5 59.515625 10.40625 
z
" id="DejaVuSans-71"/>
       <path d="M 19.671875 64.796875 
L 19.671875 37.40625 
L 32.078125 37.40625 
Q 38.96875 37.40625 42.71875 40.96875 
Q 46.484375 44.53125 46.484375 51.125 
Q 46.484375 57.671875 42.71875 61.234375 
Q 38.96875 64.796875 32.078125 64.796875 
z
M 9.8125 72.90625 
L 32.078125 72.90625 
Q 44.34375 72.90625 50.609375 67.359375 
Q 56.890625 61.8125 56.890625 51.125 
Q 56.890625 40.328125 50.609375 34.8125 
Q 44.34375 29.296875 32.078125 29.296875 
L 19.671875 29.296875 
L 19.671875 0 
L 9.8125 0 
z
" id="DejaVuSans-80"/>
       <path d="M 9.8125 72.90625 
L 19.671875 72.90625 
L 19.671875 0 
L 9.8125 0 
z
" id="DejaVuSans-73"/>
      </defs>
      <g transform="translate(173.039375 310.367188)rotate(-90)scale(0.1 -0.1)">
       <use xlink:href="#DejaVuSans-71"/>
       <use x="77.490234" xlink:href="#DejaVuSans-80"/>
       <use x="137.792969" xlink:href="#DejaVuSans-73"/>
       <use x="167.285156" xlink:href="#DejaVuSans-45"/>
       <use x="203.369141" xlink:href="#DejaVuSans-97"/>
       <use x="264.648438" xlink:href="#DejaVuSans-110"/>
       <use x="328.027344" xlink:href="#DejaVuSans-99"/>
       <use x="383.007812" xlink:href="#DejaVuSans-104"/>
       <use x="446.386719" xlink:href="#DejaVuSans-111"/>
       <use x="507.568359" xlink:href="#DejaVuSans-114"/>
      </g>
     </g>
    </g>
    <g id="xtick_8">
     <g id="line2d_8"/>
     <g id="text_8">
      <!-- lacto_neolacto series -->
      <g transform="translate(193.780312 360.789062)rotate(-90)scale(0.1 -0.1)">
       <use xlink:href="#DejaVuSans-108"/>
       <use x="27.783203" xlink:href="#DejaVuSans-97"/>
       <use x="89.0625" xlink:href="#DejaVuSans-99"/>
       <use x="144.042969" xlink:href="#DejaVuSans-116"/>
       <use x="183.251953" xlink:href="#DejaVuSans-111"/>
       <use x="244.433594" xlink:href="#DejaVuSans-95"/>
       <use x="294.433594" xlink:href="#DejaVuSans-110"/>
       <use x="357.8125" xlink:href="#DejaVuSans-101"/>
       <use x="419.335938" xlink:href="#DejaVuSans-111"/>
       <use x="480.517578" xlink:href="#DejaVuSans-108"/>
       <use x="508.300781" xlink:href="#DejaVuSans-97"/>
       <use x="569.580078" xlink:href="#DejaVuSans-99"/>
       <use x="624.560547" xlink:href="#DejaVuSans-116"/>
       <use x="663.769531" xlink:href="#DejaVuSans-111"/>
       <use x="724.951172" xlink:href="#DejaVuSans-32"/>
       <use x="756.738281" xlink:href="#DejaVuSans-115"/>
       <use x="808.837891" xlink:href="#DejaVuSans-101"/>
       <use x="870.361328" xlink:href="#DejaVuSans-114"/>
       <use x="911.474609" xlink:href="#DejaVuSans-105"/>
       <use x="939.257812" xlink:href="#DejaVuSans-101"/>
       <use x="1000.78125" xlink:href="#DejaVuSans-115"/>
      </g>
     </g>
    </g>
    <g id="xtick_9">
     <g id="line2d_9"/>
     <g id="text_9">
      <!-- ganglio series -->
      <g transform="translate(214.799375 325.129687)rotate(-90)scale(0.1 -0.1)">
       <use xlink:href="#DejaVuSans-103"/>
       <use x="63.476562" xlink:href="#DejaVuSans-97"/>
       <use x="124.755859" xlink:href="#DejaVuSans-110"/>
       <use x="188.134766" xlink:href="#DejaVuSans-103"/>
       <use x="251.611328" xlink:href="#DejaVuSans-108"/>
       <use x="279.394531" xlink:href="#DejaVuSans-105"/>
       <use x="307.177734" xlink:href="#DejaVuSans-111"/>
       <use x="368.359375" xlink:href="#DejaVuSans-32"/>
       <use x="400.146484" xlink:href="#DejaVuSans-115"/>
       <use x="452.246094" xlink:href="#DejaVuSans-101"/>
       <use x="513.769531" xlink:href="#DejaVuSans-114"/>
       <use x="554.882812" xlink:href="#DejaVuSans-105"/>
       <use x="582.666016" xlink:href="#DejaVuSans-101"/>
       <use x="644.189453" xlink:href="#DejaVuSans-115"/>
      </g>
     </g>
    </g>
    <g id="xtick_10">
     <g id="line2d_10"/>
     <g id="text_10">
      <!-- globo series -->
      <defs>
       <path d="M 48.6875 27.296875 
Q 48.6875 37.203125 44.609375 42.84375 
Q 40.53125 48.484375 33.40625 48.484375 
Q 26.265625 48.484375 22.1875 42.84375 
Q 18.109375 37.203125 18.109375 27.296875 
Q 18.109375 17.390625 22.1875 11.75 
Q 26.265625 6.109375 33.40625 6.109375 
Q 40.53125 6.109375 44.609375 11.75 
Q 48.6875 17.390625 48.6875 27.296875 
z
M 18.109375 46.390625 
Q 20.953125 51.265625 25.265625 53.625 
Q 29.59375 56 35.59375 56 
Q 45.5625 56 51.78125 48.09375 
Q 58.015625 40.1875 58.015625 27.296875 
Q 58.015625 14.40625 51.78125 6.484375 
Q 45.5625 -1.421875 35.59375 -1.421875 
Q 29.59375 -1.421875 25.265625 0.953125 
Q 20.953125 3.328125 18.109375 8.203125 
L 18.109375 0 
L 9.078125 0 
L 9.078125 75.984375 
L 18.109375 75.984375 
z
" id="DejaVuSans-98"/>
      </defs>
      <g transform="translate(235.679375 316.004687)rotate(-90)scale(0.1 -0.1)">
       <use xlink:href="#DejaVuSans-103"/>
       <use x="63.476562" xlink:href="#DejaVuSans-108"/>
       <use x="91.259766" xlink:href="#DejaVuSans-111"/>
       <use x="152.441406" xlink:href="#DejaVuSans-98"/>
       <use x="215.917969" xlink:href="#DejaVuSans-111"/>
       <use x="277.099609" xlink:href="#DejaVuSans-32"/>
       <use x="308.886719" xlink:href="#DejaVuSans-115"/>
       <use x="360.986328" xlink:href="#DejaVuSans-101"/>
       <use x="422.509766" xlink:href="#DejaVuSans-114"/>
       <use x="463.623047" xlink:href="#DejaVuSans-105"/>
       <use x="491.40625" xlink:href="#DejaVuSans-101"/>
       <use x="552.929688" xlink:href="#DejaVuSans-115"/>
      </g>
     </g>
    </g>
    <g id="xtick_11">
     <g id="line2d_11"/>
     <g id="text_11">
      <!-- Hyaluronic acid -->
      <defs>
       <path d="M 9.8125 72.90625 
L 19.671875 72.90625 
L 19.671875 43.015625 
L 55.515625 43.015625 
L 55.515625 72.90625 
L 65.375 72.90625 
L 65.375 0 
L 55.515625 0 
L 55.515625 34.71875 
L 19.671875 34.71875 
L 19.671875 0 
L 9.8125 0 
z
" id="DejaVuSans-72"/>
      </defs>
      <g transform="translate(256.559375 332.954687)rotate(-90)scale(0.1 -0.1)">
       <use xlink:href="#DejaVuSans-72"/>
       <use x="75.195312" xlink:href="#DejaVuSans-121"/>
       <use x="134.375" xlink:href="#DejaVuSans-97"/>
       <use x="195.654297" xlink:href="#DejaVuSans-108"/>
       <use x="223.4375" xlink:href="#DejaVuSans-117"/>
       <use x="286.816406" xlink:href="#DejaVuSans-114"/>
       <use x="327.898438" xlink:href="#DejaVuSans-111"/>
       <use x="389.080078" xlink:href="#DejaVuSans-110"/>
       <use x="452.458984" xlink:href="#DejaVuSans-105"/>
       <use x="480.242188" xlink:href="#DejaVuSans-99"/>
       <use x="535.222656" xlink:href="#DejaVuSans-32"/>
       <use x="567.009766" xlink:href="#DejaVuSans-97"/>
       <use x="628.289062" xlink:href="#DejaVuSans-99"/>
       <use x="683.269531" xlink:href="#DejaVuSans-105"/>
       <use x="711.052734" xlink:href="#DejaVuSans-100"/>
      </g>
     </g>
    </g>
    <g id="xtick_12">
     <g id="line2d_12"/>
     <g id="text_12">
      <!-- sphingolipid -->
      <g transform="translate(277.439375 316.009375)rotate(-90)scale(0.1 -0.1)">
       <use xlink:href="#DejaVuSans-115"/>
       <use x="52.099609" xlink:href="#DejaVuSans-112"/>
       <use x="115.576172" xlink:href="#DejaVuSans-104"/>
       <use x="178.955078" xlink:href="#DejaVuSans-105"/>
       <use x="206.738281" xlink:href="#DejaVuSans-110"/>
       <use x="270.117188" xlink:href="#DejaVuSans-103"/>
       <use x="333.59375" xlink:href="#DejaVuSans-111"/>
       <use x="394.775391" xlink:href="#DejaVuSans-108"/>
       <use x="422.558594" xlink:href="#DejaVuSans-105"/>
       <use x="450.341797" xlink:href="#DejaVuSans-112"/>
       <use x="513.818359" xlink:href="#DejaVuSans-105"/>
       <use x="541.601562" xlink:href="#DejaVuSans-100"/>
      </g>
     </g>
    </g>
    <g id="xtick_13">
     <g id="line2d_13"/>
     <g id="text_13">
      <!-- SLC_transporter -->
      <defs>
       <path d="M 53.515625 70.515625 
L 53.515625 60.890625 
Q 47.90625 63.578125 42.921875 64.890625 
Q 37.9375 66.21875 33.296875 66.21875 
Q 25.25 66.21875 20.875 63.09375 
Q 16.5 59.96875 16.5 54.203125 
Q 16.5 49.359375 19.40625 46.890625 
Q 22.3125 44.4375 30.421875 42.921875 
L 36.375 41.703125 
Q 47.40625 39.59375 52.65625 34.296875 
Q 57.90625 29 57.90625 20.125 
Q 57.90625 9.515625 50.796875 4.046875 
Q 43.703125 -1.421875 29.984375 -1.421875 
Q 24.8125 -1.421875 18.96875 -0.25 
Q 13.140625 0.921875 6.890625 3.21875 
L 6.890625 13.375 
Q 12.890625 10.015625 18.65625 8.296875 
Q 24.421875 6.59375 29.984375 6.59375 
Q 38.421875 6.59375 43.015625 9.90625 
Q 47.609375 13.234375 47.609375 19.390625 
Q 47.609375 24.75 44.3125 27.78125 
Q 41.015625 30.8125 33.5 32.328125 
L 27.484375 33.5 
Q 16.453125 35.6875 11.515625 40.375 
Q 6.59375 45.0625 6.59375 53.421875 
Q 6.59375 63.09375 13.40625 68.65625 
Q 20.21875 74.21875 32.171875 74.21875 
Q 37.3125 74.21875 42.625 73.28125 
Q 47.953125 72.359375 53.515625 70.515625 
z
" id="DejaVuSans-83"/>
       <path d="M 9.8125 72.90625 
L 19.671875 72.90625 
L 19.671875 8.296875 
L 55.171875 8.296875 
L 55.171875 0 
L 9.8125 0 
z
" id="DejaVuSans-76"/>
       <path d="M 64.40625 67.28125 
L 64.40625 56.890625 
Q 59.421875 61.53125 53.78125 63.8125 
Q 48.140625 66.109375 41.796875 66.109375 
Q 29.296875 66.109375 22.65625 58.46875 
Q 16.015625 50.828125 16.015625 36.375 
Q 16.015625 21.96875 22.65625 14.328125 
Q 29.296875 6.6875 41.796875 6.6875 
Q 48.140625 6.6875 53.78125 8.984375 
Q 59.421875 11.28125 64.40625 15.921875 
L 64.40625 5.609375 
Q 59.234375 2.09375 53.4375 0.328125 
Q 47.65625 -1.421875 41.21875 -1.421875 
Q 24.65625 -1.421875 15.125 8.703125 
Q 5.609375 18.84375 5.609375 36.375 
Q 5.609375 53.953125 15.125 64.078125 
Q 24.65625 74.21875 41.21875 74.21875 
Q 47.75 74.21875 53.53125 72.484375 
Q 59.328125 70.75 64.40625 67.28125 
z
" id="DejaVuSans-67"/>
      </defs>
      <g transform="translate(298.092031 335.871875)rotate(-90)scale(0.1 -0.1)">
       <use xlink:href="#DejaVuSans-83"/>
       <use x="63.476562" xlink:href="#DejaVuSans-76"/>
       <use x="119.189453" xlink:href="#DejaVuSans-67"/>
       <use x="189.013672" xlink:href="#DejaVuSans-95"/>
       <use x="239.013672" xlink:href="#DejaVuSans-116"/>
       <use x="278.222656" xlink:href="#DejaVuSans-114"/>
       <use x="319.335938" xlink:href="#DejaVuSans-97"/>
       <use x="380.615234" xlink:href="#DejaVuSans-110"/>
       <use x="443.994141" xlink:href="#DejaVuSans-115"/>
       <use x="496.09375" xlink:href="#DejaVuSans-112"/>
       <use x="559.570312" xlink:href="#DejaVuSans-111"/>
       <use x="620.751953" xlink:href="#DejaVuSans-114"/>
       <use x="661.865234" xlink:href="#DejaVuSans-116"/>
       <use x="701.074219" xlink:href="#DejaVuSans-101"/>
       <use x="762.597656" xlink:href="#DejaVuSans-114"/>
      </g>
     </g>
    </g>
    <g id="xtick_14">
     <g id="line2d_14"/>
     <g id="text_14">
      <!-- terminal modification -->
      <defs>
       <path d="M 52 44.1875 
Q 55.375 50.25 60.0625 53.125 
Q 64.75 56 71.09375 56 
Q 79.640625 56 84.28125 50.015625 
Q 88.921875 44.046875 88.921875 33.015625 
L 88.921875 0 
L 79.890625 0 
L 79.890625 32.71875 
Q 79.890625 40.578125 77.09375 44.375 
Q 74.3125 48.1875 68.609375 48.1875 
Q 61.625 48.1875 57.5625 43.546875 
Q 53.515625 38.921875 53.515625 30.90625 
L 53.515625 0 
L 44.484375 0 
L 44.484375 32.71875 
Q 44.484375 40.625 41.703125 44.40625 
Q 38.921875 48.1875 33.109375 48.1875 
Q 26.21875 48.1875 22.15625 43.53125 
Q 18.109375 38.875 18.109375 30.90625 
L 18.109375 0 
L 9.078125 0 
L 9.078125 54.6875 
L 18.109375 54.6875 
L 18.109375 46.1875 
Q 21.1875 51.21875 25.484375 53.609375 
Q 29.78125 56 35.6875 56 
Q 41.65625 56 45.828125 52.96875 
Q 50 49.953125 52 44.1875 
z
" id="DejaVuSans-109"/>
      </defs>
      <g transform="translate(319.199375 362.689062)rotate(-90)scale(0.1 -0.1)">
       <use xlink:href="#DejaVuSans-116"/>
       <use x="39.208984" xlink:href="#DejaVuSans-101"/>
       <use x="100.732422" xlink:href="#DejaVuSans-114"/>
       <use x="141.830078" xlink:href="#DejaVuSans-109"/>
       <use x="239.242188" xlink:href="#DejaVuSans-105"/>
       <use x="267.025391" xlink:href="#DejaVuSans-110"/>
       <use x="330.404297" xlink:href="#DejaVuSans-97"/>
       <use x="391.683594" xlink:href="#DejaVuSans-108"/>
       <use x="419.466797" xlink:href="#DejaVuSans-32"/>
       <use x="451.253906" xlink:href="#DejaVuSans-109"/>
       <use x="548.666016" xlink:href="#DejaVuSans-111"/>
       <use x="609.847656" xlink:href="#DejaVuSans-100"/>
       <use x="673.324219" xlink:href="#DejaVuSans-105"/>
       <use x="701.107422" xlink:href="#DejaVuSans-102"/>
       <use x="736.3125" xlink:href="#DejaVuSans-105"/>
       <use x="764.095703" xlink:href="#DejaVuSans-99"/>
       <use x="819.076172" xlink:href="#DejaVuSans-97"/>
       <use x="880.355469" xlink:href="#DejaVuSans-116"/>
       <use x="919.564453" xlink:href="#DejaVuSans-105"/>
       <use x="947.347656" xlink:href="#DejaVuSans-111"/>
       <use x="1008.529297" xlink:href="#DejaVuSans-110"/>
      </g>
     </g>
    </g>
    <g id="xtick_15">
     <g id="line2d_15"/>
     <g id="text_15">
      <!-- WT -->
      <defs>
       <path d="M 3.328125 72.90625 
L 13.28125 72.90625 
L 28.609375 11.28125 
L 43.890625 72.90625 
L 54.984375 72.90625 
L 70.3125 11.28125 
L 85.59375 72.90625 
L 95.609375 72.90625 
L 77.296875 0 
L 64.890625 0 
L 49.515625 63.28125 
L 33.984375 0 
L 21.578125 0 
z
" id="DejaVuSans-87"/>
       <path d="M -0.296875 72.90625 
L 61.375 72.90625 
L 61.375 64.59375 
L 35.5 64.59375 
L 35.5 0 
L 25.59375 0 
L 25.59375 64.59375 
L -0.296875 64.59375 
z
" id="DejaVuSans-84"/>
      </defs>
      <g transform="translate(340.079375 271.495313)rotate(-90)scale(0.1 -0.1)">
       <use xlink:href="#DejaVuSans-87"/>
       <use x="98.876953" xlink:href="#DejaVuSans-84"/>
      </g>
     </g>
    </g>
    <g id="xtick_16">
     <g id="line2d_16"/>
     <g id="text_16">
      <!-- Others -->
      <g transform="translate(360.959375 289.103125)rotate(-90)scale(0.1 -0.1)">
       <use xlink:href="#DejaVuSans-79"/>
       <use x="78.710938" xlink:href="#DejaVuSans-116"/>
       <use x="117.919922" xlink:href="#DejaVuSans-104"/>
       <use x="181.298828" xlink:href="#DejaVuSans-101"/>
       <use x="242.822266" xlink:href="#DejaVuSans-114"/>
       <use x="283.935547" xlink:href="#DejaVuSans-115"/>
      </g>
     </g>
    </g>
    <g id="xtick_17">
     <g id="line2d_17"/>
     <g id="text_17">
      <!-- unassign -->
      <g transform="translate(381.839375 300.185938)rotate(-90)scale(0.1 -0.1)">
       <use xlink:href="#DejaVuSans-117"/>
       <use x="63.378906" xlink:href="#DejaVuSans-110"/>
       <use x="126.757812" xlink:href="#DejaVuSans-97"/>
       <use x="188.037109" xlink:href="#DejaVuSans-115"/>
       <use x="240.136719" xlink:href="#DejaVuSans-115"/>
       <use x="292.236328" xlink:href="#DejaVuSans-105"/>
       <use x="320.019531" xlink:href="#DejaVuSans-103"/>
       <use x="383.496094" xlink:href="#DejaVuSans-110"/>
      </g>
     </g>
    </g>
    <g id="xtick_18">
     <g id="line2d_18"/>
     <g id="text_18">
      <!-- additional -->
      <g transform="translate(402.719375 305.164062)rotate(-90)scale(0.1 -0.1)">
       <use xlink:href="#DejaVuSans-97"/>
       <use x="61.279297" xlink:href="#DejaVuSans-100"/>
       <use x="124.755859" xlink:href="#DejaVuSans-100"/>
       <use x="188.232422" xlink:href="#DejaVuSans-105"/>
       <use x="216.015625" xlink:href="#DejaVuSans-116"/>
       <use x="255.224609" xlink:href="#DejaVuSans-105"/>
       <use x="283.007812" xlink:href="#DejaVuSans-111"/>
       <use x="344.189453" xlink:href="#DejaVuSans-110"/>
       <use x="407.568359" xlink:href="#DejaVuSans-97"/>
       <use x="468.847656" xlink:href="#DejaVuSans-108"/>
      </g>
     </g>
    </g>
    <g id="text_19">
     <!-- Pathway -->
     <defs>
      <path d="M 4.203125 54.6875 
L 13.1875 54.6875 
L 24.421875 12.015625 
L 35.59375 54.6875 
L 46.1875 54.6875 
L 57.421875 12.015625 
L 68.609375 54.6875 
L 77.59375 54.6875 
L 63.28125 0 
L 52.6875 0 
L 40.921875 44.828125 
L 29.109375 0 
L 18.5 0 
z
" id="DejaVuSans-119"/>
     </defs>
     <g transform="translate(196.899375 375.807187)scale(0.12 -0.12)">
      <use xlink:href="#DejaVuSans-80"/>
      <use x="60.240234" xlink:href="#DejaVuSans-97"/>
      <use x="121.519531" xlink:href="#DejaVuSans-116"/>
      <use x="160.728516" xlink:href="#DejaVuSans-104"/>
      <use x="224.107422" xlink:href="#DejaVuSans-119"/>
      <use x="305.894531" xlink:href="#DejaVuSans-97"/>
      <use x="367.173828" xlink:href="#DejaVuSans-121"/>
     </g>
    </g>
   </g>
   <g id="matplotlib.axis_2">
    <g id="ytick_1">
     <g id="line2d_19">
      <path clip-path="url(#p07bf123350)" d="M 34.56 252 
L 410.4 252 
" style="fill:none;stroke:#cbcbcb;"/>
     </g>
     <g id="line2d_20"/>
     <g id="text_20">
      <!-- 0 -->
      <defs>
       <path d="M 31.78125 66.40625 
Q 24.171875 66.40625 20.328125 58.90625 
Q 16.5 51.421875 16.5 36.375 
Q 16.5 21.390625 20.328125 13.890625 
Q 24.171875 6.390625 31.78125 6.390625 
Q 39.453125 6.390625 43.28125 13.890625 
Q 47.125 21.390625 47.125 36.375 
Q 47.125 51.421875 43.28125 58.90625 
Q 39.453125 66.40625 31.78125 66.40625 
z
M 31.78125 74.21875 
Q 44.046875 74.21875 50.515625 64.515625 
Q 56.984375 54.828125 56.984375 36.375 
Q 56.984375 17.96875 50.515625 8.265625 
Q 44.046875 -1.421875 31.78125 -1.421875 
Q 19.53125 -1.421875 13.0625 8.265625 
Q 6.59375 17.96875 6.59375 36.375 
Q 6.59375 54.828125 13.0625 64.515625 
Q 19.53125 74.21875 31.78125 74.21875 
z
" id="DejaVuSans-48"/>
      </defs>
      <g transform="translate(24.6975 255.799219)scale(0.1 -0.1)">
       <use xlink:href="#DejaVuSans-48"/>
      </g>
     </g>
    </g>
    <g id="ytick_2">
     <g id="line2d_21">
      <path clip-path="url(#p07bf123350)" d="M 34.56 227.346939 
L 410.4 227.346939 
" style="fill:none;stroke:#cbcbcb;"/>
     </g>
     <g id="line2d_22"/>
     <g id="text_21">
      <!-- 5 -->
      <defs>
       <path d="M 10.796875 72.90625 
L 49.515625 72.90625 
L 49.515625 64.59375 
L 19.828125 64.59375 
L 19.828125 46.734375 
Q 21.96875 47.46875 24.109375 47.828125 
Q 26.265625 48.1875 28.421875 48.1875 
Q 40.625 48.1875 47.75 41.5 
Q 54.890625 34.8125 54.890625 23.390625 
Q 54.890625 11.625 47.5625 5.09375 
Q 40.234375 -1.421875 26.90625 -1.421875 
Q 22.3125 -1.421875 17.546875 -0.640625 
Q 12.796875 0.140625 7.71875 1.703125 
L 7.71875 11.625 
Q 12.109375 9.234375 16.796875 8.0625 
Q 21.484375 6.890625 26.703125 6.890625 
Q 35.15625 6.890625 40.078125 11.328125 
Q 45.015625 15.765625 45.015625 23.390625 
Q 45.015625 31 40.078125 35.4375 
Q 35.15625 39.890625 26.703125 39.890625 
Q 22.75 39.890625 18.8125 39.015625 
Q 14.890625 38.140625 10.796875 36.28125 
z
" id="DejaVuSans-53"/>
      </defs>
      <g transform="translate(24.6975 231.146158)scale(0.1 -0.1)">
       <use xlink:href="#DejaVuSans-53"/>
      </g>
     </g>
    </g>
    <g id="ytick_3">
     <g id="line2d_23">
      <path clip-path="url(#p07bf123350)" d="M 34.56 202.693878 
L 410.4 202.693878 
" style="fill:none;stroke:#cbcbcb;"/>
     </g>
     <g id="line2d_24"/>
     <g id="text_22">
      <!-- 10 -->
      <defs>
       <path d="M 12.40625 8.296875 
L 28.515625 8.296875 
L 28.515625 63.921875 
L 10.984375 60.40625 
L 10.984375 69.390625 
L 28.421875 72.90625 
L 38.28125 72.90625 
L 38.28125 8.296875 
L 54.390625 8.296875 
L 54.390625 0 
L 12.40625 0 
z
" id="DejaVuSans-49"/>
      </defs>
      <g transform="translate(18.335 206.493096)scale(0.1 -0.1)">
       <use xlink:href="#DejaVuSans-49"/>
       <use x="63.623047" xlink:href="#DejaVuSans-48"/>
      </g>
     </g>
    </g>
    <g id="ytick_4">
     <g id="line2d_25">
      <path clip-path="url(#p07bf123350)" d="M 34.56 178.040816 
L 410.4 178.040816 
" style="fill:none;stroke:#cbcbcb;"/>
     </g>
     <g id="line2d_26"/>
     <g id="text_23">
      <!-- 15 -->
      <g transform="translate(18.335 181.840035)scale(0.1 -0.1)">
       <use xlink:href="#DejaVuSans-49"/>
       <use x="63.623047" xlink:href="#DejaVuSans-53"/>
      </g>
     </g>
    </g>
    <g id="ytick_5">
     <g id="line2d_27">
      <path clip-path="url(#p07bf123350)" d="M 34.56 153.387755 
L 410.4 153.387755 
" style="fill:none;stroke:#cbcbcb;"/>
     </g>
     <g id="line2d_28"/>
     <g id="text_24">
      <!-- 20 -->
      <defs>
       <path d="M 19.1875 8.296875 
L 53.609375 8.296875 
L 53.609375 0 
L 7.328125 0 
L 7.328125 8.296875 
Q 12.9375 14.109375 22.625 23.890625 
Q 32.328125 33.6875 34.8125 36.53125 
Q 39.546875 41.84375 41.421875 45.53125 
Q 43.3125 49.21875 43.3125 52.78125 
Q 43.3125 58.59375 39.234375 62.25 
Q 35.15625 65.921875 28.609375 65.921875 
Q 23.96875 65.921875 18.8125 64.3125 
Q 13.671875 62.703125 7.8125 59.421875 
L 7.8125 69.390625 
Q 13.765625 71.78125 18.9375 73 
Q 24.125 74.21875 28.421875 74.21875 
Q 39.75 74.21875 46.484375 68.546875 
Q 53.21875 62.890625 53.21875 53.421875 
Q 53.21875 48.921875 51.53125 44.890625 
Q 49.859375 40.875 45.40625 35.40625 
Q 44.1875 33.984375 37.640625 27.21875 
Q 31.109375 20.453125 19.1875 8.296875 
z
" id="DejaVuSans-50"/>
      </defs>
      <g transform="translate(18.335 157.186974)scale(0.1 -0.1)">
       <use xlink:href="#DejaVuSans-50"/>
       <use x="63.623047" xlink:href="#DejaVuSans-48"/>
      </g>
     </g>
    </g>
    <g id="ytick_6">
     <g id="line2d_29">
      <path clip-path="url(#p07bf123350)" d="M 34.56 128.734694 
L 410.4 128.734694 
" style="fill:none;stroke:#cbcbcb;"/>
     </g>
     <g id="line2d_30"/>
     <g id="text_25">
      <!-- 25 -->
      <g transform="translate(18.335 132.533913)scale(0.1 -0.1)">
       <use xlink:href="#DejaVuSans-50"/>
       <use x="63.623047" xlink:href="#DejaVuSans-53"/>
      </g>
     </g>
    </g>
    <g id="ytick_7">
     <g id="line2d_31">
      <path clip-path="url(#p07bf123350)" d="M 34.56 104.081633 
L 410.4 104.081633 
" style="fill:none;stroke:#cbcbcb;"/>
     </g>
     <g id="line2d_32"/>
     <g id="text_26">
      <!-- 30 -->
      <defs>
       <path d="M 40.578125 39.3125 
Q 47.65625 37.796875 51.625 33 
Q 55.609375 28.21875 55.609375 21.1875 
Q 55.609375 10.40625 48.1875 4.484375 
Q 40.765625 -1.421875 27.09375 -1.421875 
Q 22.515625 -1.421875 17.65625 -0.515625 
Q 12.796875 0.390625 7.625 2.203125 
L 7.625 11.71875 
Q 11.71875 9.328125 16.59375 8.109375 
Q 21.484375 6.890625 26.8125 6.890625 
Q 36.078125 6.890625 40.9375 10.546875 
Q 45.796875 14.203125 45.796875 21.1875 
Q 45.796875 27.640625 41.28125 31.265625 
Q 36.765625 34.90625 28.71875 34.90625 
L 20.21875 34.90625 
L 20.21875 43.015625 
L 29.109375 43.015625 
Q 36.375 43.015625 40.234375 45.921875 
Q 44.09375 48.828125 44.09375 54.296875 
Q 44.09375 59.90625 40.109375 62.90625 
Q 36.140625 65.921875 28.71875 65.921875 
Q 24.65625 65.921875 20.015625 65.03125 
Q 15.375 64.15625 9.8125 62.3125 
L 9.8125 71.09375 
Q 15.4375 72.65625 20.34375 73.4375 
Q 25.25 74.21875 29.59375 74.21875 
Q 40.828125 74.21875 47.359375 69.109375 
Q 53.90625 64.015625 53.90625 55.328125 
Q 53.90625 49.265625 50.4375 45.09375 
Q 46.96875 40.921875 40.578125 39.3125 
z
" id="DejaVuSans-51"/>
      </defs>
      <g transform="translate(18.335 107.880851)scale(0.1 -0.1)">
       <use xlink:href="#DejaVuSans-51"/>
       <use x="63.623047" xlink:href="#DejaVuSans-48"/>
      </g>
     </g>
    </g>
    <g id="ytick_8">
     <g id="line2d_33">
      <path clip-path="url(#p07bf123350)" d="M 34.56 79.428571 
L 410.4 79.428571 
" style="fill:none;stroke:#cbcbcb;"/>
     </g>
     <g id="line2d_34"/>
     <g id="text_27">
      <!-- 35 -->
      <g transform="translate(18.335 83.22779)scale(0.1 -0.1)">
       <use xlink:href="#DejaVuSans-51"/>
       <use x="63.623047" xlink:href="#DejaVuSans-53"/>
      </g>
     </g>
    </g>
    <g id="ytick_9">
     <g id="line2d_35">
      <path clip-path="url(#p07bf123350)" d="M 34.56 54.77551 
L 410.4 54.77551 
" style="fill:none;stroke:#cbcbcb;"/>
     </g>
     <g id="line2d_36"/>
     <g id="text_28">
      <!-- 40 -->
      <defs>
       <path d="M 37.796875 64.3125 
L 12.890625 25.390625 
L 37.796875 25.390625 
z
M 35.203125 72.90625 
L 47.609375 72.90625 
L 47.609375 25.390625 
L 58.015625 25.390625 
L 58.015625 17.1875 
L 47.609375 17.1875 
L 47.609375 0 
L 37.796875 0 
L 37.796875 17.1875 
L 4.890625 17.1875 
L 4.890625 26.703125 
z
" id="DejaVuSans-52"/>
      </defs>
      <g transform="translate(18.335 58.574729)scale(0.1 -0.1)">
       <use xlink:href="#DejaVuSans-52"/>
       <use x="63.623047" xlink:href="#DejaVuSans-48"/>
      </g>
     </g>
    </g>
    <g id="text_29">
     <!-- value -->
     <defs>
      <path d="M 2.984375 54.6875 
L 12.5 54.6875 
L 29.59375 8.796875 
L 46.6875 54.6875 
L 56.203125 54.6875 
L 35.6875 0 
L 23.484375 0 
z
" id="DejaVuSans-118"/>
     </defs>
     <g transform="translate(11.839375 159.669375)rotate(-90)scale(0.12 -0.12)">
      <use xlink:href="#DejaVuSans-118"/>
      <use x="59.179688" xlink:href="#DejaVuSans-97"/>
      <use x="120.458984" xlink:href="#DejaVuSans-108"/>
      <use x="148.242188" xlink:href="#DejaVuSans-117"/>
      <use x="211.621094" xlink:href="#DejaVuSans-101"/>
     </g>
    </g>
   </g>
   <g id="patch_3">
    <path clip-path="url(#p07bf123350)" d="M 36.648 252 
L 40.824 252 
L 40.824 44.914286 
L 36.648 44.914286 
z
" style="fill:#2020df;"/>
   </g>
   <g id="patch_4">
    <path clip-path="url(#p07bf123350)" d="M 57.528 252 
L 61.704 252 
L 61.704 79.428571 
L 57.528 79.428571 
z
" style="fill:#2020df;"/>
   </g>
   <g id="patch_5">
    <path clip-path="url(#p07bf123350)" d="M 78.408 252 
L 82.584 252 
L 82.584 59.706122 
L 78.408 59.706122 
z
" style="fill:#2020df;"/>
   </g>
   <g id="patch_6">
    <path clip-path="url(#p07bf123350)" d="M 99.288 252 
L 103.464 252 
L 103.464 158.318367 
L 99.288 158.318367 
z
" style="fill:#2020df;"/>
   </g>
   <g id="patch_7">
    <path clip-path="url(#p07bf123350)" d="M 120.168 252 
L 124.344 252 
L 124.344 133.665306 
L 120.168 133.665306 
z
" style="fill:#2020df;"/>
   </g>
   <g id="patch_8">
    <path clip-path="url(#p07bf123350)" d="M 141.048 252 
L 145.224 252 
L 145.224 173.110204 
L 141.048 173.110204 
z
" style="fill:#2020df;"/>
   </g>
   <g id="patch_9">
    <path clip-path="url(#p07bf123350)" d="M 161.928 252 
L 166.104 252 
L 166.104 138.595918 
L 161.928 138.595918 
z
" style="fill:#2020df;"/>
   </g>
   <g id="patch_10">
    <path clip-path="url(#p07bf123350)" d="M 182.808 252 
L 186.984 252 
L 186.984 118.873469 
L 182.808 118.873469 
z
" style="fill:#2020df;"/>
   </g>
   <g id="patch_11">
    <path clip-path="url(#p07bf123350)" d="M 203.688 252 
L 207.864 252 
L 207.864 187.902041 
L 203.688 187.902041 
z
" style="fill:#2020df;"/>
   </g>
   <g id="patch_12">
    <path clip-path="url(#p07bf123350)" d="M 224.568 252 
L 228.744 252 
L 228.744 202.693878 
L 224.568 202.693878 
z
" style="fill:#2020df;"/>
   </g>
   <g id="patch_13">
    <path clip-path="url(#p07bf123350)" d="M 245.448 252 
L 249.624 252 
L 249.624 237.208163 
L 245.448 237.208163 
z
" style="fill:#2020df;"/>
   </g>
   <g id="patch_14">
    <path clip-path="url(#p07bf123350)" d="M 266.328 252 
L 270.504 252 
L 270.504 232.277551 
L 266.328 232.277551 
z
" style="fill:#2020df;"/>
   </g>
   <g id="patch_15">
    <path clip-path="url(#p07bf123350)" d="M 287.208 252 
L 291.384 252 
L 291.384 202.693878 
L 287.208 202.693878 
z
" style="fill:#2020df;"/>
   </g>
   <g id="patch_16">
    <path clip-path="url(#p07bf123350)" d="M 308.088 252 
L 312.264 252 
L 312.264 227.346939 
L 308.088 227.346939 
z
" style="fill:#2020df;"/>
   </g>
   <g id="patch_17">
    <path clip-path="url(#p07bf123350)" d="M 328.968 252 
L 333.144 252 
L 333.144 247.069388 
L 328.968 247.069388 
z
" style="fill:#2020df;"/>
   </g>
   <g id="patch_18">
    <path clip-path="url(#p07bf123350)" d="M 349.848 252 
L 354.024 252 
L 354.024 237.208163 
L 349.848 237.208163 
z
" style="fill:#2020df;"/>
   </g>
   <g id="patch_19">
    <path clip-path="url(#p07bf123350)" d="M 370.728 252 
L 374.904 252 
L 374.904 247.069388 
L 370.728 247.069388 
z
" style="fill:#2020df;"/>
   </g>
   <g id="patch_20">
    <path clip-path="url(#p07bf123350)" d="M 391.608 252 
L 395.784 252 
L 395.784 148.457143 
L 391.608 148.457143 
z
" style="fill:#2020df;"/>
   </g>
   <g id="patch_21">
    <path clip-path="url(#p07bf123350)" d="M 40.824 252 
L 45 252 
L 45 64.636735 
L 40.824 64.636735 
z
" style="fill:#107010;"/>
   </g>
   <g id="patch_22">
    <path clip-path="url(#p07bf123350)" d="M 61.704 252 
L 65.88 252 
L 65.88 94.220408 
L 61.704 94.220408 
z
" style="fill:#107010;"/>
   </g>
   <g id="patch_23">
    <path clip-path="url(#p07bf123350)" d="M 82.584 252 
L 86.76 252 
L 86.76 79.428571 
L 82.584 79.428571 
z
" style="fill:#107010;"/>
   </g>
   <g id="patch_24">
    <path clip-path="url(#p07bf123350)" d="M 103.464 252 
L 107.64 252 
L 107.64 178.040816 
L 103.464 178.040816 
z
" style="fill:#107010;"/>
   </g>
   <g id="patch_25">
    <path clip-path="url(#p07bf123350)" d="M 124.344 252 
L 128.52 252 
L 128.52 163.24898 
L 124.344 163.24898 
z
" style="fill:#107010;"/>
   </g>
   <g id="patch_26">
    <path clip-path="url(#p07bf123350)" d="M 145.224 252 
L 149.4 252 
L 149.4 182.971429 
L 145.224 182.971429 
z
" style="fill:#107010;"/>
   </g>
   <g id="patch_27">
    <path clip-path="url(#p07bf123350)" d="M 166.104 252 
L 170.28 252 
L 170.28 143.526531 
L 166.104 143.526531 
z
" style="fill:#107010;"/>
   </g>
   <g id="patch_28">
    <path clip-path="url(#p07bf123350)" d="M 186.984 252 
L 191.16 252 
L 191.16 153.387755 
L 186.984 153.387755 
z
" style="fill:#107010;"/>
   </g>
   <g id="patch_29">
    <path clip-path="url(#p07bf123350)" d="M 207.864 252 
L 212.04 252 
L 212.04 192.832653 
L 207.864 192.832653 
z
" style="fill:#107010;"/>
   </g>
   <g id="patch_30">
    <path clip-path="url(#p07bf123350)" d="M 228.744 252 
L 232.92 252 
L 232.92 207.62449 
L 228.744 207.62449 
z
" style="fill:#107010;"/>
   </g>
   <g id="patch_31">
    <path clip-path="url(#p07bf123350)" d="M 249.624 252 
L 253.8 252 
L 253.8 242.138776 
L 249.624 242.138776 
z
" style="fill:#107010;"/>
   </g>
   <g id="patch_32">
    <path clip-path="url(#p07bf123350)" d="M 270.504 252 
L 274.68 252 
L 274.68 237.208163 
L 270.504 237.208163 
z
" style="fill:#107010;"/>
   </g>
   <g id="patch_33">
    <path clip-path="url(#p07bf123350)" d="M 291.384 252 
L 295.56 252 
L 295.56 202.693878 
L 291.384 202.693878 
z
" style="fill:#107010;"/>
   </g>
   <g id="patch_34">
    <path clip-path="url(#p07bf123350)" d="M 312.264 252 
L 316.44 252 
L 316.44 227.346939 
L 312.264 227.346939 
z
" style="fill:#107010;"/>
   </g>
   <g id="patch_35">
    <path clip-path="url(#p07bf123350)" d="M 333.144 252 
L 337.32 252 
L 337.32 252 
L 333.144 252 
z
" style="fill:#107010;"/>
   </g>
   <g id="patch_36">
    <path clip-path="url(#p07bf123350)" d="M 354.024 252 
L 358.2 252 
L 358.2 242.138776 
L 354.024 242.138776 
z
" style="fill:#107010;"/>
   </g>
   <g id="patch_37">
    <path clip-path="url(#p07bf123350)" d="M 374.904 252 
L 379.08 252 
L 379.08 247.069388 
L 374.904 247.069388 
z
" style="fill:#107010;"/>
   </g>
   <g id="patch_38">
    <path clip-path="url(#p07bf123350)" d="M 395.784 252 
L 399.96 252 
L 399.96 212.555102 
L 395.784 212.555102 
z
" style="fill:#107010;"/>
   </g>
   <g id="patch_39">
    <path clip-path="url(#p07bf123350)" d="M 45 252 
L 49.176 252 
L 49.176 163.24898 
L 45 163.24898 
z
" style="fill:#df2020;"/>
   </g>
   <g id="patch_40">
    <path clip-path="url(#p07bf123350)" d="M 65.88 252 
L 70.056 252 
L 70.056 197.763265 
L 65.88 197.763265 
z
" style="fill:#df2020;"/>
   </g>
   <g id="patch_41">
    <path clip-path="url(#p07bf123350)" d="M 86.76 252 
L 90.936 252 
L 90.936 182.971429 
L 86.76 182.971429 
z
" style="fill:#df2020;"/>
   </g>
   <g id="patch_42">
    <path clip-path="url(#p07bf123350)" d="M 107.64 252 
L 111.816 252 
L 111.816 212.555102 
L 107.64 212.555102 
z
" style="fill:#df2020;"/>
   </g>
   <g id="patch_43">
    <path clip-path="url(#p07bf123350)" d="M 128.52 252 
L 132.696 252 
L 132.696 202.693878 
L 128.52 202.693878 
z
" style="fill:#df2020;"/>
   </g>
   <g id="patch_44">
    <path clip-path="url(#p07bf123350)" d="M 149.4 252 
L 153.576 252 
L 153.576 222.416327 
L 149.4 222.416327 
z
" style="fill:#df2020;"/>
   </g>
   <g id="patch_45">
    <path clip-path="url(#p07bf123350)" d="M 170.28 252 
L 174.456 252 
L 174.456 153.387755 
L 170.28 153.387755 
z
" style="fill:#df2020;"/>
   </g>
   <g id="patch_46">
    <path clip-path="url(#p07bf123350)" d="M 191.16 252 
L 195.336 252 
L 195.336 222.416327 
L 191.16 222.416327 
z
" style="fill:#df2020;"/>
   </g>
   <g id="patch_47">
    <path clip-path="url(#p07bf123350)" d="M 212.04 252 
L 216.216 252 
L 216.216 232.277551 
L 212.04 232.277551 
z
" style="fill:#df2020;"/>
   </g>
   <g id="patch_48">
    <path clip-path="url(#p07bf123350)" d="M 232.92 252 
L 237.096 252 
L 237.096 237.208163 
L 232.92 237.208163 
z
" style="fill:#df2020;"/>
   </g>
   <g id="patch_49">
    <path clip-path="url(#p07bf123350)" d="M 253.8 252 
L 257.976 252 
L 257.976 252 
L 253.8 252 
z
" style="fill:#df2020;"/>
   </g>
   <g id="patch_50">
    <path clip-path="url(#p07bf123350)" d="M 274.68 252 
L 278.856 252 
L 278.856 242.138776 
L 274.68 242.138776 
z
" style="fill:#df2020;"/>
   </g>
   <g id="patch_51">
    <path clip-path="url(#p07bf123350)" d="M 295.56 252 
L 299.736 252 
L 299.736 212.555102 
L 295.56 212.555102 
z
" style="fill:#df2020;"/>
   </g>
   <g id="patch_52">
    <path clip-path="url(#p07bf123350)" d="M 316.44 252 
L 320.616 252 
L 320.616 252 
L 316.44 252 
z
" style="fill:#df2020;"/>
   </g>
   <g id="patch_53">
    <path clip-path="url(#p07bf123350)" d="M 337.32 252 
L 341.496 252 
L 341.496 252 
L 337.32 252 
z
" style="fill:#df2020;"/>
   </g>
   <g id="patch_54">
    <path clip-path="url(#p07bf123350)" d="M 358.2 252 
L 362.376 252 
L 362.376 252 
L 358.2 252 
z
" style="fill:#df2020;"/>
   </g>
   <g id="patch_55">
    <path clip-path="url(#p07bf123350)" d="M 379.08 252 
L 383.256 252 
L 383.256 252 
L 379.08 252 
z
" style="fill:#df2020;"/>
   </g>
   <g id="patch_56">
    <path clip-path="url(#p07bf123350)" d="M 399.96 252 
L 404.136 252 
L 404.136 247.069388 
L 399.96 247.069388 
z
" style="fill:#df2020;"/>
   </g>
   <g id="patch_57">
    <path clip-path="url(#p07bf123350)" d="M 49.176 252 
L 53.352 252 
L 53.352 197.763265 
L 49.176 197.763265 
z
" style="fill:#18a7a7;"/>
   </g>
   <g id="patch_58">
    <path clip-path="url(#p07bf123350)" d="M 70.056 252 
L 74.232 252 
L 74.232 187.902041 
L 70.056 187.902041 
z
" style="fill:#18a7a7;"/>
   </g>
   <g id="patch_59">
    <path clip-path="url(#p07bf123350)" d="M 90.936 252 
L 95.112 252 
L 95.112 202.693878 
L 90.936 202.693878 
z
" style="fill:#18a7a7;"/>
   </g>
   <g id="patch_60">
    <path clip-path="url(#p07bf123350)" d="M 111.816 252 
L 115.992 252 
L 115.992 227.346939 
L 111.816 227.346939 
z
" style="fill:#18a7a7;"/>
   </g>
   <g id="patch_61">
    <path clip-path="url(#p07bf123350)" d="M 132.696 252 
L 136.872 252 
L 136.872 237.208163 
L 132.696 237.208163 
z
" style="fill:#18a7a7;"/>
   </g>
   <g id="patch_62">
    <path clip-path="url(#p07bf123350)" d="M 153.576 252 
L 157.752 252 
L 157.752 232.277551 
L 153.576 232.277551 
z
" style="fill:#18a7a7;"/>
   </g>
   <g id="patch_63">
    <path clip-path="url(#p07bf123350)" d="M 174.456 252 
L 178.632 252 
L 178.632 247.069388 
L 174.456 247.069388 
z
" style="fill:#18a7a7;"/>
   </g>
   <g id="patch_64">
    <path clip-path="url(#p07bf123350)" d="M 195.336 252 
L 199.512 252 
L 199.512 217.485714 
L 195.336 217.485714 
z
" style="fill:#18a7a7;"/>
   </g>
   <g id="patch_65">
    <path clip-path="url(#p07bf123350)" d="M 216.216 252 
L 220.392 252 
L 220.392 217.485714 
L 216.216 217.485714 
z
" style="fill:#18a7a7;"/>
   </g>
   <g id="patch_66">
    <path clip-path="url(#p07bf123350)" d="M 237.096 252 
L 241.272 252 
L 241.272 237.208163 
L 237.096 237.208163 
z
" style="fill:#18a7a7;"/>
   </g>
   <g id="patch_67">
    <path clip-path="url(#p07bf123350)" d="M 257.976 252 
L 262.152 252 
L 262.152 242.138776 
L 257.976 242.138776 
z
" style="fill:#18a7a7;"/>
   </g>
   <g id="patch_68">
    <path clip-path="url(#p07bf123350)" d="M 278.856 252 
L 283.032 252 
L 283.032 247.069388 
L 278.856 247.069388 
z
" style="fill:#18a7a7;"/>
   </g>
   <g id="patch_69">
    <path clip-path="url(#p07bf123350)" d="M 299.736 252 
L 303.912 252 
L 303.912 247.069388 
L 299.736 247.069388 
z
" style="fill:#18a7a7;"/>
   </g>
   <g id="patch_70">
    <path clip-path="url(#p07bf123350)" d="M 320.616 252 
L 324.792 252 
L 324.792 237.208163 
L 320.616 237.208163 
z
" style="fill:#18a7a7;"/>
   </g>
   <g id="patch_71">
    <path clip-path="url(#p07bf123350)" d="M 341.496 252 
L 345.672 252 
L 345.672 252 
L 341.496 252 
z
" style="fill:#18a7a7;"/>
   </g>
   <g id="patch_72">
    <path clip-path="url(#p07bf123350)" d="M 362.376 252 
L 366.552 252 
L 366.552 247.069388 
L 362.376 247.069388 
z
" style="fill:#18a7a7;"/>
   </g>
   <g id="patch_73">
    <path clip-path="url(#p07bf123350)" d="M 383.256 252 
L 387.432 252 
L 387.432 247.069388 
L 383.256 247.069388 
z
" style="fill:#18a7a7;"/>
   </g>
   <g id="patch_74">
    <path clip-path="url(#p07bf123350)" d="M 404.136 252 
L 408.312 252 
L 408.312 237.208163 
L 404.136 237.208163 
z
" style="fill:#18a7a7;"/>
   </g>
   <g id="line2d_37">
    <path clip-path="url(#p07bf123350)" d="M 0 0 
" style="fill:none;stroke:#424242;stroke-width:7.2;"/>
   </g>
   <g id="line2d_38">
    <path clip-path="url(#p07bf123350)" d="M 0 0 
" style="fill:none;stroke:#424242;stroke-width:7.2;"/>
   </g>
   <g id="line2d_39">
    <path clip-path="url(#p07bf123350)" d="M 0 0 
" style="fill:none;stroke:#424242;stroke-width:7.2;"/>
   </g>
   <g id="line2d_40">
    <path clip-path="url(#p07bf123350)" d="M 0 0 
" style="fill:none;stroke:#424242;stroke-width:7.2;"/>
   </g>
   <g id="line2d_41">
    <path clip-path="url(#p07bf123350)" d="M 0 0 
" style="fill:none;stroke:#424242;stroke-width:7.2;"/>
   </g>
   <g id="line2d_42">
    <path clip-path="url(#p07bf123350)" d="M 0 0 
" style="fill:none;stroke:#424242;stroke-width:7.2;"/>
   </g>
   <g id="line2d_43">
    <path clip-path="url(#p07bf123350)" d="M 0 0 
" style="fill:none;stroke:#424242;stroke-width:7.2;"/>
   </g>
   <g id="line2d_44">
    <path clip-path="url(#p07bf123350)" d="M 0 0 
" style="fill:none;stroke:#424242;stroke-width:7.2;"/>
   </g>
   <g id="line2d_45">
    <path clip-path="url(#p07bf123350)" d="M 0 0 
" style="fill:none;stroke:#424242;stroke-width:7.2;"/>
   </g>
   <g id="line2d_46">
    <path clip-path="url(#p07bf123350)" d="M 0 0 
" style="fill:none;stroke:#424242;stroke-width:7.2;"/>
   </g>
   <g id="line2d_47">
    <path clip-path="url(#p07bf123350)" d="M 0 0 
" style="fill:none;stroke:#424242;stroke-width:7.2;"/>
   </g>
   <g id="line2d_48">
    <path clip-path="url(#p07bf123350)" d="M 0 0 
" style="fill:none;stroke:#424242;stroke-width:7.2;"/>
   </g>
   <g id="line2d_49">
    <path clip-path="url(#p07bf123350)" d="M 0 0 
" style="fill:none;stroke:#424242;stroke-width:7.2;"/>
   </g>
   <g id="line2d_50">
    <path clip-path="url(#p07bf123350)" d="M 0 0 
" style="fill:none;stroke:#424242;stroke-width:7.2;"/>
   </g>
   <g id="line2d_51">
    <path clip-path="url(#p07bf123350)" d="M 0 0 
" style="fill:none;stroke:#424242;stroke-width:7.2;"/>
   </g>
   <g id="line2d_52">
    <path clip-path="url(#p07bf123350)" d="M 0 0 
" style="fill:none;stroke:#424242;stroke-width:7.2;"/>
   </g>
   <g id="line2d_53">
    <path clip-path="url(#p07bf123350)" d="M 0 0 
" style="fill:none;stroke:#424242;stroke-width:7.2;"/>
   </g>
   <g id="line2d_54">
    <path clip-path="url(#p07bf123350)" d="M 0 0 
" style="fill:none;stroke:#424242;stroke-width:7.2;"/>
   </g>
   <g id="line2d_55">
    <path clip-path="url(#p07bf123350)" d="M 0 0 
" style="fill:none;stroke:#424242;stroke-width:7.2;"/>
   </g>
   <g id="line2d_56">
    <path clip-path="url(#p07bf123350)" d="M 0 0 
" style="fill:none;stroke:#424242;stroke-width:7.2;"/>
   </g>
   <g id="line2d_57">
    <path clip-path="url(#p07bf123350)" d="M 0 0 
" style="fill:none;stroke:#424242;stroke-width:7.2;"/>
   </g>
   <g id="line2d_58">
    <path clip-path="url(#p07bf123350)" d="M 0 0 
" style="fill:none;stroke:#424242;stroke-width:7.2;"/>
   </g>
   <g id="line2d_59">
    <path clip-path="url(#p07bf123350)" d="M 0 0 
" style="fill:none;stroke:#424242;stroke-width:7.2;"/>
   </g>
   <g id="line2d_60">
    <path clip-path="url(#p07bf123350)" d="M 0 0 
" style="fill:none;stroke:#424242;stroke-width:7.2;"/>
   </g>
   <g id="line2d_61">
    <path clip-path="url(#p07bf123350)" d="M 0 0 
" style="fill:none;stroke:#424242;stroke-width:7.2;"/>
   </g>
   <g id="line2d_62">
    <path clip-path="url(#p07bf123350)" d="M 0 0 
" style="fill:none;stroke:#424242;stroke-width:7.2;"/>
   </g>
   <g id="line2d_63">
    <path clip-path="url(#p07bf123350)" d="M 0 0 
" style="fill:none;stroke:#424242;stroke-width:7.2;"/>
   </g>
   <g id="line2d_64">
    <path clip-path="url(#p07bf123350)" d="M 0 0 
" style="fill:none;stroke:#424242;stroke-width:7.2;"/>
   </g>
   <g id="line2d_65">
    <path clip-path="url(#p07bf123350)" d="M 0 0 
" style="fill:none;stroke:#424242;stroke-width:7.2;"/>
   </g>
   <g id="line2d_66">
    <path clip-path="url(#p07bf123350)" d="M 0 0 
" style="fill:none;stroke:#424242;stroke-width:7.2;"/>
   </g>
   <g id="line2d_67">
    <path clip-path="url(#p07bf123350)" d="M 0 0 
" style="fill:none;stroke:#424242;stroke-width:7.2;"/>
   </g>
   <g id="line2d_68">
    <path clip-path="url(#p07bf123350)" d="M 0 0 
" style="fill:none;stroke:#424242;stroke-width:7.2;"/>
   </g>
   <g id="line2d_69">
    <path clip-path="url(#p07bf123350)" d="M 0 0 
" style="fill:none;stroke:#424242;stroke-width:7.2;"/>
   </g>
   <g id="line2d_70">
    <path clip-path="url(#p07bf123350)" d="M 0 0 
" style="fill:none;stroke:#424242;stroke-width:7.2;"/>
   </g>
   <g id="line2d_71">
    <path clip-path="url(#p07bf123350)" d="M 0 0 
" style="fill:none;stroke:#424242;stroke-width:7.2;"/>
   </g>
   <g id="line2d_72">
    <path clip-path="url(#p07bf123350)" d="M 0 0 
" style="fill:none;stroke:#424242;stroke-width:7.2;"/>
   </g>
   <g id="line2d_73">
    <path clip-path="url(#p07bf123350)" d="M 0 0 
" style="fill:none;stroke:#424242;stroke-width:7.2;"/>
   </g>
   <g id="line2d_74">
    <path clip-path="url(#p07bf123350)" d="M 0 0 
" style="fill:none;stroke:#424242;stroke-width:7.2;"/>
   </g>
   <g id="line2d_75">
    <path clip-path="url(#p07bf123350)" d="M 0 0 
" style="fill:none;stroke:#424242;stroke-width:7.2;"/>
   </g>
   <g id="line2d_76">
    <path clip-path="url(#p07bf123350)" d="M 0 0 
" style="fill:none;stroke:#424242;stroke-width:7.2;"/>
   </g>
   <g id="line2d_77">
    <path clip-path="url(#p07bf123350)" d="M 0 0 
" style="fill:none;stroke:#424242;stroke-width:7.2;"/>
   </g>
   <g id="line2d_78">
    <path clip-path="url(#p07bf123350)" d="M 0 0 
" style="fill:none;stroke:#424242;stroke-width:7.2;"/>
   </g>
   <g id="line2d_79">
    <path clip-path="url(#p07bf123350)" d="M 0 0 
" style="fill:none;stroke:#424242;stroke-width:7.2;"/>
   </g>
   <g id="line2d_80">
    <path clip-path="url(#p07bf123350)" d="M 0 0 
" style="fill:none;stroke:#424242;stroke-width:7.2;"/>
   </g>
   <g id="line2d_81">
    <path clip-path="url(#p07bf123350)" d="M 0 0 
" style="fill:none;stroke:#424242;stroke-width:7.2;"/>
   </g>
   <g id="line2d_82">
    <path clip-path="url(#p07bf123350)" d="M 0 0 
" style="fill:none;stroke:#424242;stroke-width:7.2;"/>
   </g>
   <g id="line2d_83">
    <path clip-path="url(#p07bf123350)" d="M 0 0 
" style="fill:none;stroke:#424242;stroke-width:7.2;"/>
   </g>
   <g id="line2d_84">
    <path clip-path="url(#p07bf123350)" d="M 0 0 
" style="fill:none;stroke:#424242;stroke-width:7.2;"/>
   </g>
   <g id="line2d_85">
    <path clip-path="url(#p07bf123350)" d="M 0 0 
" style="fill:none;stroke:#424242;stroke-width:7.2;"/>
   </g>
   <g id="line2d_86">
    <path clip-path="url(#p07bf123350)" d="M 0 0 
" style="fill:none;stroke:#424242;stroke-width:7.2;"/>
   </g>
   <g id="line2d_87">
    <path clip-path="url(#p07bf123350)" d="M 0 0 
" style="fill:none;stroke:#424242;stroke-width:7.2;"/>
   </g>
   <g id="line2d_88">
    <path clip-path="url(#p07bf123350)" d="M 0 0 
" style="fill:none;stroke:#424242;stroke-width:7.2;"/>
   </g>
   <g id="line2d_89">
    <path clip-path="url(#p07bf123350)" d="M 0 0 
" style="fill:none;stroke:#424242;stroke-width:7.2;"/>
   </g>
   <g id="line2d_90">
    <path clip-path="url(#p07bf123350)" d="M 0 0 
" style="fill:none;stroke:#424242;stroke-width:7.2;"/>
   </g>
   <g id="line2d_91">
    <path clip-path="url(#p07bf123350)" d="M 0 0 
" style="fill:none;stroke:#424242;stroke-width:7.2;"/>
   </g>
   <g id="line2d_92">
    <path clip-path="url(#p07bf123350)" d="M 0 0 
" style="fill:none;stroke:#424242;stroke-width:7.2;"/>
   </g>
   <g id="line2d_93">
    <path clip-path="url(#p07bf123350)" d="M 0 0 
" style="fill:none;stroke:#424242;stroke-width:7.2;"/>
   </g>
   <g id="line2d_94">
    <path clip-path="url(#p07bf123350)" d="M 0 0 
" style="fill:none;stroke:#424242;stroke-width:7.2;"/>
   </g>
   <g id="line2d_95">
    <path clip-path="url(#p07bf123350)" d="M 0 0 
" style="fill:none;stroke:#424242;stroke-width:7.2;"/>
   </g>
   <g id="line2d_96">
    <path clip-path="url(#p07bf123350)" d="M 0 0 
" style="fill:none;stroke:#424242;stroke-width:7.2;"/>
   </g>
   <g id="line2d_97">
    <path clip-path="url(#p07bf123350)" d="M 0 0 
" style="fill:none;stroke:#424242;stroke-width:7.2;"/>
   </g>
   <g id="line2d_98">
    <path clip-path="url(#p07bf123350)" d="M 0 0 
" style="fill:none;stroke:#424242;stroke-width:7.2;"/>
   </g>
   <g id="line2d_99">
    <path clip-path="url(#p07bf123350)" d="M 0 0 
" style="fill:none;stroke:#424242;stroke-width:7.2;"/>
   </g>
   <g id="line2d_100">
    <path clip-path="url(#p07bf123350)" d="M 0 0 
" style="fill:none;stroke:#424242;stroke-width:7.2;"/>
   </g>
   <g id="line2d_101">
    <path clip-path="url(#p07bf123350)" d="M 0 0 
" style="fill:none;stroke:#424242;stroke-width:7.2;"/>
   </g>
   <g id="line2d_102">
    <path clip-path="url(#p07bf123350)" d="M 0 0 
" style="fill:none;stroke:#424242;stroke-width:7.2;"/>
   </g>
   <g id="line2d_103">
    <path clip-path="url(#p07bf123350)" d="M 0 0 
" style="fill:none;stroke:#424242;stroke-width:7.2;"/>
   </g>
   <g id="line2d_104">
    <path clip-path="url(#p07bf123350)" d="M 0 0 
" style="fill:none;stroke:#424242;stroke-width:7.2;"/>
   </g>
   <g id="line2d_105">
    <path clip-path="url(#p07bf123350)" d="M 0 0 
" style="fill:none;stroke:#424242;stroke-width:7.2;"/>
   </g>
   <g id="line2d_106">
    <path clip-path="url(#p07bf123350)" d="M 0 0 
" style="fill:none;stroke:#424242;stroke-width:7.2;"/>
   </g>
   <g id="line2d_107">
    <path clip-path="url(#p07bf123350)" d="M 0 0 
" style="fill:none;stroke:#424242;stroke-width:7.2;"/>
   </g>
   <g id="line2d_108">
    <path clip-path="url(#p07bf123350)" d="M 0 0 
" style="fill:none;stroke:#424242;stroke-width:7.2;"/>
   </g>
   <g id="legend_1">
    <g id="patch_75">
     <path d="M 417.4 209.9925 
L 701.85 209.9925 
Q 703.85 209.9925 703.85 207.9925 
L 703.85 150.28 
Q 703.85 148.28 701.85 148.28 
L 417.4 148.28 
Q 415.4 148.28 415.4 150.28 
L 415.4 207.9925 
Q 415.4 209.9925 417.4 209.9925 
z
" style="fill:#f0f0f0;opacity:0.8;stroke:#cccccc;stroke-linejoin:miter;stroke-width:0.5;"/>
    </g>
    <g id="patch_76">
     <path d="M 419.4 159.878438 
L 439.4 159.878438 
L 439.4 152.878438 
L 419.4 152.878438 
z
" style="fill:#2020df;"/>
    </g>
    <g id="text_30">
     <!-- Number of Genes in Pathway -->
     <g transform="translate(447.4 159.878438)scale(0.1 -0.1)">
      <use xlink:href="#DejaVuSans-78"/>
      <use x="74.804688" xlink:href="#DejaVuSans-117"/>
      <use x="138.183594" xlink:href="#DejaVuSans-109"/>
      <use x="235.595703" xlink:href="#DejaVuSans-98"/>
      <use x="299.072266" xlink:href="#DejaVuSans-101"/>
      <use x="360.595703" xlink:href="#DejaVuSans-114"/>
      <use x="401.708984" xlink:href="#DejaVuSans-32"/>
      <use x="433.496094" xlink:href="#DejaVuSans-111"/>
      <use x="494.677734" xlink:href="#DejaVuSans-102"/>
      <use x="529.882812" xlink:href="#DejaVuSans-32"/>
      <use x="561.669922" xlink:href="#DejaVuSans-71"/>
      <use x="639.160156" xlink:href="#DejaVuSans-101"/>
      <use x="700.683594" xlink:href="#DejaVuSans-110"/>
      <use x="764.0625" xlink:href="#DejaVuSans-101"/>
      <use x="825.585938" xlink:href="#DejaVuSans-115"/>
      <use x="877.685547" xlink:href="#DejaVuSans-32"/>
      <use x="909.472656" xlink:href="#DejaVuSans-105"/>
      <use x="937.255859" xlink:href="#DejaVuSans-110"/>
      <use x="1000.634766" xlink:href="#DejaVuSans-32"/>
      <use x="1032.421875" xlink:href="#DejaVuSans-80"/>
      <use x="1092.662109" xlink:href="#DejaVuSans-97"/>
      <use x="1153.941406" xlink:href="#DejaVuSans-116"/>
      <use x="1193.150391" xlink:href="#DejaVuSans-104"/>
      <use x="1256.529297" xlink:href="#DejaVuSans-119"/>
      <use x="1338.316406" xlink:href="#DejaVuSans-97"/>
      <use x="1399.595703" xlink:href="#DejaVuSans-121"/>
     </g>
    </g>
    <g id="patch_77">
     <path d="M 419.4 174.556563 
L 439.4 174.556563 
L 439.4 167.556563 
L 419.4 167.556563 
z
" style="fill:#107010;"/>
    </g>
    <g id="text_31">
     <!-- CHO homologues -->
     <g transform="translate(447.4 174.556563)scale(0.1 -0.1)">
      <use xlink:href="#DejaVuSans-67"/>
      <use x="69.824219" xlink:href="#DejaVuSans-72"/>
      <use x="145.019531" xlink:href="#DejaVuSans-79"/>
      <use x="223.730469" xlink:href="#DejaVuSans-32"/>
      <use x="255.517578" xlink:href="#DejaVuSans-104"/>
      <use x="318.896484" xlink:href="#DejaVuSans-111"/>
      <use x="380.078125" xlink:href="#DejaVuSans-109"/>
      <use x="477.490234" xlink:href="#DejaVuSans-111"/>
      <use x="538.671875" xlink:href="#DejaVuSans-108"/>
      <use x="566.455078" xlink:href="#DejaVuSans-111"/>
      <use x="627.636719" xlink:href="#DejaVuSans-103"/>
      <use x="691.113281" xlink:href="#DejaVuSans-117"/>
      <use x="754.492188" xlink:href="#DejaVuSans-101"/>
      <use x="816.015625" xlink:href="#DejaVuSans-115"/>
     </g>
    </g>
    <g id="patch_78">
     <path d="M 419.4 189.234688 
L 439.4 189.234688 
L 439.4 182.234688 
L 419.4 182.234688 
z
" style="fill:#df2020;"/>
    </g>
    <g id="text_32">
     <!-- Number of Genes in CHO -->
     <g transform="translate(447.4 189.234688)scale(0.1 -0.1)">
      <use xlink:href="#DejaVuSans-78"/>
      <use x="74.804688" xlink:href="#DejaVuSans-117"/>
      <use x="138.183594" xlink:href="#DejaVuSans-109"/>
      <use x="235.595703" xlink:href="#DejaVuSans-98"/>
      <use x="299.072266" xlink:href="#DejaVuSans-101"/>
      <use x="360.595703" xlink:href="#DejaVuSans-114"/>
      <use x="401.708984" xlink:href="#DejaVuSans-32"/>
      <use x="433.496094" xlink:href="#DejaVuSans-111"/>
      <use x="494.677734" xlink:href="#DejaVuSans-102"/>
      <use x="529.882812" xlink:href="#DejaVuSans-32"/>
      <use x="561.669922" xlink:href="#DejaVuSans-71"/>
      <use x="639.160156" xlink:href="#DejaVuSans-101"/>
      <use x="700.683594" xlink:href="#DejaVuSans-110"/>
      <use x="764.0625" xlink:href="#DejaVuSans-101"/>
      <use x="825.585938" xlink:href="#DejaVuSans-115"/>
      <use x="877.685547" xlink:href="#DejaVuSans-32"/>
      <use x="909.472656" xlink:href="#DejaVuSans-105"/>
      <use x="937.255859" xlink:href="#DejaVuSans-110"/>
      <use x="1000.634766" xlink:href="#DejaVuSans-32"/>
      <use x="1032.421875" xlink:href="#DejaVuSans-67"/>
      <use x="1102.246094" xlink:href="#DejaVuSans-72"/>
      <use x="1177.441406" xlink:href="#DejaVuSans-79"/>
     </g>
    </g>
    <g id="patch_79">
     <path d="M 419.4 203.912813 
L 439.4 203.912813 
L 439.4 196.912813 
L 419.4 196.912813 
z
" style="fill:#18a7a7;"/>
    </g>
    <g id="text_33">
     <!-- Number of Genes Rescued in at least 1 BioSample -->
     <defs>
      <path d="M 44.390625 34.1875 
Q 47.5625 33.109375 50.5625 29.59375 
Q 53.5625 26.078125 56.59375 19.921875 
L 66.609375 0 
L 56 0 
L 46.6875 18.703125 
Q 43.0625 26.03125 39.671875 28.421875 
Q 36.28125 30.8125 30.421875 30.8125 
L 19.671875 30.8125 
L 19.671875 0 
L 9.8125 0 
L 9.8125 72.90625 
L 32.078125 72.90625 
Q 44.578125 72.90625 50.734375 67.671875 
Q 56.890625 62.453125 56.890625 51.90625 
Q 56.890625 45.015625 53.6875 40.46875 
Q 50.484375 35.9375 44.390625 34.1875 
z
M 19.671875 64.796875 
L 19.671875 38.921875 
L 32.078125 38.921875 
Q 39.203125 38.921875 42.84375 42.21875 
Q 46.484375 45.515625 46.484375 51.90625 
Q 46.484375 58.296875 42.84375 61.546875 
Q 39.203125 64.796875 32.078125 64.796875 
z
" id="DejaVuSans-82"/>
      <path d="M 19.671875 34.8125 
L 19.671875 8.109375 
L 35.5 8.109375 
Q 43.453125 8.109375 47.28125 11.40625 
Q 51.125 14.703125 51.125 21.484375 
Q 51.125 28.328125 47.28125 31.5625 
Q 43.453125 34.8125 35.5 34.8125 
z
M 19.671875 64.796875 
L 19.671875 42.828125 
L 34.28125 42.828125 
Q 41.5 42.828125 45.03125 45.53125 
Q 48.578125 48.25 48.578125 53.8125 
Q 48.578125 59.328125 45.03125 62.0625 
Q 41.5 64.796875 34.28125 64.796875 
z
M 9.8125 72.90625 
L 35.015625 72.90625 
Q 46.296875 72.90625 52.390625 68.21875 
Q 58.5 63.53125 58.5 54.890625 
Q 58.5 48.1875 55.375 44.234375 
Q 52.25 40.28125 46.1875 39.3125 
Q 53.46875 37.75 57.5 32.78125 
Q 61.53125 27.828125 61.53125 20.40625 
Q 61.53125 10.640625 54.890625 5.3125 
Q 48.25 0 35.984375 0 
L 9.8125 0 
z
" id="DejaVuSans-66"/>
     </defs>
     <g transform="translate(447.4 203.912813)scale(0.1 -0.1)">
      <use xlink:href="#DejaVuSans-78"/>
      <use x="74.804688" xlink:href="#DejaVuSans-117"/>
      <use x="138.183594" xlink:href="#DejaVuSans-109"/>
      <use x="235.595703" xlink:href="#DejaVuSans-98"/>
      <use x="299.072266" xlink:href="#DejaVuSans-101"/>
      <use x="360.595703" xlink:href="#DejaVuSans-114"/>
      <use x="401.708984" xlink:href="#DejaVuSans-32"/>
      <use x="433.496094" xlink:href="#DejaVuSans-111"/>
      <use x="494.677734" xlink:href="#DejaVuSans-102"/>
      <use x="529.882812" xlink:href="#DejaVuSans-32"/>
      <use x="561.669922" xlink:href="#DejaVuSans-71"/>
      <use x="639.160156" xlink:href="#DejaVuSans-101"/>
      <use x="700.683594" xlink:href="#DejaVuSans-110"/>
      <use x="764.0625" xlink:href="#DejaVuSans-101"/>
      <use x="825.585938" xlink:href="#DejaVuSans-115"/>
      <use x="877.685547" xlink:href="#DejaVuSans-32"/>
      <use x="909.472656" xlink:href="#DejaVuSans-82"/>
      <use x="978.892578" xlink:href="#DejaVuSans-101"/>
      <use x="1040.416016" xlink:href="#DejaVuSans-115"/>
      <use x="1092.515625" xlink:href="#DejaVuSans-99"/>
      <use x="1147.496094" xlink:href="#DejaVuSans-117"/>
      <use x="1210.875" xlink:href="#DejaVuSans-101"/>
      <use x="1272.398438" xlink:href="#DejaVuSans-100"/>
      <use x="1335.875" xlink:href="#DejaVuSans-32"/>
      <use x="1367.662109" xlink:href="#DejaVuSans-105"/>
      <use x="1395.445312" xlink:href="#DejaVuSans-110"/>
      <use x="1458.824219" xlink:href="#DejaVuSans-32"/>
      <use x="1490.611328" xlink:href="#DejaVuSans-97"/>
      <use x="1551.890625" xlink:href="#DejaVuSans-116"/>
      <use x="1591.099609" xlink:href="#DejaVuSans-32"/>
      <use x="1622.886719" xlink:href="#DejaVuSans-108"/>
      <use x="1650.669922" xlink:href="#DejaVuSans-101"/>
      <use x="1712.193359" xlink:href="#DejaVuSans-97"/>
      <use x="1773.472656" xlink:href="#DejaVuSans-115"/>
      <use x="1825.572266" xlink:href="#DejaVuSans-116"/>
      <use x="1864.78125" xlink:href="#DejaVuSans-32"/>
      <use x="1896.568359" xlink:href="#DejaVuSans-49"/>
      <use x="1960.191406" xlink:href="#DejaVuSans-32"/>
      <use x="1991.978516" xlink:href="#DejaVuSans-66"/>
      <use x="2060.582031" xlink:href="#DejaVuSans-105"/>
      <use x="2088.365234" xlink:href="#DejaVuSans-111"/>
      <use x="2149.546875" xlink:href="#DejaVuSans-83"/>
      <use x="2213.023438" xlink:href="#DejaVuSans-97"/>
      <use x="2274.302734" xlink:href="#DejaVuSans-109"/>
      <use x="2371.714844" xlink:href="#DejaVuSans-112"/>
      <use x="2435.191406" xlink:href="#DejaVuSans-108"/>
      <use x="2462.974609" xlink:href="#DejaVuSans-101"/>
     </g>
    </g>
   </g>
  </g>
 </g>
 <defs>
  <clipPath id="p07bf123350">
   <rect height="217.44" width="375.84" x="34.56" y="34.56"/>
  </clipPath>
 </defs>
</svg>
