<?xml version="1.0" encoding="utf-8" standalone="no"?>
<!DOCTYPE svg PUBLIC "-//W3C//DTD SVG 1.1//EN"
  "http://www.w3.org/Graphics/SVG/1.1/DTD/svg11.dtd">
<!-- Created with matplotlib (https://matplotlib.org/) -->
<svg height="432pt" version="1.1" viewBox="0 0 576 432" width="576pt" xmlns="http://www.w3.org/2000/svg" xmlns:xlink="http://www.w3.org/1999/xlink">
 <defs>
  <style type="text/css">
*{stroke-linecap:butt;stroke-linejoin:round;}
  </style>
 </defs>
 <g id="figure_1">
  <g id="patch_1">
   <path d="M 0 432 
L 576 432 
L 576 0 
L 0 0 
z
" style="fill:#f0f0f0;"/>
  </g>
  <g id="axes_1">
   <g id="patch_2">
    <path d="M 46.08 210.894545 
L 273.861818 210.894545 
L 273.861818 51.84 
L 46.08 51.84 
z
" style="fill:#ffffff;"/>
   </g>
   <g id="matplotlib.axis_1">
    <g id="xtick_1">
     <g id="line2d_1">
      <path clip-path="url(#pbbecb6a8c6)" d="M 56.433719 210.894545 
L 56.433719 51.84 
" style="fill:none;stroke:#cbcbcb;"/>
     </g>
     <g id="line2d_2"/>
     <g id="text_1">
      <!-- −100 -->
      <defs>
       <path d="M 10.59375 35.5 
L 73.1875 35.5 
L 73.1875 27.203125 
L 10.59375 27.203125 
z
" id="DejaVuSans-8722"/>
       <path d="M 12.40625 8.296875 
L 28.515625 8.296875 
L 28.515625 63.921875 
L 10.984375 60.40625 
L 10.984375 69.390625 
L 28.421875 72.90625 
L 38.28125 72.90625 
L 38.28125 8.296875 
L 54.390625 8.296875 
L 54.390625 0 
L 12.40625 0 
z
" id="DejaVuSans-49"/>
       <path d="M 31.78125 66.40625 
Q 24.171875 66.40625 20.328125 58.90625 
Q 16.5 51.421875 16.5 36.375 
Q 16.5 21.390625 20.328125 13.890625 
Q 24.171875 6.390625 31.78125 6.390625 
Q 39.453125 6.390625 43.28125 13.890625 
Q 47.125 21.390625 47.125 36.375 
Q 47.125 51.421875 43.28125 58.90625 
Q 39.453125 66.40625 31.78125 66.40625 
z
M 31.78125 74.21875 
Q 44.046875 74.21875 50.515625 64.515625 
Q 56.984375 54.828125 56.984375 36.375 
Q 56.984375 17.96875 50.515625 8.265625 
Q 44.046875 -1.421875 31.78125 -1.421875 
Q 19.53125 -1.421875 13.0625 8.265625 
Q 6.59375 17.96875 6.59375 36.375 
Q 6.59375 54.828125 13.0625 64.515625 
Q 19.53125 74.21875 31.78125 74.21875 
z
" id="DejaVuSans-48"/>
      </defs>
      <g transform="translate(37.206688 225.032358)scale(0.14 -0.14)">
       <use xlink:href="#DejaVuSans-8722"/>
       <use x="83.789062" xlink:href="#DejaVuSans-49"/>
       <use x="147.412109" xlink:href="#DejaVuSans-48"/>
       <use x="211.035156" xlink:href="#DejaVuSans-48"/>
      </g>
     </g>
    </g>
    <g id="xtick_2">
     <g id="line2d_3">
      <path clip-path="url(#pbbecb6a8c6)" d="M 108.202314 210.894545 
L 108.202314 51.84 
" style="fill:none;stroke:#cbcbcb;"/>
     </g>
     <g id="line2d_4"/>
     <g id="text_2">
      <!-- −50 -->
      <defs>
       <path d="M 10.796875 72.90625 
L 49.515625 72.90625 
L 49.515625 64.59375 
L 19.828125 64.59375 
L 19.828125 46.734375 
Q 21.96875 47.46875 24.109375 47.828125 
Q 26.265625 48.1875 28.421875 48.1875 
Q 40.625 48.1875 47.75 41.5 
Q 54.890625 34.8125 54.890625 23.390625 
Q 54.890625 11.625 47.5625 5.09375 
Q 40.234375 -1.421875 26.90625 -1.421875 
Q 22.3125 -1.421875 17.546875 -0.640625 
Q 12.796875 0.140625 7.71875 1.703125 
L 7.71875 11.625 
Q 12.109375 9.234375 16.796875 8.0625 
Q 21.484375 6.890625 26.703125 6.890625 
Q 35.15625 6.890625 40.078125 11.328125 
Q 45.015625 15.765625 45.015625 23.390625 
Q 45.015625 31 40.078125 35.4375 
Q 35.15625 39.890625 26.703125 39.890625 
Q 22.75 39.890625 18.8125 39.015625 
Q 14.890625 38.140625 10.796875 36.28125 
z
" id="DejaVuSans-53"/>
      </defs>
      <g transform="translate(93.429033 225.032358)scale(0.14 -0.14)">
       <use xlink:href="#DejaVuSans-8722"/>
       <use x="83.789062" xlink:href="#DejaVuSans-53"/>
       <use x="147.412109" xlink:href="#DejaVuSans-48"/>
      </g>
     </g>
    </g>
    <g id="xtick_3">
     <g id="line2d_5">
      <path clip-path="url(#pbbecb6a8c6)" d="M 159.970909 210.894545 
L 159.970909 51.84 
" style="fill:none;stroke:#cbcbcb;"/>
     </g>
     <g id="line2d_6"/>
     <g id="text_3">
      <!-- 0 -->
      <g transform="translate(155.517159 225.032358)scale(0.14 -0.14)">
       <use xlink:href="#DejaVuSans-48"/>
      </g>
     </g>
    </g>
    <g id="xtick_4">
     <g id="line2d_7">
      <path clip-path="url(#pbbecb6a8c6)" d="M 211.739504 210.894545 
L 211.739504 51.84 
" style="fill:none;stroke:#cbcbcb;"/>
     </g>
     <g id="line2d_8"/>
     <g id="text_4">
      <!-- 50 -->
      <g transform="translate(202.832004 225.032358)scale(0.14 -0.14)">
       <use xlink:href="#DejaVuSans-53"/>
       <use x="63.623047" xlink:href="#DejaVuSans-48"/>
      </g>
     </g>
    </g>
    <g id="xtick_5">
     <g id="line2d_9">
      <path clip-path="url(#pbbecb6a8c6)" d="M 263.508099 210.894545 
L 263.508099 51.84 
" style="fill:none;stroke:#cbcbcb;"/>
     </g>
     <g id="line2d_10"/>
     <g id="text_5">
      <!-- 100 -->
      <g transform="translate(250.146849 225.032358)scale(0.14 -0.14)">
       <use xlink:href="#DejaVuSans-49"/>
       <use x="63.623047" xlink:href="#DejaVuSans-48"/>
       <use x="127.246094" xlink:href="#DejaVuSans-48"/>
      </g>
     </g>
    </g>
    <g id="text_6">
     <!-- bp from TSS -->
     <defs>
      <path d="M 48.6875 27.296875 
Q 48.6875 37.203125 44.609375 42.84375 
Q 40.53125 48.484375 33.40625 48.484375 
Q 26.265625 48.484375 22.1875 42.84375 
Q 18.109375 37.203125 18.109375 27.296875 
Q 18.109375 17.390625 22.1875 11.75 
Q 26.265625 6.109375 33.40625 6.109375 
Q 40.53125 6.109375 44.609375 11.75 
Q 48.6875 17.390625 48.6875 27.296875 
z
M 18.109375 46.390625 
Q 20.953125 51.265625 25.265625 53.625 
Q 29.59375 56 35.59375 56 
Q 45.5625 56 51.78125 48.09375 
Q 58.015625 40.1875 58.015625 27.296875 
Q 58.015625 14.40625 51.78125 6.484375 
Q 45.5625 -1.421875 35.59375 -1.421875 
Q 29.59375 -1.421875 25.265625 0.953125 
Q 20.953125 3.328125 18.109375 8.203125 
L 18.109375 0 
L 9.078125 0 
L 9.078125 75.984375 
L 18.109375 75.984375 
z
" id="DejaVuSans-98"/>
      <path d="M 18.109375 8.203125 
L 18.109375 -20.796875 
L 9.078125 -20.796875 
L 9.078125 54.6875 
L 18.109375 54.6875 
L 18.109375 46.390625 
Q 20.953125 51.265625 25.265625 53.625 
Q 29.59375 56 35.59375 56 
Q 45.5625 56 51.78125 48.09375 
Q 58.015625 40.1875 58.015625 27.296875 
Q 58.015625 14.40625 51.78125 6.484375 
Q 45.5625 -1.421875 35.59375 -1.421875 
Q 29.59375 -1.421875 25.265625 0.953125 
Q 20.953125 3.328125 18.109375 8.203125 
z
M 48.6875 27.296875 
Q 48.6875 37.203125 44.609375 42.84375 
Q 40.53125 48.484375 33.40625 48.484375 
Q 26.265625 48.484375 22.1875 42.84375 
Q 18.109375 37.203125 18.109375 27.296875 
Q 18.109375 17.390625 22.1875 11.75 
Q 26.265625 6.109375 33.40625 6.109375 
Q 40.53125 6.109375 44.609375 11.75 
Q 48.6875 17.390625 48.6875 27.296875 
z
" id="DejaVuSans-112"/>
      <path id="DejaVuSans-32"/>
      <path d="M 37.109375 75.984375 
L 37.109375 68.5 
L 28.515625 68.5 
Q 23.6875 68.5 21.796875 66.546875 
Q 19.921875 64.59375 19.921875 59.515625 
L 19.921875 54.6875 
L 34.71875 54.6875 
L 34.71875 47.703125 
L 19.921875 47.703125 
L 19.921875 0 
L 10.890625 0 
L 10.890625 47.703125 
L 2.296875 47.703125 
L 2.296875 54.6875 
L 10.890625 54.6875 
L 10.890625 58.5 
Q 10.890625 67.625 15.140625 71.796875 
Q 19.390625 75.984375 28.609375 75.984375 
z
" id="DejaVuSans-102"/>
      <path d="M 41.109375 46.296875 
Q 39.59375 47.171875 37.8125 47.578125 
Q 36.03125 48 33.890625 48 
Q 26.265625 48 22.1875 43.046875 
Q 18.109375 38.09375 18.109375 28.8125 
L 18.109375 0 
L 9.078125 0 
L 9.078125 54.6875 
L 18.109375 54.6875 
L 18.109375 46.1875 
Q 20.953125 51.171875 25.484375 53.578125 
Q 30.03125 56 36.53125 56 
Q 37.453125 56 38.578125 55.875 
Q 39.703125 55.765625 41.0625 55.515625 
z
" id="DejaVuSans-114"/>
      <path d="M 30.609375 48.390625 
Q 23.390625 48.390625 19.1875 42.75 
Q 14.984375 37.109375 14.984375 27.296875 
Q 14.984375 17.484375 19.15625 11.84375 
Q 23.34375 6.203125 30.609375 6.203125 
Q 37.796875 6.203125 41.984375 11.859375 
Q 46.1875 17.53125 46.1875 27.296875 
Q 46.1875 37.015625 41.984375 42.703125 
Q 37.796875 48.390625 30.609375 48.390625 
z
M 30.609375 56 
Q 42.328125 56 49.015625 48.375 
Q 55.71875 40.765625 55.71875 27.296875 
Q 55.71875 13.875 49.015625 6.21875 
Q 42.328125 -1.421875 30.609375 -1.421875 
Q 18.84375 -1.421875 12.171875 6.21875 
Q 5.515625 13.875 5.515625 27.296875 
Q 5.515625 40.765625 12.171875 48.375 
Q 18.84375 56 30.609375 56 
z
" id="DejaVuSans-111"/>
      <path d="M 52 44.1875 
Q 55.375 50.25 60.0625 53.125 
Q 64.75 56 71.09375 56 
Q 79.640625 56 84.28125 50.015625 
Q 88.921875 44.046875 88.921875 33.015625 
L 88.921875 0 
L 79.890625 0 
L 79.890625 32.71875 
Q 79.890625 40.578125 77.09375 44.375 
Q 74.3125 48.1875 68.609375 48.1875 
Q 61.625 48.1875 57.5625 43.546875 
Q 53.515625 38.921875 53.515625 30.90625 
L 53.515625 0 
L 44.484375 0 
L 44.484375 32.71875 
Q 44.484375 40.625 41.703125 44.40625 
Q 38.921875 48.1875 33.109375 48.1875 
Q 26.21875 48.1875 22.15625 43.53125 
Q 18.109375 38.875 18.109375 30.90625 
L 18.109375 0 
L 9.078125 0 
L 9.078125 54.6875 
L 18.109375 54.6875 
L 18.109375 46.1875 
Q 21.1875 51.21875 25.484375 53.609375 
Q 29.78125 56 35.6875 56 
Q 41.65625 56 45.828125 52.96875 
Q 50 49.953125 52 44.1875 
z
" id="DejaVuSans-109"/>
      <path d="M -0.296875 72.90625 
L 61.375 72.90625 
L 61.375 64.59375 
L 35.5 64.59375 
L 35.5 0 
L 25.59375 0 
L 25.59375 64.59375 
L -0.296875 64.59375 
z
" id="DejaVuSans-84"/>
      <path d="M 53.515625 70.515625 
L 53.515625 60.890625 
Q 47.90625 63.578125 42.921875 64.890625 
Q 37.9375 66.21875 33.296875 66.21875 
Q 25.25 66.21875 20.875 63.09375 
Q 16.5 59.96875 16.5 54.203125 
Q 16.5 49.359375 19.40625 46.890625 
Q 22.3125 44.4375 30.421875 42.921875 
L 36.375 41.703125 
Q 47.40625 39.59375 52.65625 34.296875 
Q 57.90625 29 57.90625 20.125 
Q 57.90625 9.515625 50.796875 4.046875 
Q 43.703125 -1.421875 29.984375 -1.421875 
Q 24.8125 -1.421875 18.96875 -0.25 
Q 13.140625 0.921875 6.890625 3.21875 
L 6.890625 13.375 
Q 12.890625 10.015625 18.65625 8.296875 
Q 24.421875 6.59375 29.984375 6.59375 
Q 38.421875 6.59375 43.015625 9.90625 
Q 47.609375 13.234375 47.609375 19.390625 
Q 47.609375 24.75 44.3125 27.78125 
Q 41.015625 30.8125 33.5 32.328125 
L 27.484375 33.5 
Q 16.453125 35.6875 11.515625 40.375 
Q 6.59375 45.0625 6.59375 53.421875 
Q 6.59375 63.09375 13.40625 68.65625 
Q 20.21875 74.21875 32.171875 74.21875 
Q 37.3125 74.21875 42.625 73.28125 
Q 47.953125 72.359375 53.515625 70.515625 
z
" id="DejaVuSans-83"/>
     </defs>
     <g transform="translate(108.440847 244.709295)scale(0.168 -0.168)">
      <use xlink:href="#DejaVuSans-98"/>
      <use x="63.476562" xlink:href="#DejaVuSans-112"/>
      <use x="126.953125" xlink:href="#DejaVuSans-32"/>
      <use x="158.740234" xlink:href="#DejaVuSans-102"/>
      <use x="193.945312" xlink:href="#DejaVuSans-114"/>
      <use x="235.027344" xlink:href="#DejaVuSans-111"/>
      <use x="296.208984" xlink:href="#DejaVuSans-109"/>
      <use x="393.621094" xlink:href="#DejaVuSans-32"/>
      <use x="425.408203" xlink:href="#DejaVuSans-84"/>
      <use x="486.492188" xlink:href="#DejaVuSans-83"/>
      <use x="549.96875" xlink:href="#DejaVuSans-83"/>
     </g>
    </g>
   </g>
   <g id="matplotlib.axis_2">
    <g id="ytick_1">
     <g id="line2d_11">
      <path clip-path="url(#pbbecb6a8c6)" d="M 46.08 175.956419 
L 273.861818 175.956419 
" style="fill:none;stroke:#cbcbcb;"/>
     </g>
     <g id="line2d_12"/>
     <g id="text_7">
      <!-- 0.2 -->
      <defs>
       <path d="M 10.6875 12.40625 
L 21 12.40625 
L 21 0 
L 10.6875 0 
z
" id="DejaVuSans-46"/>
       <path d="M 19.1875 8.296875 
L 53.609375 8.296875 
L 53.609375 0 
L 7.328125 0 
L 7.328125 8.296875 
Q 12.9375 14.109375 22.625 23.890625 
Q 32.328125 33.6875 34.8125 36.53125 
Q 39.546875 41.84375 41.421875 45.53125 
Q 43.3125 49.21875 43.3125 52.78125 
Q 43.3125 58.59375 39.234375 62.25 
Q 35.15625 65.921875 28.609375 65.921875 
Q 23.96875 65.921875 18.8125 64.3125 
Q 13.671875 62.703125 7.8125 59.421875 
L 7.8125 69.390625 
Q 13.765625 71.78125 18.9375 73 
Q 24.125 74.21875 28.421875 74.21875 
Q 39.75 74.21875 46.484375 68.546875 
Q 53.21875 62.890625 53.21875 53.421875 
Q 53.21875 48.921875 51.53125 44.890625 
Q 49.859375 40.875 45.40625 35.40625 
Q 44.1875 33.984375 37.640625 27.21875 
Q 31.109375 20.453125 19.1875 8.296875 
z
" id="DejaVuSans-50"/>
      </defs>
      <g transform="translate(20.315625 181.275326)scale(0.14 -0.14)">
       <use xlink:href="#DejaVuSans-48"/>
       <use x="63.623047" xlink:href="#DejaVuSans-46"/>
       <use x="95.410156" xlink:href="#DejaVuSans-50"/>
      </g>
     </g>
    </g>
    <g id="ytick_2">
     <g id="line2d_13">
      <path clip-path="url(#pbbecb6a8c6)" d="M 46.08 124.006789 
L 273.861818 124.006789 
" style="fill:none;stroke:#cbcbcb;"/>
     </g>
     <g id="line2d_14"/>
     <g id="text_8">
      <!-- 0.4 -->
      <defs>
       <path d="M 37.796875 64.3125 
L 12.890625 25.390625 
L 37.796875 25.390625 
z
M 35.203125 72.90625 
L 47.609375 72.90625 
L 47.609375 25.390625 
L 58.015625 25.390625 
L 58.015625 17.1875 
L 47.609375 17.1875 
L 47.609375 0 
L 37.796875 0 
L 37.796875 17.1875 
L 4.890625 17.1875 
L 4.890625 26.703125 
z
" id="DejaVuSans-52"/>
      </defs>
      <g transform="translate(20.315625 129.325696)scale(0.14 -0.14)">
       <use xlink:href="#DejaVuSans-48"/>
       <use x="63.623047" xlink:href="#DejaVuSans-46"/>
       <use x="95.410156" xlink:href="#DejaVuSans-52"/>
      </g>
     </g>
    </g>
    <g id="ytick_3">
     <g id="line2d_15">
      <path clip-path="url(#pbbecb6a8c6)" d="M 46.08 72.05716 
L 273.861818 72.05716 
" style="fill:none;stroke:#cbcbcb;"/>
     </g>
     <g id="line2d_16"/>
     <g id="text_9">
      <!-- 0.6 -->
      <defs>
       <path d="M 33.015625 40.375 
Q 26.375 40.375 22.484375 35.828125 
Q 18.609375 31.296875 18.609375 23.390625 
Q 18.609375 15.53125 22.484375 10.953125 
Q 26.375 6.390625 33.015625 6.390625 
Q 39.65625 6.390625 43.53125 10.953125 
Q 47.40625 15.53125 47.40625 23.390625 
Q 47.40625 31.296875 43.53125 35.828125 
Q 39.65625 40.375 33.015625 40.375 
z
M 52.59375 71.296875 
L 52.59375 62.3125 
Q 48.875 64.0625 45.09375 64.984375 
Q 41.3125 65.921875 37.59375 65.921875 
Q 27.828125 65.921875 22.671875 59.328125 
Q 17.53125 52.734375 16.796875 39.40625 
Q 19.671875 43.65625 24.015625 45.921875 
Q 28.375 48.1875 33.59375 48.1875 
Q 44.578125 48.1875 50.953125 41.515625 
Q 57.328125 34.859375 57.328125 23.390625 
Q 57.328125 12.15625 50.6875 5.359375 
Q 44.046875 -1.421875 33.015625 -1.421875 
Q 20.359375 -1.421875 13.671875 8.265625 
Q 6.984375 17.96875 6.984375 36.375 
Q 6.984375 53.65625 15.1875 63.9375 
Q 23.390625 74.21875 37.203125 74.21875 
Q 40.921875 74.21875 44.703125 73.484375 
Q 48.484375 72.75 52.59375 71.296875 
z
" id="DejaVuSans-54"/>
      </defs>
      <g transform="translate(20.315625 77.376066)scale(0.14 -0.14)">
       <use xlink:href="#DejaVuSans-48"/>
       <use x="63.623047" xlink:href="#DejaVuSans-46"/>
       <use x="95.410156" xlink:href="#DejaVuSans-54"/>
      </g>
     </g>
    </g>
    <g id="text_10">
     <!-- Frequency -->
     <defs>
      <path d="M 9.8125 72.90625 
L 51.703125 72.90625 
L 51.703125 64.59375 
L 19.671875 64.59375 
L 19.671875 43.109375 
L 48.578125 43.109375 
L 48.578125 34.8125 
L 19.671875 34.8125 
L 19.671875 0 
L 9.8125 0 
z
" id="DejaVuSans-70"/>
      <path d="M 56.203125 29.59375 
L 56.203125 25.203125 
L 14.890625 25.203125 
Q 15.484375 15.921875 20.484375 11.0625 
Q 25.484375 6.203125 34.421875 6.203125 
Q 39.59375 6.203125 44.453125 7.46875 
Q 49.3125 8.734375 54.109375 11.28125 
L 54.109375 2.78125 
Q 49.265625 0.734375 44.1875 -0.34375 
Q 39.109375 -1.421875 33.890625 -1.421875 
Q 20.796875 -1.421875 13.15625 6.1875 
Q 5.515625 13.8125 5.515625 26.8125 
Q 5.515625 40.234375 12.765625 48.109375 
Q 20.015625 56 32.328125 56 
Q 43.359375 56 49.78125 48.890625 
Q 56.203125 41.796875 56.203125 29.59375 
z
M 47.21875 32.234375 
Q 47.125 39.59375 43.09375 43.984375 
Q 39.0625 48.390625 32.421875 48.390625 
Q 24.90625 48.390625 20.390625 44.140625 
Q 15.875 39.890625 15.1875 32.171875 
z
" id="DejaVuSans-101"/>
      <path d="M 14.796875 27.296875 
Q 14.796875 17.390625 18.875 11.75 
Q 22.953125 6.109375 30.078125 6.109375 
Q 37.203125 6.109375 41.296875 11.75 
Q 45.40625 17.390625 45.40625 27.296875 
Q 45.40625 37.203125 41.296875 42.84375 
Q 37.203125 48.484375 30.078125 48.484375 
Q 22.953125 48.484375 18.875 42.84375 
Q 14.796875 37.203125 14.796875 27.296875 
z
M 45.40625 8.203125 
Q 42.578125 3.328125 38.25 0.953125 
Q 33.9375 -1.421875 27.875 -1.421875 
Q 17.96875 -1.421875 11.734375 6.484375 
Q 5.515625 14.40625 5.515625 27.296875 
Q 5.515625 40.1875 11.734375 48.09375 
Q 17.96875 56 27.875 56 
Q 33.9375 56 38.25 53.625 
Q 42.578125 51.265625 45.40625 46.390625 
L 45.40625 54.6875 
L 54.390625 54.6875 
L 54.390625 -20.796875 
L 45.40625 -20.796875 
z
" id="DejaVuSans-113"/>
      <path d="M 8.5 21.578125 
L 8.5 54.6875 
L 17.484375 54.6875 
L 17.484375 21.921875 
Q 17.484375 14.15625 20.5 10.265625 
Q 23.53125 6.390625 29.59375 6.390625 
Q 36.859375 6.390625 41.078125 11.03125 
Q 45.3125 15.671875 45.3125 23.6875 
L 45.3125 54.6875 
L 54.296875 54.6875 
L 54.296875 0 
L 45.3125 0 
L 45.3125 8.40625 
Q 42.046875 3.421875 37.71875 1 
Q 33.40625 -1.421875 27.6875 -1.421875 
Q 18.265625 -1.421875 13.375 4.4375 
Q 8.5 10.296875 8.5 21.578125 
z
M 31.109375 56 
z
" id="DejaVuSans-117"/>
      <path d="M 54.890625 33.015625 
L 54.890625 0 
L 45.90625 0 
L 45.90625 32.71875 
Q 45.90625 40.484375 42.875 44.328125 
Q 39.84375 48.1875 33.796875 48.1875 
Q 26.515625 48.1875 22.3125 43.546875 
Q 18.109375 38.921875 18.109375 30.90625 
L 18.109375 0 
L 9.078125 0 
L 9.078125 54.6875 
L 18.109375 54.6875 
L 18.109375 46.1875 
Q 21.34375 51.125 25.703125 53.5625 
Q 30.078125 56 35.796875 56 
Q 45.21875 56 50.046875 50.171875 
Q 54.890625 44.34375 54.890625 33.015625 
z
" id="DejaVuSans-110"/>
      <path d="M 48.78125 52.59375 
L 48.78125 44.1875 
Q 44.96875 46.296875 41.140625 47.34375 
Q 37.3125 48.390625 33.40625 48.390625 
Q 24.65625 48.390625 19.8125 42.84375 
Q 14.984375 37.3125 14.984375 27.296875 
Q 14.984375 17.28125 19.8125 11.734375 
Q 24.65625 6.203125 33.40625 6.203125 
Q 37.3125 6.203125 41.140625 7.25 
Q 44.96875 8.296875 48.78125 10.40625 
L 48.78125 2.09375 
Q 45.015625 0.34375 40.984375 -0.53125 
Q 36.96875 -1.421875 32.421875 -1.421875 
Q 20.0625 -1.421875 12.78125 6.34375 
Q 5.515625 14.109375 5.515625 27.296875 
Q 5.515625 40.671875 12.859375 48.328125 
Q 20.21875 56 33.015625 56 
Q 37.15625 56 41.109375 55.140625 
Q 45.0625 54.296875 48.78125 52.59375 
z
" id="DejaVuSans-99"/>
      <path d="M 32.171875 -5.078125 
Q 28.375 -14.84375 24.75 -17.8125 
Q 21.140625 -20.796875 15.09375 -20.796875 
L 7.90625 -20.796875 
L 7.90625 -13.28125 
L 13.1875 -13.28125 
Q 16.890625 -13.28125 18.9375 -11.515625 
Q 21 -9.765625 23.484375 -3.21875 
L 25.09375 0.875 
L 2.984375 54.6875 
L 12.5 54.6875 
L 29.59375 11.921875 
L 46.6875 54.6875 
L 56.203125 54.6875 
z
" id="DejaVuSans-121"/>
     </defs>
     <g transform="translate(12.82175 175.547335)rotate(-90)scale(0.168 -0.168)">
      <use xlink:href="#DejaVuSans-70"/>
      <use x="57.410156" xlink:href="#DejaVuSans-114"/>
      <use x="98.492188" xlink:href="#DejaVuSans-101"/>
      <use x="160.015625" xlink:href="#DejaVuSans-113"/>
      <use x="223.492188" xlink:href="#DejaVuSans-117"/>
      <use x="286.871094" xlink:href="#DejaVuSans-101"/>
      <use x="348.394531" xlink:href="#DejaVuSans-110"/>
      <use x="411.773438" xlink:href="#DejaVuSans-99"/>
      <use x="466.753906" xlink:href="#DejaVuSans-121"/>
     </g>
    </g>
   </g>
   <g id="LineCollection_1">
    <path clip-path="url(#pbbecb6a8c6)" d="M 159.970909 201.931234 
L 159.970909 59.069752 
" style="fill:none;stroke:#000000;stroke-width:0.5;"/>
   </g>
   <g id="line2d_17">
    <path clip-path="url(#pbbecb6a8c6)" d="M 56.433719 157.036624 
L 57.469091 156.666483 
L 58.504463 157.061819 
L 59.539835 157.264942 
L 60.575207 158.232764 
L 61.610579 158.553034 
L 62.64595 157.264942 
L 63.681322 156.368292 
L 64.716694 155.701259 
L 65.752066 156.355824 
L 66.787438 157.480274 
L 67.82281 157.332737 
L 68.858182 157.361309 
L 69.893554 156.528556 
L 70.928926 156.905971 
L 71.964298 155.959448 
L 72.999669 157.503651 
L 74.035041 156.791941 
L 75.070413 156.863112 
L 76.105785 156.457645 
L 77.141157 157.034026 
L 78.176529 156.742069 
L 79.211901 156.735056 
L 80.247273 157.461052 
L 81.282645 155.375794 
L 82.318017 156.585701 
L 83.353388 155.425666 
L 84.38876 155.831392 
L 85.424132 156.607 
L 86.459504 155.703077 
L 88.530248 156.694276 
L 89.56562 156.480763 
L 90.600992 155.925681 
L 91.636364 156.317121 
L 92.671736 156.374006 
L 93.707107 155.498915 
L 94.742479 155.278129 
L 95.777851 154.829804 
L 96.813223 155.550605 
L 97.848595 155.144878 
L 98.883967 155.237608 
L 99.919339 154.862272 
L 100.954711 154.791101 
L 101.990083 154.115236 
L 103.025455 154.83396 
L 104.060826 155.830094 
L 106.13157 154.665123 
L 107.166942 155.077863 
L 108.202314 156.572194 
L 109.237686 155.464109 
L 111.30843 154.370309 
L 112.343802 154.023545 
L 113.379174 152.282453 
L 114.414545 152.725844 
L 115.449917 151.40944 
L 116.485289 152.369989 
L 117.520661 152.860913 
L 119.591405 153.494179 
L 120.626777 153.230794 
L 121.662149 153.721718 
L 122.697521 155.571644 
L 123.732893 156.830903 
L 124.768264 157.812751 
L 125.803636 158.118735 
L 126.839008 156.827527 
L 127.87438 157.795088 
L 128.909752 159.168117 
L 129.945124 160.292307 
L 130.980496 160.790244 
L 132.015868 162.767967 
L 133.05124 162.810825 
L 134.086612 158.508617 
L 135.121983 157.348841 
L 137.192727 152.440121 
L 138.228099 151.920884 
L 139.263471 152.810262 
L 140.298843 152.952344 
L 141.334215 153.279627 
L 142.369587 151.22372 
L 143.404959 150.405513 
L 144.440331 154.645642 
L 145.475702 155.954513 
L 146.511074 153.061178 
L 147.546446 149.468602 
L 148.581818 151.289956 
L 149.61719 156.093738 
L 150.652562 155.455537 
L 151.687934 157.966522 
L 152.723306 156.1953 
L 153.758678 145.226135 
L 154.79405 162.556532 
L 155.829421 152.820392 
L 156.864793 167.473304 
L 157.900165 158.710181 
L 158.935537 102.210803 
L 159.970909 202.109162 
L 161.006281 178.29649 
L 162.041653 184.818507 
L 163.077025 169.114134 
L 164.112397 165.892218 
L 165.147769 161.297532 
L 167.218512 164.448537 
L 168.253884 159.355915 
L 169.289256 162.229249 
L 171.36 165.501037 
L 172.395372 166.404441 
L 173.430744 161.724299 
L 174.466116 159.327343 
L 175.501488 159.277731 
L 176.53686 158.13432 
L 177.572231 158.532773 
L 178.607603 163.639422 
L 179.642975 163.283827 
L 180.678347 161.591048 
L 181.713719 161.967942 
L 182.749091 164.044629 
L 183.784463 167.179529 
L 184.819835 167.961891 
L 185.855207 163.616304 
L 186.890579 163.402791 
L 187.92595 164.45555 
L 189.996694 161.123241 
L 191.032066 160.241137 
L 192.067438 157.310658 
L 193.10281 156.663366 
L 194.138182 158.114579 
L 195.173554 159.10318 
L 196.208926 158.930448 
L 197.244298 158.517968 
L 199.315041 158.468096 
L 200.350413 158.231465 
L 201.385785 159.348382 
L 202.421157 156.993765 
L 203.456529 156.529595 
L 204.491901 157.874052 
L 205.527273 154.025623 
L 206.562645 155.346702 
L 207.598017 154.663824 
L 208.633388 155.453459 
L 209.66876 157.274553 
L 210.704132 158.284714 
L 211.739504 157.395336 
L 213.810248 159.21643 
L 214.84562 158.932006 
L 215.880992 159.913594 
L 216.916364 159.878009 
L 217.951736 159.451243 
L 218.987107 159.188118 
L 220.022479 158.263414 
L 221.057851 157.743918 
L 222.093223 157.928859 
L 223.128595 157.153511 
L 224.163967 158.355885 
L 225.199339 157.338451 
L 226.234711 158.910707 
L 227.270083 158.163671 
L 228.305455 158.903434 
L 229.340826 157.502093 
L 230.376198 158.661608 
L 231.41157 157.558977 
L 232.446942 155.908797 
L 233.482314 155.802041 
L 234.517686 156.292965 
L 235.553058 156.02958 
L 237.623802 158.882134 
L 238.659174 157.018441 
L 239.694545 158.242115 
L 240.729917 157.203382 
L 241.765289 157.438194 
L 242.800661 157.402609 
L 244.871405 156.484919 
L 245.906777 156.8548 
L 246.942149 155.972695 
L 247.977521 156.726744 
L 249.012893 157.189096 
L 250.048264 157.452481 
L 251.083636 157.452481 
L 252.119008 158.661608 
L 254.189752 156.008281 
L 255.225124 155.360989 
L 256.260496 156.869086 
L 257.295868 156.861813 
L 258.33124 157.502093 
L 259.366612 157.928859 
L 260.401983 158.875121 
L 261.437355 158.61901 
L 262.472727 158.796937 
L 263.508099 157.779504 
L 263.508099 157.779504 
" style="fill:none;stroke:#0000ff;stroke-width:2;"/>
   </g>
   <g id="line2d_18">
    <path clip-path="url(#pbbecb6a8c6)" d="M 56.433719 170.260922 
L 58.504463 171.096791 
L 59.539835 171.071336 
L 60.575207 169.840389 
L 61.610579 170.167672 
L 62.64595 172.743854 
L 63.681322 171.007438 
L 64.716694 171.606677 
L 66.787438 171.727719 
L 67.82281 170.320144 
L 68.858182 171.999676 
L 69.893554 172.490859 
L 70.928926 171.928505 
L 71.964298 171.914219 
L 72.999669 169.971562 
L 75.070413 171.373423 
L 76.105785 171.66512 
L 77.141157 172.248774 
L 78.176529 171.814735 
L 79.211901 172.213189 
L 80.247273 172.085133 
L 81.282645 172.113445 
L 82.318017 172.78957 
L 83.353388 172.149031 
L 84.38876 172.270074 
L 85.424132 172.020975 
L 87.494876 172.732685 
L 88.530248 171.680965 
L 89.56562 172.292931 
L 90.600992 173.502838 
L 91.636364 172.784115 
L 92.671736 172.591902 
L 93.707107 173.282052 
L 94.742479 173.104125 
L 95.777851 172.499431 
L 96.813223 172.785414 
L 97.848595 173.490111 
L 98.883967 173.11997 
L 99.919339 173.342054 
L 100.954711 172.708788 
L 101.990083 173.811679 
L 103.025455 173.278156 
L 104.060826 172.182279 
L 105.096198 174.010906 
L 106.13157 173.044643 
L 107.166942 173.371925 
L 108.202314 174.005191 
L 109.237686 173.195556 
L 110.273058 174.392476 
L 111.30843 174.520532 
L 112.343802 175.710178 
L 113.379174 177.14165 
L 114.414545 175.983433 
L 115.449917 175.926548 
L 116.485289 175.350167 
L 117.520661 175.478223 
L 118.556033 173.607257 
L 119.591405 174.23325 
L 120.626777 173.61427 
L 121.662149 174.830931 
L 123.732893 172.319426 
L 124.768264 170.491058 
L 125.803636 170.832368 
L 126.839008 173.048019 
L 127.87438 172.386441 
L 128.909752 170.301962 
L 129.945124 167.698246 
L 130.980496 165.834294 
L 132.015868 162.490556 
L 133.05124 161.65105 
L 134.086612 167.336937 
L 136.157355 174.977429 
L 137.192727 176.692026 
L 138.228099 176.009148 
L 139.263471 175.560823 
L 140.298843 175.85252 
L 141.334215 175.596408 
L 142.369587 176.016161 
L 143.404959 175.518224 
L 144.440331 174.849373 
L 145.475702 175.034313 
L 146.511074 175.519523 
L 147.546446 175.107043 
L 148.581818 175.960575 
L 149.61719 173.61453 
L 150.652562 174.875088 
L 151.687934 173.196335 
L 152.723306 175.244969 
L 153.758678 179.762249 
L 154.79405 156.175818 
L 155.829421 168.511778 
L 156.864793 172.779699 
L 157.900165 187.098316 
L 158.935537 203.664793 
L 159.970909 82.135647 
L 161.006281 174.754305 
L 162.041653 158.068603 
L 163.077025 172.528263 
L 164.112397 175.358999 
L 165.147769 178.552602 
L 166.18314 178.132849 
L 167.218512 174.541052 
L 168.253884 177.805566 
L 169.289256 176.632024 
L 171.36 175.508354 
L 172.395372 175.437183 
L 173.430744 176.148373 
L 174.466116 175.487054 
L 175.501488 177.08009 
L 176.53686 177.778553 
L 177.572231 178.767154 
L 178.607603 174.400268 
L 179.642975 173.21244 
L 180.678347 171.192638 
L 181.713719 171.071596 
L 182.749091 170.054682 
L 183.784463 171.091596 
L 184.819835 169.619084 
L 185.855207 168.957765 
L 186.890579 168.865295 
L 187.92595 170.358847 
L 188.961322 172.731386 
L 189.996694 171.230561 
L 191.032066 172.902041 
L 192.067438 177.34763 
L 193.10281 178.848455 
L 194.138182 176.892552 
L 195.173554 175.789921 
L 196.208926 174.920803 
L 197.244298 175.070159 
L 198.279669 175.368869 
L 199.315041 175.297698 
L 200.350413 175.047301 
L 201.385785 175.353284 
L 202.421157 175.865248 
L 203.456529 177.272303 
L 204.491901 177.144248 
L 205.527273 179.257039 
L 206.562645 179.547437 
L 207.598017 178.992615 
L 208.633388 176.545528 
L 209.66876 175.492509 
L 211.739504 172.817882 
L 212.774876 173.052695 
L 213.810248 172.668527 
L 214.84562 171.736551 
L 215.880992 172.37683 
L 216.916364 171.629794 
L 217.951736 171.921492 
L 218.987107 172.547485 
L 222.093223 173.422576 
L 223.128595 173.650115 
L 224.163967 172.817882 
L 225.199339 173.280234 
L 226.234711 172.504886 
L 227.270083 172.07812 
L 228.305455 171.77915 
L 229.340826 171.914478 
L 230.376198 173.038409 
L 231.41157 172.654241 
L 232.446942 173.251922 
L 233.482314 172.896067 
L 234.517686 173.308806 
L 235.553058 172.455014 
L 237.623802 171.686679 
L 238.659174 172.725412 
L 239.694545 172.348258 
L 240.729917 171.765123 
L 241.765289 172.191889 
L 242.800661 172.817882 
L 243.836033 172.213189 
L 245.906777 172.760998 
L 246.942149 173.009836 
L 247.977521 171.473426 
L 249.012893 171.629794 
L 250.048264 172.739698 
L 251.083636 173.31582 
L 252.119008 171.359656 
L 253.15438 172.832169 
L 255.225124 172.042534 
L 256.260496 171.999676 
L 257.295868 171.55161 
L 258.33124 171.921492 
L 259.366612 171.316798 
L 260.401983 171.04666 
L 261.437355 171.217314 
L 262.472727 170.854446 
L 263.508099 172.426702 
L 263.508099 172.426702 
" style="fill:none;stroke:#008000;stroke-opacity:0.8;stroke-width:2;"/>
   </g>
   <g id="line2d_19">
    <path clip-path="url(#pbbecb6a8c6)" d="M 56.433719 170.296507 
L 57.469091 170.474435 
L 58.504463 170.328196 
L 59.539835 169.918574 
L 60.575207 170.181958 
L 61.610579 169.648176 
L 62.64595 169.868702 
L 63.681322 170.772625 
L 64.716694 169.87026 
L 66.787438 169.251281 
L 67.82281 170.6334 
L 68.858182 169.679865 
L 69.893554 169.928963 
L 70.928926 169.601421 
L 71.964298 170.327417 
L 72.999669 170.732884 
L 75.070413 170.626128 
L 76.105785 170.896785 
L 77.141157 168.989454 
L 78.176529 170.156503 
L 79.211901 170.405601 
L 80.247273 170.277546 
L 81.282645 171.473166 
L 82.318017 171.409008 
L 83.353388 171.750577 
L 84.38876 170.54093 
L 85.424132 170.597815 
L 86.459504 170.298845 
L 87.494876 170.868213 
L 88.530248 171.766422 
L 89.56562 171.488751 
L 90.600992 170.997827 
L 91.636364 170.784314 
L 92.671736 171.403554 
L 93.707107 172.563329 
L 94.742479 171.965649 
L 95.777851 171.894478 
L 96.813223 171.454724 
L 97.848595 172.059678 
L 98.883967 171.97422 
L 99.919339 173.221012 
L 100.954711 172.516575 
L 101.990083 173.76908 
L 103.025455 172.893729 
L 104.060826 172.530861 
L 105.096198 172.786972 
L 106.13157 173.31504 
L 107.166942 173.443096 
L 108.202314 171.899153 
L 109.237686 172.839961 
L 110.273058 173.282572 
L 111.30843 173.239713 
L 112.343802 172.757621 
L 113.379174 172.680735 
L 114.414545 172.760478 
L 115.449917 173.706741 
L 116.485289 173.500501 
L 117.520661 172.504366 
L 118.556033 172.831649 
L 119.591405 172.78905 
L 120.626777 172.312413 
L 121.662149 172.198383 
L 122.697521 173.557385 
L 123.732893 171.316278 
L 124.768264 171.935258 
L 125.803636 170.95341 
L 126.839008 168.694121 
L 127.87438 166.787569 
L 128.909752 166.46756 
L 129.945124 165.521297 
L 130.980496 166.702112 
L 132.015868 164.304637 
L 134.086612 170.858602 
L 135.121983 173.938955 
L 136.157355 173.519202 
L 137.192727 174.792488 
L 138.228099 175.418481 
L 140.298843 173.661544 
L 141.334215 173.355561 
L 142.369587 172.836325 
L 143.404959 172.658397 
L 144.440331 169.649215 
L 145.475702 172.594239 
L 146.511074 174.27481 
L 147.546446 174.850931 
L 148.581818 172.851909 
L 149.61719 170.043512 
L 150.652562 170.36534 
L 151.687934 169.362193 
L 152.723306 167.441615 
L 153.758678 169.063483 
L 154.79405 173.546476 
L 155.829421 173.419979 
L 157.900165 153.50327 
L 158.935537 154.598628 
L 159.970909 201.077702 
L 161.006281 160.259059 
L 162.041653 143.516473 
L 163.077025 156.667262 
L 164.112397 156.624663 
L 165.147769 162.82667 
L 166.18314 170.330534 
L 167.218512 170.017538 
L 168.253884 171.212379 
L 169.289256 168.545285 
L 171.36 171.269264 
L 172.395372 173.075812 
L 173.430744 174.384683 
L 174.466116 172.31475 
L 175.501488 171.745902 
L 176.53686 171.35628 
L 177.572231 171.946427 
L 178.607603 174.172729 
L 179.642975 173.112956 
L 180.678347 175.616409 
L 181.713719 177.216717 
L 182.749091 178.411559 
L 183.784463 175.93512 
L 184.819835 176.120061 
L 185.855207 174.78989 
L 186.890579 175.294841 
L 187.92595 176.603712 
L 188.961322 176.22396 
L 191.032066 170.405601 
L 193.10281 165.988324 
L 194.138182 165.077907 
L 196.208926 163.710593 
L 197.244298 164.429056 
L 198.279669 164.870109 
L 199.315041 166.001052 
L 200.350413 165.408826 
L 201.385785 165.430126 
L 202.421157 166.717697 
L 203.456529 166.509639 
L 204.491901 165.677406 
L 205.527273 166.37457 
L 206.562645 165.405449 
L 207.598017 166.557952 
L 208.633388 168.243717 
L 209.66876 167.098488 
L 210.704132 168.371773 
L 211.739504 168.68477 
L 212.774876 167.724481 
L 213.810248 166.109627 
L 214.84562 166.728607 
L 215.880992 165.512206 
L 216.916364 166.251969 
L 217.951736 165.540519 
L 218.987107 167.361613 
L 220.022479 166.82809 
L 221.057851 167.03459 
L 222.093223 166.344439 
L 223.128595 167.496942 
L 224.163967 166.422623 
L 225.199339 166.180798 
L 226.234711 165.647275 
L 227.270083 166.742893 
L 228.305455 166.73562 
L 229.340826 167.987606 
L 230.376198 167.937994 
L 231.41157 169.652332 
L 232.446942 168.755941 
L 233.482314 169.225566 
L 234.517686 167.340313 
L 235.553058 169.296736 
L 236.58843 168.649184 
L 237.623802 167.831237 
L 238.659174 168.179819 
L 240.729917 170.185854 
L 241.765289 170.861719 
L 242.800661 169.424533 
L 243.836033 170.804834 
L 244.871405 169.8087 
L 245.906777 169.040625 
L 246.942149 168.713342 
L 247.977521 169.780388 
L 249.012893 168.79854 
L 250.048264 169.381934 
L 251.083636 167.681882 
L 252.119008 169.581161 
L 253.15438 169.339335 
L 254.189752 171.466153 
L 255.225124 170.029226 
L 256.260496 169.645059 
L 257.295868 169.744802 
L 258.33124 168.606586 
L 259.366612 169.424533 
L 260.401983 169.232579 
L 261.437355 169.339335 
L 263.508099 170.470279 
L 263.508099 170.470279 
" style="fill:none;stroke:#ff0000;stroke-opacity:0.6;stroke-width:2;"/>
   </g>
   <g id="line2d_20">
    <path clip-path="url(#pbbecb6a8c6)" d="M 56.433719 154.281995 
L 57.469091 154.082768 
L 58.504463 153.38924 
L 59.539835 153.621195 
L 60.575207 153.621195 
L 61.610579 153.507166 
L 62.64595 151.998549 
L 63.681322 153.727952 
L 64.716694 154.697852 
L 65.752066 154.227967 
L 66.787438 153.416774 
L 67.82281 153.589506 
L 68.858182 152.835198 
L 69.893554 152.927668 
L 70.928926 153.440151 
L 71.964298 153.674963 
L 74.035041 153.66795 
L 75.070413 153.013125 
L 76.105785 152.856497 
L 77.141157 153.603792 
L 78.176529 153.16274 
L 79.211901 152.522201 
L 80.247273 152.052576 
L 81.282645 152.913641 
L 82.318017 151.091768 
L 83.353388 152.550514 
L 84.38876 153.233911 
L 85.424132 152.650257 
L 86.459504 153.475736 
L 87.494876 152.102188 
L 88.530248 151.734385 
L 90.600992 151.449701 
L 91.636364 151.990497 
L 92.671736 151.506586 
L 93.707107 150.531751 
L 95.777851 152.652335 
L 96.813223 152.085045 
L 97.848595 151.181381 
L 98.883967 151.544249 
L 99.919339 150.45045 
L 100.954711 151.859583 
L 101.990083 150.180052 
L 103.025455 150.870463 
L 104.060826 151.332814 
L 105.096198 149.874069 
L 106.13157 150.851241 
L 107.166942 149.982903 
L 108.202314 149.399509 
L 109.237686 150.376422 
L 110.273058 149.275869 
L 111.30843 149.745493 
L 112.343802 149.384703 
L 113.379174 149.770949 
L 114.414545 150.406293 
L 115.449917 150.833319 
L 116.485289 150.655391 
L 117.520661 151.032545 
L 118.556033 152.248946 
L 119.591405 151.359828 
L 120.626777 152.718571 
L 121.662149 151.125016 
L 122.697521 149.118721 
L 123.732893 151.40944 
L 125.803636 151.971535 
L 126.839008 153.306121 
L 127.87438 154.906689 
L 128.909752 155.938409 
L 129.945124 158.364197 
L 130.980496 158.549397 
L 132.015868 162.312628 
L 133.05124 159.758784 
L 134.086612 155.171892 
L 135.121983 149.438211 
L 136.157355 148.570133 
L 137.192727 147.951153 
L 139.263471 148.982873 
L 140.298843 149.409639 
L 141.334215 149.644451 
L 142.369587 151.799841 
L 143.404959 153.293913 
L 144.440331 152.731818 
L 145.475702 148.292722 
L 146.511074 149.020536 
L 147.546446 152.449472 
L 148.581818 151.773607 
L 149.61719 152.124267 
L 150.652562 151.180342 
L 151.687934 151.350997 
L 152.723306 152.994163 
L 153.758678 157.82418 
L 154.79405 159.597221 
L 155.829421 157.123899 
L 156.864793 148.709098 
L 157.900165 152.56428 
L 158.935537 191.401824 
L 159.970909 166.553796 
L 161.006281 138.565933 
L 162.041653 165.472724 
L 163.077025 153.566389 
L 164.112397 154.000168 
L 165.147769 149.199243 
L 166.18314 140.486511 
L 167.218512 142.869181 
L 168.253884 143.502187 
L 169.289256 144.469489 
L 171.36 139.597393 
L 172.395372 136.958611 
L 173.430744 139.618692 
L 174.466116 144.7469 
L 175.501488 143.772325 
L 176.53686 144.606896 
L 177.572231 142.629693 
L 178.607603 139.663888 
L 179.642975 142.266825 
L 180.678347 143.475952 
L 181.713719 141.619792 
L 182.749091 139.365178 
L 183.784463 137.669802 
L 184.819835 138.174752 
L 185.855207 144.512088 
L 186.890579 144.312861 
L 187.92595 140.457938 
L 188.961322 140.097668 
L 189.996694 146.250062 
L 191.032066 148.327268 
L 192.067438 149.08833 
L 194.138182 151.79101 
L 195.173554 152.623243 
L 196.208926 154.314203 
L 197.244298 153.858865 
L 198.279669 153.112089 
L 199.315041 152.109201 
L 200.350413 153.188195 
L 201.385785 151.744255 
L 202.421157 152.299077 
L 203.456529 151.56425 
L 204.491901 151.180342 
L 205.527273 152.218815 
L 206.562645 151.576458 
L 207.598017 151.661915 
L 208.633388 151.633343 
L 209.66876 152.010497 
L 210.704132 151.135406 
L 211.739504 152.977799 
L 212.774876 152.721688 
L 213.810248 153.881203 
L 214.84562 154.478884 
L 215.880992 154.073417 
L 216.916364 154.116016 
L 217.951736 154.962535 
L 218.987107 152.778572 
L 220.022479 153.909776 
L 221.057851 153.824318 
L 222.093223 154.180173 
L 223.128595 153.57548 
L 225.199339 155.076305 
L 226.234711 154.81318 
L 227.270083 154.891364 
L 228.305455 154.457584 
L 229.340826 154.471871 
L 230.376198 152.238037 
L 231.41157 152.010497 
L 232.446942 153.959647 
L 233.482314 153.952374 
L 234.517686 154.934222 
L 235.553058 154.094716 
L 236.58843 153.660677 
L 237.623802 153.475736 
L 238.659174 153.952374 
L 239.694545 152.138553 
L 240.729917 152.721688 
L 241.765289 151.384504 
L 242.800661 152.231023 
L 243.836033 151.932053 
L 244.871405 153.141441 
L 245.906777 153.219625 
L 246.942149 154.180173 
L 247.977521 153.895489 
L 249.012893 154.258358 
L 250.048264 152.302194 
L 251.083636 153.426125 
L 252.119008 152.273622 
L 253.15438 152.330507 
L 254.189752 151.918027 
L 255.225124 154.443298 
L 256.260496 153.361967 
L 257.295868 153.717822 
L 258.33124 153.845618 
L 259.366612 153.205598 
L 260.401983 152.721688 
L 261.437355 152.700388 
L 262.472727 152.33752 
L 263.508099 151.199563 
L 263.508099 151.199563 
" style="fill:none;stroke:#00bfbf;stroke-opacity:0.4;stroke-width:2;"/>
   </g>
   <g id="text_11">
    <!-- Experimental -->
    <defs>
     <path d="M 9.8125 72.90625 
L 55.90625 72.90625 
L 55.90625 64.59375 
L 19.671875 64.59375 
L 19.671875 43.015625 
L 54.390625 43.015625 
L 54.390625 34.71875 
L 19.671875 34.71875 
L 19.671875 8.296875 
L 56.78125 8.296875 
L 56.78125 0 
L 9.8125 0 
z
" id="DejaVuSans-69"/>
     <path d="M 54.890625 54.6875 
L 35.109375 28.078125 
L 55.90625 0 
L 45.3125 0 
L 29.390625 21.484375 
L 13.484375 0 
L 2.875 0 
L 24.125 28.609375 
L 4.6875 54.6875 
L 15.28125 54.6875 
L 29.78125 35.203125 
L 44.28125 54.6875 
z
" id="DejaVuSans-120"/>
     <path d="M 9.421875 54.6875 
L 18.40625 54.6875 
L 18.40625 0 
L 9.421875 0 
z
M 9.421875 75.984375 
L 18.40625 75.984375 
L 18.40625 64.59375 
L 9.421875 64.59375 
z
" id="DejaVuSans-105"/>
     <path d="M 18.3125 70.21875 
L 18.3125 54.6875 
L 36.8125 54.6875 
L 36.8125 47.703125 
L 18.3125 47.703125 
L 18.3125 18.015625 
Q 18.3125 11.328125 20.140625 9.421875 
Q 21.96875 7.515625 27.59375 7.515625 
L 36.8125 7.515625 
L 36.8125 0 
L 27.59375 0 
Q 17.1875 0 13.234375 3.875 
Q 9.28125 7.765625 9.28125 18.015625 
L 9.28125 47.703125 
L 2.6875 47.703125 
L 2.6875 54.6875 
L 9.28125 54.6875 
L 9.28125 70.21875 
z
" id="DejaVuSans-116"/>
     <path d="M 34.28125 27.484375 
Q 23.390625 27.484375 19.1875 25 
Q 14.984375 22.515625 14.984375 16.5 
Q 14.984375 11.71875 18.140625 8.90625 
Q 21.296875 6.109375 26.703125 6.109375 
Q 34.1875 6.109375 38.703125 11.40625 
Q 43.21875 16.703125 43.21875 25.484375 
L 43.21875 27.484375 
z
M 52.203125 31.203125 
L 52.203125 0 
L 43.21875 0 
L 43.21875 8.296875 
Q 40.140625 3.328125 35.546875 0.953125 
Q 30.953125 -1.421875 24.3125 -1.421875 
Q 15.921875 -1.421875 10.953125 3.296875 
Q 6 8.015625 6 15.921875 
Q 6 25.140625 12.171875 29.828125 
Q 18.359375 34.515625 30.609375 34.515625 
L 43.21875 34.515625 
L 43.21875 35.40625 
Q 43.21875 41.609375 39.140625 45 
Q 35.0625 48.390625 27.6875 48.390625 
Q 23 48.390625 18.546875 47.265625 
Q 14.109375 46.140625 10.015625 43.890625 
L 10.015625 52.203125 
Q 14.9375 54.109375 19.578125 55.046875 
Q 24.21875 56 28.609375 56 
Q 40.484375 56 46.34375 49.84375 
Q 52.203125 43.703125 52.203125 31.203125 
z
" id="DejaVuSans-97"/>
     <path d="M 9.421875 75.984375 
L 18.40625 75.984375 
L 18.40625 0 
L 9.421875 0 
z
" id="DejaVuSans-108"/>
    </defs>
    <g transform="translate(92.751484 45.84)scale(0.2016 -0.2016)">
     <use xlink:href="#DejaVuSans-69"/>
     <use x="63.183594" xlink:href="#DejaVuSans-120"/>
     <use x="122.363281" xlink:href="#DejaVuSans-112"/>
     <use x="185.839844" xlink:href="#DejaVuSans-101"/>
     <use x="247.363281" xlink:href="#DejaVuSans-114"/>
     <use x="288.476562" xlink:href="#DejaVuSans-105"/>
     <use x="316.259766" xlink:href="#DejaVuSans-109"/>
     <use x="413.671875" xlink:href="#DejaVuSans-101"/>
     <use x="475.195312" xlink:href="#DejaVuSans-110"/>
     <use x="538.574219" xlink:href="#DejaVuSans-116"/>
     <use x="577.783203" xlink:href="#DejaVuSans-97"/>
     <use x="639.0625" xlink:href="#DejaVuSans-108"/>
    </g>
   </g>
  </g>
  <g id="axes_2">
   <g id="patch_3">
    <path d="M 319.418182 210.894545 
L 547.2 210.894545 
L 547.2 51.84 
L 319.418182 51.84 
z
" style="fill:#ffffff;"/>
   </g>
   <g id="matplotlib.axis_3">
    <g id="xtick_6">
     <g id="line2d_21">
      <path clip-path="url(#p128071b2b9)" d="M 329.771901 210.894545 
L 329.771901 51.84 
" style="fill:none;stroke:#cbcbcb;"/>
     </g>
     <g id="line2d_22"/>
     <g id="text_12">
      <!-- −100 -->
      <g transform="translate(310.54487 225.032358)scale(0.14 -0.14)">
       <use xlink:href="#DejaVuSans-8722"/>
       <use x="83.789062" xlink:href="#DejaVuSans-49"/>
       <use x="147.412109" xlink:href="#DejaVuSans-48"/>
       <use x="211.035156" xlink:href="#DejaVuSans-48"/>
      </g>
     </g>
    </g>
    <g id="xtick_7">
     <g id="line2d_23">
      <path clip-path="url(#p128071b2b9)" d="M 381.540496 210.894545 
L 381.540496 51.84 
" style="fill:none;stroke:#cbcbcb;"/>
     </g>
     <g id="line2d_24"/>
     <g id="text_13">
      <!-- −50 -->
      <g transform="translate(366.767215 225.032358)scale(0.14 -0.14)">
       <use xlink:href="#DejaVuSans-8722"/>
       <use x="83.789062" xlink:href="#DejaVuSans-53"/>
       <use x="147.412109" xlink:href="#DejaVuSans-48"/>
      </g>
     </g>
    </g>
    <g id="xtick_8">
     <g id="line2d_25">
      <path clip-path="url(#p128071b2b9)" d="M 433.309091 210.894545 
L 433.309091 51.84 
" style="fill:none;stroke:#cbcbcb;"/>
     </g>
     <g id="line2d_26"/>
     <g id="text_14">
      <!-- 0 -->
      <g transform="translate(428.855341 225.032358)scale(0.14 -0.14)">
       <use xlink:href="#DejaVuSans-48"/>
      </g>
     </g>
    </g>
    <g id="xtick_9">
     <g id="line2d_27">
      <path clip-path="url(#p128071b2b9)" d="M 485.077686 210.894545 
L 485.077686 51.84 
" style="fill:none;stroke:#cbcbcb;"/>
     </g>
     <g id="line2d_28"/>
     <g id="text_15">
      <!-- 50 -->
      <g transform="translate(476.170186 225.032358)scale(0.14 -0.14)">
       <use xlink:href="#DejaVuSans-53"/>
       <use x="63.623047" xlink:href="#DejaVuSans-48"/>
      </g>
     </g>
    </g>
    <g id="xtick_10">
     <g id="line2d_29">
      <path clip-path="url(#p128071b2b9)" d="M 536.846281 210.894545 
L 536.846281 51.84 
" style="fill:none;stroke:#cbcbcb;"/>
     </g>
     <g id="line2d_30"/>
     <g id="text_16">
      <!-- 100 -->
      <g transform="translate(523.485031 225.032358)scale(0.14 -0.14)">
       <use xlink:href="#DejaVuSans-49"/>
       <use x="63.623047" xlink:href="#DejaVuSans-48"/>
       <use x="127.246094" xlink:href="#DejaVuSans-48"/>
      </g>
     </g>
    </g>
    <g id="text_17">
     <!-- bp from TSS -->
     <g transform="translate(381.779028 244.709295)scale(0.168 -0.168)">
      <use xlink:href="#DejaVuSans-98"/>
      <use x="63.476562" xlink:href="#DejaVuSans-112"/>
      <use x="126.953125" xlink:href="#DejaVuSans-32"/>
      <use x="158.740234" xlink:href="#DejaVuSans-102"/>
      <use x="193.945312" xlink:href="#DejaVuSans-114"/>
      <use x="235.027344" xlink:href="#DejaVuSans-111"/>
      <use x="296.208984" xlink:href="#DejaVuSans-109"/>
      <use x="393.621094" xlink:href="#DejaVuSans-32"/>
      <use x="425.408203" xlink:href="#DejaVuSans-84"/>
      <use x="486.492188" xlink:href="#DejaVuSans-83"/>
      <use x="549.96875" xlink:href="#DejaVuSans-83"/>
     </g>
    </g>
   </g>
   <g id="matplotlib.axis_4">
    <g id="ytick_4">
     <g id="line2d_31">
      <path clip-path="url(#p128071b2b9)" d="M 319.418182 175.956419 
L 547.2 175.956419 
" style="fill:none;stroke:#cbcbcb;"/>
     </g>
     <g id="line2d_32"/>
     <g id="text_18">
      <!-- 0.2 -->
      <g transform="translate(293.653807 181.275326)scale(0.14 -0.14)">
       <use xlink:href="#DejaVuSans-48"/>
       <use x="63.623047" xlink:href="#DejaVuSans-46"/>
       <use x="95.410156" xlink:href="#DejaVuSans-50"/>
      </g>
     </g>
    </g>
    <g id="ytick_5">
     <g id="line2d_33">
      <path clip-path="url(#p128071b2b9)" d="M 319.418182 124.006789 
L 547.2 124.006789 
" style="fill:none;stroke:#cbcbcb;"/>
     </g>
     <g id="line2d_34"/>
     <g id="text_19">
      <!-- 0.4 -->
      <g transform="translate(293.653807 129.325696)scale(0.14 -0.14)">
       <use xlink:href="#DejaVuSans-48"/>
       <use x="63.623047" xlink:href="#DejaVuSans-46"/>
       <use x="95.410156" xlink:href="#DejaVuSans-52"/>
      </g>
     </g>
    </g>
    <g id="ytick_6">
     <g id="line2d_35">
      <path clip-path="url(#p128071b2b9)" d="M 319.418182 72.05716 
L 547.2 72.05716 
" style="fill:none;stroke:#cbcbcb;"/>
     </g>
     <g id="line2d_36"/>
     <g id="text_20">
      <!-- 0.6 -->
      <g transform="translate(293.653807 77.376066)scale(0.14 -0.14)">
       <use xlink:href="#DejaVuSans-48"/>
       <use x="63.623047" xlink:href="#DejaVuSans-46"/>
       <use x="95.410156" xlink:href="#DejaVuSans-54"/>
      </g>
     </g>
    </g>
    <g id="text_21">
     <!-- Frequency -->
     <g transform="translate(286.159932 175.547335)rotate(-90)scale(0.168 -0.168)">
      <use xlink:href="#DejaVuSans-70"/>
      <use x="57.410156" xlink:href="#DejaVuSans-114"/>
      <use x="98.492188" xlink:href="#DejaVuSans-101"/>
      <use x="160.015625" xlink:href="#DejaVuSans-113"/>
      <use x="223.492188" xlink:href="#DejaVuSans-117"/>
      <use x="286.871094" xlink:href="#DejaVuSans-101"/>
      <use x="348.394531" xlink:href="#DejaVuSans-110"/>
      <use x="411.773438" xlink:href="#DejaVuSans-99"/>
      <use x="466.753906" xlink:href="#DejaVuSans-121"/>
     </g>
    </g>
   </g>
   <g id="LineCollection_2">
    <path clip-path="url(#p128071b2b9)" d="M 433.309091 201.931234 
L 433.309091 59.069752 
" style="fill:none;stroke:#000000;stroke-width:0.5;"/>
   </g>
   <g id="line2d_37">
    <path clip-path="url(#p128071b2b9)" d="M 329.771901 157.568069 
L 330.807273 156.86519 
L 331.842645 157.734048 
L 333.913388 156.67947 
L 334.94876 156.562324 
L 335.984132 156.601546 
L 337.019504 156.952985 
L 338.054876 155.983865 
L 339.090248 156.08127 
L 341.160992 156.510894 
L 342.196364 156.354785 
L 343.231736 155.446705 
L 344.267107 157.116107 
L 345.302479 156.210884 
L 346.337851 156.093738 
L 347.373223 156.36024 
L 348.408595 154.866428 
L 349.443967 155.959968 
L 350.479339 154.817595 
L 351.514711 155.852432 
L 352.550083 155.471901 
L 353.585455 155.618139 
L 354.620826 155.881784 
L 355.656198 155.657361 
L 356.69157 156.36985 
L 357.726942 156.665444 
L 358.762314 155.943084 
L 359.797686 154.332386 
L 360.833058 155.650088 
L 361.86843 156.040749 
L 362.903802 155.250076 
L 363.939174 156.138415 
L 366.009917 156.040749 
L 367.045289 156.518946 
L 369.116033 154.918118 
L 370.151405 154.927729 
L 371.186777 155.708791 
L 372.222149 155.640478 
L 373.257521 154.788504 
L 374.292893 154.837336 
L 375.328264 154.505378 
L 376.363636 155.237608 
L 377.399008 154.964093 
L 378.43438 154.925131 
L 379.469752 153.07027 
L 380.505124 156.141012 
L 381.540496 154.657331 
L 382.575868 154.344854 
L 383.61124 155.109033 
L 384.646612 155.382288 
L 385.681983 155.206698 
L 386.717355 155.460472 
L 387.752727 154.135757 
L 388.788099 154.116275 
L 389.823471 154.711618 
L 390.858843 155.638919 
L 391.894215 154.106405 
L 392.929587 157.300788 
L 393.964959 154.265371 
L 395.000331 155.251115 
L 396.035702 154.909546 
L 397.071074 154.724086 
L 398.106446 156.188027 
L 399.141818 154.655772 
L 401.212562 154.180173 
L 402.247934 154.795257 
L 403.283306 155.002796 
L 404.318678 154.59577 
L 405.35405 154.783828 
L 406.389421 153.320147 
L 407.424793 153.720159 
L 408.460165 154.403297 
L 409.495537 153.525089 
L 410.530909 154.617849 
L 411.566281 153.173649 
L 412.601653 153.547427 
L 414.672397 153.757823 
L 415.707769 153.084556 
L 417.778512 152.062707 
L 418.813884 153.019099 
L 419.849256 151.653084 
L 420.884628 153.019099 
L 422.955372 153.734186 
L 425.026116 155.460992 
L 426.061488 156.722329 
L 427.09686 154.969029 
L 428.132231 156.403098 
L 429.167603 156.959219 
L 430.202975 158.773819 
L 431.238347 152.315182 
L 432.273719 155.329819 
L 433.309091 121.344371 
L 434.344463 161.10402 
L 435.379835 152.026861 
L 436.415207 160.256722 
L 437.450579 162.175221 
L 438.48595 156.360759 
L 439.521322 156.867268 
L 440.556694 142.628394 
L 441.592066 149.416652 
L 442.627438 163.967224 
L 443.66281 147.605169 
L 444.698182 151.452298 
L 445.733554 154.724606 
L 446.768926 154.403297 
L 447.804298 153.770291 
L 448.839669 155.231114 
L 449.875041 155.435536 
L 450.910413 155.143579 
L 451.945785 155.688791 
L 452.981157 154.890325 
L 454.016529 153.757563 
L 455.051901 155.413458 
L 456.087273 153.718601 
L 458.158017 155.773728 
L 459.193388 155.598398 
L 460.22876 154.897338 
L 461.264132 154.838895 
L 462.299504 155.754247 
L 463.334876 154.838895 
L 464.370248 155.306182 
L 466.440992 154.595251 
L 467.476364 155.199165 
L 468.511736 153.913412 
L 469.547107 153.806396 
L 470.582479 154.897338 
L 471.617851 155.598398 
L 472.653223 154.303034 
L 474.723967 155.335533 
L 475.759339 154.010818 
L 477.830083 155.832172 
L 478.865455 154.906949 
L 479.900826 154.517327 
L 480.936198 156.163351 
L 481.97157 155.131111 
L 483.006942 153.854969 
L 484.042314 155.988021 
L 485.077686 154.030299 
L 486.113058 155.861523 
L 487.14843 155.520474 
L 488.183802 153.455736 
L 489.219174 154.137575 
L 491.289917 153.920425 
L 492.325289 155.011368 
L 493.360661 155.22566 
L 494.396033 155.157606 
L 495.431405 154.387972 
L 496.466777 155.93659 
L 497.502149 154.125107 
L 498.537521 155.663855 
L 499.572893 154.573172 
L 500.608264 154.456286 
L 501.643636 154.719151 
L 502.679008 155.771131 
L 504.749752 154.660708 
L 505.785124 155.595801 
L 506.820496 154.641226 
L 507.855868 156.433489 
L 508.89124 156.033996 
L 509.926612 156.540505 
L 510.961983 155.488525 
L 511.997355 155.4106 
L 513.032727 154.865389 
L 514.068099 155.206179 
L 515.103471 154.144588 
L 516.138843 153.706133 
L 517.174215 155.459433 
L 518.209587 155.76126 
L 519.244959 155.128254 
L 520.280331 155.430082 
L 521.315702 155.206179 
L 522.351074 155.22566 
L 523.386446 155.030849 
L 524.421818 154.612135 
L 526.492562 156.219196 
L 527.527934 156.170364 
L 528.563306 154.319918 
L 529.598678 154.378361 
L 530.63405 155.868536 
L 531.669421 156.043866 
L 532.704793 155.92698 
L 533.740165 155.634763 
L 534.775537 156.228807 
L 535.810909 156.423618 
L 536.846281 154.923832 
L 536.846281 154.923832 
" style="fill:none;stroke:#0000ff;stroke-width:2;"/>
   </g>
   <g id="line2d_38">
    <path clip-path="url(#p128071b2b9)" d="M 329.771901 169.565836 
L 330.807273 169.194915 
L 331.842645 169.634409 
L 332.878017 169.46843 
L 333.913388 170.044292 
L 334.94876 170.766651 
L 335.984132 170.034421 
L 337.019504 170.161438 
L 338.054876 169.075691 
L 339.090248 170.461967 
L 340.12562 171.096531 
L 341.160992 170.325339 
L 342.196364 170.745092 
L 343.231736 170.852368 
L 344.267107 168.558273 
L 345.302479 170.717819 
L 346.337851 170.151568 
L 347.373223 171.52044 
L 348.408595 170.378328 
L 349.443967 170.573658 
L 350.479339 171.666938 
L 351.514711 170.876265 
L 352.550083 171.286148 
L 353.585455 170.886135 
L 354.620826 171.15939 
L 355.656198 172.61398 
L 356.69157 171.87188 
L 357.726942 170.253649 
L 358.762314 171.786163 
L 359.797686 171.971623 
L 360.833058 172.030326 
L 361.86843 171.141987 
L 362.903802 171.37628 
L 363.939174 172.205916 
L 364.974545 171.493427 
L 366.009917 172.079159 
L 367.045289 172.498912 
L 368.080661 173.074773 
L 369.116033 172.401246 
L 370.151405 172.547744 
L 371.186777 172.039937 
L 372.222149 172.938146 
L 373.257521 173.287507 
L 374.292893 172.506444 
L 375.328264 172.164876 
L 376.363636 172.955549 
L 377.399008 172.194227 
L 378.43438 173.268026 
L 379.469752 173.580243 
L 380.505124 172.354492 
L 381.540496 173.935838 
L 382.575868 172.207994 
L 384.646612 171.702524 
L 385.681983 172.698139 
L 386.717355 173.196076 
L 387.752727 171.567974 
L 388.788099 172.866196 
L 389.823471 172.387999 
L 391.894215 172.114744 
L 392.929587 170.291572 
L 393.964959 173.688039 
L 395.000331 172.26306 
L 396.035702 173.190361 
L 397.071074 172.946458 
L 398.106446 172.233969 
L 399.141818 173.561282 
L 400.17719 173.93428 
L 401.212562 172.782557 
L 402.247934 174.022075 
L 403.283306 173.204128 
L 404.318678 172.874508 
L 405.35405 174.40858 
L 406.389421 173.969606 
L 407.424793 173.754794 
L 408.460165 173.989087 
L 409.495537 174.623392 
L 410.530909 173.68648 
L 411.566281 174.23299 
L 412.601653 173.795834 
L 413.637025 175.786544 
L 414.672397 174.287797 
L 415.707769 173.477902 
L 416.74314 174.15117 
L 417.778512 174.065453 
L 418.813884 173.28491 
L 419.849256 173.197115 
L 420.884628 174.494816 
L 421.92 173.28491 
L 422.955372 174.457672 
L 423.990744 174.272472 
L 425.026116 175.004183 
L 426.061488 176.996451 
L 427.09686 177.447114 
L 428.132231 176.032526 
L 430.202975 171.173936 
L 431.238347 173.066721 
L 432.273719 169.925067 
L 433.309091 187.776259 
L 435.379835 179.900955 
L 436.415207 165.700783 
L 437.450579 166.295087 
L 438.48595 163.480456 
L 439.521322 185.686065 
L 440.556694 181.235021 
L 441.592066 182.287001 
L 442.627438 160.665565 
L 443.66281 176.32656 
L 444.698182 178.547147 
L 445.733554 174.758461 
L 446.768926 175.61563 
L 447.804298 175.722646 
L 448.839669 173.34621 
L 449.875041 174.787812 
L 450.910413 175.196656 
L 451.945785 174.04753 
L 452.981157 174.583131 
L 454.016529 175.516146 
L 455.051901 173.977398 
L 457.122645 175.019508 
L 458.158017 174.88314 
L 459.193388 174.87327 
L 460.22876 175.506536 
L 461.264132 175.0486 
L 463.334876 176.509683 
L 464.370248 175.798752 
L 465.40562 175.93512 
L 466.440992 175.448092 
L 467.476364 174.805216 
L 468.511736 175.282373 
L 469.547107 175.379778 
L 470.582479 175.136394 
L 471.617851 174.600534 
L 472.653223 175.22393 
L 473.688595 174.912232 
L 474.723967 175.350687 
L 475.759339 174.590923 
L 476.794711 174.094285 
L 477.830083 174.045452 
L 478.865455 175.808363 
L 479.900826 175.496665 
L 480.936198 172.837883 
L 481.97157 174.172209 
L 483.006942 174.561572 
L 484.042314 173.363613 
L 485.077686 175.379778 
L 486.113058 173.977398 
L 487.14843 174.795345 
L 488.183802 174.824697 
L 489.219174 175.389649 
L 490.254545 175.321335 
L 491.289917 175.601863 
L 492.325289 174.403905 
L 493.360661 174.189612 
L 494.396033 175.251203 
L 496.466777 173.235038 
L 497.502149 175.280555 
L 498.537521 174.822619 
L 499.572893 175.533809 
L 500.608264 174.50131 
L 501.643636 174.608326 
L 502.679008 174.423386 
L 503.71438 173.838952 
L 504.749752 175.796674 
L 505.785124 174.471959 
L 506.820496 176.24474 
L 507.855868 173.61479 
L 508.89124 173.488292 
L 509.926612 175.222111 
L 510.961983 173.517384 
L 511.997355 174.881062 
L 513.032727 174.296629 
L 514.068099 174.209093 
L 515.103471 174.978468 
L 516.138843 175.533809 
L 517.174215 174.881062 
L 518.209587 174.754565 
L 519.244959 175.397441 
L 520.280331 174.004412 
L 521.315702 174.170131 
L 522.351074 175.699269 
L 523.386446 175.621344 
L 524.421818 174.871451 
L 525.45719 175.465495 
L 526.492562 173.429849 
L 527.527934 173.751158 
L 528.563306 174.871451 
L 529.598678 175.231722 
L 530.63405 173.819471 
L 531.669421 174.968857 
L 532.704793 174.559753 
L 533.740165 174.403905 
L 534.775537 174.092207 
L 535.810909 174.111688 
L 536.846281 174.929895 
L 536.846281 174.929895 
" style="fill:none;stroke:#008000;stroke-opacity:0.8;stroke-width:2;"/>
   </g>
   <g id="line2d_39">
    <path clip-path="url(#p128071b2b9)" d="M 329.771901 170.591062 
L 330.807273 171.391605 
L 331.842645 169.65389 
L 332.878017 170.757041 
L 333.913388 170.444564 
L 335.984132 170.844835 
L 337.019504 169.731815 
L 338.054876 171.389268 
L 339.090248 171.223548 
L 342.196364 169.983511 
L 343.231736 171.379657 
L 344.267107 171.79941 
L 345.302479 170.883798 
L 346.337851 170.776522 
L 347.373223 171.911102 
L 348.408595 172.028248 
L 349.443967 171.227704 
L 350.479339 171.989026 
L 351.514711 170.290533 
L 352.550083 172.301503 
L 353.585455 170.827432 
L 354.620826 171.247185 
L 355.656198 170.310014 
L 356.69157 170.612621 
L 357.726942 171.981493 
L 358.762314 171.395761 
L 359.797686 171.249263 
L 360.833058 171.317577 
L 361.86843 171.093155 
L 362.903802 172.489041 
L 363.939174 170.848991 
L 364.974545 171.991104 
L 366.009917 170.08767 
L 367.045289 172.410857 
L 368.080661 171.532389 
L 369.116033 173.289585 
L 370.151405 172.782037 
L 371.186777 173.162568 
L 372.222149 172.410857 
L 373.257521 172.838403 
L 374.292893 172.711645 
L 375.328264 174.185716 
L 376.363636 173.023863 
L 378.43438 171.998896 
L 381.540496 172.774245 
L 382.575868 174.111428 
L 383.61124 172.522549 
L 384.646612 172.678657 
L 385.681983 172.981264 
L 386.717355 171.81967 
L 387.752727 172.885677 
L 388.788099 172.173188 
L 389.823471 172.426961 
L 390.858843 171.431347 
L 391.894215 172.749049 
L 392.929587 171.638626 
L 393.964959 171.052894 
L 395.000331 170.886915 
L 396.035702 171.316538 
L 397.071074 171.960714 
L 398.106446 173.200232 
L 399.141818 171.453166 
L 400.17719 173.20231 
L 401.212562 173.045941 
L 402.247934 172.587226 
L 403.283306 173.116333 
L 404.318678 172.435273 
L 405.35405 172.310594 
L 406.389421 172.837623 
L 407.424793 173.130359 
L 408.460165 172.037339 
L 409.495537 171.832398 
L 410.530909 171.471348 
L 411.566281 171.51031 
L 412.601653 172.429819 
L 413.637025 169.385051 
L 414.672397 170.248194 
L 415.707769 172.033962 
L 417.778512 170.094163 
L 418.813884 170.57236 
L 419.849256 170.699117 
L 420.884628 170.543008 
L 421.92 169.967406 
L 422.955372 171.969805 
L 423.990744 173.648037 
L 426.061488 173.025681 
L 427.09686 175.232501 
L 428.132231 173.59349 
L 429.167603 173.817913 
L 430.202975 173.456863 
L 431.238347 178.959368 
L 432.273719 173.476344 
L 433.309091 196.306648 
L 434.344463 151.276968 
L 435.379835 179.170283 
L 436.415207 183.991469 
L 437.450579 181.351908 
L 438.48595 179.384575 
L 439.521322 155.445407 
L 440.556694 170.638855 
L 441.592066 166.51899 
L 442.627438 178.031028 
L 443.66281 182.345445 
L 444.698182 173.268286 
L 445.733554 171.476283 
L 446.768926 171.135494 
L 447.804298 173.8722 
L 448.839669 175.060288 
L 449.875041 173.52154 
L 450.910413 175.118732 
L 451.945785 173.667778 
L 452.981157 173.015031 
L 454.016529 173.724144 
L 455.051901 172.983861 
L 456.087273 172.96438 
L 457.122645 173.714273 
L 458.158017 172.467742 
L 459.193388 171.785903 
L 460.22876 171.795514 
L 461.264132 173.022824 
L 462.299504 171.113935 
L 463.334876 171.795514 
L 465.40562 171.133416 
L 467.476364 174.483647 
L 468.511736 172.389817 
L 469.547107 174.055323 
L 470.582479 173.032434 
L 471.617851 171.756551 
L 472.653223 173.392965 
L 473.688595 172.243579 
L 474.723967 171.707979 
L 475.759339 172.915807 
L 476.794711 172.448261 
L 477.830083 171.620184 
L 478.865455 172.331374 
L 480.936198 172.224098 
L 481.97157 173.295559 
L 484.042314 172.185136 
L 485.077686 173.266208 
L 486.113058 172.672164 
L 487.14843 169.769738 
L 488.183802 174.162339 
L 489.219174 172.136563 
L 490.254545 170.967696 
L 491.289917 172.57268 
L 492.325289 172.835805 
L 493.360661 172.134485 
L 494.396033 173.342314 
L 495.431405 173.44933 
L 496.466777 173.186465 
L 497.502149 172.718918 
L 498.537521 172.689567 
L 499.572893 172.455793 
L 500.608264 173.079189 
L 501.643636 173.059708 
L 502.679008 172.426702 
L 503.71438 173.994801 
L 504.749752 171.890841 
L 505.785124 171.238354 
L 506.820496 173.040227 
L 507.855868 172.874767 
L 508.89124 172.124615 
L 509.926612 173.556346 
L 510.961983 173.108541 
L 511.997355 173.137632 
L 513.032727 172.602032 
L 514.068099 172.524107 
L 515.103471 172.864897 
L 516.138843 173.069578 
L 517.174215 170.877823 
L 518.209587 171.296797 
L 519.244959 172.260982 
L 520.280331 172.874767 
L 521.315702 171.69603 
L 522.351074 172.436312 
L 524.421818 171.705901 
L 525.45719 172.04669 
L 526.492562 171.861749 
L 527.527934 172.124615 
L 528.563306 172.825935 
L 529.598678 173.020746 
L 530.63405 171.462257 
L 531.669421 172.884378 
L 532.704793 172.153966 
L 533.740165 171.851879 
L 534.775537 172.57268 
L 535.810909 172.933211 
L 536.846281 172.592161 
L 536.846281 172.592161 
" style="fill:none;stroke:#ff0000;stroke-opacity:0.6;stroke-width:2;"/>
   </g>
   <g id="line2d_40">
    <path clip-path="url(#p128071b2b9)" d="M 329.771901 154.151082 
L 330.807273 154.424596 
L 331.842645 154.85396 
L 332.878017 154.385374 
L 333.913388 154.707462 
L 334.94876 153.926659 
L 335.984132 154.395245 
L 337.019504 155.02981 
L 338.054876 155.427224 
L 339.090248 154.109262 
L 340.12562 153.660158 
L 341.160992 154.558367 
L 342.196364 154.79266 
L 343.231736 154.197057 
L 344.267107 154.402258 
L 345.302479 154.063287 
L 346.337851 154.85396 
L 347.373223 152.084266 
L 348.408595 154.603043 
L 349.443967 154.114977 
L 350.479339 153.402228 
L 351.514711 154.856817 
L 352.550083 152.816496 
L 353.585455 154.54434 
L 354.620826 153.587688 
L 356.69157 153.021437 
L 357.726942 152.975462 
L 358.762314 152.751039 
L 359.797686 154.322515 
L 360.833058 152.877796 
L 361.86843 153.600156 
L 362.903802 152.76065 
L 363.939174 152.682725 
L 364.974545 152.331286 
L 366.009917 153.66847 
L 367.045289 150.447333 
L 368.080661 151.521132 
L 369.116033 151.267098 
L 370.151405 151.618537 
L 371.186777 150.964491 
L 372.222149 150.886567 
L 373.257521 150.961634 
L 374.292893 151.820881 
L 375.328264 151.020337 
L 376.363636 150.659028 
L 377.399008 152.17232 
L 378.43438 151.683994 
L 379.469752 152.953123 
L 380.505124 150.869943 
L 381.540496 150.508633 
L 382.575868 151.211512 
L 383.61124 152.317519 
L 384.646612 152.112318 
L 385.681983 150.989947 
L 386.717355 151.399829 
L 387.752727 153.28664 
L 388.788099 152.720389 
L 389.823471 152.349468 
L 390.858843 152.525318 
L 391.894215 152.905849 
L 392.929587 152.645062 
L 393.964959 152.869744 
L 395.000331 153.474697 
L 396.035702 152.459602 
L 397.071074 152.24505 
L 398.106446 150.25382 
L 399.141818 152.205828 
L 400.17719 150.364213 
L 401.212562 151.867116 
L 402.247934 150.471489 
L 403.283306 150.552531 
L 404.318678 151.970496 
L 405.35405 150.373045 
L 406.389421 151.748931 
L 407.424793 151.270734 
L 408.460165 151.446324 
L 409.495537 151.895169 
L 410.530909 152.10011 
L 411.566281 152.959097 
L 412.601653 152.102967 
L 413.637025 153.020398 
L 414.672397 153.582233 
L 415.707769 153.279627 
L 416.74314 154.001726 
L 417.778512 155.653465 
L 418.813884 154.999679 
L 419.849256 156.326732 
L 420.884628 153.819124 
L 421.92 155.243582 
L 422.955372 151.714384 
L 423.990744 149.343403 
L 425.026116 148.065442 
L 426.061488 145.131587 
L 427.09686 144.227404 
L 429.167603 147.603091 
L 430.202975 148.471429 
L 431.238347 147.534777 
L 432.273719 153.144558 
L 433.309091 146.44877 
L 434.344463 155.455017 
L 435.379835 140.777948 
L 436.415207 141.927074 
L 437.450579 142.053831 
L 438.48595 152.650257 
L 439.521322 153.877307 
L 440.556694 157.373777 
L 441.592066 153.653404 
L 442.627438 149.21223 
L 443.66281 145.598874 
L 444.698182 148.608316 
L 445.733554 150.916698 
L 446.768926 150.721887 
L 447.804298 148.51091 
L 448.839669 148.238175 
L 449.875041 148.131159 
L 450.910413 146.417081 
L 451.945785 148.471948 
L 452.981157 149.38756 
L 454.016529 148.878194 
L 455.051901 149.50133 
L 456.087273 150.641105 
L 457.122645 148.322853 
L 458.158017 148.751437 
L 459.193388 149.618217 
L 460.22876 149.67666 
L 461.264132 148.965729 
L 462.299504 149.267557 
L 463.334876 148.731956 
L 465.40562 149.910433 
L 466.440992 148.98521 
L 467.476364 147.388019 
L 468.511736 150.290445 
L 469.547107 148.63455 
L 470.582479 148.80988 
L 471.617851 149.920304 
L 472.653223 148.956119 
L 473.688595 149.920304 
L 474.723967 149.481849 
L 475.759339 150.358499 
L 476.794711 150.446294 
L 477.830083 150.37798 
L 478.865455 148.829362 
L 479.900826 149.579254 
L 480.936198 150.650716 
L 481.97157 149.277427 
L 483.006942 150.72864 
L 484.042314 150.339018 
L 485.077686 149.199503 
L 486.113058 149.364962 
L 487.14843 151.790231 
L 488.183802 149.433276 
L 489.219174 150.21252 
L 490.254545 151.60529 
L 491.289917 149.781079 
L 492.325289 149.62523 
L 493.360661 150.32629 
L 494.396033 148.125184 
L 495.431405 149.839522 
L 496.466777 149.517954 
L 497.502149 149.751727 
L 498.537521 148.699747 
L 500.608264 149.839522 
L 503.71438 148.855596 
L 504.749752 149.527824 
L 505.785124 150.569934 
L 506.820496 147.949854 
L 507.855868 148.953002 
L 508.89124 150.228885 
L 509.926612 146.557085 
L 510.961983 149.761598 
L 511.997355 148.446493 
L 513.032727 150.111998 
L 514.068099 149.936928 
L 515.103471 149.888095 
L 516.138843 149.566787 
L 517.174215 150.657469 
L 518.209587 150.063425 
L 519.244959 149.089369 
L 520.280331 149.566787 
L 521.315702 150.803707 
L 522.351074 148.514807 
L 523.386446 149.167294 
L 524.421818 150.686821 
L 525.45719 148.972483 
L 526.492562 150.365252 
L 527.527934 149.829652 
L 528.563306 149.859003 
L 529.598678 149.245218 
L 530.63405 150.725783 
L 531.669421 147.978946 
L 532.704793 149.235608 
L 533.740165 149.985501 
L 534.775537 148.982353 
L 535.810909 148.407531 
L 536.846281 149.430419 
L 536.846281 149.430419 
" style="fill:none;stroke:#00bfbf;stroke-opacity:0.4;stroke-width:2;"/>
   </g>
   <g id="text_22">
    <!-- RefSeq -->
    <defs>
     <path d="M 44.390625 34.1875 
Q 47.5625 33.109375 50.5625 29.59375 
Q 53.5625 26.078125 56.59375 19.921875 
L 66.609375 0 
L 56 0 
L 46.6875 18.703125 
Q 43.0625 26.03125 39.671875 28.421875 
Q 36.28125 30.8125 30.421875 30.8125 
L 19.671875 30.8125 
L 19.671875 0 
L 9.8125 0 
L 9.8125 72.90625 
L 32.078125 72.90625 
Q 44.578125 72.90625 50.734375 67.671875 
Q 56.890625 62.453125 56.890625 51.90625 
Q 56.890625 45.015625 53.6875 40.46875 
Q 50.484375 35.9375 44.390625 34.1875 
z
M 19.671875 64.796875 
L 19.671875 38.921875 
L 32.078125 38.921875 
Q 39.203125 38.921875 42.84375 42.21875 
Q 46.484375 45.515625 46.484375 51.90625 
Q 46.484375 58.296875 42.84375 61.546875 
Q 39.203125 64.796875 32.078125 64.796875 
z
" id="DejaVuSans-82"/>
    </defs>
    <g transform="translate(397.559741 45.84)scale(0.2016 -0.2016)">
     <use xlink:href="#DejaVuSans-82"/>
     <use x="69.419922" xlink:href="#DejaVuSans-101"/>
     <use x="130.943359" xlink:href="#DejaVuSans-102"/>
     <use x="166.148438" xlink:href="#DejaVuSans-83"/>
     <use x="229.625" xlink:href="#DejaVuSans-101"/>
     <use x="291.148438" xlink:href="#DejaVuSans-113"/>
    </g>
   </g>
   <g id="legend_1">
    <g id="patch_4">
     <path d="M 566.111273 70.04 
L 571.711273 70.04 
Q 574.511273 70.04 574.511273 67.24 
L 574.511273 61.64 
Q 574.511273 58.84 571.711273 58.84 
L 566.111273 58.84 
Q 563.311273 58.84 563.311273 61.64 
L 563.311273 67.24 
Q 563.311273 70.04 566.111273 70.04 
z
" style="fill:#f0f0f0;opacity:0.8;stroke:#cccccc;stroke-linejoin:miter;stroke-width:0.5;"/>
    </g>
   </g>
  </g>
 </g>
 <defs>
  <clipPath id="pbbecb6a8c6">
   <rect height="159.054545" width="227.781818" x="46.08" y="51.84"/>
  </clipPath>
  <clipPath id="p128071b2b9">
   <rect height="159.054545" width="227.781818" x="319.418182" y="51.84"/>
  </clipPath>
 </defs>
</svg>
