<?xml version="1.0" encoding="utf-8" standalone="no"?>
<!DOCTYPE svg PUBLIC "-//W3C//DTD SVG 1.1//EN"
  "http://www.w3.org/Graphics/SVG/1.1/DTD/svg11.dtd">
<!-- Created with matplotlib (https://matplotlib.org/) -->
<svg height="432pt" version="1.1" viewBox="0 0 576 432" width="576pt" xmlns="http://www.w3.org/2000/svg" xmlns:xlink="http://www.w3.org/1999/xlink">
 <defs>
  <style type="text/css">
*{stroke-linecap:butt;stroke-linejoin:round;}
  </style>
 </defs>
 <g id="figure_1">
  <g id="patch_1">
   <path d="M 0 432 
L 576 432 
L 576 0 
L 0 0 
z
" style="fill:#f0f0f0;"/>
  </g>
  <g id="axes_1">
   <g id="patch_2">
    <path d="M 46.08 210.894545 
L 273.861818 210.894545 
L 273.861818 51.84 
L 46.08 51.84 
z
" style="fill:#ffffff;"/>
   </g>
   <g id="matplotlib.axis_1">
    <g id="xtick_1">
     <g id="line2d_1">
      <path clip-path="url(#pb027905b9b)" d="M 56.433719 210.894545 
L 56.433719 51.84 
" style="fill:none;stroke:#cbcbcb;"/>
     </g>
     <g id="line2d_2"/>
     <g id="text_1">
      <!-- −100 -->
      <defs>
       <path d="M 10.59375 35.5 
L 73.1875 35.5 
L 73.1875 27.203125 
L 10.59375 27.203125 
z
" id="DejaVuSans-8722"/>
       <path d="M 12.40625 8.296875 
L 28.515625 8.296875 
L 28.515625 63.921875 
L 10.984375 60.40625 
L 10.984375 69.390625 
L 28.421875 72.90625 
L 38.28125 72.90625 
L 38.28125 8.296875 
L 54.390625 8.296875 
L 54.390625 0 
L 12.40625 0 
z
" id="DejaVuSans-49"/>
       <path d="M 31.78125 66.40625 
Q 24.171875 66.40625 20.328125 58.90625 
Q 16.5 51.421875 16.5 36.375 
Q 16.5 21.390625 20.328125 13.890625 
Q 24.171875 6.390625 31.78125 6.390625 
Q 39.453125 6.390625 43.28125 13.890625 
Q 47.125 21.390625 47.125 36.375 
Q 47.125 51.421875 43.28125 58.90625 
Q 39.453125 66.40625 31.78125 66.40625 
z
M 31.78125 74.21875 
Q 44.046875 74.21875 50.515625 64.515625 
Q 56.984375 54.828125 56.984375 36.375 
Q 56.984375 17.96875 50.515625 8.265625 
Q 44.046875 -1.421875 31.78125 -1.421875 
Q 19.53125 -1.421875 13.0625 8.265625 
Q 6.59375 17.96875 6.59375 36.375 
Q 6.59375 54.828125 13.0625 64.515625 
Q 19.53125 74.21875 31.78125 74.21875 
z
" id="DejaVuSans-48"/>
      </defs>
      <g transform="translate(37.206688 225.032358)scale(0.14 -0.14)">
       <use xlink:href="#DejaVuSans-8722"/>
       <use x="83.789062" xlink:href="#DejaVuSans-49"/>
       <use x="147.412109" xlink:href="#DejaVuSans-48"/>
       <use x="211.035156" xlink:href="#DejaVuSans-48"/>
      </g>
     </g>
    </g>
    <g id="xtick_2">
     <g id="line2d_3">
      <path clip-path="url(#pb027905b9b)" d="M 108.202314 210.894545 
L 108.202314 51.84 
" style="fill:none;stroke:#cbcbcb;"/>
     </g>
     <g id="line2d_4"/>
     <g id="text_2">
      <!-- −50 -->
      <defs>
       <path d="M 10.796875 72.90625 
L 49.515625 72.90625 
L 49.515625 64.59375 
L 19.828125 64.59375 
L 19.828125 46.734375 
Q 21.96875 47.46875 24.109375 47.828125 
Q 26.265625 48.1875 28.421875 48.1875 
Q 40.625 48.1875 47.75 41.5 
Q 54.890625 34.8125 54.890625 23.390625 
Q 54.890625 11.625 47.5625 5.09375 
Q 40.234375 -1.421875 26.90625 -1.421875 
Q 22.3125 -1.421875 17.546875 -0.640625 
Q 12.796875 0.140625 7.71875 1.703125 
L 7.71875 11.625 
Q 12.109375 9.234375 16.796875 8.0625 
Q 21.484375 6.890625 26.703125 6.890625 
Q 35.15625 6.890625 40.078125 11.328125 
Q 45.015625 15.765625 45.015625 23.390625 
Q 45.015625 31 40.078125 35.4375 
Q 35.15625 39.890625 26.703125 39.890625 
Q 22.75 39.890625 18.8125 39.015625 
Q 14.890625 38.140625 10.796875 36.28125 
z
" id="DejaVuSans-53"/>
      </defs>
      <g transform="translate(93.429033 225.032358)scale(0.14 -0.14)">
       <use xlink:href="#DejaVuSans-8722"/>
       <use x="83.789062" xlink:href="#DejaVuSans-53"/>
       <use x="147.412109" xlink:href="#DejaVuSans-48"/>
      </g>
     </g>
    </g>
    <g id="xtick_3">
     <g id="line2d_5">
      <path clip-path="url(#pb027905b9b)" d="M 159.970909 210.894545 
L 159.970909 51.84 
" style="fill:none;stroke:#cbcbcb;"/>
     </g>
     <g id="line2d_6"/>
     <g id="text_3">
      <!-- 0 -->
      <g transform="translate(155.517159 225.032358)scale(0.14 -0.14)">
       <use xlink:href="#DejaVuSans-48"/>
      </g>
     </g>
    </g>
    <g id="xtick_4">
     <g id="line2d_7">
      <path clip-path="url(#pb027905b9b)" d="M 211.739504 210.894545 
L 211.739504 51.84 
" style="fill:none;stroke:#cbcbcb;"/>
     </g>
     <g id="line2d_8"/>
     <g id="text_4">
      <!-- 50 -->
      <g transform="translate(202.832004 225.032358)scale(0.14 -0.14)">
       <use xlink:href="#DejaVuSans-53"/>
       <use x="63.623047" xlink:href="#DejaVuSans-48"/>
      </g>
     </g>
    </g>
    <g id="xtick_5">
     <g id="line2d_9">
      <path clip-path="url(#pb027905b9b)" d="M 263.508099 210.894545 
L 263.508099 51.84 
" style="fill:none;stroke:#cbcbcb;"/>
     </g>
     <g id="line2d_10"/>
     <g id="text_5">
      <!-- 100 -->
      <g transform="translate(250.146849 225.032358)scale(0.14 -0.14)">
       <use xlink:href="#DejaVuSans-49"/>
       <use x="63.623047" xlink:href="#DejaVuSans-48"/>
       <use x="127.246094" xlink:href="#DejaVuSans-48"/>
      </g>
     </g>
    </g>
    <g id="text_6">
     <!-- bp from TSS -->
     <defs>
      <path d="M 48.6875 27.296875 
Q 48.6875 37.203125 44.609375 42.84375 
Q 40.53125 48.484375 33.40625 48.484375 
Q 26.265625 48.484375 22.1875 42.84375 
Q 18.109375 37.203125 18.109375 27.296875 
Q 18.109375 17.390625 22.1875 11.75 
Q 26.265625 6.109375 33.40625 6.109375 
Q 40.53125 6.109375 44.609375 11.75 
Q 48.6875 17.390625 48.6875 27.296875 
z
M 18.109375 46.390625 
Q 20.953125 51.265625 25.265625 53.625 
Q 29.59375 56 35.59375 56 
Q 45.5625 56 51.78125 48.09375 
Q 58.015625 40.1875 58.015625 27.296875 
Q 58.015625 14.40625 51.78125 6.484375 
Q 45.5625 -1.421875 35.59375 -1.421875 
Q 29.59375 -1.421875 25.265625 0.953125 
Q 20.953125 3.328125 18.109375 8.203125 
L 18.109375 0 
L 9.078125 0 
L 9.078125 75.984375 
L 18.109375 75.984375 
z
" id="DejaVuSans-98"/>
      <path d="M 18.109375 8.203125 
L 18.109375 -20.796875 
L 9.078125 -20.796875 
L 9.078125 54.6875 
L 18.109375 54.6875 
L 18.109375 46.390625 
Q 20.953125 51.265625 25.265625 53.625 
Q 29.59375 56 35.59375 56 
Q 45.5625 56 51.78125 48.09375 
Q 58.015625 40.1875 58.015625 27.296875 
Q 58.015625 14.40625 51.78125 6.484375 
Q 45.5625 -1.421875 35.59375 -1.421875 
Q 29.59375 -1.421875 25.265625 0.953125 
Q 20.953125 3.328125 18.109375 8.203125 
z
M 48.6875 27.296875 
Q 48.6875 37.203125 44.609375 42.84375 
Q 40.53125 48.484375 33.40625 48.484375 
Q 26.265625 48.484375 22.1875 42.84375 
Q 18.109375 37.203125 18.109375 27.296875 
Q 18.109375 17.390625 22.1875 11.75 
Q 26.265625 6.109375 33.40625 6.109375 
Q 40.53125 6.109375 44.609375 11.75 
Q 48.6875 17.390625 48.6875 27.296875 
z
" id="DejaVuSans-112"/>
      <path id="DejaVuSans-32"/>
      <path d="M 37.109375 75.984375 
L 37.109375 68.5 
L 28.515625 68.5 
Q 23.6875 68.5 21.796875 66.546875 
Q 19.921875 64.59375 19.921875 59.515625 
L 19.921875 54.6875 
L 34.71875 54.6875 
L 34.71875 47.703125 
L 19.921875 47.703125 
L 19.921875 0 
L 10.890625 0 
L 10.890625 47.703125 
L 2.296875 47.703125 
L 2.296875 54.6875 
L 10.890625 54.6875 
L 10.890625 58.5 
Q 10.890625 67.625 15.140625 71.796875 
Q 19.390625 75.984375 28.609375 75.984375 
z
" id="DejaVuSans-102"/>
      <path d="M 41.109375 46.296875 
Q 39.59375 47.171875 37.8125 47.578125 
Q 36.03125 48 33.890625 48 
Q 26.265625 48 22.1875 43.046875 
Q 18.109375 38.09375 18.109375 28.8125 
L 18.109375 0 
L 9.078125 0 
L 9.078125 54.6875 
L 18.109375 54.6875 
L 18.109375 46.1875 
Q 20.953125 51.171875 25.484375 53.578125 
Q 30.03125 56 36.53125 56 
Q 37.453125 56 38.578125 55.875 
Q 39.703125 55.765625 41.0625 55.515625 
z
" id="DejaVuSans-114"/>
      <path d="M 30.609375 48.390625 
Q 23.390625 48.390625 19.1875 42.75 
Q 14.984375 37.109375 14.984375 27.296875 
Q 14.984375 17.484375 19.15625 11.84375 
Q 23.34375 6.203125 30.609375 6.203125 
Q 37.796875 6.203125 41.984375 11.859375 
Q 46.1875 17.53125 46.1875 27.296875 
Q 46.1875 37.015625 41.984375 42.703125 
Q 37.796875 48.390625 30.609375 48.390625 
z
M 30.609375 56 
Q 42.328125 56 49.015625 48.375 
Q 55.71875 40.765625 55.71875 27.296875 
Q 55.71875 13.875 49.015625 6.21875 
Q 42.328125 -1.421875 30.609375 -1.421875 
Q 18.84375 -1.421875 12.171875 6.21875 
Q 5.515625 13.875 5.515625 27.296875 
Q 5.515625 40.765625 12.171875 48.375 
Q 18.84375 56 30.609375 56 
z
" id="DejaVuSans-111"/>
      <path d="M 52 44.1875 
Q 55.375 50.25 60.0625 53.125 
Q 64.75 56 71.09375 56 
Q 79.640625 56 84.28125 50.015625 
Q 88.921875 44.046875 88.921875 33.015625 
L 88.921875 0 
L 79.890625 0 
L 79.890625 32.71875 
Q 79.890625 40.578125 77.09375 44.375 
Q 74.3125 48.1875 68.609375 48.1875 
Q 61.625 48.1875 57.5625 43.546875 
Q 53.515625 38.921875 53.515625 30.90625 
L 53.515625 0 
L 44.484375 0 
L 44.484375 32.71875 
Q 44.484375 40.625 41.703125 44.40625 
Q 38.921875 48.1875 33.109375 48.1875 
Q 26.21875 48.1875 22.15625 43.53125 
Q 18.109375 38.875 18.109375 30.90625 
L 18.109375 0 
L 9.078125 0 
L 9.078125 54.6875 
L 18.109375 54.6875 
L 18.109375 46.1875 
Q 21.1875 51.21875 25.484375 53.609375 
Q 29.78125 56 35.6875 56 
Q 41.65625 56 45.828125 52.96875 
Q 50 49.953125 52 44.1875 
z
" id="DejaVuSans-109"/>
      <path d="M -0.296875 72.90625 
L 61.375 72.90625 
L 61.375 64.59375 
L 35.5 64.59375 
L 35.5 0 
L 25.59375 0 
L 25.59375 64.59375 
L -0.296875 64.59375 
z
" id="DejaVuSans-84"/>
      <path d="M 53.515625 70.515625 
L 53.515625 60.890625 
Q 47.90625 63.578125 42.921875 64.890625 
Q 37.9375 66.21875 33.296875 66.21875 
Q 25.25 66.21875 20.875 63.09375 
Q 16.5 59.96875 16.5 54.203125 
Q 16.5 49.359375 19.40625 46.890625 
Q 22.3125 44.4375 30.421875 42.921875 
L 36.375 41.703125 
Q 47.40625 39.59375 52.65625 34.296875 
Q 57.90625 29 57.90625 20.125 
Q 57.90625 9.515625 50.796875 4.046875 
Q 43.703125 -1.421875 29.984375 -1.421875 
Q 24.8125 -1.421875 18.96875 -0.25 
Q 13.140625 0.921875 6.890625 3.21875 
L 6.890625 13.375 
Q 12.890625 10.015625 18.65625 8.296875 
Q 24.421875 6.59375 29.984375 6.59375 
Q 38.421875 6.59375 43.015625 9.90625 
Q 47.609375 13.234375 47.609375 19.390625 
Q 47.609375 24.75 44.3125 27.78125 
Q 41.015625 30.8125 33.5 32.328125 
L 27.484375 33.5 
Q 16.453125 35.6875 11.515625 40.375 
Q 6.59375 45.0625 6.59375 53.421875 
Q 6.59375 63.09375 13.40625 68.65625 
Q 20.21875 74.21875 32.171875 74.21875 
Q 37.3125 74.21875 42.625 73.28125 
Q 47.953125 72.359375 53.515625 70.515625 
z
" id="DejaVuSans-83"/>
     </defs>
     <g transform="translate(108.440847 244.709295)scale(0.168 -0.168)">
      <use xlink:href="#DejaVuSans-98"/>
      <use x="63.476562" xlink:href="#DejaVuSans-112"/>
      <use x="126.953125" xlink:href="#DejaVuSans-32"/>
      <use x="158.740234" xlink:href="#DejaVuSans-102"/>
      <use x="193.945312" xlink:href="#DejaVuSans-114"/>
      <use x="235.027344" xlink:href="#DejaVuSans-111"/>
      <use x="296.208984" xlink:href="#DejaVuSans-109"/>
      <use x="393.621094" xlink:href="#DejaVuSans-32"/>
      <use x="425.408203" xlink:href="#DejaVuSans-84"/>
      <use x="486.492188" xlink:href="#DejaVuSans-83"/>
      <use x="549.96875" xlink:href="#DejaVuSans-83"/>
     </g>
    </g>
   </g>
   <g id="matplotlib.axis_2">
    <g id="ytick_1">
     <g id="line2d_11">
      <path clip-path="url(#pb027905b9b)" d="M 46.08 173.515468 
L 273.861818 173.515468 
" style="fill:none;stroke:#cbcbcb;"/>
     </g>
     <g id="line2d_12"/>
     <g id="text_7">
      <!-- 0.2 -->
      <defs>
       <path d="M 10.6875 12.40625 
L 21 12.40625 
L 21 0 
L 10.6875 0 
z
" id="DejaVuSans-46"/>
       <path d="M 19.1875 8.296875 
L 53.609375 8.296875 
L 53.609375 0 
L 7.328125 0 
L 7.328125 8.296875 
Q 12.9375 14.109375 22.625 23.890625 
Q 32.328125 33.6875 34.8125 36.53125 
Q 39.546875 41.84375 41.421875 45.53125 
Q 43.3125 49.21875 43.3125 52.78125 
Q 43.3125 58.59375 39.234375 62.25 
Q 35.15625 65.921875 28.609375 65.921875 
Q 23.96875 65.921875 18.8125 64.3125 
Q 13.671875 62.703125 7.8125 59.421875 
L 7.8125 69.390625 
Q 13.765625 71.78125 18.9375 73 
Q 24.125 74.21875 28.421875 74.21875 
Q 39.75 74.21875 46.484375 68.546875 
Q 53.21875 62.890625 53.21875 53.421875 
Q 53.21875 48.921875 51.53125 44.890625 
Q 49.859375 40.875 45.40625 35.40625 
Q 44.1875 33.984375 37.640625 27.21875 
Q 31.109375 20.453125 19.1875 8.296875 
z
" id="DejaVuSans-50"/>
      </defs>
      <g transform="translate(20.315625 178.834374)scale(0.14 -0.14)">
       <use xlink:href="#DejaVuSans-48"/>
       <use x="63.623047" xlink:href="#DejaVuSans-46"/>
       <use x="95.410156" xlink:href="#DejaVuSans-50"/>
      </g>
     </g>
    </g>
    <g id="ytick_2">
     <g id="line2d_13">
      <path clip-path="url(#pb027905b9b)" d="M 46.08 122.650705 
L 273.861818 122.650705 
" style="fill:none;stroke:#cbcbcb;"/>
     </g>
     <g id="line2d_14"/>
     <g id="text_8">
      <!-- 0.4 -->
      <defs>
       <path d="M 37.796875 64.3125 
L 12.890625 25.390625 
L 37.796875 25.390625 
z
M 35.203125 72.90625 
L 47.609375 72.90625 
L 47.609375 25.390625 
L 58.015625 25.390625 
L 58.015625 17.1875 
L 47.609375 17.1875 
L 47.609375 0 
L 37.796875 0 
L 37.796875 17.1875 
L 4.890625 17.1875 
L 4.890625 26.703125 
z
" id="DejaVuSans-52"/>
      </defs>
      <g transform="translate(20.315625 127.969612)scale(0.14 -0.14)">
       <use xlink:href="#DejaVuSans-48"/>
       <use x="63.623047" xlink:href="#DejaVuSans-46"/>
       <use x="95.410156" xlink:href="#DejaVuSans-52"/>
      </g>
     </g>
    </g>
    <g id="ytick_3">
     <g id="line2d_15">
      <path clip-path="url(#pb027905b9b)" d="M 46.08 71.785943 
L 273.861818 71.785943 
" style="fill:none;stroke:#cbcbcb;"/>
     </g>
     <g id="line2d_16"/>
     <g id="text_9">
      <!-- 0.6 -->
      <defs>
       <path d="M 33.015625 40.375 
Q 26.375 40.375 22.484375 35.828125 
Q 18.609375 31.296875 18.609375 23.390625 
Q 18.609375 15.53125 22.484375 10.953125 
Q 26.375 6.390625 33.015625 6.390625 
Q 39.65625 6.390625 43.53125 10.953125 
Q 47.40625 15.53125 47.40625 23.390625 
Q 47.40625 31.296875 43.53125 35.828125 
Q 39.65625 40.375 33.015625 40.375 
z
M 52.59375 71.296875 
L 52.59375 62.3125 
Q 48.875 64.0625 45.09375 64.984375 
Q 41.3125 65.921875 37.59375 65.921875 
Q 27.828125 65.921875 22.671875 59.328125 
Q 17.53125 52.734375 16.796875 39.40625 
Q 19.671875 43.65625 24.015625 45.921875 
Q 28.375 48.1875 33.59375 48.1875 
Q 44.578125 48.1875 50.953125 41.515625 
Q 57.328125 34.859375 57.328125 23.390625 
Q 57.328125 12.15625 50.6875 5.359375 
Q 44.046875 -1.421875 33.015625 -1.421875 
Q 20.359375 -1.421875 13.671875 8.265625 
Q 6.984375 17.96875 6.984375 36.375 
Q 6.984375 53.65625 15.1875 63.9375 
Q 23.390625 74.21875 37.203125 74.21875 
Q 40.921875 74.21875 44.703125 73.484375 
Q 48.484375 72.75 52.59375 71.296875 
z
" id="DejaVuSans-54"/>
      </defs>
      <g transform="translate(20.315625 77.104849)scale(0.14 -0.14)">
       <use xlink:href="#DejaVuSans-48"/>
       <use x="63.623047" xlink:href="#DejaVuSans-46"/>
       <use x="95.410156" xlink:href="#DejaVuSans-54"/>
      </g>
     </g>
    </g>
    <g id="text_10">
     <!-- Frequency -->
     <defs>
      <path d="M 9.8125 72.90625 
L 51.703125 72.90625 
L 51.703125 64.59375 
L 19.671875 64.59375 
L 19.671875 43.109375 
L 48.578125 43.109375 
L 48.578125 34.8125 
L 19.671875 34.8125 
L 19.671875 0 
L 9.8125 0 
z
" id="DejaVuSans-70"/>
      <path d="M 56.203125 29.59375 
L 56.203125 25.203125 
L 14.890625 25.203125 
Q 15.484375 15.921875 20.484375 11.0625 
Q 25.484375 6.203125 34.421875 6.203125 
Q 39.59375 6.203125 44.453125 7.46875 
Q 49.3125 8.734375 54.109375 11.28125 
L 54.109375 2.78125 
Q 49.265625 0.734375 44.1875 -0.34375 
Q 39.109375 -1.421875 33.890625 -1.421875 
Q 20.796875 -1.421875 13.15625 6.1875 
Q 5.515625 13.8125 5.515625 26.8125 
Q 5.515625 40.234375 12.765625 48.109375 
Q 20.015625 56 32.328125 56 
Q 43.359375 56 49.78125 48.890625 
Q 56.203125 41.796875 56.203125 29.59375 
z
M 47.21875 32.234375 
Q 47.125 39.59375 43.09375 43.984375 
Q 39.0625 48.390625 32.421875 48.390625 
Q 24.90625 48.390625 20.390625 44.140625 
Q 15.875 39.890625 15.1875 32.171875 
z
" id="DejaVuSans-101"/>
      <path d="M 14.796875 27.296875 
Q 14.796875 17.390625 18.875 11.75 
Q 22.953125 6.109375 30.078125 6.109375 
Q 37.203125 6.109375 41.296875 11.75 
Q 45.40625 17.390625 45.40625 27.296875 
Q 45.40625 37.203125 41.296875 42.84375 
Q 37.203125 48.484375 30.078125 48.484375 
Q 22.953125 48.484375 18.875 42.84375 
Q 14.796875 37.203125 14.796875 27.296875 
z
M 45.40625 8.203125 
Q 42.578125 3.328125 38.25 0.953125 
Q 33.9375 -1.421875 27.875 -1.421875 
Q 17.96875 -1.421875 11.734375 6.484375 
Q 5.515625 14.40625 5.515625 27.296875 
Q 5.515625 40.1875 11.734375 48.09375 
Q 17.96875 56 27.875 56 
Q 33.9375 56 38.25 53.625 
Q 42.578125 51.265625 45.40625 46.390625 
L 45.40625 54.6875 
L 54.390625 54.6875 
L 54.390625 -20.796875 
L 45.40625 -20.796875 
z
" id="DejaVuSans-113"/>
      <path d="M 8.5 21.578125 
L 8.5 54.6875 
L 17.484375 54.6875 
L 17.484375 21.921875 
Q 17.484375 14.15625 20.5 10.265625 
Q 23.53125 6.390625 29.59375 6.390625 
Q 36.859375 6.390625 41.078125 11.03125 
Q 45.3125 15.671875 45.3125 23.6875 
L 45.3125 54.6875 
L 54.296875 54.6875 
L 54.296875 0 
L 45.3125 0 
L 45.3125 8.40625 
Q 42.046875 3.421875 37.71875 1 
Q 33.40625 -1.421875 27.6875 -1.421875 
Q 18.265625 -1.421875 13.375 4.4375 
Q 8.5 10.296875 8.5 21.578125 
z
M 31.109375 56 
z
" id="DejaVuSans-117"/>
      <path d="M 54.890625 33.015625 
L 54.890625 0 
L 45.90625 0 
L 45.90625 32.71875 
Q 45.90625 40.484375 42.875 44.328125 
Q 39.84375 48.1875 33.796875 48.1875 
Q 26.515625 48.1875 22.3125 43.546875 
Q 18.109375 38.921875 18.109375 30.90625 
L 18.109375 0 
L 9.078125 0 
L 9.078125 54.6875 
L 18.109375 54.6875 
L 18.109375 46.1875 
Q 21.34375 51.125 25.703125 53.5625 
Q 30.078125 56 35.796875 56 
Q 45.21875 56 50.046875 50.171875 
Q 54.890625 44.34375 54.890625 33.015625 
z
" id="DejaVuSans-110"/>
      <path d="M 48.78125 52.59375 
L 48.78125 44.1875 
Q 44.96875 46.296875 41.140625 47.34375 
Q 37.3125 48.390625 33.40625 48.390625 
Q 24.65625 48.390625 19.8125 42.84375 
Q 14.984375 37.3125 14.984375 27.296875 
Q 14.984375 17.28125 19.8125 11.734375 
Q 24.65625 6.203125 33.40625 6.203125 
Q 37.3125 6.203125 41.140625 7.25 
Q 44.96875 8.296875 48.78125 10.40625 
L 48.78125 2.09375 
Q 45.015625 0.34375 40.984375 -0.53125 
Q 36.96875 -1.421875 32.421875 -1.421875 
Q 20.0625 -1.421875 12.78125 6.34375 
Q 5.515625 14.109375 5.515625 27.296875 
Q 5.515625 40.671875 12.859375 48.328125 
Q 20.21875 56 33.015625 56 
Q 37.15625 56 41.109375 55.140625 
Q 45.0625 54.296875 48.78125 52.59375 
z
" id="DejaVuSans-99"/>
      <path d="M 32.171875 -5.078125 
Q 28.375 -14.84375 24.75 -17.8125 
Q 21.140625 -20.796875 15.09375 -20.796875 
L 7.90625 -20.796875 
L 7.90625 -13.28125 
L 13.1875 -13.28125 
Q 16.890625 -13.28125 18.9375 -11.515625 
Q 21 -9.765625 23.484375 -3.21875 
L 25.09375 0.875 
L 2.984375 54.6875 
L 12.5 54.6875 
L 29.59375 11.921875 
L 46.6875 54.6875 
L 56.203125 54.6875 
z
" id="DejaVuSans-121"/>
     </defs>
     <g transform="translate(12.82175 175.547335)rotate(-90)scale(0.168 -0.168)">
      <use xlink:href="#DejaVuSans-70"/>
      <use x="57.410156" xlink:href="#DejaVuSans-114"/>
      <use x="98.492188" xlink:href="#DejaVuSans-101"/>
      <use x="160.015625" xlink:href="#DejaVuSans-113"/>
      <use x="223.492188" xlink:href="#DejaVuSans-117"/>
      <use x="286.871094" xlink:href="#DejaVuSans-101"/>
      <use x="348.394531" xlink:href="#DejaVuSans-110"/>
      <use x="411.773438" xlink:href="#DejaVuSans-99"/>
      <use x="466.753906" xlink:href="#DejaVuSans-121"/>
     </g>
    </g>
   </g>
   <g id="LineCollection_1">
    <path clip-path="url(#pb027905b9b)" d="M 159.970909 198.94785 
L 159.970909 59.069752 
" style="fill:none;stroke:#000000;stroke-width:0.5;"/>
   </g>
   <g id="line2d_17">
    <path clip-path="url(#pb027905b9b)" d="M 56.433719 151.401758 
L 57.469091 150.831056 
L 58.504463 151.760101 
L 59.539835 151.053335 
L 60.575207 151.872257 
L 61.610579 152.923123 
L 62.64595 151.822664 
L 63.681322 149.721187 
L 64.716694 150.178715 
L 65.752066 151.380649 
L 66.787438 151.868697 
L 67.82281 151.67007 
L 68.858182 152.315544 
L 69.893554 151.844027 
L 70.928926 151.035532 
L 71.964298 150.613609 
L 72.999669 151.283752 
L 74.035041 150.944484 
L 75.070413 150.017982 
L 76.105785 151.705675 
L 77.141157 151.523579 
L 78.176529 150.770781 
L 79.211901 151.134718 
L 80.247273 151.904302 
L 81.282645 149.57139 
L 82.318017 150.564016 
L 83.353388 149.141074 
L 84.38876 150.613609 
L 85.424132 150.028664 
L 86.459504 149.979071 
L 87.494876 150.558166 
L 88.530248 151.503488 
L 89.56562 150.60191 
L 90.600992 150.262642 
L 91.636364 150.734158 
L 93.707107 149.824442 
L 94.742479 149.220423 
L 96.813223 150.411676 
L 97.848595 149.14616 
L 98.883967 149.691939 
L 99.919339 149.377595 
L 100.954711 149.394126 
L 101.990083 149.013658 
L 103.025455 148.790361 
L 104.060826 148.790361 
L 105.096198 149.617677 
L 107.166942 148.619201 
L 108.202314 150.74484 
L 109.237686 149.68024 
L 110.273058 149.252722 
L 111.30843 149.194736 
L 112.343802 148.047482 
L 113.379174 146.246869 
L 114.414545 146.944225 
L 115.449917 146.29926 
L 116.485289 146.820115 
L 117.520661 146.448039 
L 118.556033 146.811976 
L 119.591405 147.655569 
L 120.626777 147.291631 
L 121.662149 147.845803 
L 122.697521 149.350891 
L 123.732893 151.757557 
L 124.768264 152.162949 
L 125.803636 153.155321 
L 126.839008 151.065288 
L 127.87438 151.313508 
L 128.909752 154.431264 
L 130.980496 155.407104 
L 132.015868 157.226537 
L 133.05124 157.739253 
L 134.086612 152.769003 
L 135.121983 152.372004 
L 136.157355 149.278917 
L 137.192727 147.219658 
L 138.228099 145.87988 
L 139.263471 148.303077 
L 140.298843 147.624795 
L 141.334215 147.178457 
L 142.369587 144.928963 
L 143.404959 145.003225 
L 144.440331 149.345042 
L 145.475702 150.693212 
L 146.511074 146.698548 
L 147.546446 144.540102 
L 148.581818 145.549004 
L 149.61719 149.064014 
L 150.652562 149.675917 
L 151.687934 152.405066 
L 152.723306 150.941178 
L 153.758678 140.942691 
L 154.79405 156.304867 
L 155.829421 145.331049 
L 156.864793 162.887276 
L 157.900165 154.088435 
L 158.935537 95.101333 
L 159.970909 199.625114 
L 161.006281 174.663232 
L 162.041653 180.566596 
L 163.077025 163.302587 
L 164.112397 159.523844 
L 165.147769 154.97628 
L 166.18314 156.621755 
L 167.218512 159.342002 
L 168.253884 153.953389 
L 170.324628 159.129133 
L 171.36 160.650498 
L 172.395372 160.931526 
L 173.430744 156.119465 
L 174.466116 153.614375 
L 175.501488 154.68101 
L 176.53686 152.423886 
L 177.572231 153.40761 
L 178.607603 158.277657 
L 179.642975 158.401513 
L 180.678347 156.210513 
L 181.713719 156.657106 
L 182.749091 159.170588 
L 183.784463 162.533512 
L 184.819835 164.484938 
L 185.855207 158.531726 
L 186.890579 158.374554 
L 187.92595 160.540885 
L 188.961322 158.66194 
L 189.996694 157.363617 
L 191.032066 155.618956 
L 192.067438 152.634212 
L 193.10281 152.32826 
L 194.138182 152.576226 
L 195.173554 153.733908 
L 196.208926 153.549523 
L 197.244298 153.169309 
L 198.279669 154.153288 
L 199.315041 153.963053 
L 200.350413 152.631668 
L 201.385785 154.095302 
L 202.421157 152.946013 
L 203.456529 152.954151 
L 204.491901 151.192958 
L 205.527273 150.20898 
L 206.562645 150.405063 
L 207.598017 149.619457 
L 208.633388 150.950842 
L 210.704132 152.968393 
L 211.739504 152.927193 
L 212.774876 153.547234 
L 213.810248 154.928212 
L 214.84562 154.233654 
L 215.880992 154.837164 
L 216.916364 155.118447 
L 217.951736 154.547744 
L 218.987107 154.713309 
L 220.022479 153.307407 
L 221.057851 152.306897 
L 222.093223 152.249165 
L 223.128595 152.89413 
L 224.163967 153.034517 
L 225.199339 152.555117 
L 226.234711 153.48111 
L 227.270083 152.984924 
L 228.305455 154.374295 
L 229.340826 152.77002 
L 230.376198 153.845047 
L 231.41157 153.16702 
L 232.446942 150.79367 
L 233.482314 150.992043 
L 234.517686 150.463049 
L 235.553058 150.405063 
L 236.58843 151.694994 
L 237.623802 153.596827 
L 238.659174 151.570884 
L 239.694545 152.282227 
L 240.729917 151.380904 
L 241.765289 152.736958 
L 242.800661 151.527394 
L 243.836033 151.824953 
L 244.871405 150.956692 
L 245.906777 150.658878 
L 246.942149 150.535023 
L 247.977521 151.800284 
L 249.012893 152.346063 
L 250.048264 151.643112 
L 251.083636 151.65125 
L 252.119008 153.263917 
L 253.15438 151.485939 
L 254.189752 150.245602 
L 255.225124 150.391838 
L 257.295868 150.904555 
L 258.33124 150.598604 
L 259.366612 151.392603 
L 260.401983 153.038332 
L 261.437355 153.187111 
L 262.472727 152.839705 
L 263.508099 152.988739 
L 263.508099 152.988739 
" style="fill:none;stroke:#0000ff;stroke-width:2;"/>
   </g>
   <g id="line2d_18">
    <path clip-path="url(#pb027905b9b)" d="M 56.433719 171.888813 
L 57.469091 172.393392 
L 58.504463 172.643392 
L 59.539835 172.630167 
L 61.610579 171.331335 
L 62.64595 174.839224 
L 63.681322 172.183574 
L 64.716694 172.813789 
L 65.752066 172.66679 
L 66.787438 171.996646 
L 67.82281 171.185862 
L 68.858182 173.030727 
L 69.893554 172.625335 
L 70.928926 173.379914 
L 72.999669 171.940441 
L 74.035041 172.395426 
L 75.070413 173.131694 
L 76.105785 172.949598 
L 77.141157 174.298023 
L 78.176529 173.702396 
L 79.211901 174.058195 
L 80.247273 173.834899 
L 81.282645 173.371521 
L 82.318017 174.968166 
L 83.353388 174.430525 
L 84.38876 174.372539 
L 85.424132 174.448582 
L 86.459504 173.489019 
L 87.494876 174.407128 
L 88.530248 172.911704 
L 89.56562 173.747157 
L 90.600992 175.219438 
L 91.636364 175.244362 
L 92.671736 174.789376 
L 93.707107 175.327017 
L 94.742479 176.203925 
L 95.777851 174.475032 
L 96.813223 175.285562 
L 97.848595 175.393141 
L 98.883967 175.120252 
L 100.954711 174.8143 
L 101.990083 175.823457 
L 103.025455 175.964098 
L 104.060826 174.772845 
L 105.096198 176.452145 
L 106.13157 175.634749 
L 108.202314 175.766997 
L 109.237686 175.115165 
L 110.273058 176.663488 
L 111.30843 176.663488 
L 112.343802 177.649248 
L 113.379174 178.403572 
L 115.449917 177.677223 
L 116.485289 178.264457 
L 117.520661 178.18994 
L 118.556033 176.122287 
L 119.591405 176.428239 
L 120.626777 175.452398 
L 121.662149 176.552349 
L 122.697521 174.575744 
L 123.732893 173.94731 
L 124.768264 172.243595 
L 125.803636 173.037339 
L 126.839008 175.710283 
L 127.87438 174.494615 
L 129.945124 170.401019 
L 130.980496 167.249947 
L 132.015868 164.752487 
L 133.05124 162.933054 
L 134.086612 168.854476 
L 135.121983 173.220961 
L 136.157355 176.189937 
L 137.192727 178.207997 
L 139.263471 177.637294 
L 140.298843 178.249197 
L 141.334215 178.166542 
L 143.404959 177.753012 
L 144.440331 176.553875 
L 145.475702 177.289888 
L 146.511074 177.513184 
L 147.546446 176.653061 
L 148.581818 178.910948 
L 149.61719 176.090751 
L 150.652562 176.785564 
L 151.687934 175.205959 
L 152.723306 176.992329 
L 153.758678 181.094318 
L 154.79405 159.654057 
L 155.829421 171.066076 
L 156.864793 174.952652 
L 157.900165 188.514978 
L 158.935537 203.664793 
L 159.970909 80.826391 
L 161.006281 173.976812 
L 162.041653 158.697037 
L 163.077025 173.985204 
L 164.112397 175.98597 
L 165.147769 179.930023 
L 166.18314 179.359575 
L 167.218512 176.035563 
L 168.253884 178.773867 
L 169.289256 178.195281 
L 170.324628 177.318627 
L 172.395372 176.070405 
L 173.430744 177.335412 
L 174.466116 176.086936 
L 175.501488 178.203419 
L 176.53686 179.212067 
L 177.572231 179.691722 
L 178.607603 175.350923 
L 179.642975 174.433323 
L 180.678347 172.79624 
L 181.713719 172.465365 
L 182.749091 170.985455 
L 183.784463 172.910178 
L 184.819835 169.999696 
L 185.855207 171.331081 
L 186.890579 169.338454 
L 187.92595 171.206971 
L 188.961322 174.620251 
L 189.996694 173.198072 
L 191.032066 174.959265 
L 192.067438 178.746146 
L 193.10281 179.978091 
L 195.173554 176.976561 
L 197.244298 176.338463 
L 198.279669 176.14009 
L 199.315041 176.14009 
L 200.350413 177.099145 
L 201.385785 176.512166 
L 202.421157 176.793194 
L 203.456529 178.827275 
L 204.491901 179.389585 
L 205.527273 180.572191 
L 206.562645 180.430024 
L 207.598017 180.77743 
L 208.633388 177.974273 
L 209.66876 176.791668 
L 210.704132 175.294972 
L 211.739504 174.939427 
L 212.774876 174.294462 
L 213.810248 173.483932 
L 214.84562 173.393138 
L 215.880992 174.13729 
L 216.916364 173.318622 
L 217.951736 173.103718 
L 218.987107 173.26089 
L 221.057851 175.278441 
L 222.093223 175.67544 
L 223.128595 175.179255 
L 224.163967 175.228848 
L 225.199339 175.1378 
L 227.270083 172.772843 
L 228.305455 173.53378 
L 229.340826 173.087187 
L 230.376198 174.691207 
L 231.41157 174.401787 
L 232.446942 175.435613 
L 233.482314 174.567352 
L 234.517686 175.501737 
L 235.553058 174.393648 
L 236.58843 174.13729 
L 237.623802 173.442732 
L 238.659174 174.641614 
L 239.694545 174.095835 
L 240.729917 173.913994 
L 241.765289 173.996649 
L 242.800661 175.318115 
L 243.836033 174.143902 
L 244.871405 175.11135 
L 245.906777 174.755805 
L 246.942149 175.061757 
L 247.977521 173.284034 
L 249.012893 173.581592 
L 250.048264 174.416792 
L 251.083636 174.425185 
L 252.119008 173.937137 
L 253.15438 174.210027 
L 254.189752 173.722234 
L 255.225124 174.051329 
L 256.260496 174.506059 
L 257.295868 173.389832 
L 258.33124 173.695784 
L 259.366612 173.778439 
L 260.401983 172.397461 
L 261.437355 172.54624 
L 262.472727 172.571164 
L 263.508099 174.349142 
L 263.508099 174.349142 
" style="fill:none;stroke:#008000;stroke-opacity:0.8;stroke-width:2;"/>
   </g>
   <g id="line2d_19">
    <path clip-path="url(#pb027905b9b)" d="M 56.433719 171.086167 
L 57.469091 171.243339 
L 58.504463 170.839727 
L 59.539835 171.678742 
L 60.575207 171.563024 
L 62.64595 169.916532 
L 63.681322 172.456464 
L 64.716694 171.81277 
L 65.752066 171.359565 
L 67.82281 171.831082 
L 68.858182 170.90458 
L 69.893554 171.632455 
L 70.928926 171.650766 
L 71.964298 171.841 
L 72.999669 172.411957 
L 74.035041 172.138813 
L 75.070413 172.262923 
L 76.105785 172.130675 
L 77.141157 170.153562 
L 78.176529 171.460532 
L 80.247273 171.104733 
L 81.282645 172.941459 
L 82.318017 172.767502 
L 83.353388 173.247411 
L 84.38876 171.204173 
L 85.424132 172.264704 
L 86.459504 171.106513 
L 87.494876 171.818111 
L 88.530248 173.490545 
L 89.56562 173.110076 
L 91.636364 172.042933 
L 92.671736 172.150512 
L 93.707107 173.780219 
L 94.742479 173.035814 
L 96.813223 172.663483 
L 97.848595 172.977828 
L 98.883967 173.101938 
L 99.919339 173.788358 
L 100.954711 173.242579 
L 101.990083 174.615673 
L 103.025455 173.747157 
L 104.060826 174.160688 
L 105.096198 173.722234 
L 106.13157 174.121013 
L 107.166942 174.807433 
L 108.202314 172.880167 
L 109.237686 173.932305 
L 110.273058 174.794208 
L 111.30843 174.595581 
L 112.343802 174.274625 
L 113.379174 174.574218 
L 114.414545 173.814807 
L 115.449917 174.724524 
L 116.485289 174.063027 
L 117.520661 173.922386 
L 118.556033 174.038104 
L 119.591405 173.434339 
L 120.626777 174.393903 
L 121.662149 174.2614 
L 122.697521 175.774881 
L 123.732893 172.739781 
L 124.768264 173.384746 
L 125.803636 172.499953 
L 126.839008 171.054377 
L 128.909752 166.927464 
L 129.945124 166.274106 
L 130.980496 167.068105 
L 132.015868 164.669832 
L 134.086612 172.063279 
L 135.121983 174.808959 
L 136.157355 175.445786 
L 137.192727 176.553875 
L 138.228099 176.859826 
L 139.263471 175.313283 
L 140.298843 174.296242 
L 141.334215 174.610332 
L 142.369587 174.345835 
L 143.404959 173.518774 
L 144.440331 171.856514 
L 145.475702 174.213587 
L 146.511074 175.826254 
L 147.546446 176.785564 
L 149.61719 172.063279 
L 151.687934 170.97986 
L 152.723306 169.424924 
L 153.758678 170.599391 
L 154.79405 173.331846 
L 155.829421 174.258094 
L 156.864793 163.780461 
L 157.900165 154.725262 
L 158.935537 156.205427 
L 159.970909 201.20421 
L 161.006281 160.739257 
L 162.041653 143.276621 
L 163.077025 156.290879 
L 164.112397 158.26723 
L 165.147769 164.253249 
L 166.18314 171.934591 
L 167.218512 170.992067 
L 168.253884 172.200868 
L 169.289256 170.398476 
L 170.324628 170.0676 
L 171.36 173.217909 
L 172.395372 174.234696 
L 173.430744 175.483172 
L 174.466116 173.837951 
L 175.501488 172.812772 
L 176.53686 172.481896 
L 177.572231 173.465875 
L 178.607603 175.656875 
L 179.642975 174.061247 
L 180.678347 176.376102 
L 181.713719 178.17875 
L 182.749091 178.625088 
L 183.784463 176.771576 
L 184.819835 176.333376 
L 185.855207 175.630425 
L 186.890579 176.068625 
L 187.92595 177.953927 
L 188.961322 176.439175 
L 189.996694 173.338459 
L 191.032066 170.609819 
L 193.10281 167.261137 
L 194.138182 166.657627 
L 195.173554 165.665255 
L 196.208926 165.977565 
L 197.244298 166.093282 
L 198.279669 166.002488 
L 199.315041 166.986467 
L 201.385785 167.127108 
L 202.421157 167.838198 
L 203.456529 166.961544 
L 204.491901 167.275888 
L 205.527273 166.614392 
L 206.562645 166.455439 
L 207.598017 167.373294 
L 208.633388 168.787334 
L 209.66876 168.795473 
L 210.704132 169.365921 
L 211.739504 169.0765 
L 212.774876 169.051831 
L 213.810248 167.166529 
L 214.84562 167.861087 
L 215.880992 167.03428 
L 216.916364 166.645419 
L 217.951736 166.802591 
L 218.987107 168.175177 
L 220.022479 167.596336 
L 221.057851 168.696286 
L 222.093223 167.960273 
L 223.128595 168.357273 
L 224.163967 166.78606 
L 225.199339 167.108543 
L 226.234711 167.075481 
L 227.270083 167.629652 
L 228.305455 167.315308 
L 229.340826 168.878128 
L 230.376198 168.481128 
L 231.41157 170.47401 
L 232.446942 170.416278 
L 233.482314 170.085403 
L 234.517686 168.993845 
L 235.553058 169.622279 
L 237.623802 169.018769 
L 238.659174 169.233673 
L 240.729917 171.838457 
L 241.765289 171.441458 
L 242.800661 170.182809 
L 243.836033 172.026911 
L 244.871405 170.331843 
L 245.906777 170.662464 
L 246.942149 169.852188 
L 247.977521 170.678995 
L 249.012893 170.373043 
L 250.048264 171.911194 
L 251.083636 170.215871 
L 252.119008 170.588201 
L 253.15438 171.233166 
L 254.189752 173.234186 
L 255.225124 171.628386 
L 256.260496 171.380166 
L 257.295868 171.487744 
L 259.366612 170.619483 
L 260.401983 171.347103 
L 261.437355 170.379656 
L 262.472727 171.595323 
L 263.508099 171.289372 
L 263.508099 171.289372 
" style="fill:none;stroke:#ff0000;stroke-opacity:0.6;stroke-width:2;"/>
   </g>
   <g id="line2d_20">
    <path clip-path="url(#pb027905b9b)" d="M 56.433719 148.820372 
L 57.469091 148.729324 
L 58.504463 147.95389 
L 60.575207 147.809943 
L 61.610579 148.141073 
L 62.64595 146.61869 
L 63.681322 148.835885 
L 64.716694 148.391582 
L 65.752066 147.790106 
L 66.787438 147.781967 
L 67.82281 148.509842 
L 68.858182 146.946514 
L 69.893554 147.095293 
L 70.928926 147.130899 
L 71.964298 148.0574 
L 72.999669 147.561214 
L 75.070413 147.784511 
L 76.105785 146.411162 
L 77.141157 147.221946 
L 78.176529 147.263401 
L 79.211901 146.742037 
L 80.247273 146.353176 
L 81.282645 147.312994 
L 82.318017 144.897427 
L 83.353388 146.3781 
L 84.38876 147.006788 
L 85.424132 146.45516 
L 86.459504 148.622508 
L 87.494876 146.413705 
L 88.530248 145.291374 
L 89.56562 145.737967 
L 90.600992 145.175403 
L 91.636364 145.175403 
L 92.671736 145.936594 
L 93.707107 144.265432 
L 94.742479 144.736948 
L 95.777851 145.977794 
L 96.813223 144.836389 
L 97.848595 145.679981 
L 98.883967 145.282982 
L 99.919339 145.018231 
L 100.954711 145.74636 
L 101.990083 143.744323 
L 103.025455 144.695748 
L 104.060826 145.473216 
L 105.096198 143.405309 
L 106.13157 144.30943 
L 108.202314 143.804852 
L 109.237686 144.469145 
L 110.273058 142.486691 
L 111.30843 142.743304 
L 112.343802 143.225502 
L 113.379174 143.972451 
L 114.414545 144.40531 
L 115.449917 144.496104 
L 116.485289 144.049511 
L 117.520661 144.636745 
L 118.556033 146.224743 
L 119.591405 145.678964 
L 120.626777 146.059432 
L 121.662149 144.537559 
L 122.697521 143.495594 
L 123.732893 144.752462 
L 124.768264 145.406074 
L 125.803636 144.504496 
L 126.839008 145.367163 
L 127.87438 148.451856 
L 128.909752 149.31198 
L 129.945124 151.578005 
L 130.980496 153.471954 
L 132.015868 156.548509 
L 133.05124 154.207967 
L 134.086612 149.510606 
L 135.121983 142.795186 
L 136.157355 142.282469 
L 137.192727 141.215581 
L 138.228099 142.538828 
L 139.263471 141.943201 
L 140.298843 143.026621 
L 141.334215 143.241779 
L 142.369587 145.979066 
L 143.404959 146.921844 
L 144.440331 145.44168 
L 145.475702 141.000423 
L 147.546446 145.218383 
L 148.581818 144.242543 
L 149.61719 145.979066 
L 151.687934 144.606226 
L 152.723306 145.838679 
L 153.758678 150.560709 
L 154.79405 153.906594 
L 155.829421 152.542146 
L 156.864793 141.576466 
L 157.900165 145.868435 
L 158.935537 188.225558 
L 161.006281 133.81781 
L 162.041653 160.656602 
L 163.077025 149.61844 
L 164.112397 149.420067 
L 165.147769 144.037304 
L 166.18314 135.281443 
L 168.253884 138.268985 
L 169.289256 138.06222 
L 170.324628 136.681496 
L 171.36 132.671572 
L 172.395372 131.960483 
L 173.430744 134.259062 
L 174.466116 139.658102 
L 175.501488 137.500164 
L 176.53686 139.079261 
L 178.607603 133.911655 
L 179.642975 136.301282 
L 180.678347 137.814254 
L 181.713719 135.896144 
L 182.749091 134.415979 
L 183.784463 130.981845 
L 184.819835 132.3791 
L 185.855207 137.703878 
L 186.890579 139.415477 
L 187.92595 133.495327 
L 188.961322 133.475999 
L 189.996694 139.296962 
L 191.032066 142.009071 
L 192.067438 142.910395 
L 193.10281 143.629623 
L 194.138182 145.440408 
L 195.173554 146.821386 
L 196.208926 147.050278 
L 197.244298 147.596057 
L 199.315041 146.107754 
L 200.350413 146.438375 
L 201.385785 145.462789 
L 202.421157 145.619706 
L 203.456529 144.453886 
L 204.491901 145.338679 
L 205.527273 145.801802 
L 206.562645 145.906584 
L 207.598017 145.427183 
L 208.633388 145.484915 
L 209.66876 145.69168 
L 210.704132 145.56757 
L 211.739504 146.25399 
L 212.774876 146.303583 
L 213.810248 147.618437 
L 214.84562 147.709231 
L 215.880992 147.188376 
L 216.916364 148.114623 
L 217.951736 148.743057 
L 218.987107 147.047735 
L 220.022479 148.015182 
L 221.057851 146.915486 
L 222.093223 147.312486 
L 223.128595 146.766707 
L 224.163967 148.147685 
L 226.234711 148.618947 
L 227.270083 149.809691 
L 228.305455 147.973982 
L 229.340826 148.461775 
L 230.376198 146.179473 
L 231.41157 145.154294 
L 232.446942 146.551549 
L 233.482314 147.552313 
L 234.517686 148.238479 
L 235.553058 148.776119 
L 237.623802 147.138783 
L 238.659174 147.750686 
L 239.694545 146.270521 
L 240.729917 146.063756 
L 241.765289 145.021791 
L 242.800661 146.168792 
L 243.836033 145.201344 
L 244.871405 146.797226 
L 245.906777 147.119708 
L 246.942149 147.748142 
L 247.977521 147.434052 
L 249.012893 146.896412 
L 250.048264 145.226013 
L 251.083636 146.904805 
L 252.119008 145.407855 
L 253.15438 146.267978 
L 254.189752 145.995088 
L 255.225124 147.125558 
L 256.260496 146.654041 
L 257.295868 147.414978 
L 258.33124 147.861571 
L 259.366612 147.406586 
L 260.401983 146.414214 
L 261.437355 147.084103 
L 262.472727 146.190918 
L 263.508099 144.570112 
L 263.508099 144.570112 
" style="fill:none;stroke:#00bfbf;stroke-opacity:0.4;stroke-width:2;"/>
   </g>
   <g id="text_11">
    <!-- Experimental -->
    <defs>
     <path d="M 9.8125 72.90625 
L 55.90625 72.90625 
L 55.90625 64.59375 
L 19.671875 64.59375 
L 19.671875 43.015625 
L 54.390625 43.015625 
L 54.390625 34.71875 
L 19.671875 34.71875 
L 19.671875 8.296875 
L 56.78125 8.296875 
L 56.78125 0 
L 9.8125 0 
z
" id="DejaVuSans-69"/>
     <path d="M 54.890625 54.6875 
L 35.109375 28.078125 
L 55.90625 0 
L 45.3125 0 
L 29.390625 21.484375 
L 13.484375 0 
L 2.875 0 
L 24.125 28.609375 
L 4.6875 54.6875 
L 15.28125 54.6875 
L 29.78125 35.203125 
L 44.28125 54.6875 
z
" id="DejaVuSans-120"/>
     <path d="M 9.421875 54.6875 
L 18.40625 54.6875 
L 18.40625 0 
L 9.421875 0 
z
M 9.421875 75.984375 
L 18.40625 75.984375 
L 18.40625 64.59375 
L 9.421875 64.59375 
z
" id="DejaVuSans-105"/>
     <path d="M 18.3125 70.21875 
L 18.3125 54.6875 
L 36.8125 54.6875 
L 36.8125 47.703125 
L 18.3125 47.703125 
L 18.3125 18.015625 
Q 18.3125 11.328125 20.140625 9.421875 
Q 21.96875 7.515625 27.59375 7.515625 
L 36.8125 7.515625 
L 36.8125 0 
L 27.59375 0 
Q 17.1875 0 13.234375 3.875 
Q 9.28125 7.765625 9.28125 18.015625 
L 9.28125 47.703125 
L 2.6875 47.703125 
L 2.6875 54.6875 
L 9.28125 54.6875 
L 9.28125 70.21875 
z
" id="DejaVuSans-116"/>
     <path d="M 34.28125 27.484375 
Q 23.390625 27.484375 19.1875 25 
Q 14.984375 22.515625 14.984375 16.5 
Q 14.984375 11.71875 18.140625 8.90625 
Q 21.296875 6.109375 26.703125 6.109375 
Q 34.1875 6.109375 38.703125 11.40625 
Q 43.21875 16.703125 43.21875 25.484375 
L 43.21875 27.484375 
z
M 52.203125 31.203125 
L 52.203125 0 
L 43.21875 0 
L 43.21875 8.296875 
Q 40.140625 3.328125 35.546875 0.953125 
Q 30.953125 -1.421875 24.3125 -1.421875 
Q 15.921875 -1.421875 10.953125 3.296875 
Q 6 8.015625 6 15.921875 
Q 6 25.140625 12.171875 29.828125 
Q 18.359375 34.515625 30.609375 34.515625 
L 43.21875 34.515625 
L 43.21875 35.40625 
Q 43.21875 41.609375 39.140625 45 
Q 35.0625 48.390625 27.6875 48.390625 
Q 23 48.390625 18.546875 47.265625 
Q 14.109375 46.140625 10.015625 43.890625 
L 10.015625 52.203125 
Q 14.9375 54.109375 19.578125 55.046875 
Q 24.21875 56 28.609375 56 
Q 40.484375 56 46.34375 49.84375 
Q 52.203125 43.703125 52.203125 31.203125 
z
" id="DejaVuSans-97"/>
     <path d="M 9.421875 75.984375 
L 18.40625 75.984375 
L 18.40625 0 
L 9.421875 0 
z
" id="DejaVuSans-108"/>
    </defs>
    <g transform="translate(92.751484 45.84)scale(0.2016 -0.2016)">
     <use xlink:href="#DejaVuSans-69"/>
     <use x="63.183594" xlink:href="#DejaVuSans-120"/>
     <use x="122.363281" xlink:href="#DejaVuSans-112"/>
     <use x="185.839844" xlink:href="#DejaVuSans-101"/>
     <use x="247.363281" xlink:href="#DejaVuSans-114"/>
     <use x="288.476562" xlink:href="#DejaVuSans-105"/>
     <use x="316.259766" xlink:href="#DejaVuSans-109"/>
     <use x="413.671875" xlink:href="#DejaVuSans-101"/>
     <use x="475.195312" xlink:href="#DejaVuSans-110"/>
     <use x="538.574219" xlink:href="#DejaVuSans-116"/>
     <use x="577.783203" xlink:href="#DejaVuSans-97"/>
     <use x="639.0625" xlink:href="#DejaVuSans-108"/>
    </g>
   </g>
  </g>
  <g id="axes_2">
   <g id="patch_3">
    <path d="M 319.418182 210.894545 
L 547.2 210.894545 
L 547.2 51.84 
L 319.418182 51.84 
z
" style="fill:#ffffff;"/>
   </g>
   <g id="matplotlib.axis_3">
    <g id="xtick_6">
     <g id="line2d_21">
      <path clip-path="url(#p5538d37514)" d="M 329.771901 210.894545 
L 329.771901 51.84 
" style="fill:none;stroke:#cbcbcb;"/>
     </g>
     <g id="line2d_22"/>
     <g id="text_12">
      <!-- −100 -->
      <g transform="translate(310.54487 225.032358)scale(0.14 -0.14)">
       <use xlink:href="#DejaVuSans-8722"/>
       <use x="83.789062" xlink:href="#DejaVuSans-49"/>
       <use x="147.412109" xlink:href="#DejaVuSans-48"/>
       <use x="211.035156" xlink:href="#DejaVuSans-48"/>
      </g>
     </g>
    </g>
    <g id="xtick_7">
     <g id="line2d_23">
      <path clip-path="url(#p5538d37514)" d="M 381.540496 210.894545 
L 381.540496 51.84 
" style="fill:none;stroke:#cbcbcb;"/>
     </g>
     <g id="line2d_24"/>
     <g id="text_13">
      <!-- −50 -->
      <g transform="translate(366.767215 225.032358)scale(0.14 -0.14)">
       <use xlink:href="#DejaVuSans-8722"/>
       <use x="83.789062" xlink:href="#DejaVuSans-53"/>
       <use x="147.412109" xlink:href="#DejaVuSans-48"/>
      </g>
     </g>
    </g>
    <g id="xtick_8">
     <g id="line2d_25">
      <path clip-path="url(#p5538d37514)" d="M 433.309091 210.894545 
L 433.309091 51.84 
" style="fill:none;stroke:#cbcbcb;"/>
     </g>
     <g id="line2d_26"/>
     <g id="text_14">
      <!-- 0 -->
      <g transform="translate(428.855341 225.032358)scale(0.14 -0.14)">
       <use xlink:href="#DejaVuSans-48"/>
      </g>
     </g>
    </g>
    <g id="xtick_9">
     <g id="line2d_27">
      <path clip-path="url(#p5538d37514)" d="M 485.077686 210.894545 
L 485.077686 51.84 
" style="fill:none;stroke:#cbcbcb;"/>
     </g>
     <g id="line2d_28"/>
     <g id="text_15">
      <!-- 50 -->
      <g transform="translate(476.170186 225.032358)scale(0.14 -0.14)">
       <use xlink:href="#DejaVuSans-53"/>
       <use x="63.623047" xlink:href="#DejaVuSans-48"/>
      </g>
     </g>
    </g>
    <g id="xtick_10">
     <g id="line2d_29">
      <path clip-path="url(#p5538d37514)" d="M 536.846281 210.894545 
L 536.846281 51.84 
" style="fill:none;stroke:#cbcbcb;"/>
     </g>
     <g id="line2d_30"/>
     <g id="text_16">
      <!-- 100 -->
      <g transform="translate(523.485031 225.032358)scale(0.14 -0.14)">
       <use xlink:href="#DejaVuSans-49"/>
       <use x="63.623047" xlink:href="#DejaVuSans-48"/>
       <use x="127.246094" xlink:href="#DejaVuSans-48"/>
      </g>
     </g>
    </g>
    <g id="text_17">
     <!-- bp from TSS -->
     <g transform="translate(381.779028 244.709295)scale(0.168 -0.168)">
      <use xlink:href="#DejaVuSans-98"/>
      <use x="63.476562" xlink:href="#DejaVuSans-112"/>
      <use x="126.953125" xlink:href="#DejaVuSans-32"/>
      <use x="158.740234" xlink:href="#DejaVuSans-102"/>
      <use x="193.945312" xlink:href="#DejaVuSans-114"/>
      <use x="235.027344" xlink:href="#DejaVuSans-111"/>
      <use x="296.208984" xlink:href="#DejaVuSans-109"/>
      <use x="393.621094" xlink:href="#DejaVuSans-32"/>
      <use x="425.408203" xlink:href="#DejaVuSans-84"/>
      <use x="486.492188" xlink:href="#DejaVuSans-83"/>
      <use x="549.96875" xlink:href="#DejaVuSans-83"/>
     </g>
    </g>
   </g>
   <g id="matplotlib.axis_4">
    <g id="ytick_4">
     <g id="line2d_31">
      <path clip-path="url(#p5538d37514)" d="M 319.418182 173.515468 
L 547.2 173.515468 
" style="fill:none;stroke:#cbcbcb;"/>
     </g>
     <g id="line2d_32"/>
     <g id="text_18">
      <!-- 0.2 -->
      <g transform="translate(293.653807 178.834374)scale(0.14 -0.14)">
       <use xlink:href="#DejaVuSans-48"/>
       <use x="63.623047" xlink:href="#DejaVuSans-46"/>
       <use x="95.410156" xlink:href="#DejaVuSans-50"/>
      </g>
     </g>
    </g>
    <g id="ytick_5">
     <g id="line2d_33">
      <path clip-path="url(#p5538d37514)" d="M 319.418182 122.650705 
L 547.2 122.650705 
" style="fill:none;stroke:#cbcbcb;"/>
     </g>
     <g id="line2d_34"/>
     <g id="text_19">
      <!-- 0.4 -->
      <g transform="translate(293.653807 127.969612)scale(0.14 -0.14)">
       <use xlink:href="#DejaVuSans-48"/>
       <use x="63.623047" xlink:href="#DejaVuSans-46"/>
       <use x="95.410156" xlink:href="#DejaVuSans-52"/>
      </g>
     </g>
    </g>
    <g id="ytick_6">
     <g id="line2d_35">
      <path clip-path="url(#p5538d37514)" d="M 319.418182 71.785943 
L 547.2 71.785943 
" style="fill:none;stroke:#cbcbcb;"/>
     </g>
     <g id="line2d_36"/>
     <g id="text_20">
      <!-- 0.6 -->
      <g transform="translate(293.653807 77.104849)scale(0.14 -0.14)">
       <use xlink:href="#DejaVuSans-48"/>
       <use x="63.623047" xlink:href="#DejaVuSans-46"/>
       <use x="95.410156" xlink:href="#DejaVuSans-54"/>
      </g>
     </g>
    </g>
    <g id="text_21">
     <!-- Frequency -->
     <g transform="translate(286.159932 175.547335)rotate(-90)scale(0.168 -0.168)">
      <use xlink:href="#DejaVuSans-70"/>
      <use x="57.410156" xlink:href="#DejaVuSans-114"/>
      <use x="98.492188" xlink:href="#DejaVuSans-101"/>
      <use x="160.015625" xlink:href="#DejaVuSans-113"/>
      <use x="223.492188" xlink:href="#DejaVuSans-117"/>
      <use x="286.871094" xlink:href="#DejaVuSans-101"/>
      <use x="348.394531" xlink:href="#DejaVuSans-110"/>
      <use x="411.773438" xlink:href="#DejaVuSans-99"/>
      <use x="466.753906" xlink:href="#DejaVuSans-121"/>
     </g>
    </g>
   </g>
   <g id="LineCollection_2">
    <path clip-path="url(#p5538d37514)" d="M 433.309091 198.94785 
L 433.309091 59.069752 
" style="fill:none;stroke:#000000;stroke-width:0.5;"/>
   </g>
   <g id="line2d_37">
    <path clip-path="url(#p5538d37514)" d="M 329.771901 148.899212 
L 330.807273 148.01035 
L 331.842645 150.76722 
L 332.878017 149.446263 
L 333.913388 149.82902 
L 334.94876 149.347331 
L 335.984132 149.273322 
L 337.019504 147.791632 
L 338.054876 147.12861 
L 339.090248 149.190667 
L 340.12562 147.897939 
L 341.160992 148.268235 
L 342.196364 148.317573 
L 343.231736 148.058417 
L 344.267107 148.033748 
L 345.302479 148.379374 
L 346.337851 148.391836 
L 347.373223 147.095548 
L 348.408595 147.552313 
L 349.443967 146.786798 
L 350.479339 147.070624 
L 351.514711 146.083084 
L 352.550083 147.852161 
L 353.585455 147.210248 
L 354.620826 146.284509 
L 355.656198 146.905313 
L 356.69157 148.16447 
L 357.726942 148.152263 
L 358.762314 146.275862 
L 359.797686 147.621489 
L 360.833058 148.431256 
L 361.86843 146.727795 
L 362.903802 146.986951 
L 363.939174 147.011621 
L 364.974545 147.949821 
L 366.009917 147.900482 
L 367.045289 147.357247 
L 368.080661 146.15989 
L 369.116033 146.085882 
L 370.151405 147.690665 
L 371.186777 147.863351 
L 374.292893 146.641325 
L 375.328264 145.703379 
L 376.363636 145.999412 
L 377.399008 147.468386 
L 379.469752 146.665995 
L 380.505124 146.678456 
L 381.540496 146.928965 
L 382.575868 146.904296 
L 383.61124 147.397939 
L 384.646612 147.262384 
L 385.681983 149.237208 
L 386.717355 145.87988 
L 387.752727 147.904043 
L 388.788099 147.299261 
L 389.823471 147.167267 
L 390.858843 147.5251 
L 391.894215 147.364876 
L 392.929587 147.377084 
L 393.964959 145.426929 
L 395.000331 146.619453 
L 397.071074 147.354958 
L 399.141818 147.638783 
L 400.17719 145.923623 
L 401.212562 147.305619 
L 402.247934 146.392596 
L 403.283306 148.514929 
L 404.318678 147.95974 
L 405.35405 145.602667 
L 406.389421 146.244326 
L 407.424793 146.540613 
L 408.460165 147.021794 
L 409.495537 147.132933 
L 410.530909 146.849108 
L 411.566281 147.753738 
L 412.601653 146.9516 
L 413.637025 146.643105 
L 414.672397 147.284764 
L 417.778512 146.186594 
L 418.813884 148.271795 
L 419.849256 147.580797 
L 420.884628 146.075455 
L 421.92 148.543413 
L 422.955372 148.041123 
L 423.990744 149.509335 
L 425.026116 146.572912 
L 426.061488 148.954146 
L 427.09686 142.873264 
L 428.132231 148.434562 
L 429.167603 145.121486 
L 430.202975 150.423375 
L 431.238347 148.216353 
L 432.273719 145.61462 
L 433.309091 149.526883 
L 434.344463 148.109028 
L 435.379835 147.517216 
L 436.415207 151.511881 
L 437.450579 145.692443 
L 438.48595 148.183036 
L 439.521322 147.258315 
L 440.556694 145.938883 
L 441.592066 147.303839 
L 442.627438 149.116405 
L 443.66281 146.946259 
L 444.698182 146.625557 
L 445.733554 148.167014 
L 446.768926 147.476525 
L 447.804298 145.824183 
L 448.839669 148.25323 
L 449.875041 145.589951 
L 450.910413 148.425915 
L 451.945785 148.857503 
L 452.981157 147.044937 
L 454.016529 148.401246 
L 455.051901 150.152011 
L 456.087273 148.462792 
L 458.158017 149.436853 
L 459.193388 148.647686 
L 460.22876 148.203891 
L 461.264132 149.473984 
L 463.334876 147.957197 
L 464.370248 149.387514 
L 465.40562 147.710757 
L 466.440992 148.241022 
L 467.476364 146.958467 
L 468.511736 146.465333 
L 470.582479 149.251959 
L 471.617851 148.413454 
L 472.653223 147.772303 
L 473.688595 148.413454 
L 476.794711 147.932781 
L 477.830083 148.956181 
L 478.865455 148.117675 
L 479.900826 148.117675 
L 480.936198 149.239752 
L 481.97157 148.401246 
L 483.006942 148.746363 
L 484.042314 149.449314 
L 486.113058 147.575202 
L 487.14843 149.350637 
L 488.183802 148.734156 
L 489.219174 150.694738 
L 490.254545 148.672355 
L 491.289917 148.746363 
L 492.325289 150.263151 
L 493.360661 150.028918 
L 494.396033 148.512131 
L 495.431405 149.20262 
L 496.466777 148.758825 
L 497.502149 149.572661 
L 498.537521 148.080544 
L 499.572893 149.325967 
L 500.608264 147.22983 
L 501.643636 147.377847 
L 502.679008 147.957197 
L 503.71438 148.129882 
L 504.749752 149.251959 
L 505.785124 148.241022 
L 506.820496 147.981866 
L 507.855868 149.53553 
L 510.961983 146.958467 
L 511.997355 148.943719 
L 513.032727 148.623271 
L 514.068099 148.475254 
L 515.103471 148.018997 
L 516.138843 148.549262 
L 517.174215 148.475254 
L 518.209587 149.141074 
L 519.244959 147.883443 
L 520.280331 148.86971 
L 521.315702 148.314776 
L 522.351074 149.165743 
L 523.386446 149.20262 
L 524.421818 148.339445 
L 526.492562 148.216353 
L 527.527934 150.50959 
L 528.563306 149.350637 
L 529.598678 148.684817 
L 530.63405 148.536801 
L 531.669421 147.981866 
L 532.704793 149.64667 
L 533.740165 148.512131 
L 534.775537 148.89438 
L 535.810909 149.671339 
L 536.846281 149.149721 
L 536.846281 149.149721 
" style="fill:none;stroke:#0000ff;stroke-width:2;"/>
   </g>
   <g id="line2d_38">
    <path clip-path="url(#p5538d37514)" d="M 329.771901 173.97732 
L 330.807273 174.310739 
L 331.842645 173.226556 
L 332.878017 174.819386 
L 333.913388 174.609315 
L 334.94876 174.115418 
L 335.984132 174.12788 
L 337.019504 175.905858 
L 338.054876 173.698073 
L 339.090248 175.006823 
L 340.12562 175.503263 
L 341.160992 174.564808 
L 343.231736 174.527931 
L 344.267107 175.54014 
L 345.302479 175.182052 
L 346.337851 174.29319 
L 347.373223 175.614148 
L 348.408595 175.762419 
L 349.443967 176.70062 
L 350.479339 176.639073 
L 351.514711 175.429001 
L 352.550083 175.184595 
L 353.585455 176.65357 
L 354.620826 176.258605 
L 355.656198 175.668319 
L 357.726942 175.865929 
L 359.797686 177.705199 
L 360.833058 175.919846 
L 361.86843 176.993855 
L 362.903802 176.907385 
L 363.939174 176.487751 
L 364.974545 177.290142 
L 366.009917 177.30235 
L 367.045289 176.71003 
L 368.080661 177.672645 
L 369.116033 177.401282 
L 370.151405 176.895177 
L 371.186777 177.314812 
L 372.222149 176.51242 
L 373.257521 177.709777 
L 374.292893 177.968933 
L 375.328264 178.104741 
L 376.363636 177.981394 
L 377.399008 177.154333 
L 378.43438 176.907385 
L 379.469752 177.438159 
L 380.505124 177.685107 
L 381.540496 178.946299 
L 382.575868 179.329056 
L 383.61124 178.613135 
L 384.646612 178.637804 
L 385.681983 177.465117 
L 386.717355 178.835159 
L 387.752727 177.477579 
L 388.788099 178.650012 
L 389.823471 178.380683 
L 390.858843 177.380936 
L 391.894215 178.133989 
L 392.929587 178.195535 
L 393.964959 179.121274 
L 395.000331 179.039381 
L 396.035702 178.202402 
L 399.141818 178.537855 
L 400.17719 180.03099 
L 401.212562 179.524886 
L 404.318678 178.747672 
L 405.35405 180.043198 
L 406.389421 180.203676 
L 407.424793 179.339992 
L 408.460165 178.957235 
L 409.495537 179.94452 
L 410.530909 179.315068 
L 411.566281 178.959524 
L 412.601653 178.860846 
L 413.637025 178.552351 
L 414.672397 178.465881 
L 415.707769 179.379158 
L 416.74314 179.638314 
L 417.778512 178.762169 
L 418.813884 179.416035 
L 419.849256 179.650522 
L 420.884628 181.402813 
L 421.92 179.391366 
L 422.955372 179.603472 
L 423.990744 178.332361 
L 425.026116 178.603979 
L 426.061488 178.665525 
L 427.09686 183.552866 
L 428.132231 181.579822 
L 429.167603 179.140602 
L 430.202975 176.119744 
L 431.238347 177.106012 
L 432.273719 177.167813 
L 433.309091 174.777932 
L 434.344463 183.002001 
L 435.379835 182.262173 
L 436.415207 176.775391 
L 437.450579 178.637296 
L 438.48595 178.550825 
L 439.521322 180.388061 
L 440.556694 178.057692 
L 441.592066 181.21207 
L 442.627438 178.363643 
L 443.66281 179.584397 
L 444.698182 179.683075 
L 445.733554 179.54752 
L 446.768926 178.696553 
L 447.804298 180.817359 
L 448.839669 176.859318 
L 449.875041 179.683075 
L 450.910413 179.584397 
L 451.945785 178.893908 
L 452.981157 179.88043 
L 454.016529 179.867968 
L 455.051901 177.84584 
L 456.087273 177.389583 
L 457.122645 179.424173 
L 458.158017 178.067865 
L 460.22876 179.757083 
L 461.264132 178.857031 
L 462.299504 178.8199 
L 464.370248 179.448843 
L 465.40562 177.771832 
L 466.440992 178.745892 
L 467.476364 178.745892 
L 468.511736 179.411712 
L 469.547107 178.93104 
L 470.582479 178.992586 
L 471.617851 178.264965 
L 472.653223 178.671884 
L 473.688595 178.400774 
L 474.723967 178.881701 
L 475.759339 178.783023 
L 476.794711 177.993856 
L 477.830083 178.635007 
L 478.865455 180.435111 
L 479.900826 178.857031 
L 480.936198 178.807692 
L 481.97157 180.657135 
L 483.006942 179.103471 
L 484.042314 178.030733 
L 485.077686 180.139332 
L 486.113058 179.411712 
L 487.14843 179.436381 
L 488.183802 180.509119 
L 489.219174 178.524121 
L 490.254545 179.744621 
L 491.289917 179.473512 
L 492.325289 178.425444 
L 493.360661 179.387042 
L 494.396033 179.288619 
L 495.431405 178.141873 
L 496.466777 178.425444 
L 497.502149 180.583127 
L 498.537521 179.54752 
L 499.572893 177.340244 
L 500.608264 179.596859 
L 501.643636 179.399504 
L 502.679008 177.981394 
L 503.71438 179.103471 
L 504.749752 178.351436 
L 505.785124 178.030733 
L 506.820496 179.078802 
L 507.855868 178.437651 
L 508.89124 177.648485 
L 509.926612 180.015985 
L 510.961983 178.055403 
L 511.997355 178.363643 
L 513.032727 178.141873 
L 514.068099 179.177479 
L 515.103471 179.300826 
L 517.174215 178.548791 
L 518.209587 178.499452 
L 519.244959 180.028192 
L 520.280331 177.451384 
L 521.315702 177.648485 
L 522.351074 179.029463 
L 523.386446 178.289635 
L 524.421818 178.610337 
L 525.45719 179.214611 
L 526.492562 178.080072 
L 527.527934 177.895179 
L 528.563306 177.303367 
L 529.598678 178.228089 
L 530.63405 177.143143 
L 531.669421 178.215881 
L 533.740165 177.500722 
L 534.775537 179.325496 
L 535.810909 178.215881 
L 536.846281 178.731395 
L 536.846281 178.731395 
" style="fill:none;stroke:#008000;stroke-opacity:0.8;stroke-width:2;"/>
   </g>
   <g id="line2d_39">
    <path clip-path="url(#p5538d37514)" d="M 329.771901 174.100667 
L 330.807273 173.940189 
L 331.842645 173.448835 
L 332.878017 172.781998 
L 334.94876 173.905601 
L 335.984132 173.918063 
L 337.019504 174.942733 
L 338.054876 174.673659 
L 339.090248 173.278438 
L 340.12562 174.614147 
L 341.160992 173.762417 
L 342.196364 173.861094 
L 343.231736 174.564808 
L 344.267107 175.404331 
L 345.302479 173.515468 
L 346.337851 174.737748 
L 348.408595 174.515469 
L 349.443967 173.910433 
L 350.479339 175.441462 
L 351.514711 176.021575 
L 352.550083 175.332612 
L 353.585455 173.703159 
L 354.620826 175.740039 
L 355.656198 175.53251 
L 356.69157 174.915267 
L 357.726942 175.026406 
L 358.762314 176.063284 
L 359.797686 175.495633 
L 360.833058 175.919846 
L 361.86843 175.562012 
L 362.903802 175.500211 
L 363.939174 177.203672 
L 364.974545 175.253517 
L 366.009917 175.907638 
L 367.045289 176.154586 
L 368.080661 177.006063 
L 369.116033 176.450619 
L 370.151405 176.240802 
L 371.186777 175.278187 
L 372.222149 176.389073 
L 373.257521 175.537343 
L 374.292893 176.438412 
L 375.328264 176.228595 
L 376.363636 175.821168 
L 377.399008 176.919847 
L 378.43438 176.561759 
L 379.469752 176.858046 
L 380.505124 176.315065 
L 381.540496 175.947058 
L 382.575868 174.749702 
L 383.61124 175.576763 
L 384.646612 175.959266 
L 385.681983 174.367199 
L 386.717355 177.033275 
L 387.752727 175.280476 
L 388.788099 175.67544 
L 389.823471 176.541667 
L 390.858843 176.801078 
L 391.894215 176.183834 
L 392.929587 176.640599 
L 393.964959 177.739024 
L 395.000331 176.497161 
L 396.035702 177.054638 
L 397.071074 176.36593 
L 398.106446 176.612878 
L 399.141818 176.032765 
L 400.17719 176.156112 
L 401.212562 175.563792 
L 402.247934 176.464607 
L 403.283306 175.588462 
L 404.318678 175.786071 
L 405.35405 176.810233 
L 406.389421 176.42773 
L 408.460165 176.156112 
L 409.495537 175.415776 
L 410.530909 176.193244 
L 411.566281 175.28251 
L 412.601653 176.615167 
L 413.637025 175.850161 
L 414.672397 175.985715 
L 415.707769 174.862876 
L 416.74314 175.430527 
L 417.778512 176.368218 
L 418.813884 175.603212 
L 419.849256 176.442227 
L 420.884628 176.306672 
L 421.92 175.887038 
L 422.955372 176.062267 
L 423.990744 175.655094 
L 425.026116 178.443501 
L 426.061488 176.086936 
L 427.09686 181.148235 
L 428.132231 172.750971 
L 429.167603 179.12814 
L 430.202975 177.84584 
L 431.238347 180.422903 
L 433.309091 176.676713 
L 434.344463 167.910426 
L 435.379835 176.972746 
L 436.415207 176.972746 
L 437.450579 178.427478 
L 439.521322 176.923407 
L 440.556694 175.209519 
L 441.592066 175.367454 
L 442.627438 177.106012 
L 443.66281 175.762165 
L 444.698182 176.131952 
L 445.733554 176.87178 
L 446.768926 176.84711 
L 447.804298 177.636277 
L 448.839669 176.748433 
L 449.875041 175.404586 
L 450.910413 177.685616 
L 451.945785 177.463591 
L 452.981157 176.711556 
L 454.016529 175.737495 
L 455.051901 177.352706 
L 456.087273 178.548791 
L 457.122645 176.021066 
L 458.158017 175.367454 
L 459.193388 175.835919 
L 460.22876 175.268777 
L 462.299504 176.415523 
L 463.334876 177.870509 
L 464.370248 175.367454 
L 465.40562 175.268777 
L 466.440992 176.699094 
L 467.476364 177.426714 
L 468.511736 176.575747 
L 469.547107 176.440192 
L 470.582479 176.625086 
L 471.617851 176.008605 
L 472.653223 176.600416 
L 473.688595 176.193498 
L 474.723967 175.083883 
L 475.759339 176.107282 
L 477.830083 175.577017 
L 479.900826 175.737495 
L 480.936198 173.579558 
L 481.97157 174.985206 
L 483.006942 174.960536 
L 484.042314 174.492072 
L 485.077686 174.972998 
L 486.113058 175.293446 
L 487.14843 172.81506 
L 488.183802 174.442733 
L 489.219174 173.90026 
L 490.254545 174.368725 
L 491.289917 175.959266 
L 492.325289 173.653566 
L 493.360661 173.308194 
L 494.396033 174.109823 
L 495.431405 175.318115 
L 496.466777 173.998938 
L 497.502149 173.444003 
L 498.537521 174.171369 
L 499.572893 174.035815 
L 500.608264 174.923659 
L 501.643636 174.960536 
L 502.679008 175.157891 
L 503.71438 175.56481 
L 504.749752 175.54014 
L 505.785124 175.133222 
L 506.820496 175.318115 
L 507.855868 174.220708 
L 508.89124 173.863129 
L 509.926612 174.171369 
L 510.961983 175.2319 
L 511.997355 174.196039 
L 513.032727 175.429001 
L 514.068099 174.640088 
L 515.103471 173.25911 
L 516.138843 173.875591 
L 517.174215 175.219438 
L 518.209587 175.330577 
L 519.244959 174.356517 
L 520.280331 174.81252 
L 521.315702 174.627626 
L 522.351074 174.775643 
L 523.386446 174.45494 
L 524.421818 174.87432 
L 525.45719 174.553618 
L 526.492562 174.997667 
L 527.527934 173.345326 
L 528.563306 175.87305 
L 529.598678 174.627626 
L 530.63405 174.775643 
L 531.669421 175.083883 
L 532.704793 174.935867 
L 533.740165 175.416793 
L 534.775537 174.923659 
L 535.810909 175.87305 
L 536.846281 175.599398 
L 536.846281 175.599398 
" style="fill:none;stroke:#ff0000;stroke-opacity:0.6;stroke-width:2;"/>
   </g>
   <g id="line2d_40">
    <path clip-path="url(#p5538d37514)" d="M 329.771901 146.219911 
L 330.807273 146.936086 
L 331.842645 145.754498 
L 332.878017 146.149463 
L 333.913388 145.371741 
L 334.94876 145.828506 
L 335.984132 145.877845 
L 337.019504 144.556887 
L 338.054876 147.696769 
L 339.090248 145.721182 
L 340.12562 145.181761 
L 341.160992 146.601651 
L 342.196364 146.45338 
L 343.231736 146.045953 
L 344.267107 144.218891 
L 345.302479 146.120216 
L 346.337851 145.774335 
L 347.373223 145.873267 
L 348.408595 145.366909 
L 349.443967 145.799005 
L 350.479339 144.045951 
L 351.514711 145.663196 
L 352.550083 144.827742 
L 353.585455 145.630134 
L 354.620826 144.913958 
L 355.656198 145.090713 
L 356.69157 144.33766 
L 357.726942 144.152512 
L 358.762314 144.103174 
L 359.797686 142.375043 
L 360.833058 142.925909 
L 361.86843 143.913448 
L 362.903802 143.802308 
L 363.939174 142.494067 
L 364.974545 142.703884 
L 366.009917 142.08664 
L 367.045289 142.975502 
L 368.080661 142.358258 
L 369.116033 143.259327 
L 370.151405 142.370465 
L 371.186777 142.740761 
L 373.257521 142.987709 
L 374.292893 142.148441 
L 375.328264 143.160649 
L 376.363636 143.395136 
L 377.399008 141.654544 
L 378.43438 142.604952 
L 379.469752 142.234656 
L 380.505124 142.518736 
L 381.540496 141.374788 
L 382.575868 142.214056 
L 383.61124 141.609274 
L 384.646612 141.337656 
L 385.681983 142.127586 
L 386.717355 141.448796 
L 387.752727 142.535013 
L 388.788099 141.572143 
L 389.823471 141.107239 
L 390.858843 141.489996 
L 391.894215 141.514666 
L 392.929587 140.983892 
L 393.964959 140.909884 
L 395.000331 141.041369 
L 396.035702 140.921837 
L 397.071074 141.185062 
L 398.106446 140.592742 
L 399.141818 140.987707 
L 400.17719 141.086384 
L 401.212562 140.802559 
L 402.247934 141.037046 
L 403.283306 140.099099 
L 404.318678 140.703881 
L 405.35405 140.741013 
L 406.389421 140.321378 
L 407.424793 141.061715 
L 408.460165 141.061715 
L 409.495537 140.703881 
L 410.530909 140.83969 
L 411.566281 141.201593 
L 412.601653 140.769751 
L 413.637025 142.151747 
L 414.672397 141.460749 
L 415.707769 142.065277 
L 416.74314 141.608766 
L 417.778512 141.880129 
L 418.813884 139.905813 
L 419.849256 139.52331 
L 421.92 139.375294 
L 423.990744 139.70032 
L 426.061488 139.490502 
L 427.09686 135.622746 
L 428.132231 140.431755 
L 429.167603 139.807136 
L 430.202975 138.808152 
L 431.238347 137.451843 
L 432.273719 141.927942 
L 433.309091 142.215328 
L 434.344463 144.17591 
L 435.379835 136.445229 
L 436.415207 137.937093 
L 437.450579 140.439893 
L 438.48595 138.750675 
L 439.521322 138.627582 
L 440.556694 143.990762 
L 441.592066 139.313747 
L 442.627438 138.611051 
L 443.66281 140.904289 
L 444.698182 140.756526 
L 445.733554 138.611051 
L 446.768926 140.176922 
L 447.804298 138.919291 
L 448.839669 141.335876 
L 449.875041 142.519753 
L 450.910413 137.501182 
L 451.945785 137.982108 
L 452.981157 139.560442 
L 454.016529 139.1904 
L 455.051901 137.846553 
L 456.087273 138.795944 
L 457.122645 138.771275 
L 458.158017 140.324939 
L 459.193388 139.819343 
L 460.22876 139.96736 
L 461.264132 139.067308 
L 462.299504 139.289078 
L 463.334876 138.204133 
L 464.370248 138.993299 
L 465.40562 142.445745 
L 466.440992 139.511103 
L 468.511736 140.744065 
L 469.547107 139.96736 
L 470.582479 138.32748 
L 471.617851 140.509832 
L 472.653223 140.152253 
L 473.688595 140.189384 
L 474.723967 140.953627 
L 475.759339 140.213799 
L 476.794711 141.373007 
L 477.830083 140.028906 
L 478.865455 138.956168 
L 479.900826 140.485163 
L 480.936198 141.570363 
L 481.97157 139.153523 
L 483.006942 140.386485 
L 484.042314 141.224991 
L 485.077686 139.60978 
L 486.113058 140.91675 
L 487.14843 141.595032 
L 488.183802 139.511103 
L 489.219174 140.078245 
L 490.254545 140.411155 
L 491.289917 139.017969 
L 492.325289 140.855204 
L 493.360661 140.472955 
L 494.396033 141.286537 
L 495.431405 140.534502 
L 496.466777 142.014158 
L 497.502149 139.597319 
L 498.537521 141.397677 
L 499.572893 142.495084 
L 500.608264 141.447016 
L 501.643636 141.459223 
L 502.679008 142.100373 
L 503.71438 140.398947 
L 504.749752 140.053575 
L 505.785124 141.792133 
L 506.820496 140.818073 
L 507.855868 141.002966 
L 508.89124 143.037557 
L 509.926612 141.163445 
L 510.961983 142.951341 
L 511.997355 141.693455 
L 513.032727 141.002966 
L 514.068099 140.904289 
L 515.103471 142.618431 
L 518.209587 140.226261 
L 519.244959 140.928958 
L 520.280331 142.063497 
L 521.315702 142.605969 
L 522.351074 140.226261 
L 523.386446 141.24966 
L 524.421818 141.373007 
L 525.45719 141.175652 
L 526.492562 141.903273 
L 527.527934 141.447016 
L 528.563306 140.670056 
L 530.63405 142.741524 
L 531.669421 141.91548 
L 532.704793 140.707188 
L 533.740165 141.767464 
L 534.775537 140.053575 
L 535.810909 139.437094 
L 536.846281 139.716596 
L 536.846281 139.716596 
" style="fill:none;stroke:#00bfbf;stroke-opacity:0.4;stroke-width:2;"/>
   </g>
   <g id="text_22">
    <!-- RefSeq -->
    <defs>
     <path d="M 44.390625 34.1875 
Q 47.5625 33.109375 50.5625 29.59375 
Q 53.5625 26.078125 56.59375 19.921875 
L 66.609375 0 
L 56 0 
L 46.6875 18.703125 
Q 43.0625 26.03125 39.671875 28.421875 
Q 36.28125 30.8125 30.421875 30.8125 
L 19.671875 30.8125 
L 19.671875 0 
L 9.8125 0 
L 9.8125 72.90625 
L 32.078125 72.90625 
Q 44.578125 72.90625 50.734375 67.671875 
Q 56.890625 62.453125 56.890625 51.90625 
Q 56.890625 45.015625 53.6875 40.46875 
Q 50.484375 35.9375 44.390625 34.1875 
z
M 19.671875 64.796875 
L 19.671875 38.921875 
L 32.078125 38.921875 
Q 39.203125 38.921875 42.84375 42.21875 
Q 46.484375 45.515625 46.484375 51.90625 
Q 46.484375 58.296875 42.84375 61.546875 
Q 39.203125 64.796875 32.078125 64.796875 
z
" id="DejaVuSans-82"/>
    </defs>
    <g transform="translate(397.559741 45.84)scale(0.2016 -0.2016)">
     <use xlink:href="#DejaVuSans-82"/>
     <use x="69.419922" xlink:href="#DejaVuSans-101"/>
     <use x="130.943359" xlink:href="#DejaVuSans-102"/>
     <use x="166.148438" xlink:href="#DejaVuSans-83"/>
     <use x="229.625" xlink:href="#DejaVuSans-101"/>
     <use x="291.148438" xlink:href="#DejaVuSans-113"/>
    </g>
   </g>
   <g id="legend_1">
    <g id="patch_4">
     <path d="M 566.111273 70.04 
L 571.711273 70.04 
Q 574.511273 70.04 574.511273 67.24 
L 574.511273 61.64 
Q 574.511273 58.84 571.711273 58.84 
L 566.111273 58.84 
Q 563.311273 58.84 563.311273 61.64 
L 563.311273 67.24 
Q 563.311273 70.04 566.111273 70.04 
z
" style="fill:#f0f0f0;opacity:0.8;stroke:#cccccc;stroke-linejoin:miter;stroke-width:0.5;"/>
    </g>
   </g>
  </g>
 </g>
 <defs>
  <clipPath id="pb027905b9b">
   <rect height="159.054545" width="227.781818" x="46.08" y="51.84"/>
  </clipPath>
  <clipPath id="p5538d37514">
   <rect height="159.054545" width="227.781818" x="319.418182" y="51.84"/>
  </clipPath>
 </defs>
</svg>
