<?xml version="1.0" encoding="utf-8" standalone="no"?>
<!DOCTYPE svg PUBLIC "-//W3C//DTD SVG 1.1//EN"
  "http://www.w3.org/Graphics/SVG/1.1/DTD/svg11.dtd">
<!-- Created with matplotlib (https://matplotlib.org/) -->
<svg height="432pt" version="1.1" viewBox="0 0 576 432" width="576pt" xmlns="http://www.w3.org/2000/svg" xmlns:xlink="http://www.w3.org/1999/xlink">
 <defs>
  <style type="text/css">
*{stroke-linecap:butt;stroke-linejoin:round;}
  </style>
 </defs>
 <g id="figure_1">
  <g id="patch_1">
   <path d="M 0 432 
L 576 432 
L 576 0 
L 0 0 
z
" style="fill:#f0f0f0;"/>
  </g>
  <g id="axes_1">
   <g id="patch_2">
    <path d="M 46.08 210.894545 
L 273.861818 210.894545 
L 273.861818 51.84 
L 46.08 51.84 
z
" style="fill:#ffffff;"/>
   </g>
   <g id="matplotlib.axis_1">
    <g id="xtick_1">
     <g id="line2d_1">
      <path clip-path="url(#p795ded86d8)" d="M 56.433719 210.894545 
L 56.433719 51.84 
" style="fill:none;stroke:#ffffff;"/>
     </g>
     <g id="line2d_2"/>
     <g id="text_1">
      <!-- −100 -->
      <defs>
       <path d="M 10.59375 35.5 
L 73.1875 35.5 
L 73.1875 27.203125 
L 10.59375 27.203125 
z
" id="DejaVuSans-8722"/>
       <path d="M 12.40625 8.296875 
L 28.515625 8.296875 
L 28.515625 63.921875 
L 10.984375 60.40625 
L 10.984375 69.390625 
L 28.421875 72.90625 
L 38.28125 72.90625 
L 38.28125 8.296875 
L 54.390625 8.296875 
L 54.390625 0 
L 12.40625 0 
z
" id="DejaVuSans-49"/>
       <path d="M 31.78125 66.40625 
Q 24.171875 66.40625 20.328125 58.90625 
Q 16.5 51.421875 16.5 36.375 
Q 16.5 21.390625 20.328125 13.890625 
Q 24.171875 6.390625 31.78125 6.390625 
Q 39.453125 6.390625 43.28125 13.890625 
Q 47.125 21.390625 47.125 36.375 
Q 47.125 51.421875 43.28125 58.90625 
Q 39.453125 66.40625 31.78125 66.40625 
z
M 31.78125 74.21875 
Q 44.046875 74.21875 50.515625 64.515625 
Q 56.984375 54.828125 56.984375 36.375 
Q 56.984375 17.96875 50.515625 8.265625 
Q 44.046875 -1.421875 31.78125 -1.421875 
Q 19.53125 -1.421875 13.0625 8.265625 
Q 6.59375 17.96875 6.59375 36.375 
Q 6.59375 54.828125 13.0625 64.515625 
Q 19.53125 74.21875 31.78125 74.21875 
z
" id="DejaVuSans-48"/>
      </defs>
      <g style="fill:#555555;" transform="translate(42.700125 221.992983)scale(0.1 -0.1)">
       <use xlink:href="#DejaVuSans-8722"/>
       <use x="83.789062" xlink:href="#DejaVuSans-49"/>
       <use x="147.412109" xlink:href="#DejaVuSans-48"/>
       <use x="211.035156" xlink:href="#DejaVuSans-48"/>
      </g>
     </g>
    </g>
    <g id="xtick_2">
     <g id="line2d_3">
      <path clip-path="url(#p795ded86d8)" d="M 108.202314 210.894545 
L 108.202314 51.84 
" style="fill:none;stroke:#ffffff;"/>
     </g>
     <g id="line2d_4"/>
     <g id="text_2">
      <!-- −50 -->
      <defs>
       <path d="M 10.796875 72.90625 
L 49.515625 72.90625 
L 49.515625 64.59375 
L 19.828125 64.59375 
L 19.828125 46.734375 
Q 21.96875 47.46875 24.109375 47.828125 
Q 26.265625 48.1875 28.421875 48.1875 
Q 40.625 48.1875 47.75 41.5 
Q 54.890625 34.8125 54.890625 23.390625 
Q 54.890625 11.625 47.5625 5.09375 
Q 40.234375 -1.421875 26.90625 -1.421875 
Q 22.3125 -1.421875 17.546875 -0.640625 
Q 12.796875 0.140625 7.71875 1.703125 
L 7.71875 11.625 
Q 12.109375 9.234375 16.796875 8.0625 
Q 21.484375 6.890625 26.703125 6.890625 
Q 35.15625 6.890625 40.078125 11.328125 
Q 45.015625 15.765625 45.015625 23.390625 
Q 45.015625 31 40.078125 35.4375 
Q 35.15625 39.890625 26.703125 39.890625 
Q 22.75 39.890625 18.8125 39.015625 
Q 14.890625 38.140625 10.796875 36.28125 
z
" id="DejaVuSans-53"/>
      </defs>
      <g style="fill:#555555;" transform="translate(97.64997 221.992983)scale(0.1 -0.1)">
       <use xlink:href="#DejaVuSans-8722"/>
       <use x="83.789062" xlink:href="#DejaVuSans-53"/>
       <use x="147.412109" xlink:href="#DejaVuSans-48"/>
      </g>
     </g>
    </g>
    <g id="xtick_3">
     <g id="line2d_5">
      <path clip-path="url(#p795ded86d8)" d="M 159.970909 210.894545 
L 159.970909 51.84 
" style="fill:none;stroke:#ffffff;"/>
     </g>
     <g id="line2d_6"/>
     <g id="text_3">
      <!-- 0 -->
      <g style="fill:#555555;" transform="translate(156.789659 221.992983)scale(0.1 -0.1)">
       <use xlink:href="#DejaVuSans-48"/>
      </g>
     </g>
    </g>
    <g id="xtick_4">
     <g id="line2d_7">
      <path clip-path="url(#p795ded86d8)" d="M 211.739504 210.894545 
L 211.739504 51.84 
" style="fill:none;stroke:#ffffff;"/>
     </g>
     <g id="line2d_8"/>
     <g id="text_4">
      <!-- 50 -->
      <g style="fill:#555555;" transform="translate(205.377004 221.992983)scale(0.1 -0.1)">
       <use xlink:href="#DejaVuSans-53"/>
       <use x="63.623047" xlink:href="#DejaVuSans-48"/>
      </g>
     </g>
    </g>
    <g id="xtick_5">
     <g id="line2d_9">
      <path clip-path="url(#p795ded86d8)" d="M 263.508099 210.894545 
L 263.508099 51.84 
" style="fill:none;stroke:#ffffff;"/>
     </g>
     <g id="line2d_10"/>
     <g id="text_5">
      <!-- 100 -->
      <g style="fill:#555555;" transform="translate(253.964349 221.992983)scale(0.1 -0.1)">
       <use xlink:href="#DejaVuSans-49"/>
       <use x="63.623047" xlink:href="#DejaVuSans-48"/>
       <use x="127.246094" xlink:href="#DejaVuSans-48"/>
      </g>
     </g>
    </g>
    <g id="text_6">
     <!-- bp from TSS -->
     <defs>
      <path d="M 48.6875 27.296875 
Q 48.6875 37.203125 44.609375 42.84375 
Q 40.53125 48.484375 33.40625 48.484375 
Q 26.265625 48.484375 22.1875 42.84375 
Q 18.109375 37.203125 18.109375 27.296875 
Q 18.109375 17.390625 22.1875 11.75 
Q 26.265625 6.109375 33.40625 6.109375 
Q 40.53125 6.109375 44.609375 11.75 
Q 48.6875 17.390625 48.6875 27.296875 
z
M 18.109375 46.390625 
Q 20.953125 51.265625 25.265625 53.625 
Q 29.59375 56 35.59375 56 
Q 45.5625 56 51.78125 48.09375 
Q 58.015625 40.1875 58.015625 27.296875 
Q 58.015625 14.40625 51.78125 6.484375 
Q 45.5625 -1.421875 35.59375 -1.421875 
Q 29.59375 -1.421875 25.265625 0.953125 
Q 20.953125 3.328125 18.109375 8.203125 
L 18.109375 0 
L 9.078125 0 
L 9.078125 75.984375 
L 18.109375 75.984375 
z
" id="DejaVuSans-98"/>
      <path d="M 18.109375 8.203125 
L 18.109375 -20.796875 
L 9.078125 -20.796875 
L 9.078125 54.6875 
L 18.109375 54.6875 
L 18.109375 46.390625 
Q 20.953125 51.265625 25.265625 53.625 
Q 29.59375 56 35.59375 56 
Q 45.5625 56 51.78125 48.09375 
Q 58.015625 40.1875 58.015625 27.296875 
Q 58.015625 14.40625 51.78125 6.484375 
Q 45.5625 -1.421875 35.59375 -1.421875 
Q 29.59375 -1.421875 25.265625 0.953125 
Q 20.953125 3.328125 18.109375 8.203125 
z
M 48.6875 27.296875 
Q 48.6875 37.203125 44.609375 42.84375 
Q 40.53125 48.484375 33.40625 48.484375 
Q 26.265625 48.484375 22.1875 42.84375 
Q 18.109375 37.203125 18.109375 27.296875 
Q 18.109375 17.390625 22.1875 11.75 
Q 26.265625 6.109375 33.40625 6.109375 
Q 40.53125 6.109375 44.609375 11.75 
Q 48.6875 17.390625 48.6875 27.296875 
z
" id="DejaVuSans-112"/>
      <path id="DejaVuSans-32"/>
      <path d="M 37.109375 75.984375 
L 37.109375 68.5 
L 28.515625 68.5 
Q 23.6875 68.5 21.796875 66.546875 
Q 19.921875 64.59375 19.921875 59.515625 
L 19.921875 54.6875 
L 34.71875 54.6875 
L 34.71875 47.703125 
L 19.921875 47.703125 
L 19.921875 0 
L 10.890625 0 
L 10.890625 47.703125 
L 2.296875 47.703125 
L 2.296875 54.6875 
L 10.890625 54.6875 
L 10.890625 58.5 
Q 10.890625 67.625 15.140625 71.796875 
Q 19.390625 75.984375 28.609375 75.984375 
z
" id="DejaVuSans-102"/>
      <path d="M 41.109375 46.296875 
Q 39.59375 47.171875 37.8125 47.578125 
Q 36.03125 48 33.890625 48 
Q 26.265625 48 22.1875 43.046875 
Q 18.109375 38.09375 18.109375 28.8125 
L 18.109375 0 
L 9.078125 0 
L 9.078125 54.6875 
L 18.109375 54.6875 
L 18.109375 46.1875 
Q 20.953125 51.171875 25.484375 53.578125 
Q 30.03125 56 36.53125 56 
Q 37.453125 56 38.578125 55.875 
Q 39.703125 55.765625 41.0625 55.515625 
z
" id="DejaVuSans-114"/>
      <path d="M 30.609375 48.390625 
Q 23.390625 48.390625 19.1875 42.75 
Q 14.984375 37.109375 14.984375 27.296875 
Q 14.984375 17.484375 19.15625 11.84375 
Q 23.34375 6.203125 30.609375 6.203125 
Q 37.796875 6.203125 41.984375 11.859375 
Q 46.1875 17.53125 46.1875 27.296875 
Q 46.1875 37.015625 41.984375 42.703125 
Q 37.796875 48.390625 30.609375 48.390625 
z
M 30.609375 56 
Q 42.328125 56 49.015625 48.375 
Q 55.71875 40.765625 55.71875 27.296875 
Q 55.71875 13.875 49.015625 6.21875 
Q 42.328125 -1.421875 30.609375 -1.421875 
Q 18.84375 -1.421875 12.171875 6.21875 
Q 5.515625 13.875 5.515625 27.296875 
Q 5.515625 40.765625 12.171875 48.375 
Q 18.84375 56 30.609375 56 
z
" id="DejaVuSans-111"/>
      <path d="M 52 44.1875 
Q 55.375 50.25 60.0625 53.125 
Q 64.75 56 71.09375 56 
Q 79.640625 56 84.28125 50.015625 
Q 88.921875 44.046875 88.921875 33.015625 
L 88.921875 0 
L 79.890625 0 
L 79.890625 32.71875 
Q 79.890625 40.578125 77.09375 44.375 
Q 74.3125 48.1875 68.609375 48.1875 
Q 61.625 48.1875 57.5625 43.546875 
Q 53.515625 38.921875 53.515625 30.90625 
L 53.515625 0 
L 44.484375 0 
L 44.484375 32.71875 
Q 44.484375 40.625 41.703125 44.40625 
Q 38.921875 48.1875 33.109375 48.1875 
Q 26.21875 48.1875 22.15625 43.53125 
Q 18.109375 38.875 18.109375 30.90625 
L 18.109375 0 
L 9.078125 0 
L 9.078125 54.6875 
L 18.109375 54.6875 
L 18.109375 46.1875 
Q 21.1875 51.21875 25.484375 53.609375 
Q 29.78125 56 35.6875 56 
Q 41.65625 56 45.828125 52.96875 
Q 50 49.953125 52 44.1875 
z
" id="DejaVuSans-109"/>
      <path d="M -0.296875 72.90625 
L 61.375 72.90625 
L 61.375 64.59375 
L 35.5 64.59375 
L 35.5 0 
L 25.59375 0 
L 25.59375 64.59375 
L -0.296875 64.59375 
z
" id="DejaVuSans-84"/>
      <path d="M 53.515625 70.515625 
L 53.515625 60.890625 
Q 47.90625 63.578125 42.921875 64.890625 
Q 37.9375 66.21875 33.296875 66.21875 
Q 25.25 66.21875 20.875 63.09375 
Q 16.5 59.96875 16.5 54.203125 
Q 16.5 49.359375 19.40625 46.890625 
Q 22.3125 44.4375 30.421875 42.921875 
L 36.375 41.703125 
Q 47.40625 39.59375 52.65625 34.296875 
Q 57.90625 29 57.90625 20.125 
Q 57.90625 9.515625 50.796875 4.046875 
Q 43.703125 -1.421875 29.984375 -1.421875 
Q 24.8125 -1.421875 18.96875 -0.25 
Q 13.140625 0.921875 6.890625 3.21875 
L 6.890625 13.375 
Q 12.890625 10.015625 18.65625 8.296875 
Q 24.421875 6.59375 29.984375 6.59375 
Q 38.421875 6.59375 43.015625 9.90625 
Q 47.609375 13.234375 47.609375 19.390625 
Q 47.609375 24.75 44.3125 27.78125 
Q 41.015625 30.8125 33.5 32.328125 
L 27.484375 33.5 
Q 16.453125 35.6875 11.515625 40.375 
Q 6.59375 45.0625 6.59375 53.421875 
Q 6.59375 63.09375 13.40625 68.65625 
Q 20.21875 74.21875 32.171875 74.21875 
Q 37.3125 74.21875 42.625 73.28125 
Q 47.953125 72.359375 53.515625 70.515625 
z
" id="DejaVuSans-83"/>
     </defs>
     <g style="fill:#555555;" transform="translate(123.163722 237.190795)scale(0.12 -0.12)">
      <use xlink:href="#DejaVuSans-98"/>
      <use x="63.476562" xlink:href="#DejaVuSans-112"/>
      <use x="126.953125" xlink:href="#DejaVuSans-32"/>
      <use x="158.740234" xlink:href="#DejaVuSans-102"/>
      <use x="193.945312" xlink:href="#DejaVuSans-114"/>
      <use x="235.027344" xlink:href="#DejaVuSans-111"/>
      <use x="296.208984" xlink:href="#DejaVuSans-109"/>
      <use x="393.621094" xlink:href="#DejaVuSans-32"/>
      <use x="425.408203" xlink:href="#DejaVuSans-84"/>
      <use x="486.492188" xlink:href="#DejaVuSans-83"/>
      <use x="549.96875" xlink:href="#DejaVuSans-83"/>
     </g>
    </g>
   </g>
   <g id="matplotlib.axis_2">
    <g id="ytick_1">
     <g id="line2d_11">
      <path clip-path="url(#p795ded86d8)" d="M 46.08 203.664793 
L 273.861818 203.664793 
" style="fill:none;stroke:#ffffff;"/>
     </g>
     <g id="line2d_12"/>
     <g id="text_7">
      <!-- 0.1 -->
      <defs>
       <path d="M 10.6875 12.40625 
L 21 12.40625 
L 21 0 
L 10.6875 0 
z
" id="DejaVuSans-46"/>
      </defs>
      <g style="fill:#555555;" transform="translate(26.676875 207.464012)scale(0.1 -0.1)">
       <use xlink:href="#DejaVuSans-48"/>
       <use x="63.623047" xlink:href="#DejaVuSans-46"/>
       <use x="95.410156" xlink:href="#DejaVuSans-49"/>
      </g>
     </g>
    </g>
    <g id="ytick_2">
     <g id="line2d_13">
      <path clip-path="url(#p795ded86d8)" d="M 46.08 177.374786 
L 273.861818 177.374786 
" style="fill:none;stroke:#ffffff;"/>
     </g>
     <g id="line2d_14"/>
     <g id="text_8">
      <!-- 0.2 -->
      <defs>
       <path d="M 19.1875 8.296875 
L 53.609375 8.296875 
L 53.609375 0 
L 7.328125 0 
L 7.328125 8.296875 
Q 12.9375 14.109375 22.625 23.890625 
Q 32.328125 33.6875 34.8125 36.53125 
Q 39.546875 41.84375 41.421875 45.53125 
Q 43.3125 49.21875 43.3125 52.78125 
Q 43.3125 58.59375 39.234375 62.25 
Q 35.15625 65.921875 28.609375 65.921875 
Q 23.96875 65.921875 18.8125 64.3125 
Q 13.671875 62.703125 7.8125 59.421875 
L 7.8125 69.390625 
Q 13.765625 71.78125 18.9375 73 
Q 24.125 74.21875 28.421875 74.21875 
Q 39.75 74.21875 46.484375 68.546875 
Q 53.21875 62.890625 53.21875 53.421875 
Q 53.21875 48.921875 51.53125 44.890625 
Q 49.859375 40.875 45.40625 35.40625 
Q 44.1875 33.984375 37.640625 27.21875 
Q 31.109375 20.453125 19.1875 8.296875 
z
" id="DejaVuSans-50"/>
      </defs>
      <g style="fill:#555555;" transform="translate(26.676875 181.174005)scale(0.1 -0.1)">
       <use xlink:href="#DejaVuSans-48"/>
       <use x="63.623047" xlink:href="#DejaVuSans-46"/>
       <use x="95.410156" xlink:href="#DejaVuSans-50"/>
      </g>
     </g>
    </g>
    <g id="ytick_3">
     <g id="line2d_15">
      <path clip-path="url(#p795ded86d8)" d="M 46.08 151.084778 
L 273.861818 151.084778 
" style="fill:none;stroke:#ffffff;"/>
     </g>
     <g id="line2d_16"/>
     <g id="text_9">
      <!-- 0.3 -->
      <defs>
       <path d="M 40.578125 39.3125 
Q 47.65625 37.796875 51.625 33 
Q 55.609375 28.21875 55.609375 21.1875 
Q 55.609375 10.40625 48.1875 4.484375 
Q 40.765625 -1.421875 27.09375 -1.421875 
Q 22.515625 -1.421875 17.65625 -0.515625 
Q 12.796875 0.390625 7.625 2.203125 
L 7.625 11.71875 
Q 11.71875 9.328125 16.59375 8.109375 
Q 21.484375 6.890625 26.8125 6.890625 
Q 36.078125 6.890625 40.9375 10.546875 
Q 45.796875 14.203125 45.796875 21.1875 
Q 45.796875 27.640625 41.28125 31.265625 
Q 36.765625 34.90625 28.71875 34.90625 
L 20.21875 34.90625 
L 20.21875 43.015625 
L 29.109375 43.015625 
Q 36.375 43.015625 40.234375 45.921875 
Q 44.09375 48.828125 44.09375 54.296875 
Q 44.09375 59.90625 40.109375 62.90625 
Q 36.140625 65.921875 28.71875 65.921875 
Q 24.65625 65.921875 20.015625 65.03125 
Q 15.375 64.15625 9.8125 62.3125 
L 9.8125 71.09375 
Q 15.4375 72.65625 20.34375 73.4375 
Q 25.25 74.21875 29.59375 74.21875 
Q 40.828125 74.21875 47.359375 69.109375 
Q 53.90625 64.015625 53.90625 55.328125 
Q 53.90625 49.265625 50.4375 45.09375 
Q 46.96875 40.921875 40.578125 39.3125 
z
" id="DejaVuSans-51"/>
      </defs>
      <g style="fill:#555555;" transform="translate(26.676875 154.883997)scale(0.1 -0.1)">
       <use xlink:href="#DejaVuSans-48"/>
       <use x="63.623047" xlink:href="#DejaVuSans-46"/>
       <use x="95.410156" xlink:href="#DejaVuSans-51"/>
      </g>
     </g>
    </g>
    <g id="ytick_4">
     <g id="line2d_17">
      <path clip-path="url(#p795ded86d8)" d="M 46.08 124.794771 
L 273.861818 124.794771 
" style="fill:none;stroke:#ffffff;"/>
     </g>
     <g id="line2d_18"/>
     <g id="text_10">
      <!-- 0.4 -->
      <defs>
       <path d="M 37.796875 64.3125 
L 12.890625 25.390625 
L 37.796875 25.390625 
z
M 35.203125 72.90625 
L 47.609375 72.90625 
L 47.609375 25.390625 
L 58.015625 25.390625 
L 58.015625 17.1875 
L 47.609375 17.1875 
L 47.609375 0 
L 37.796875 0 
L 37.796875 17.1875 
L 4.890625 17.1875 
L 4.890625 26.703125 
z
" id="DejaVuSans-52"/>
      </defs>
      <g style="fill:#555555;" transform="translate(26.676875 128.59399)scale(0.1 -0.1)">
       <use xlink:href="#DejaVuSans-48"/>
       <use x="63.623047" xlink:href="#DejaVuSans-46"/>
       <use x="95.410156" xlink:href="#DejaVuSans-52"/>
      </g>
     </g>
    </g>
    <g id="ytick_5">
     <g id="line2d_19">
      <path clip-path="url(#p795ded86d8)" d="M 46.08 98.504763 
L 273.861818 98.504763 
" style="fill:none;stroke:#ffffff;"/>
     </g>
     <g id="line2d_20"/>
     <g id="text_11">
      <!-- 0.5 -->
      <g style="fill:#555555;" transform="translate(26.676875 102.303982)scale(0.1 -0.1)">
       <use xlink:href="#DejaVuSans-48"/>
       <use x="63.623047" xlink:href="#DejaVuSans-46"/>
       <use x="95.410156" xlink:href="#DejaVuSans-53"/>
      </g>
     </g>
    </g>
    <g id="ytick_6">
     <g id="line2d_21">
      <path clip-path="url(#p795ded86d8)" d="M 46.08 72.214756 
L 273.861818 72.214756 
" style="fill:none;stroke:#ffffff;"/>
     </g>
     <g id="line2d_22"/>
     <g id="text_12">
      <!-- 0.6 -->
      <defs>
       <path d="M 33.015625 40.375 
Q 26.375 40.375 22.484375 35.828125 
Q 18.609375 31.296875 18.609375 23.390625 
Q 18.609375 15.53125 22.484375 10.953125 
Q 26.375 6.390625 33.015625 6.390625 
Q 39.65625 6.390625 43.53125 10.953125 
Q 47.40625 15.53125 47.40625 23.390625 
Q 47.40625 31.296875 43.53125 35.828125 
Q 39.65625 40.375 33.015625 40.375 
z
M 52.59375 71.296875 
L 52.59375 62.3125 
Q 48.875 64.0625 45.09375 64.984375 
Q 41.3125 65.921875 37.59375 65.921875 
Q 27.828125 65.921875 22.671875 59.328125 
Q 17.53125 52.734375 16.796875 39.40625 
Q 19.671875 43.65625 24.015625 45.921875 
Q 28.375 48.1875 33.59375 48.1875 
Q 44.578125 48.1875 50.953125 41.515625 
Q 57.328125 34.859375 57.328125 23.390625 
Q 57.328125 12.15625 50.6875 5.359375 
Q 44.046875 -1.421875 33.015625 -1.421875 
Q 20.359375 -1.421875 13.671875 8.265625 
Q 6.984375 17.96875 6.984375 36.375 
Q 6.984375 53.65625 15.1875 63.9375 
Q 23.390625 74.21875 37.203125 74.21875 
Q 40.921875 74.21875 44.703125 73.484375 
Q 48.484375 72.75 52.59375 71.296875 
z
" id="DejaVuSans-54"/>
      </defs>
      <g style="fill:#555555;" transform="translate(26.676875 76.013975)scale(0.1 -0.1)">
       <use xlink:href="#DejaVuSans-48"/>
       <use x="63.623047" xlink:href="#DejaVuSans-46"/>
       <use x="95.410156" xlink:href="#DejaVuSans-54"/>
      </g>
     </g>
    </g>
    <g id="text_13">
     <!-- Frequency -->
     <defs>
      <path d="M 9.8125 72.90625 
L 51.703125 72.90625 
L 51.703125 64.59375 
L 19.671875 64.59375 
L 19.671875 43.109375 
L 48.578125 43.109375 
L 48.578125 34.8125 
L 19.671875 34.8125 
L 19.671875 0 
L 9.8125 0 
z
" id="DejaVuSans-70"/>
      <path d="M 56.203125 29.59375 
L 56.203125 25.203125 
L 14.890625 25.203125 
Q 15.484375 15.921875 20.484375 11.0625 
Q 25.484375 6.203125 34.421875 6.203125 
Q 39.59375 6.203125 44.453125 7.46875 
Q 49.3125 8.734375 54.109375 11.28125 
L 54.109375 2.78125 
Q 49.265625 0.734375 44.1875 -0.34375 
Q 39.109375 -1.421875 33.890625 -1.421875 
Q 20.796875 -1.421875 13.15625 6.1875 
Q 5.515625 13.8125 5.515625 26.8125 
Q 5.515625 40.234375 12.765625 48.109375 
Q 20.015625 56 32.328125 56 
Q 43.359375 56 49.78125 48.890625 
Q 56.203125 41.796875 56.203125 29.59375 
z
M 47.21875 32.234375 
Q 47.125 39.59375 43.09375 43.984375 
Q 39.0625 48.390625 32.421875 48.390625 
Q 24.90625 48.390625 20.390625 44.140625 
Q 15.875 39.890625 15.1875 32.171875 
z
" id="DejaVuSans-101"/>
      <path d="M 14.796875 27.296875 
Q 14.796875 17.390625 18.875 11.75 
Q 22.953125 6.109375 30.078125 6.109375 
Q 37.203125 6.109375 41.296875 11.75 
Q 45.40625 17.390625 45.40625 27.296875 
Q 45.40625 37.203125 41.296875 42.84375 
Q 37.203125 48.484375 30.078125 48.484375 
Q 22.953125 48.484375 18.875 42.84375 
Q 14.796875 37.203125 14.796875 27.296875 
z
M 45.40625 8.203125 
Q 42.578125 3.328125 38.25 0.953125 
Q 33.9375 -1.421875 27.875 -1.421875 
Q 17.96875 -1.421875 11.734375 6.484375 
Q 5.515625 14.40625 5.515625 27.296875 
Q 5.515625 40.1875 11.734375 48.09375 
Q 17.96875 56 27.875 56 
Q 33.9375 56 38.25 53.625 
Q 42.578125 51.265625 45.40625 46.390625 
L 45.40625 54.6875 
L 54.390625 54.6875 
L 54.390625 -20.796875 
L 45.40625 -20.796875 
z
" id="DejaVuSans-113"/>
      <path d="M 8.5 21.578125 
L 8.5 54.6875 
L 17.484375 54.6875 
L 17.484375 21.921875 
Q 17.484375 14.15625 20.5 10.265625 
Q 23.53125 6.390625 29.59375 6.390625 
Q 36.859375 6.390625 41.078125 11.03125 
Q 45.3125 15.671875 45.3125 23.6875 
L 45.3125 54.6875 
L 54.296875 54.6875 
L 54.296875 0 
L 45.3125 0 
L 45.3125 8.40625 
Q 42.046875 3.421875 37.71875 1 
Q 33.40625 -1.421875 27.6875 -1.421875 
Q 18.265625 -1.421875 13.375 4.4375 
Q 8.5 10.296875 8.5 21.578125 
z
M 31.109375 56 
z
" id="DejaVuSans-117"/>
      <path d="M 54.890625 33.015625 
L 54.890625 0 
L 45.90625 0 
L 45.90625 32.71875 
Q 45.90625 40.484375 42.875 44.328125 
Q 39.84375 48.1875 33.796875 48.1875 
Q 26.515625 48.1875 22.3125 43.546875 
Q 18.109375 38.921875 18.109375 30.90625 
L 18.109375 0 
L 9.078125 0 
L 9.078125 54.6875 
L 18.109375 54.6875 
L 18.109375 46.1875 
Q 21.34375 51.125 25.703125 53.5625 
Q 30.078125 56 35.796875 56 
Q 45.21875 56 50.046875 50.171875 
Q 54.890625 44.34375 54.890625 33.015625 
z
" id="DejaVuSans-110"/>
      <path d="M 48.78125 52.59375 
L 48.78125 44.1875 
Q 44.96875 46.296875 41.140625 47.34375 
Q 37.3125 48.390625 33.40625 48.390625 
Q 24.65625 48.390625 19.8125 42.84375 
Q 14.984375 37.3125 14.984375 27.296875 
Q 14.984375 17.28125 19.8125 11.734375 
Q 24.65625 6.203125 33.40625 6.203125 
Q 37.3125 6.203125 41.140625 7.25 
Q 44.96875 8.296875 48.78125 10.40625 
L 48.78125 2.09375 
Q 45.015625 0.34375 40.984375 -0.53125 
Q 36.96875 -1.421875 32.421875 -1.421875 
Q 20.0625 -1.421875 12.78125 6.34375 
Q 5.515625 14.109375 5.515625 27.296875 
Q 5.515625 40.671875 12.859375 48.328125 
Q 20.21875 56 33.015625 56 
Q 37.15625 56 41.109375 55.140625 
Q 45.0625 54.296875 48.78125 52.59375 
z
" id="DejaVuSans-99"/>
      <path d="M 32.171875 -5.078125 
Q 28.375 -14.84375 24.75 -17.8125 
Q 21.140625 -20.796875 15.09375 -20.796875 
L 7.90625 -20.796875 
L 7.90625 -13.28125 
L 13.1875 -13.28125 
Q 16.890625 -13.28125 18.9375 -11.515625 
Q 21 -9.765625 23.484375 -3.21875 
L 25.09375 0.875 
L 2.984375 54.6875 
L 12.5 54.6875 
L 29.59375 11.921875 
L 46.6875 54.6875 
L 56.203125 54.6875 
z
" id="DejaVuSans-121"/>
     </defs>
     <g style="fill:#555555;" transform="translate(20.18125 162.92446)rotate(-90)scale(0.12 -0.12)">
      <use xlink:href="#DejaVuSans-70"/>
      <use x="57.410156" xlink:href="#DejaVuSans-114"/>
      <use x="98.492188" xlink:href="#DejaVuSans-101"/>
      <use x="160.015625" xlink:href="#DejaVuSans-113"/>
      <use x="223.492188" xlink:href="#DejaVuSans-117"/>
      <use x="286.871094" xlink:href="#DejaVuSans-101"/>
      <use x="348.394531" xlink:href="#DejaVuSans-110"/>
      <use x="411.773438" xlink:href="#DejaVuSans-99"/>
      <use x="466.753906" xlink:href="#DejaVuSans-121"/>
     </g>
    </g>
   </g>
   <g id="LineCollection_1">
    <path clip-path="url(#p795ded86d8)" d="M 159.970909 203.664793 
L 159.970909 59.069752 
" style="fill:none;stroke:#000000;stroke-width:0.5;"/>
   </g>
   <g id="line2d_23">
    <path clip-path="url(#p795ded86d8)" d="M 56.433719 154.883159 
L 57.469091 154.045033 
L 58.504463 153.848384 
L 59.539835 155.142378 
L 60.575207 155.232553 
L 61.610579 155.121609 
L 62.64595 153.821568 
L 63.681322 154.10366 
L 65.752066 154.476452 
L 66.787438 154.382334 
L 67.82281 154.758544 
L 68.858182 154.459364 
L 69.893554 155.006722 
L 70.928926 155.057987 
L 71.964298 154.359199 
L 72.999669 154.000077 
L 74.035041 153.384365 
L 75.070413 154.08552 
L 76.105785 154.325022 
L 77.141157 153.93146 
L 78.176529 154.273756 
L 79.211901 155.607711 
L 80.247273 153.401454 
L 81.282645 153.743487 
L 82.318017 152.54624 
L 83.353388 154.316346 
L 84.38876 152.583046 
L 85.424132 152.343544 
L 86.459504 153.583381 
L 87.494876 154.464359 
L 88.530248 152.993433 
L 89.56562 153.688541 
L 90.600992 153.816836 
L 92.671736 153.671452 
L 93.707107 152.175025 
L 94.742479 153.175623 
L 95.777851 152.987386 
L 96.813223 151.730461 
L 97.848595 152.936121 
L 98.883967 153.175623 
L 99.919339 152.713707 
L 100.954711 152.611176 
L 103.025455 151.679195 
L 104.060826 151.875845 
L 105.096198 151.339529 
L 106.13157 151.955241 
L 107.166942 153.220841 
L 108.202314 152.416893 
L 109.237686 152.844631 
L 110.273058 152.291227 
L 111.30843 151.524347 
L 112.343802 151.885835 
L 113.379174 150.896805 
L 114.414545 149.152463 
L 115.449917 150.531637 
L 116.485289 148.821735 
L 117.520661 149.300476 
L 118.556033 150.659932 
L 119.591405 150.394929 
L 120.626777 151.189938 
L 121.662149 151.001965 
L 122.697521 152.215774 
L 123.732893 154.387329 
L 124.768264 155.567225 
L 125.803636 154.797716 
L 126.839008 156.020201 
L 127.87438 155.244646 
L 128.909752 154.629197 
L 129.945124 157.099932 
L 130.980496 158.587421 
L 132.015868 158.638686 
L 133.05124 158.946542 
L 134.086612 159.596168 
L 135.121983 154.577932 
L 136.157355 153.757158 
L 137.192727 150.893387 
L 138.228099 150.739328 
L 139.263471 149.798934 
L 140.298843 150.423059 
L 141.334215 149.585196 
L 142.369587 149.893052 
L 143.404959 150.414646 
L 144.440331 149.875964 
L 145.475702 150.662561 
L 146.511074 151.927636 
L 147.546446 149.73058 
L 148.581818 149.628049 
L 149.61719 149.063865 
L 150.652562 152.722646 
L 151.687934 153.791335 
L 152.723306 144.353222 
L 153.758678 160.06229 
L 154.79405 155.702618 
L 155.829421 162.054284 
L 157.900165 141.70871 
L 158.935537 172.638115 
L 159.970909 122.021964 
L 161.006281 196.142434 
L 162.041653 173.894515 
L 163.077025 176.082369 
L 164.112397 164.278944 
L 165.147769 162.603745 
L 166.18314 160.031005 
L 167.218512 159.02252 
L 168.253884 161.45829 
L 169.289256 159.298303 
L 170.324628 160.870971 
L 171.36 162.041928 
L 173.430744 162.58876 
L 175.501488 155.127393 
L 176.53686 157.674369 
L 177.572231 158.648676 
L 178.607603 159.144506 
L 179.642975 161.229829 
L 180.678347 160.417994 
L 181.713719 160.905148 
L 182.749091 162.315344 
L 183.784463 164.332313 
L 184.819835 163.595141 
L 185.855207 166.116616 
L 186.890579 163.107987 
L 187.92595 160.87728 
L 188.961322 163.185017 
L 191.032066 157.763755 
L 192.067438 158.592679 
L 193.10281 156.071204 
L 194.138182 155.464431 
L 195.173554 156.789184 
L 196.208926 156.507355 
L 198.279669 156.504726 
L 199.315041 156.803907 
L 200.350413 156.521815 
L 201.385785 155.154209 
L 202.421157 157.462208 
L 203.456529 155.367946 
L 204.491901 155.145796 
L 205.527273 155.342445 
L 206.562645 153.692747 
L 207.598017 153.818413 
L 208.633388 153.562086 
L 209.66876 155.408433 
L 210.704132 154.664689 
L 211.739504 155.297226 
L 212.774876 157.29737 
L 213.810248 156.65642 
L 214.84562 157.878642 
L 215.880992 158.895802 
L 217.951736 157.323134 
L 218.987107 157.485344 
L 220.022479 157.151986 
L 221.057851 155.4852 
L 222.093223 156.100649 
L 224.163967 155.126341 
L 225.199339 156.989777 
L 226.234711 156.228944 
L 227.270083 156.946924 
L 228.305455 156.006794 
L 229.340826 157.049455 
L 230.376198 156.015206 
L 231.41157 156.126413 
L 232.446942 155.801469 
L 233.482314 153.579174 
L 234.517686 153.399614 
L 235.553058 153.775561 
L 236.58843 155.810144 
L 238.659174 155.4852 
L 239.694545 154.280066 
L 240.729917 155.579318 
L 241.765289 153.388572 
L 242.800661 155.927398 
L 243.836033 155.799103 
L 244.871405 154.679411 
L 245.906777 152.969772 
L 246.942149 153.90149 
L 247.977521 154.602381 
L 249.012893 154.722001 
L 250.048264 155.346126 
L 251.083636 155.722073 
L 252.119008 155.192066 
L 253.15438 154.892886 
L 254.189752 153.619398 
L 256.260496 153.813418 
L 257.295868 152.830435 
L 258.33124 153.702212 
L 259.366612 155.471792 
L 260.401983 155.035904 
L 261.437355 155.010139 
L 262.472727 157.643084 
L 263.508099 155.925032 
L 263.508099 155.925032 
" style="fill:none;stroke:#e24a33;stroke-width:2;"/>
   </g>
   <g id="line2d_24">
    <path clip-path="url(#p795ded86d8)" d="M 56.433719 175.838661 
L 57.469091 175.821572 
L 58.504463 176.078163 
L 59.539835 176.190947 
L 60.575207 175.963538 
L 61.610579 177.485993 
L 62.64595 175.339413 
L 63.681322 177.828026 
L 64.716694 176.77774 
L 65.752066 176.32634 
L 66.787438 175.69354 
L 67.82281 176.454636 
L 68.858182 175.505303 
L 69.893554 176.762492 
L 70.928926 176.77958 
L 71.964298 176.661538 
L 72.999669 176.122856 
L 74.035041 176.541918 
L 75.070413 176.422036 
L 76.105785 177.15763 
L 77.141157 177.037748 
L 78.176529 177.65346 
L 79.211901 177.490988 
L 81.282645 178.354877 
L 82.318017 177.756254 
L 83.353388 178.756589 
L 84.38876 178.707163 
L 85.424132 177.698153 
L 86.459504 178.544691 
L 87.494876 177.432887 
L 88.530248 177.920304 
L 89.56562 177.434727 
L 90.600992 177.89638 
L 91.636364 179.332866 
L 92.671736 179.504014 
L 93.707107 179.521102 
L 94.742479 178.837036 
L 95.777851 179.683574 
L 96.813223 178.572033 
L 97.848595 179.221922 
L 98.883967 178.837036 
L 99.919339 178.802859 
L 100.954711 179.589456 
L 101.990083 179.35863 
L 103.025455 178.614623 
L 104.060826 180.076873 
L 105.096198 180.129716 
L 106.13157 180.352129 
L 107.166942 179.317617 
L 108.202314 179.052351 
L 109.237686 180.446247 
L 110.273058 179.661228 
L 111.30843 180.876878 
L 112.343802 181.160547 
L 113.379174 181.307508 
L 114.414545 181.777836 
L 115.449917 181.582764 
L 116.485289 182.146948 
L 117.520661 181.93321 
L 118.556033 181.317761 
L 119.591405 179.462475 
L 120.626777 180.112364 
L 121.662149 178.99241 
L 122.697521 179.659125 
L 123.732893 177.521747 
L 124.768264 175.888875 
L 125.803636 176.265085 
L 126.839008 177.179977 
L 127.87438 178.754485 
L 128.909752 178.224479 
L 129.945124 175.822361 
L 130.980496 172.770354 
L 132.015868 170.137147 
L 133.05124 170.761272 
L 134.086612 170.034616 
L 136.157355 178.378538 
L 137.192727 180.738067 
L 138.228099 182.379352 
L 139.263471 182.063083 
L 140.298843 181.917699 
L 141.334215 182.182702 
L 142.369587 181.575666 
L 143.404959 181.438958 
L 144.440331 181.627195 
L 145.475702 180.284827 
L 146.511074 180.25065 
L 147.546446 182.986388 
L 148.581818 180.558506 
L 149.61719 181.096925 
L 150.652562 180.370269 
L 151.687934 182.35385 
L 152.723306 184.81591 
L 153.758678 163.610127 
L 154.79405 176.313195 
L 155.829421 176.013752 
L 156.864793 181.262552 
L 157.900165 190.700139 
L 158.935537 157.022377 
L 159.970909 198.339227 
L 161.006281 107.321117 
L 162.041653 179.817653 
L 163.077025 169.89449 
L 164.112397 179.441443 
L 165.147769 181.40741 
L 166.18314 182.296275 
L 167.218512 182.176656 
L 168.253884 180.424427 
L 169.289256 182.622534 
L 170.324628 182.314941 
L 171.36 181.229427 
L 172.395372 180.81904 
L 173.430744 178.793658 
L 174.466116 181.169486 
L 175.501488 181.870377 
L 176.53686 182.289177 
L 177.572231 181.477342 
L 178.607603 181.750758 
L 179.642975 177.896117 
L 180.678347 177.477317 
L 181.713719 175.409082 
L 182.749091 177.40055 
L 183.784463 174.844898 
L 184.819835 175.84313 
L 185.855207 173.979957 
L 186.890579 175.039707 
L 187.92595 175.12515 
L 188.961322 175.971425 
L 189.996694 179.525308 
L 191.032066 179.439866 
L 192.067438 179.8074 
L 193.10281 182.268934 
L 194.138182 183.226416 
L 195.173554 181.798868 
L 196.208926 180.593734 
L 197.244298 180.472537 
L 198.279669 180.848485 
L 199.315041 180.951016 
L 200.350413 180.592157 
L 201.385785 180.89975 
L 202.421157 180.566393 
L 203.456529 181.404255 
L 204.491901 183.4299 
L 205.527273 183.600785 
L 206.562645 184.318766 
L 207.598017 182.812874 
L 208.633388 182.966933 
L 209.66876 180.88976 
L 210.704132 180.727288 
L 211.739504 179.735629 
L 212.774876 178.094606 
L 213.810248 177.86378 
L 214.84562 177.846692 
L 215.880992 176.906298 
L 216.916364 177.718396 
L 217.951736 177.017505 
L 218.987107 177.350862 
L 220.022479 178.171373 
L 221.057851 178.786822 
L 222.093223 178.479229 
L 223.128595 179.240062 
L 224.163967 180.240134 
L 225.199339 178.803911 
L 226.234711 177.000416 
L 227.270083 177.932134 
L 228.305455 177.333773 
L 229.340826 177.60719 
L 230.376198 177.48757 
L 231.41157 178.769734 
L 232.446942 178.564672 
L 233.482314 179.393858 
L 234.517686 177.86378 
L 235.553058 178.727144 
L 236.58843 178.077518 
L 237.623802 178.308344 
L 238.659174 177.624278 
L 239.694545 177.90637 
L 240.729917 178.000488 
L 241.765289 178.597271 
L 242.800661 177.246491 
L 243.836033 178.776569 
L 244.871405 178.477389 
L 245.906777 179.357841 
L 246.942149 178.41771 
L 247.977521 178.802333 
L 249.012893 177.86194 
L 251.083636 177.793586 
L 252.119008 177.853527 
L 253.15438 177.417639 
L 254.189752 177.331933 
L 255.225124 178.033088 
L 256.260496 177.518329 
L 257.295868 178.398782 
L 258.33124 178.697962 
L 259.366612 176.731995 
L 260.401983 176.877379 
L 261.437355 176.449903 
L 262.472727 176.432815 
L 263.508099 177.014087 
L 263.508099 177.014087 
" style="fill:none;stroke:#348abd;stroke-opacity:0.8;stroke-width:2;"/>
   </g>
   <g id="line2d_25">
    <path clip-path="url(#p795ded86d8)" d="M 56.433719 174.658239 
L 58.504463 175.40251 
L 59.539835 174.976611 
L 60.575207 175.287885 
L 61.610579 174.244698 
L 62.64595 175.459033 
L 63.681322 174.612495 
L 64.716694 175.974054 
L 65.752066 175.325743 
L 66.787438 174.881179 
L 67.82281 174.940857 
L 68.858182 175.608097 
L 69.893554 174.98371 
L 70.928926 175.171946 
L 71.964298 176.208298 
L 72.999669 176.396535 
L 75.070413 175.216376 
L 76.105785 175.558409 
L 77.141157 176.74698 
L 78.176529 174.583576 
L 79.211901 173.933687 
L 80.247273 175.669616 
L 81.282645 176.533243 
L 82.318017 176.755656 
L 83.353388 175.06258 
L 84.38876 176.338434 
L 85.424132 175.500308 
L 86.459504 175.893607 
L 87.494876 175.602839 
L 89.56562 177.161048 
L 90.600992 176.716484 
L 91.636364 175.202705 
L 92.671736 176.622366 
L 93.707107 177.06693 
L 94.742479 176.699133 
L 95.777851 176.53666 
L 96.813223 177.494405 
L 97.848595 177.238078 
L 98.883967 176.827428 
L 99.919339 176.630779 
L 100.954711 177.879291 
L 101.990083 177.135284 
L 103.025455 178.60621 
L 104.060826 177.964734 
L 105.096198 177.709983 
L 106.13157 178.257341 
L 107.166942 177.179714 
L 108.202314 178.163223 
L 109.237686 177.889544 
L 110.273058 178.712159 
L 111.30843 178.722412 
L 112.343802 177.32168 
L 113.379174 177.597199 
L 114.414545 178.79392 
L 115.449917 178.128783 
L 116.485289 179.026587 
L 117.520661 178.171636 
L 118.556033 177.547511 
L 119.591405 177.658718 
L 120.626777 177.265419 
L 121.662149 178.599112 
L 122.697521 176.008494 
L 123.732893 177.342186 
L 124.768264 177.641629 
L 125.803636 176.752501 
L 126.839008 175.059688 
L 127.87438 174.394551 
L 128.909752 172.385468 
L 129.945124 170.85539 
L 130.980496 169.111311 
L 132.015868 171.667488 
L 133.05124 170.555947 
L 134.086612 174.428728 
L 135.121983 177.822768 
L 136.157355 179.293168 
L 137.192727 179.489817 
L 138.228099 179.404374 
L 139.263471 179.95147 
L 140.298843 179.361522 
L 141.334215 178.318597 
L 142.369587 177.797003 
L 143.404959 176.540341 
L 144.440331 177.583266 
L 145.475702 177.514912 
L 146.511074 179.387286 
L 147.546446 179.096518 
L 148.581818 177.788591 
L 149.61719 178.130624 
L 150.652562 175.574446 
L 151.687934 171.82996 
L 152.723306 173.676571 
L 153.758678 178.903287 
L 154.79405 176.766172 
L 155.829421 167.816002 
L 156.864793 168.730631 
L 157.900165 165.755654 
L 158.935537 174.415846 
L 159.970909 162.184945 
L 161.006281 188.048266 
L 162.041653 163.748938 
L 163.077025 151.449684 
L 164.112397 162.304565 
L 165.147769 167.219219 
L 166.18314 170.73209 
L 167.218512 176.005602 
L 168.253884 174.193432 
L 169.289256 174.058564 
L 171.36 175.853383 
L 172.395372 178.554156 
L 173.430744 178.049913 
L 174.466116 178.605421 
L 175.501488 178.118267 
L 176.53686 176.699658 
L 177.572231 177.708143 
L 178.607603 177.554347 
L 179.642975 178.750805 
L 180.678347 179.537139 
L 181.713719 181.716581 
L 182.749091 182.109616 
L 183.784463 181.254928 
L 184.819835 180.031128 
L 185.855207 179.962774 
L 186.890579 180.133659 
L 187.92595 179.29606 
L 188.961322 179.629417 
L 189.996694 178.841505 
L 191.032066 175.490844 
L 192.067438 173.131842 
L 193.10281 171.866766 
L 194.138182 169.994918 
L 195.173554 169.644472 
L 196.208926 169.678649 
L 197.244298 169.249333 
L 198.279669 170.044343 
L 199.315041 170.292258 
L 201.385785 171.17271 
L 202.421157 170.958972 
L 203.456529 171.967457 
L 204.491901 170.300671 
L 205.527273 170.480231 
L 206.562645 170.463143 
L 207.598017 170.948456 
L 208.633388 171.880174 
L 209.66876 172.162266 
L 210.704132 172.042647 
L 211.739504 172.333151 
L 212.774876 171.726378 
L 213.810248 172.743538 
L 214.84562 171.187696 
L 216.916364 170.469715 
L 217.951736 171.324666 
L 218.987107 170.83725 
L 220.022479 171.606758 
L 221.057851 170.572246 
L 222.093223 172.239296 
L 223.128595 172.016882 
L 224.163967 171.580994 
L 225.199339 170.050916 
L 226.234711 171.768968 
L 227.270083 170.785984 
L 228.305455 171.495551 
L 229.340826 171.606758 
L 230.376198 173.085308 
L 231.41157 173.529872 
L 232.446942 173.74361 
L 233.482314 173.264869 
L 234.517686 174.333558 
L 235.553058 173.393164 
L 236.58843 172.880246 
L 237.623802 172.658096 
L 239.694545 174.188174 
L 240.729917 174.504443 
L 241.765289 175.596793 
L 242.800661 175.528439 
L 243.836033 173.408412 
L 244.871405 175.186406 
L 245.906777 174.143481 
L 246.942149 174.400072 
L 247.977521 173.417088 
L 249.012893 175.21217 
L 250.048264 174.246012 
L 251.083636 174.750517 
L 252.119008 174.126393 
L 253.15438 175.964327 
L 254.189752 175.55394 
L 255.225124 175.818943 
L 256.260496 175.355713 
L 257.295868 175.629129 
L 258.33124 174.680323 
L 259.366612 174.227346 
L 260.401983 174.663235 
L 261.437355 176.082369 
L 262.472727 174.158729 
L 263.508099 175.21033 
L 263.508099 175.21033 
" style="fill:none;stroke:#988ed5;stroke-opacity:0.6;stroke-width:2;"/>
   </g>
   <g id="line2d_26">
    <path clip-path="url(#p795ded86d8)" d="M 56.433719 151.53907 
L 57.469091 152.035162 
L 58.504463 151.590335 
L 59.539835 150.609192 
L 60.575207 150.434889 
L 61.610579 150.067092 
L 62.64595 152.299114 
L 63.681322 150.374948 
L 64.716694 149.93275 
L 65.752066 150.790593 
L 66.787438 151.962076 
L 67.82281 150.764829 
L 68.858182 151.346364 
L 69.893554 150.166205 
L 71.964298 149.690093 
L 74.035041 151.195196 
L 75.070413 151.195196 
L 76.105785 149.878067 
L 77.141157 149.202677 
L 78.176529 150.408336 
L 79.211901 149.886743 
L 80.247273 149.869654 
L 81.282645 148.287522 
L 82.318017 149.860979 
L 83.353388 148.783614 
L 84.38876 149.290748 
L 85.424132 151.377123 
L 86.459504 148.89745 
L 87.494876 149.419043 
L 88.530248 149.555752 
L 89.56562 148.634813 
L 90.600992 148.489429 
L 91.636364 148.669252 
L 92.671736 147.121297 
L 93.707107 148.156072 
L 94.742479 148.207337 
L 95.777851 147.711507 
L 96.813223 149.122229 
L 97.848595 147.523271 
L 98.883967 148.079042 
L 99.919339 148.771784 
L 100.954711 146.839205 
L 101.990083 148.335632 
L 103.025455 148.019363 
L 104.060826 147.001677 
L 105.096198 147.739638 
L 106.13157 146.354417 
L 107.166942 147.200956 
L 108.202314 147.286661 
L 109.237686 145.738968 
L 110.273058 146.254515 
L 111.30843 145.795755 
L 112.343802 146.550804 
L 113.379174 147.117879 
L 114.414545 147.194646 
L 115.449917 146.675944 
L 116.485289 146.923859 
L 117.520661 147.513807 
L 118.556033 147.393924 
L 119.591405 149.403007 
L 120.626777 148.351669 
L 121.662149 148.325905 
L 122.697521 149.035472 
L 123.732893 147.667603 
L 124.768264 147.8214 
L 125.803636 149.103826 
L 126.839008 148.659262 
L 127.87438 148.525183 
L 128.909752 151.679721 
L 129.945124 153.141709 
L 130.980496 156.450043 
L 132.015868 156.475807 
L 133.05124 156.655368 
L 134.086612 152.859617 
L 135.121983 150.089702 
L 136.157355 145.490265 
L 137.192727 145.798121 
L 138.228099 144.396075 
L 139.263471 145.105642 
L 140.298843 145.216849 
L 141.334215 146.83237 
L 143.404959 148.525183 
L 144.440331 147.832704 
L 145.475702 148.456829 
L 146.511074 145.353557 
L 147.546446 145.105642 
L 148.581818 148.943983 
L 150.652562 148.251504 
L 151.687934 148.943983 
L 152.723306 154.073426 
L 153.758678 154.343425 
L 154.79405 148.137143 
L 155.829421 151.03509 
L 156.864793 155.300907 
L 157.900165 158.754362 
L 158.935537 152.842791 
L 159.970909 174.372993 
L 161.006281 165.407049 
L 162.041653 139.458285 
L 163.077025 159.492586 
L 164.112397 150.894176 
L 165.147769 145.689017 
L 166.18314 143.860021 
L 167.218512 139.714613 
L 168.253884 140.842717 
L 169.289256 140.939727 
L 170.324628 138.75161 
L 171.36 137.794391 
L 172.395372 135.247415 
L 173.430744 137.486798 
L 174.466116 138.093571 
L 175.501488 141.802828 
L 176.53686 140.255924 
L 177.572231 139.084967 
L 178.607603 138.469781 
L 179.642975 139.042378 
L 180.678347 139.486679 
L 181.713719 138.888581 
L 182.749091 135.093618 
L 183.784463 136.486726 
L 184.819835 137.449729 
L 185.855207 136.859781 
L 186.890579 138.637774 
L 187.92595 141.620639 
L 188.961322 138.133269 
L 189.996694 138.139053 
L 191.032066 144.224664 
L 193.10281 146.711961 
L 194.138182 148.233364 
L 195.173554 148.686341 
L 196.208926 150.13939 
L 197.244298 150.735121 
L 198.279669 149.521312 
L 199.315041 148.871686 
L 200.350413 149.025745 
L 201.385785 149.69246 
L 202.421157 147.931555 
L 203.456529 148.17947 
L 204.491901 148.042762 
L 205.527273 147.495667 
L 207.598017 149.339385 
L 208.633388 148.510198 
L 209.66876 148.458932 
L 210.704132 149.484506 
L 211.739504 149.55286 
L 212.774876 149.800774 
L 213.810248 149.655654 
L 215.880992 150.339457 
L 216.916364 150.578696 
L 217.951736 151.254086 
L 218.987107 151.24541 
L 220.022479 149.989011 
L 221.057851 152.074597 
L 222.093223 150.099955 
L 224.163967 149.971922 
L 225.199339 151.074525 
L 226.234711 151.920801 
L 227.270083 151.254086 
L 228.305455 152.083273 
L 229.340826 150.655725 
L 230.376198 150.330781 
L 231.41157 148.493109 
L 232.446942 148.809378 
L 233.482314 150.681227 
L 234.517686 151.32244 
L 235.553058 151.02326 
L 236.58843 150.15122 
L 237.623802 150.30528 
L 238.659174 150.322368 
L 239.694545 150.544519 
L 240.729917 148.83488 
L 241.765289 149.336756 
L 242.800661 148.216801 
L 243.836033 148.934782 
L 244.871405 148.575923 
L 245.906777 150.448034 
L 246.942149 150.20012 
L 247.977521 150.097589 
L 249.012893 149.123018 
L 250.048264 149.541818 
L 251.083636 148.65269 
L 252.119008 149.74688 
L 253.15438 148.644277 
L 254.189752 150.413857 
L 255.225124 149.310992 
L 256.260496 150.231668 
L 258.33124 149.838369 
L 259.366612 150.487995 
L 260.401983 150.342874 
L 261.437355 149.376717 
L 262.472727 148.684238 
L 263.508099 148.769943 
L 263.508099 148.769943 
" style="fill:none;stroke:#777777;stroke-opacity:0.4;stroke-width:2;"/>
   </g>
   <g id="text_14">
    <!-- Experimental -->
    <defs>
     <path d="M 9.8125 72.90625 
L 55.90625 72.90625 
L 55.90625 64.59375 
L 19.671875 64.59375 
L 19.671875 43.015625 
L 54.390625 43.015625 
L 54.390625 34.71875 
L 19.671875 34.71875 
L 19.671875 8.296875 
L 56.78125 8.296875 
L 56.78125 0 
L 9.8125 0 
z
" id="DejaVuSans-69"/>
     <path d="M 54.890625 54.6875 
L 35.109375 28.078125 
L 55.90625 0 
L 45.3125 0 
L 29.390625 21.484375 
L 13.484375 0 
L 2.875 0 
L 24.125 28.609375 
L 4.6875 54.6875 
L 15.28125 54.6875 
L 29.78125 35.203125 
L 44.28125 54.6875 
z
" id="DejaVuSans-120"/>
     <path d="M 9.421875 54.6875 
L 18.40625 54.6875 
L 18.40625 0 
L 9.421875 0 
z
M 9.421875 75.984375 
L 18.40625 75.984375 
L 18.40625 64.59375 
L 9.421875 64.59375 
z
" id="DejaVuSans-105"/>
     <path d="M 18.3125 70.21875 
L 18.3125 54.6875 
L 36.8125 54.6875 
L 36.8125 47.703125 
L 18.3125 47.703125 
L 18.3125 18.015625 
Q 18.3125 11.328125 20.140625 9.421875 
Q 21.96875 7.515625 27.59375 7.515625 
L 36.8125 7.515625 
L 36.8125 0 
L 27.59375 0 
Q 17.1875 0 13.234375 3.875 
Q 9.28125 7.765625 9.28125 18.015625 
L 9.28125 47.703125 
L 2.6875 47.703125 
L 2.6875 54.6875 
L 9.28125 54.6875 
L 9.28125 70.21875 
z
" id="DejaVuSans-116"/>
     <path d="M 34.28125 27.484375 
Q 23.390625 27.484375 19.1875 25 
Q 14.984375 22.515625 14.984375 16.5 
Q 14.984375 11.71875 18.140625 8.90625 
Q 21.296875 6.109375 26.703125 6.109375 
Q 34.1875 6.109375 38.703125 11.40625 
Q 43.21875 16.703125 43.21875 25.484375 
L 43.21875 27.484375 
z
M 52.203125 31.203125 
L 52.203125 0 
L 43.21875 0 
L 43.21875 8.296875 
Q 40.140625 3.328125 35.546875 0.953125 
Q 30.953125 -1.421875 24.3125 -1.421875 
Q 15.921875 -1.421875 10.953125 3.296875 
Q 6 8.015625 6 15.921875 
Q 6 25.140625 12.171875 29.828125 
Q 18.359375 34.515625 30.609375 34.515625 
L 43.21875 34.515625 
L 43.21875 35.40625 
Q 43.21875 41.609375 39.140625 45 
Q 35.0625 48.390625 27.6875 48.390625 
Q 23 48.390625 18.546875 47.265625 
Q 14.109375 46.140625 10.015625 43.890625 
L 10.015625 52.203125 
Q 14.9375 54.109375 19.578125 55.046875 
Q 24.21875 56 28.609375 56 
Q 40.484375 56 46.34375 49.84375 
Q 52.203125 43.703125 52.203125 31.203125 
z
" id="DejaVuSans-97"/>
     <path d="M 9.421875 75.984375 
L 18.40625 75.984375 
L 18.40625 0 
L 9.421875 0 
z
" id="DejaVuSans-108"/>
    </defs>
    <g transform="translate(111.957034 45.84)scale(0.144 -0.144)">
     <use xlink:href="#DejaVuSans-69"/>
     <use x="63.183594" xlink:href="#DejaVuSans-120"/>
     <use x="122.363281" xlink:href="#DejaVuSans-112"/>
     <use x="185.839844" xlink:href="#DejaVuSans-101"/>
     <use x="247.363281" xlink:href="#DejaVuSans-114"/>
     <use x="288.476562" xlink:href="#DejaVuSans-105"/>
     <use x="316.259766" xlink:href="#DejaVuSans-109"/>
     <use x="413.671875" xlink:href="#DejaVuSans-101"/>
     <use x="475.195312" xlink:href="#DejaVuSans-110"/>
     <use x="538.574219" xlink:href="#DejaVuSans-116"/>
     <use x="577.783203" xlink:href="#DejaVuSans-97"/>
     <use x="639.0625" xlink:href="#DejaVuSans-108"/>
    </g>
   </g>
  </g>
  <g id="axes_2">
   <g id="patch_3">
    <path d="M 319.418182 210.894545 
L 547.2 210.894545 
L 547.2 51.84 
L 319.418182 51.84 
z
" style="fill:#ffffff;"/>
   </g>
   <g id="matplotlib.axis_3">
    <g id="xtick_6">
     <g id="line2d_27">
      <path clip-path="url(#pa51feddf7b)" d="M 329.771901 210.894545 
L 329.771901 51.84 
" style="fill:none;stroke:#ffffff;"/>
     </g>
     <g id="line2d_28"/>
     <g id="text_15">
      <!-- −100 -->
      <g style="fill:#555555;" transform="translate(316.038307 221.992983)scale(0.1 -0.1)">
       <use xlink:href="#DejaVuSans-8722"/>
       <use x="83.789062" xlink:href="#DejaVuSans-49"/>
       <use x="147.412109" xlink:href="#DejaVuSans-48"/>
       <use x="211.035156" xlink:href="#DejaVuSans-48"/>
      </g>
     </g>
    </g>
    <g id="xtick_7">
     <g id="line2d_29">
      <path clip-path="url(#pa51feddf7b)" d="M 381.540496 210.894545 
L 381.540496 51.84 
" style="fill:none;stroke:#ffffff;"/>
     </g>
     <g id="line2d_30"/>
     <g id="text_16">
      <!-- −50 -->
      <g style="fill:#555555;" transform="translate(370.988152 221.992983)scale(0.1 -0.1)">
       <use xlink:href="#DejaVuSans-8722"/>
       <use x="83.789062" xlink:href="#DejaVuSans-53"/>
       <use x="147.412109" xlink:href="#DejaVuSans-48"/>
      </g>
     </g>
    </g>
    <g id="xtick_8">
     <g id="line2d_31">
      <path clip-path="url(#pa51feddf7b)" d="M 433.309091 210.894545 
L 433.309091 51.84 
" style="fill:none;stroke:#ffffff;"/>
     </g>
     <g id="line2d_32"/>
     <g id="text_17">
      <!-- 0 -->
      <g style="fill:#555555;" transform="translate(430.127841 221.992983)scale(0.1 -0.1)">
       <use xlink:href="#DejaVuSans-48"/>
      </g>
     </g>
    </g>
    <g id="xtick_9">
     <g id="line2d_33">
      <path clip-path="url(#pa51feddf7b)" d="M 485.077686 210.894545 
L 485.077686 51.84 
" style="fill:none;stroke:#ffffff;"/>
     </g>
     <g id="line2d_34"/>
     <g id="text_18">
      <!-- 50 -->
      <g style="fill:#555555;" transform="translate(478.715186 221.992983)scale(0.1 -0.1)">
       <use xlink:href="#DejaVuSans-53"/>
       <use x="63.623047" xlink:href="#DejaVuSans-48"/>
      </g>
     </g>
    </g>
    <g id="xtick_10">
     <g id="line2d_35">
      <path clip-path="url(#pa51feddf7b)" d="M 536.846281 210.894545 
L 536.846281 51.84 
" style="fill:none;stroke:#ffffff;"/>
     </g>
     <g id="line2d_36"/>
     <g id="text_19">
      <!-- 100 -->
      <g style="fill:#555555;" transform="translate(527.302531 221.992983)scale(0.1 -0.1)">
       <use xlink:href="#DejaVuSans-49"/>
       <use x="63.623047" xlink:href="#DejaVuSans-48"/>
       <use x="127.246094" xlink:href="#DejaVuSans-48"/>
      </g>
     </g>
    </g>
    <g id="text_20">
     <!-- bp from TSS -->
     <g style="fill:#555555;" transform="translate(396.501903 237.190795)scale(0.12 -0.12)">
      <use xlink:href="#DejaVuSans-98"/>
      <use x="63.476562" xlink:href="#DejaVuSans-112"/>
      <use x="126.953125" xlink:href="#DejaVuSans-32"/>
      <use x="158.740234" xlink:href="#DejaVuSans-102"/>
      <use x="193.945312" xlink:href="#DejaVuSans-114"/>
      <use x="235.027344" xlink:href="#DejaVuSans-111"/>
      <use x="296.208984" xlink:href="#DejaVuSans-109"/>
      <use x="393.621094" xlink:href="#DejaVuSans-32"/>
      <use x="425.408203" xlink:href="#DejaVuSans-84"/>
      <use x="486.492188" xlink:href="#DejaVuSans-83"/>
      <use x="549.96875" xlink:href="#DejaVuSans-83"/>
     </g>
    </g>
   </g>
   <g id="matplotlib.axis_4">
    <g id="ytick_7">
     <g id="line2d_37">
      <path clip-path="url(#pa51feddf7b)" d="M 319.418182 203.664793 
L 547.2 203.664793 
" style="fill:none;stroke:#ffffff;"/>
     </g>
     <g id="line2d_38"/>
     <g id="text_21">
      <!-- 0.1 -->
      <g style="fill:#555555;" transform="translate(300.015057 207.464012)scale(0.1 -0.1)">
       <use xlink:href="#DejaVuSans-48"/>
       <use x="63.623047" xlink:href="#DejaVuSans-46"/>
       <use x="95.410156" xlink:href="#DejaVuSans-49"/>
      </g>
     </g>
    </g>
    <g id="ytick_8">
     <g id="line2d_39">
      <path clip-path="url(#pa51feddf7b)" d="M 319.418182 177.374786 
L 547.2 177.374786 
" style="fill:none;stroke:#ffffff;"/>
     </g>
     <g id="line2d_40"/>
     <g id="text_22">
      <!-- 0.2 -->
      <g style="fill:#555555;" transform="translate(300.015057 181.174005)scale(0.1 -0.1)">
       <use xlink:href="#DejaVuSans-48"/>
       <use x="63.623047" xlink:href="#DejaVuSans-46"/>
       <use x="95.410156" xlink:href="#DejaVuSans-50"/>
      </g>
     </g>
    </g>
    <g id="ytick_9">
     <g id="line2d_41">
      <path clip-path="url(#pa51feddf7b)" d="M 319.418182 151.084778 
L 547.2 151.084778 
" style="fill:none;stroke:#ffffff;"/>
     </g>
     <g id="line2d_42"/>
     <g id="text_23">
      <!-- 0.3 -->
      <g style="fill:#555555;" transform="translate(300.015057 154.883997)scale(0.1 -0.1)">
       <use xlink:href="#DejaVuSans-48"/>
       <use x="63.623047" xlink:href="#DejaVuSans-46"/>
       <use x="95.410156" xlink:href="#DejaVuSans-51"/>
      </g>
     </g>
    </g>
    <g id="ytick_10">
     <g id="line2d_43">
      <path clip-path="url(#pa51feddf7b)" d="M 319.418182 124.794771 
L 547.2 124.794771 
" style="fill:none;stroke:#ffffff;"/>
     </g>
     <g id="line2d_44"/>
     <g id="text_24">
      <!-- 0.4 -->
      <g style="fill:#555555;" transform="translate(300.015057 128.59399)scale(0.1 -0.1)">
       <use xlink:href="#DejaVuSans-48"/>
       <use x="63.623047" xlink:href="#DejaVuSans-46"/>
       <use x="95.410156" xlink:href="#DejaVuSans-52"/>
      </g>
     </g>
    </g>
    <g id="ytick_11">
     <g id="line2d_45">
      <path clip-path="url(#pa51feddf7b)" d="M 319.418182 98.504763 
L 547.2 98.504763 
" style="fill:none;stroke:#ffffff;"/>
     </g>
     <g id="line2d_46"/>
     <g id="text_25">
      <!-- 0.5 -->
      <g style="fill:#555555;" transform="translate(300.015057 102.303982)scale(0.1 -0.1)">
       <use xlink:href="#DejaVuSans-48"/>
       <use x="63.623047" xlink:href="#DejaVuSans-46"/>
       <use x="95.410156" xlink:href="#DejaVuSans-53"/>
      </g>
     </g>
    </g>
    <g id="ytick_12">
     <g id="line2d_47">
      <path clip-path="url(#pa51feddf7b)" d="M 319.418182 72.214756 
L 547.2 72.214756 
" style="fill:none;stroke:#ffffff;"/>
     </g>
     <g id="line2d_48"/>
     <g id="text_26">
      <!-- 0.6 -->
      <g style="fill:#555555;" transform="translate(300.015057 76.013975)scale(0.1 -0.1)">
       <use xlink:href="#DejaVuSans-48"/>
       <use x="63.623047" xlink:href="#DejaVuSans-46"/>
       <use x="95.410156" xlink:href="#DejaVuSans-54"/>
      </g>
     </g>
    </g>
    <g id="text_27">
     <!-- Frequency -->
     <g style="fill:#555555;" transform="translate(293.519432 162.92446)rotate(-90)scale(0.12 -0.12)">
      <use xlink:href="#DejaVuSans-70"/>
      <use x="57.410156" xlink:href="#DejaVuSans-114"/>
      <use x="98.492188" xlink:href="#DejaVuSans-101"/>
      <use x="160.015625" xlink:href="#DejaVuSans-113"/>
      <use x="223.492188" xlink:href="#DejaVuSans-117"/>
      <use x="286.871094" xlink:href="#DejaVuSans-101"/>
      <use x="348.394531" xlink:href="#DejaVuSans-110"/>
      <use x="411.773438" xlink:href="#DejaVuSans-99"/>
      <use x="466.753906" xlink:href="#DejaVuSans-121"/>
     </g>
    </g>
   </g>
   <g id="LineCollection_2">
    <path clip-path="url(#pa51feddf7b)" d="M 433.309091 203.664793 
L 433.309091 59.069752 
" style="fill:none;stroke:#000000;stroke-width:0.5;"/>
   </g>
   <g id="line2d_49">
    <path clip-path="url(#pa51feddf7b)" d="M 329.771901 151.928425 
L 330.807273 151.009589 
L 331.842645 153.859426 
L 332.878017 152.493923 
L 333.913388 152.889587 
L 334.94876 152.391655 
L 335.984132 152.315151 
L 337.019504 150.783495 
L 338.054876 150.098114 
L 339.090248 152.229708 
L 340.12562 150.893387 
L 341.160992 151.27617 
L 342.196364 151.327172 
L 343.231736 151.059277 
L 344.267107 151.033776 
L 345.302479 151.391057 
L 346.337851 151.403939 
L 347.373223 150.063937 
L 348.408595 150.536106 
L 349.443967 149.744777 
L 350.479339 150.038173 
L 351.514711 149.017332 
L 352.550083 150.846065 
L 353.585455 150.182505 
L 354.620826 149.225549 
L 355.656198 149.867288 
L 356.69157 151.168906 
L 357.726942 151.156287 
L 358.762314 149.21661 
L 359.797686 150.607615 
L 360.833058 151.444689 
L 361.86843 149.683784 
L 362.903802 149.951679 
L 363.939174 149.97718 
L 364.974545 150.947019 
L 366.009917 150.896016 
L 367.045289 150.334462 
L 368.080661 149.096728 
L 369.116033 149.020224 
L 370.151405 150.679124 
L 371.186777 150.857633 
L 374.292893 149.594398 
L 375.328264 148.624822 
L 376.363636 148.930838 
L 377.399008 150.449349 
L 379.469752 149.619899 
L 380.505124 149.632781 
L 381.540496 149.891738 
L 382.575868 149.866237 
L 383.61124 150.376526 
L 384.646612 150.2364 
L 385.681983 152.277819 
L 386.717355 148.807275 
L 387.752727 150.899697 
L 388.788099 150.27452 
L 389.823471 150.138075 
L 390.858843 150.507976 
L 391.894215 150.342349 
L 392.929587 150.354968 
L 393.964959 148.33905 
L 395.000331 149.571788 
L 397.071074 150.332095 
L 399.141818 150.625492 
L 400.17719 148.852494 
L 401.212562 150.281093 
L 402.247934 149.337282 
L 403.283306 151.531183 
L 404.318678 150.957272 
L 405.35405 148.520714 
L 406.389421 149.184011 
L 407.424793 149.490289 
L 408.460165 149.987696 
L 409.495537 150.102584 
L 410.530909 149.809187 
L 411.566281 150.744323 
L 412.601653 149.915136 
L 413.637025 149.596238 
L 414.672397 150.259535 
L 417.778512 149.124333 
L 418.813884 151.27985 
L 419.849256 150.565551 
L 420.884628 149.009445 
L 421.92 151.560627 
L 422.955372 151.0414 
L 423.990744 152.559122 
L 425.026116 149.523678 
L 426.061488 151.985211 
L 427.09686 145.69927 
L 428.132231 151.448106 
L 429.167603 148.023307 
L 430.202975 153.503985 
L 431.238347 151.222538 
L 432.273719 148.53307 
L 433.309091 152.577262 
L 434.344463 151.111594 
L 435.379835 150.499826 
L 436.415207 154.629197 
L 437.450579 148.613518 
L 438.48595 151.188098 
L 439.521322 150.232193 
L 440.556694 148.868268 
L 441.592066 150.279253 
L 442.627438 152.152941 
L 443.66281 149.909615 
L 444.698182 149.578098 
L 445.733554 151.171535 
L 446.768926 150.457762 
L 447.804298 148.7497 
L 448.839669 151.260659 
L 449.875041 148.507569 
L 450.910413 151.439168 
L 451.945785 151.885309 
L 452.981157 150.01162 
L 454.016529 151.413666 
L 455.051901 153.22347 
L 456.087273 151.477288 
L 458.158017 152.484195 
L 459.193388 151.668417 
L 460.22876 151.209656 
L 461.264132 152.522579 
L 463.334876 150.954643 
L 464.370248 152.433193 
L 465.40562 150.699893 
L 466.440992 151.248039 
L 467.476364 149.922234 
L 468.511736 149.412471 
L 470.582479 152.293067 
L 471.617851 151.426286 
L 472.653223 150.763514 
L 473.688595 151.426286 
L 476.794711 150.929404 
L 477.830083 151.987314 
L 478.865455 151.120533 
L 479.900826 151.120533 
L 480.936198 152.280448 
L 481.97157 151.413666 
L 483.006942 151.770422 
L 484.042314 152.497078 
L 486.113058 150.559767 
L 487.14843 152.395072 
L 488.183802 151.757803 
L 489.219174 153.784499 
L 490.254545 151.693918 
L 491.289917 151.770422 
L 492.325289 153.338358 
L 493.360661 153.096227 
L 494.396033 151.528291 
L 495.431405 152.242064 
L 496.466777 151.783304 
L 497.502149 152.624584 
L 498.537521 151.082149 
L 499.572893 152.369571 
L 500.608264 150.202749 
L 501.643636 150.355756 
L 502.679008 150.954643 
L 503.71438 151.133152 
L 504.749752 152.293067 
L 505.785124 151.248039 
L 506.820496 150.980144 
L 507.855868 152.586201 
L 510.961983 149.922234 
L 511.997355 151.974432 
L 513.032727 151.643178 
L 514.068099 151.49017 
L 515.103471 151.018528 
L 516.138843 151.566674 
L 517.174215 151.49017 
L 518.209587 152.178443 
L 519.244959 150.878402 
L 520.280331 151.897928 
L 521.315702 151.32428 
L 522.351074 152.203944 
L 523.386446 152.242064 
L 524.421818 151.349782 
L 526.492562 151.222538 
L 527.527934 153.593108 
L 528.563306 152.395072 
L 529.598678 151.7068 
L 530.63405 151.553792 
L 531.669421 150.980144 
L 532.704793 152.701088 
L 533.740165 151.528291 
L 534.775537 151.92343 
L 535.810909 152.726589 
L 536.846281 152.187381 
L 536.846281 152.187381 
" style="fill:none;stroke:#e24a33;stroke-width:2;"/>
   </g>
   <g id="line2d_50">
    <path clip-path="url(#pa51feddf7b)" d="M 329.771901 177.852212 
L 330.807273 178.196874 
L 331.842645 177.076131 
L 332.878017 178.722675 
L 333.913388 178.505519 
L 334.94876 177.994967 
L 335.984132 178.007849 
L 337.019504 179.845784 
L 338.054876 177.563548 
L 339.090248 178.916432 
L 340.12562 179.429613 
L 341.160992 178.459512 
L 343.231736 178.421391 
L 344.267107 179.467733 
L 345.302479 179.09757 
L 346.337851 178.178734 
L 347.373223 179.544237 
L 348.408595 179.697508 
L 349.443967 180.667346 
L 350.479339 180.603725 
L 351.514711 179.352846 
L 352.550083 179.100199 
L 353.585455 180.61871 
L 354.620826 180.210426 
L 355.656198 179.600235 
L 357.726942 179.804508 
L 359.797686 181.705802 
L 360.833058 179.860243 
L 361.86843 180.97047 
L 362.903802 180.881084 
L 363.939174 180.447299 
L 364.974545 181.276749 
L 366.009917 181.289368 
L 367.045289 180.677074 
L 368.080661 181.672151 
L 369.116033 181.391636 
L 370.151405 180.868465 
L 371.186777 181.30225 
L 372.222149 180.4728 
L 373.257521 181.710534 
L 374.292893 181.978429 
L 375.328264 182.118818 
L 376.363636 181.991311 
L 377.399008 181.13636 
L 378.43438 180.881084 
L 379.469752 181.429757 
L 380.505124 181.685033 
L 381.540496 182.988754 
L 382.575868 183.384419 
L 383.61124 182.644355 
L 384.646612 182.669856 
L 385.681983 181.457624 
L 386.717355 182.873867 
L 387.752727 181.470506 
L 388.788099 182.682475 
L 389.823471 182.404064 
L 390.858843 181.370604 
L 391.894215 182.149051 
L 392.929587 182.212673 
L 393.964959 183.169629 
L 395.000331 183.084976 
L 396.035702 182.219771 
L 399.141818 182.566537 
L 400.17719 184.110023 
L 401.212562 183.586852 
L 403.283306 183.038442 
L 404.318678 182.783429 
L 405.35405 184.122642 
L 406.389421 184.288532 
L 407.424793 183.395723 
L 408.460165 183.000059 
L 409.495537 184.020637 
L 410.530909 183.369959 
L 411.566281 183.002425 
L 412.601653 182.90042 
L 413.637025 182.581522 
L 414.672397 182.492136 
L 415.707769 183.43621 
L 416.74314 183.704105 
L 417.778512 182.798414 
L 418.813884 183.474331 
L 419.849256 183.716724 
L 420.884628 185.528106 
L 421.92 183.448829 
L 422.955372 183.668088 
L 423.990744 182.354113 
L 425.026116 182.634891 
L 426.061488 182.698512 
L 427.09686 187.750663 
L 428.132231 185.711084 
L 429.167603 183.18961 
L 430.202975 180.066883 
L 431.238347 181.086409 
L 432.273719 181.150294 
L 433.309091 178.679822 
L 434.344463 187.181222 
L 435.379835 186.416445 
L 436.415207 180.744639 
L 437.450579 182.66933 
L 438.48595 182.579944 
L 439.521322 184.479135 
L 440.556694 182.070181 
L 441.592066 185.330931 
L 442.627438 182.38645 
L 443.66281 183.64837 
L 444.698182 183.750376 
L 445.733554 183.61025 
L 446.768926 182.730586 
L 447.804298 184.92291 
L 448.839669 180.831396 
L 449.875041 183.750376 
L 450.910413 183.64837 
L 451.945785 182.934597 
L 452.981157 183.954386 
L 454.016529 183.941504 
L 455.051901 181.851185 
L 456.087273 181.379543 
L 457.122645 183.482743 
L 458.158017 182.080697 
L 460.22876 183.82688 
L 461.264132 182.896476 
L 462.299504 182.858093 
L 464.370248 183.508245 
L 465.40562 181.774682 
L 466.440992 182.781589 
L 467.476364 182.781589 
L 468.511736 183.469861 
L 469.547107 182.97298 
L 470.582479 183.036602 
L 471.617851 182.284445 
L 472.653223 182.705085 
L 473.688595 182.424833 
L 474.723967 182.921977 
L 475.759339 182.819972 
L 476.794711 182.004193 
L 477.830083 182.666964 
L 478.865455 184.527771 
L 479.900826 182.896476 
L 480.936198 182.845474 
L 481.97157 184.757283 
L 483.006942 183.151226 
L 484.042314 182.042314 
L 485.077686 184.222018 
L 486.113058 183.469861 
L 487.14843 183.495363 
L 488.183802 184.604275 
L 489.219174 182.55234 
L 490.254545 183.813997 
L 491.289917 183.533746 
L 492.325289 182.450335 
L 493.360661 183.44436 
L 494.396033 183.342618 
L 495.431405 182.157201 
L 496.466777 182.450335 
L 497.502149 184.680779 
L 498.537521 183.61025 
L 499.572893 181.32854 
L 500.608264 183.661252 
L 501.643636 183.457242 
L 502.679008 181.991311 
L 503.71438 183.151226 
L 504.749752 182.373831 
L 505.785124 182.042314 
L 506.820496 183.125725 
L 507.855868 182.462954 
L 508.89124 181.647175 
L 509.926612 184.094512 
L 510.961983 182.067815 
L 511.997355 182.38645 
L 513.032727 182.157201 
L 514.068099 183.22773 
L 515.103471 183.355237 
L 517.174215 182.577841 
L 518.209587 182.526839 
L 519.244959 184.107131 
L 520.280331 181.443427 
L 521.315702 181.647175 
L 522.351074 183.074722 
L 523.386446 182.309946 
L 524.421818 182.641463 
L 525.45719 183.266114 
L 526.492562 182.093316 
L 527.527934 181.902188 
L 528.563306 181.29042 
L 529.598678 182.246324 
L 530.63405 181.124793 
L 531.669421 182.233705 
L 533.740165 181.49443 
L 534.775537 183.380738 
L 535.810909 182.233705 
L 536.846281 182.766604 
L 536.846281 182.766604 
" style="fill:none;stroke:#348abd;stroke-opacity:0.8;stroke-width:2;"/>
   </g>
   <g id="line2d_51">
    <path clip-path="url(#pa51feddf7b)" d="M 329.771901 177.979719 
L 330.807273 177.813829 
L 331.842645 177.305906 
L 332.878017 176.616582 
L 334.94876 177.778075 
L 335.984132 177.790957 
L 337.019504 178.850181 
L 338.054876 178.572033 
L 339.090248 177.129763 
L 340.12562 178.510514 
L 341.160992 177.630062 
L 342.196364 177.732067 
L 343.231736 178.459512 
L 344.267107 179.327345 
L 345.302479 177.374786 
L 346.337851 178.638284 
L 348.408595 178.408509 
L 349.443967 177.78307 
L 350.479339 179.365728 
L 351.514711 179.965403 
L 352.550083 179.253207 
L 353.585455 177.568806 
L 354.620826 179.674373 
L 355.656198 179.459846 
L 356.69157 178.821788 
L 357.726942 178.936675 
L 358.762314 180.008519 
L 359.797686 179.421726 
L 360.833058 179.860243 
L 361.86843 179.490343 
L 362.903802 179.426458 
L 363.939174 181.187363 
L 364.974545 179.171445 
L 366.009917 179.847624 
L 367.045289 180.1029 
L 368.080661 180.983089 
L 369.116033 180.408916 
L 370.151405 180.192023 
L 371.186777 179.196946 
L 372.222149 180.345294 
L 373.257521 179.464841 
L 374.292893 180.396296 
L 375.328264 180.179404 
L 376.363636 179.758238 
L 377.399008 180.893966 
L 378.43438 180.523803 
L 379.469752 180.830082 
L 380.505124 180.26879 
L 381.540496 179.888373 
L 382.575868 178.65064 
L 383.61124 179.505591 
L 384.646612 179.900993 
L 385.681983 178.255238 
L 386.717355 181.01122 
L 387.752727 179.199312 
L 388.788099 179.607596 
L 389.823471 180.503034 
L 390.858843 180.771192 
L 391.894215 180.133133 
L 392.929587 180.605302 
L 393.964959 181.740767 
L 395.000331 180.457026 
L 396.035702 181.033303 
L 397.071074 180.32137 
L 398.106446 180.576646 
L 399.141818 179.976971 
L 400.17719 180.104477 
L 401.212562 179.492183 
L 402.247934 180.423375 
L 403.283306 179.517684 
L 404.318678 179.721958 
L 405.35405 180.780656 
L 406.389421 180.385255 
L 408.460165 180.104477 
L 409.495537 179.339175 
L 410.530909 180.142861 
L 411.566281 179.201416 
L 412.601653 180.579012 
L 413.637025 179.788209 
L 414.672397 179.928334 
L 415.707769 178.76763 
L 416.74314 179.354423 
L 417.778512 180.323736 
L 418.813884 179.532933 
L 419.849256 180.40024 
L 420.884628 180.260114 
L 421.92 179.826329 
L 422.955372 180.007467 
L 423.990744 179.586564 
L 425.026116 182.469001 
L 426.061488 180.032969 
L 427.09686 185.264943 
L 428.132231 176.584508 
L 429.167603 183.176728 
L 430.202975 181.851185 
L 431.238347 184.515152 
L 433.309091 180.642634 
L 434.344463 171.580731 
L 435.379835 180.948649 
L 436.415207 180.948649 
L 437.450579 182.452438 
L 439.521322 180.897647 
L 440.556694 179.125963 
L 441.592066 179.289224 
L 442.627438 181.086409 
L 443.66281 179.697245 
L 444.698182 180.079502 
L 445.733554 180.844278 
L 446.768926 180.818777 
L 447.804298 181.634556 
L 448.839669 180.716772 
L 449.875041 179.327608 
L 450.910413 181.685558 
L 451.945785 181.456047 
L 452.981157 180.678651 
L 454.016529 179.671744 
L 455.051901 181.341422 
L 456.087273 182.577841 
L 457.122645 179.964877 
L 458.158017 179.289224 
L 459.193388 179.773486 
L 460.22876 179.187219 
L 462.299504 180.372635 
L 463.334876 181.876687 
L 464.370248 179.289224 
L 465.40562 179.187219 
L 466.440992 180.665769 
L 467.476364 181.417926 
L 468.511736 180.538262 
L 469.547107 180.398137 
L 470.582479 180.589265 
L 471.617851 179.951995 
L 472.653223 180.563764 
L 473.688595 180.143124 
L 474.723967 178.996091 
L 475.759339 180.054001 
L 476.794711 179.837371 
L 477.830083 179.505854 
L 479.900826 179.671744 
L 480.936198 177.441037 
L 481.97157 178.894085 
L 483.006942 178.868584 
L 484.042314 178.384322 
L 485.077686 178.881466 
L 486.113058 179.21272 
L 487.14843 176.650759 
L 488.183802 178.33332 
L 489.219174 177.772554 
L 490.254545 178.256816 
L 491.289917 179.900993 
L 492.325289 177.517541 
L 493.360661 177.160522 
L 494.396033 177.989183 
L 495.431405 179.238222 
L 496.466777 177.874559 
L 497.502149 177.300911 
L 498.537521 178.052805 
L 499.572893 177.912679 
L 500.608264 178.830464 
L 501.643636 178.868584 
L 502.679008 179.072595 
L 503.71438 179.493235 
L 504.749752 179.467733 
L 505.785124 179.047093 
L 506.820496 179.238222 
L 507.855868 178.103808 
L 508.89124 177.73417 
L 509.926612 178.052805 
L 510.961983 179.149098 
L 511.997355 178.078306 
L 513.032727 179.352846 
L 514.068099 178.53733 
L 515.103471 177.109783 
L 516.138843 177.747052 
L 517.174215 179.136216 
L 518.209587 179.251104 
L 519.244959 178.244196 
L 520.280331 178.715576 
L 521.315702 178.524448 
L 522.351074 178.677456 
L 523.386446 178.345939 
L 524.421818 178.779461 
L 525.45719 178.447944 
L 526.492562 178.906968 
L 527.527934 177.198906 
L 528.563306 179.81187 
L 529.598678 178.524448 
L 530.63405 178.677456 
L 531.669421 178.996091 
L 532.704793 178.843083 
L 533.740165 179.340227 
L 534.775537 178.830464 
L 535.810909 179.81187 
L 536.846281 179.528989 
L 536.846281 179.528989 
" style="fill:none;stroke:#988ed5;stroke-opacity:0.6;stroke-width:2;"/>
   </g>
   <g id="line2d_52">
    <path clip-path="url(#pa51feddf7b)" d="M 329.771901 149.158772 
L 330.807273 149.899099 
L 331.842645 148.677665 
L 332.878017 149.085949 
L 333.913388 148.282001 
L 334.94876 148.754169 
L 335.984132 148.805172 
L 337.019504 147.439669 
L 338.054876 150.685433 
L 339.090248 148.643225 
L 340.12562 148.085614 
L 341.160992 149.553385 
L 342.196364 149.400115 
L 343.231736 148.978949 
L 344.267107 147.090275 
L 345.302479 149.055716 
L 346.337851 148.698171 
L 347.373223 148.80044 
L 348.408595 148.277006 
L 349.443967 148.723673 
L 350.479339 146.911503 
L 351.514711 148.583284 
L 352.550083 147.719657 
L 353.585455 148.549107 
L 354.620826 147.808781 
L 355.656198 147.991496 
L 356.69157 147.213049 
L 357.726942 147.021658 
L 358.762314 146.970655 
L 359.797686 145.184249 
L 360.833058 145.753691 
L 361.86843 146.774532 
L 362.903802 146.659644 
L 363.939174 145.307286 
L 364.974545 145.524179 
L 366.009917 144.88612 
L 367.045289 145.804956 
L 368.080661 145.166898 
L 369.116033 146.098353 
L 370.151405 145.179517 
L 371.186777 145.562299 
L 373.257521 145.817575 
L 374.292893 144.950005 
L 375.328264 145.996347 
L 376.363636 146.238741 
L 377.399008 144.439453 
L 378.43438 145.421911 
L 379.469752 145.039128 
L 380.505124 145.332788 
L 381.540496 144.150263 
L 382.575868 145.017833 
L 383.61124 144.392657 
L 384.646612 144.11188 
L 385.681983 144.928447 
L 386.717355 144.226767 
L 387.752727 145.349613 
L 388.788099 144.354274 
L 389.823471 143.873692 
L 390.858843 144.269357 
L 391.894215 144.294858 
L 392.929587 143.746186 
L 393.964959 143.669682 
L 395.000331 143.805601 
L 396.035702 143.682038 
L 397.071074 143.95414 
L 398.106446 143.341845 
L 399.141818 143.750129 
L 400.17719 143.852134 
L 401.212562 143.558738 
L 402.247934 143.801132 
L 403.283306 142.831556 
L 404.318678 143.456733 
L 405.35405 143.495116 
L 406.389421 143.061331 
L 407.424793 143.826633 
L 408.460165 143.826633 
L 409.495537 143.456733 
L 410.530909 143.597121 
L 411.566281 143.971228 
L 412.601653 143.524824 
L 413.637025 144.953423 
L 414.672397 144.239123 
L 415.707769 144.864037 
L 416.74314 144.392131 
L 417.778512 144.672646 
L 418.813884 142.631752 
L 419.849256 142.236351 
L 421.92 142.083343 
L 423.990744 142.419329 
L 426.061488 142.202436 
L 427.09686 138.204252 
L 428.132231 143.17543 
L 429.167603 142.529747 
L 430.202975 141.497076 
L 431.238347 140.095029 
L 432.273719 144.722071 
L 433.309091 145.019148 
L 434.344463 147.045845 
L 435.379835 139.054471 
L 436.415207 140.596643 
L 437.450579 143.183842 
L 438.48595 141.43766 
L 439.521322 141.310416 
L 440.556694 146.854453 
L 441.592066 142.019721 
L 442.627438 141.293328 
L 443.66281 143.663898 
L 444.698182 143.511153 
L 445.733554 141.293328 
L 446.768926 142.912004 
L 447.804298 141.611963 
L 448.839669 144.110039 
L 449.875041 145.333839 
L 450.910413 140.146032 
L 451.945785 140.643176 
L 452.981157 142.274734 
L 454.016529 141.892214 
L 455.051901 140.50305 
L 456.087273 141.484456 
L 457.122645 141.458955 
L 458.158017 143.065012 
L 459.193388 142.542366 
L 460.22876 142.695374 
L 461.264132 141.764971 
L 462.299504 141.99422 
L 463.334876 140.872688 
L 464.370248 141.688467 
L 465.40562 145.257335 
L 466.440992 142.223731 
L 467.476364 142.797379 
L 468.511736 143.498271 
L 469.547107 142.695374 
L 470.582479 141.000194 
L 471.617851 143.25614 
L 472.653223 142.886502 
L 473.688595 142.924886 
L 474.723967 143.714901 
L 475.759339 142.950124 
L 476.794711 144.148423 
L 477.830083 142.758996 
L 478.865455 141.650083 
L 479.900826 143.230639 
L 480.936198 144.352433 
L 481.97157 141.854094 
L 483.006942 143.128633 
L 484.042314 143.995415 
L 485.077686 142.325737 
L 486.113058 143.67678 
L 487.14843 144.377935 
L 488.183802 142.223731 
L 489.219174 142.809998 
L 490.254545 143.154135 
L 491.289917 141.713968 
L 492.325289 143.613158 
L 493.360661 143.218019 
L 494.396033 144.059037 
L 495.431405 143.281641 
L 496.466777 144.811194 
L 497.502149 142.312854 
L 498.537521 144.173924 
L 499.572893 145.308338 
L 500.608264 144.224927 
L 501.643636 144.237546 
L 502.679008 144.900317 
L 503.71438 143.141515 
L 504.749752 142.784497 
L 505.785124 144.581682 
L 506.820496 143.574775 
L 507.855868 143.765903 
L 508.89124 145.869104 
L 509.926612 143.931793 
L 510.961983 145.779981 
L 511.997355 144.479677 
L 513.032727 143.765903 
L 514.068099 143.663898 
L 515.103471 145.435844 
L 518.209587 142.963006 
L 519.244959 143.689399 
L 520.280331 144.862196 
L 521.315702 145.422962 
L 522.351074 142.963006 
L 523.386446 144.020916 
L 524.421818 144.148423 
L 525.45719 143.944412 
L 526.492562 144.696569 
L 527.527934 144.224927 
L 528.563306 143.421767 
L 530.63405 145.563088 
L 531.669421 144.709189 
L 532.704793 143.46015 
L 533.740165 144.556181 
L 534.775537 142.784497 
L 535.810909 142.147227 
L 536.846281 142.436155 
L 536.846281 142.436155 
" style="fill:none;stroke:#777777;stroke-opacity:0.4;stroke-width:2;"/>
   </g>
   <g id="text_28">
    <!-- RefSeq -->
    <defs>
     <path d="M 44.390625 34.1875 
Q 47.5625 33.109375 50.5625 29.59375 
Q 53.5625 26.078125 56.59375 19.921875 
L 66.609375 0 
L 56 0 
L 46.6875 18.703125 
Q 43.0625 26.03125 39.671875 28.421875 
Q 36.28125 30.8125 30.421875 30.8125 
L 19.671875 30.8125 
L 19.671875 0 
L 9.8125 0 
L 9.8125 72.90625 
L 32.078125 72.90625 
Q 44.578125 72.90625 50.734375 67.671875 
Q 56.890625 62.453125 56.890625 51.90625 
Q 56.890625 45.015625 53.6875 40.46875 
Q 50.484375 35.9375 44.390625 34.1875 
z
M 19.671875 64.796875 
L 19.671875 38.921875 
L 32.078125 38.921875 
Q 39.203125 38.921875 42.84375 42.21875 
Q 46.484375 45.515625 46.484375 51.90625 
Q 46.484375 58.296875 42.84375 61.546875 
Q 39.203125 64.796875 32.078125 64.796875 
z
" id="DejaVuSans-82"/>
    </defs>
    <g transform="translate(407.773841 45.84)scale(0.144 -0.144)">
     <use xlink:href="#DejaVuSans-82"/>
     <use x="69.419922" xlink:href="#DejaVuSans-101"/>
     <use x="130.943359" xlink:href="#DejaVuSans-102"/>
     <use x="166.148438" xlink:href="#DejaVuSans-83"/>
     <use x="229.625" xlink:href="#DejaVuSans-101"/>
     <use x="291.148438" xlink:href="#DejaVuSans-113"/>
    </g>
   </g>
   <g id="legend_1">
    <g id="patch_4">
     <path d="M 563.311273 64.84 
L 567.311273 64.84 
Q 569.311273 64.84 569.311273 62.84 
L 569.311273 58.84 
Q 569.311273 56.84 567.311273 56.84 
L 563.311273 56.84 
Q 561.311273 56.84 561.311273 58.84 
L 561.311273 62.84 
Q 561.311273 64.84 563.311273 64.84 
z
" style="fill:#e5e5e5;opacity:0.8;stroke:#cccccc;stroke-linejoin:miter;stroke-width:0.5;"/>
    </g>
   </g>
  </g>
 </g>
 <defs>
  <clipPath id="p795ded86d8">
   <rect height="159.054545" width="227.781818" x="46.08" y="51.84"/>
  </clipPath>
  <clipPath id="pa51feddf7b">
   <rect height="159.054545" width="227.781818" x="319.418182" y="51.84"/>
  </clipPath>
 </defs>
</svg>
