<?xml version="1.0" encoding="utf-8" standalone="no"?>
<!DOCTYPE svg PUBLIC "-//W3C//DTD SVG 1.1//EN"
  "http://www.w3.org/Graphics/SVG/1.1/DTD/svg11.dtd">
<!-- Created with matplotlib (https://matplotlib.org/) -->
<svg height="432pt" version="1.1" viewBox="0 0 576 432" width="576pt" xmlns="http://www.w3.org/2000/svg" xmlns:xlink="http://www.w3.org/1999/xlink">
 <defs>
  <style type="text/css">
*{stroke-linecap:butt;stroke-linejoin:round;}
  </style>
 </defs>
 <g id="figure_1">
  <g id="patch_1">
   <path d="M 0 432 
L 576 432 
L 576 0 
L 0 0 
z
" style="fill:#ffffff;"/>
  </g>
  <g id="axes_1">
   <g id="patch_2">
    <path d="M 72 378 
L 518.4 378 
L 518.4 51.84 
L 72 51.84 
z
" style="fill:#ffffff;"/>
   </g>
   <g id="matplotlib.axis_1">
    <g id="xtick_1">
     <g id="text_1">
      <!-- 0 -->
      <defs>
       <path d="M 4.15625 35.296875 
Q 4.15625 48 6.765625 55.734375 
Q 9.375 63.484375 14.515625 67.671875 
Q 19.671875 71.875 27.484375 71.875 
Q 33.25 71.875 37.59375 69.546875 
Q 41.9375 67.234375 44.765625 62.859375 
Q 47.609375 58.5 49.21875 52.21875 
Q 50.828125 45.953125 50.828125 35.296875 
Q 50.828125 22.703125 48.234375 14.96875 
Q 45.65625 7.234375 40.5 3 
Q 35.359375 -1.21875 27.484375 -1.21875 
Q 17.140625 -1.21875 11.234375 6.203125 
Q 4.15625 15.140625 4.15625 35.296875 
z
M 13.1875 35.296875 
Q 13.1875 17.671875 17.3125 11.828125 
Q 21.4375 6 27.484375 6 
Q 33.546875 6 37.671875 11.859375 
Q 41.796875 17.71875 41.796875 35.296875 
Q 41.796875 52.984375 37.671875 58.78125 
Q 33.546875 64.59375 27.390625 64.59375 
Q 21.34375 64.59375 17.71875 59.46875 
Q 13.1875 52.9375 13.1875 35.296875 
z
" id="ArialMT-48"/>
      </defs>
      <g style="fill:#262626;" transform="translate(97.972915 392.157812)scale(0.1 -0.1)">
       <use xlink:href="#ArialMT-48"/>
      </g>
     </g>
    </g>
    <g id="xtick_2">
     <g id="text_2">
      <!-- 200 -->
      <defs>
       <path d="M 50.34375 8.453125 
L 50.34375 0 
L 3.03125 0 
Q 2.9375 3.171875 4.046875 6.109375 
Q 5.859375 10.9375 9.828125 15.625 
Q 13.8125 20.3125 21.34375 26.46875 
Q 33.015625 36.03125 37.109375 41.625 
Q 41.21875 47.21875 41.21875 52.203125 
Q 41.21875 57.421875 37.46875 61 
Q 33.734375 64.59375 27.734375 64.59375 
Q 21.390625 64.59375 17.578125 60.78125 
Q 13.765625 56.984375 13.71875 50.25 
L 4.6875 51.171875 
Q 5.609375 61.28125 11.65625 66.578125 
Q 17.71875 71.875 27.9375 71.875 
Q 38.234375 71.875 44.234375 66.15625 
Q 50.25 60.453125 50.25 52 
Q 50.25 47.703125 48.484375 43.546875 
Q 46.734375 39.40625 42.65625 34.8125 
Q 38.578125 30.21875 29.109375 22.21875 
Q 21.1875 15.578125 18.9375 13.203125 
Q 16.703125 10.84375 15.234375 8.453125 
z
" id="ArialMT-50"/>
      </defs>
      <g style="fill:#262626;" transform="translate(160.046991 392.157812)scale(0.1 -0.1)">
       <use xlink:href="#ArialMT-50"/>
       <use x="55.615234" xlink:href="#ArialMT-48"/>
       <use x="111.230469" xlink:href="#ArialMT-48"/>
      </g>
     </g>
    </g>
    <g id="xtick_3">
     <g id="text_3">
      <!-- 400 -->
      <defs>
       <path d="M 32.328125 0 
L 32.328125 17.140625 
L 1.265625 17.140625 
L 1.265625 25.203125 
L 33.9375 71.578125 
L 41.109375 71.578125 
L 41.109375 25.203125 
L 50.78125 25.203125 
L 50.78125 17.140625 
L 41.109375 17.140625 
L 41.109375 0 
z
M 32.328125 25.203125 
L 32.328125 57.46875 
L 9.90625 25.203125 
z
" id="ArialMT-52"/>
      </defs>
      <g style="fill:#262626;" transform="translate(227.682005 392.157812)scale(0.1 -0.1)">
       <use xlink:href="#ArialMT-52"/>
       <use x="55.615234" xlink:href="#ArialMT-48"/>
       <use x="111.230469" xlink:href="#ArialMT-48"/>
      </g>
     </g>
    </g>
    <g id="xtick_4">
     <g id="text_4">
      <!-- 600 -->
      <defs>
       <path d="M 49.75 54.046875 
L 41.015625 53.375 
Q 39.84375 58.546875 37.703125 60.890625 
Q 34.125 64.65625 28.90625 64.65625 
Q 24.703125 64.65625 21.53125 62.3125 
Q 17.390625 59.28125 14.984375 53.46875 
Q 12.59375 47.65625 12.5 36.921875 
Q 15.671875 41.75 20.265625 44.09375 
Q 24.859375 46.4375 29.890625 46.4375 
Q 38.671875 46.4375 44.84375 39.96875 
Q 51.03125 33.5 51.03125 23.25 
Q 51.03125 16.5 48.125 10.71875 
Q 45.21875 4.9375 40.140625 1.859375 
Q 35.0625 -1.21875 28.609375 -1.21875 
Q 17.625 -1.21875 10.6875 6.859375 
Q 3.765625 14.9375 3.765625 33.5 
Q 3.765625 54.25 11.421875 63.671875 
Q 18.109375 71.875 29.4375 71.875 
Q 37.890625 71.875 43.28125 67.140625 
Q 48.6875 62.40625 49.75 54.046875 
z
M 13.875 23.1875 
Q 13.875 18.65625 15.796875 14.5 
Q 17.71875 10.359375 21.1875 8.171875 
Q 24.65625 6 28.46875 6 
Q 34.03125 6 38.03125 10.484375 
Q 42.046875 14.984375 42.046875 22.703125 
Q 42.046875 30.125 38.078125 34.390625 
Q 34.125 38.671875 28.125 38.671875 
Q 22.171875 38.671875 18.015625 34.390625 
Q 13.875 30.125 13.875 23.1875 
z
" id="ArialMT-54"/>
      </defs>
      <g style="fill:#262626;" transform="translate(295.317019 392.157812)scale(0.1 -0.1)">
       <use xlink:href="#ArialMT-54"/>
       <use x="55.615234" xlink:href="#ArialMT-48"/>
       <use x="111.230469" xlink:href="#ArialMT-48"/>
      </g>
     </g>
    </g>
    <g id="xtick_5">
     <g id="text_5">
      <!-- 800 -->
      <defs>
       <path d="M 17.671875 38.8125 
Q 12.203125 40.828125 9.5625 44.53125 
Q 6.9375 48.25 6.9375 53.421875 
Q 6.9375 61.234375 12.546875 66.546875 
Q 18.171875 71.875 27.484375 71.875 
Q 36.859375 71.875 42.578125 66.421875 
Q 48.296875 60.984375 48.296875 53.171875 
Q 48.296875 48.1875 45.671875 44.5 
Q 43.0625 40.828125 37.75 38.8125 
Q 44.34375 36.671875 47.78125 31.875 
Q 51.21875 27.09375 51.21875 20.453125 
Q 51.21875 11.28125 44.71875 5.03125 
Q 38.234375 -1.21875 27.640625 -1.21875 
Q 17.046875 -1.21875 10.546875 5.046875 
Q 4.046875 11.328125 4.046875 20.703125 
Q 4.046875 27.6875 7.59375 32.390625 
Q 11.140625 37.109375 17.671875 38.8125 
z
M 15.921875 53.71875 
Q 15.921875 48.640625 19.1875 45.40625 
Q 22.46875 42.1875 27.6875 42.1875 
Q 32.765625 42.1875 36.015625 45.375 
Q 39.265625 48.578125 39.265625 53.21875 
Q 39.265625 58.0625 35.90625 61.359375 
Q 32.5625 64.65625 27.59375 64.65625 
Q 22.5625 64.65625 19.234375 61.421875 
Q 15.921875 58.203125 15.921875 53.71875 
z
M 13.09375 20.65625 
Q 13.09375 16.890625 14.875 13.375 
Q 16.65625 9.859375 20.171875 7.921875 
Q 23.6875 6 27.734375 6 
Q 34.03125 6 38.125 10.046875 
Q 42.234375 14.109375 42.234375 20.359375 
Q 42.234375 26.703125 38.015625 30.859375 
Q 33.796875 35.015625 27.4375 35.015625 
Q 21.234375 35.015625 17.15625 30.90625 
Q 13.09375 26.8125 13.09375 20.65625 
z
" id="ArialMT-56"/>
      </defs>
      <g style="fill:#262626;" transform="translate(362.952033 392.157812)scale(0.1 -0.1)">
       <use xlink:href="#ArialMT-56"/>
       <use x="55.615234" xlink:href="#ArialMT-48"/>
       <use x="111.230469" xlink:href="#ArialMT-48"/>
      </g>
     </g>
    </g>
    <g id="xtick_6">
     <g id="text_6">
      <!-- 1000 -->
      <defs>
       <path d="M 37.25 0 
L 28.46875 0 
L 28.46875 56 
Q 25.296875 52.984375 20.140625 49.953125 
Q 14.984375 46.921875 10.890625 45.40625 
L 10.890625 53.90625 
Q 18.265625 57.375 23.78125 62.296875 
Q 29.296875 67.234375 31.59375 71.875 
L 37.25 71.875 
z
" id="ArialMT-49"/>
      </defs>
      <g style="fill:#262626;" transform="translate(427.806579 392.157812)scale(0.1 -0.1)">
       <use xlink:href="#ArialMT-49"/>
       <use x="55.615234" xlink:href="#ArialMT-48"/>
       <use x="111.230469" xlink:href="#ArialMT-48"/>
       <use x="166.845703" xlink:href="#ArialMT-48"/>
      </g>
     </g>
    </g>
    <g id="xtick_7">
     <g id="text_7">
      <!-- 1200 -->
      <g style="fill:#262626;" transform="translate(495.441593 392.157812)scale(0.1 -0.1)">
       <use xlink:href="#ArialMT-49"/>
       <use x="55.615234" xlink:href="#ArialMT-50"/>
       <use x="111.230469" xlink:href="#ArialMT-48"/>
       <use x="166.845703" xlink:href="#ArialMT-48"/>
      </g>
     </g>
    </g>
    <g id="text_8">
     <!-- TSS Position relative to previous annotation -->
     <defs>
      <path d="M 25.921875 0 
L 25.921875 63.140625 
L 2.34375 63.140625 
L 2.34375 71.578125 
L 59.078125 71.578125 
L 59.078125 63.140625 
L 35.40625 63.140625 
L 35.40625 0 
z
" id="ArialMT-84"/>
      <path d="M 4.5 23 
L 13.421875 23.78125 
Q 14.0625 18.40625 16.375 14.96875 
Q 18.703125 11.53125 23.578125 9.40625 
Q 28.46875 7.28125 34.578125 7.28125 
Q 39.984375 7.28125 44.140625 8.890625 
Q 48.296875 10.5 50.3125 13.296875 
Q 52.34375 16.109375 52.34375 19.4375 
Q 52.34375 22.796875 50.390625 25.3125 
Q 48.4375 27.828125 43.953125 29.546875 
Q 41.0625 30.671875 31.203125 33.03125 
Q 21.34375 35.40625 17.390625 37.5 
Q 12.25 40.1875 9.734375 44.15625 
Q 7.234375 48.140625 7.234375 53.078125 
Q 7.234375 58.5 10.296875 63.203125 
Q 13.375 67.921875 19.28125 70.359375 
Q 25.203125 72.796875 32.421875 72.796875 
Q 40.375 72.796875 46.453125 70.234375 
Q 52.546875 67.671875 55.8125 62.6875 
Q 59.078125 57.71875 59.328125 51.421875 
L 50.25 50.734375 
Q 49.515625 57.515625 45.28125 60.984375 
Q 41.0625 64.453125 32.8125 64.453125 
Q 24.21875 64.453125 20.28125 61.296875 
Q 16.359375 58.15625 16.359375 53.71875 
Q 16.359375 49.859375 19.140625 47.359375 
Q 21.875 44.875 33.421875 42.265625 
Q 44.96875 39.65625 49.265625 37.703125 
Q 55.515625 34.8125 58.484375 30.390625 
Q 61.46875 25.984375 61.46875 20.21875 
Q 61.46875 14.5 58.203125 9.4375 
Q 54.9375 4.390625 48.796875 1.578125 
Q 42.671875 -1.21875 35.015625 -1.21875 
Q 25.296875 -1.21875 18.71875 1.609375 
Q 12.15625 4.4375 8.421875 10.125 
Q 4.6875 15.828125 4.5 23 
z
" id="ArialMT-83"/>
      <path id="ArialMT-32"/>
      <path d="M 7.71875 0 
L 7.71875 71.578125 
L 34.71875 71.578125 
Q 41.84375 71.578125 45.609375 70.90625 
Q 50.875 70.015625 54.4375 67.546875 
Q 58.015625 65.09375 60.1875 60.640625 
Q 62.359375 56.203125 62.359375 50.875 
Q 62.359375 41.75 56.546875 35.421875 
Q 50.734375 29.109375 35.546875 29.109375 
L 17.1875 29.109375 
L 17.1875 0 
z
M 17.1875 37.546875 
L 35.6875 37.546875 
Q 44.875 37.546875 48.734375 40.96875 
Q 52.59375 44.390625 52.59375 50.59375 
Q 52.59375 55.078125 50.3125 58.265625 
Q 48.046875 61.46875 44.34375 62.5 
Q 41.9375 63.140625 35.5 63.140625 
L 17.1875 63.140625 
z
" id="ArialMT-80"/>
      <path d="M 3.328125 25.921875 
Q 3.328125 40.328125 11.328125 47.265625 
Q 18.015625 53.03125 27.640625 53.03125 
Q 38.328125 53.03125 45.109375 46.015625 
Q 51.90625 39.015625 51.90625 26.65625 
Q 51.90625 16.65625 48.90625 10.90625 
Q 45.90625 5.171875 40.15625 2 
Q 34.421875 -1.171875 27.640625 -1.171875 
Q 16.75 -1.171875 10.03125 5.8125 
Q 3.328125 12.796875 3.328125 25.921875 
z
M 12.359375 25.921875 
Q 12.359375 15.96875 16.703125 11.015625 
Q 21.046875 6.0625 27.640625 6.0625 
Q 34.1875 6.0625 38.53125 11.03125 
Q 42.875 16.015625 42.875 26.21875 
Q 42.875 35.84375 38.5 40.796875 
Q 34.125 45.75 27.640625 45.75 
Q 21.046875 45.75 16.703125 40.8125 
Q 12.359375 35.890625 12.359375 25.921875 
z
" id="ArialMT-111"/>
      <path d="M 3.078125 15.484375 
L 11.765625 16.84375 
Q 12.5 11.625 15.84375 8.84375 
Q 19.1875 6.0625 25.203125 6.0625 
Q 31.25 6.0625 34.171875 8.515625 
Q 37.109375 10.984375 37.109375 14.3125 
Q 37.109375 17.28125 34.515625 19 
Q 32.71875 20.171875 25.53125 21.96875 
Q 15.875 24.421875 12.140625 26.203125 
Q 8.40625 27.984375 6.46875 31.125 
Q 4.546875 34.28125 4.546875 38.09375 
Q 4.546875 41.546875 6.125 44.5 
Q 7.71875 47.46875 10.453125 49.421875 
Q 12.5 50.921875 16.03125 51.96875 
Q 19.578125 53.03125 23.640625 53.03125 
Q 29.734375 53.03125 34.34375 51.265625 
Q 38.96875 49.515625 41.15625 46.5 
Q 43.359375 43.5 44.1875 38.484375 
L 35.59375 37.3125 
Q 35.015625 41.3125 32.203125 43.546875 
Q 29.390625 45.796875 24.265625 45.796875 
Q 18.21875 45.796875 15.625 43.796875 
Q 13.03125 41.796875 13.03125 39.109375 
Q 13.03125 37.40625 14.109375 36.03125 
Q 15.1875 34.625 17.484375 33.6875 
Q 18.796875 33.203125 25.25 31.453125 
Q 34.578125 28.953125 38.25 27.359375 
Q 41.9375 25.78125 44.03125 22.75 
Q 46.140625 19.734375 46.140625 15.234375 
Q 46.140625 10.84375 43.578125 6.953125 
Q 41.015625 3.078125 36.171875 0.953125 
Q 31.34375 -1.171875 25.25 -1.171875 
Q 15.140625 -1.171875 9.84375 3.03125 
Q 4.546875 7.234375 3.078125 15.484375 
z
" id="ArialMT-115"/>
      <path d="M 6.640625 61.46875 
L 6.640625 71.578125 
L 15.4375 71.578125 
L 15.4375 61.46875 
z
M 6.640625 0 
L 6.640625 51.859375 
L 15.4375 51.859375 
L 15.4375 0 
z
" id="ArialMT-105"/>
      <path d="M 25.78125 7.859375 
L 27.046875 0.09375 
Q 23.34375 -0.6875 20.40625 -0.6875 
Q 15.625 -0.6875 12.984375 0.828125 
Q 10.359375 2.34375 9.28125 4.8125 
Q 8.203125 7.28125 8.203125 15.1875 
L 8.203125 45.015625 
L 1.765625 45.015625 
L 1.765625 51.859375 
L 8.203125 51.859375 
L 8.203125 64.703125 
L 16.9375 69.96875 
L 16.9375 51.859375 
L 25.78125 51.859375 
L 25.78125 45.015625 
L 16.9375 45.015625 
L 16.9375 14.703125 
Q 16.9375 10.9375 17.40625 9.859375 
Q 17.875 8.796875 18.921875 8.15625 
Q 19.96875 7.515625 21.921875 7.515625 
Q 23.390625 7.515625 25.78125 7.859375 
z
" id="ArialMT-116"/>
      <path d="M 6.59375 0 
L 6.59375 51.859375 
L 14.5 51.859375 
L 14.5 44.484375 
Q 20.21875 53.03125 31 53.03125 
Q 35.6875 53.03125 39.625 51.34375 
Q 43.5625 49.65625 45.515625 46.921875 
Q 47.46875 44.1875 48.25 40.4375 
Q 48.734375 37.984375 48.734375 31.890625 
L 48.734375 0 
L 39.9375 0 
L 39.9375 31.546875 
Q 39.9375 36.921875 38.90625 39.578125 
Q 37.890625 42.234375 35.28125 43.8125 
Q 32.671875 45.40625 29.15625 45.40625 
Q 23.53125 45.40625 19.453125 41.84375 
Q 15.375 38.28125 15.375 28.328125 
L 15.375 0 
z
" id="ArialMT-110"/>
      <path d="M 6.5 0 
L 6.5 51.859375 
L 14.40625 51.859375 
L 14.40625 44 
Q 17.4375 49.515625 20 51.265625 
Q 22.5625 53.03125 25.640625 53.03125 
Q 30.078125 53.03125 34.671875 50.203125 
L 31.640625 42.046875 
Q 28.421875 43.953125 25.203125 43.953125 
Q 22.3125 43.953125 20.015625 42.21875 
Q 17.71875 40.484375 16.75 37.40625 
Q 15.28125 32.71875 15.28125 27.15625 
L 15.28125 0 
z
" id="ArialMT-114"/>
      <path d="M 42.09375 16.703125 
L 51.171875 15.578125 
Q 49.03125 7.625 43.21875 3.21875 
Q 37.40625 -1.171875 28.375 -1.171875 
Q 17 -1.171875 10.328125 5.828125 
Q 3.65625 12.84375 3.65625 25.484375 
Q 3.65625 38.578125 10.390625 45.796875 
Q 17.140625 53.03125 27.875 53.03125 
Q 38.28125 53.03125 44.875 45.953125 
Q 51.46875 38.875 51.46875 26.03125 
Q 51.46875 25.25 51.421875 23.6875 
L 12.75 23.6875 
Q 13.234375 15.140625 17.578125 10.59375 
Q 21.921875 6.0625 28.421875 6.0625 
Q 33.25 6.0625 36.671875 8.59375 
Q 40.09375 11.140625 42.09375 16.703125 
z
M 13.234375 30.90625 
L 42.1875 30.90625 
Q 41.609375 37.453125 38.875 40.71875 
Q 34.671875 45.796875 27.984375 45.796875 
Q 21.921875 45.796875 17.796875 41.75 
Q 13.671875 37.703125 13.234375 30.90625 
z
" id="ArialMT-101"/>
      <path d="M 6.390625 0 
L 6.390625 71.578125 
L 15.1875 71.578125 
L 15.1875 0 
z
" id="ArialMT-108"/>
      <path d="M 40.4375 6.390625 
Q 35.546875 2.25 31.03125 0.53125 
Q 26.515625 -1.171875 21.34375 -1.171875 
Q 12.796875 -1.171875 8.203125 3 
Q 3.609375 7.171875 3.609375 13.671875 
Q 3.609375 17.484375 5.34375 20.625 
Q 7.078125 23.78125 9.890625 25.6875 
Q 12.703125 27.59375 16.21875 28.5625 
Q 18.796875 29.25 24.03125 29.890625 
Q 34.671875 31.15625 39.703125 32.90625 
Q 39.75 34.71875 39.75 35.203125 
Q 39.75 40.578125 37.25 42.78125 
Q 33.890625 45.75 27.25 45.75 
Q 21.046875 45.75 18.09375 43.578125 
Q 15.140625 41.40625 13.71875 35.890625 
L 5.125 37.0625 
Q 6.296875 42.578125 8.984375 45.96875 
Q 11.671875 49.359375 16.75 51.1875 
Q 21.828125 53.03125 28.515625 53.03125 
Q 35.15625 53.03125 39.296875 51.46875 
Q 43.453125 49.90625 45.40625 47.53125 
Q 47.359375 45.171875 48.140625 41.546875 
Q 48.578125 39.3125 48.578125 33.453125 
L 48.578125 21.734375 
Q 48.578125 9.46875 49.140625 6.21875 
Q 49.703125 2.984375 51.375 0 
L 42.1875 0 
Q 40.828125 2.734375 40.4375 6.390625 
z
M 39.703125 26.03125 
Q 34.90625 24.078125 25.34375 22.703125 
Q 19.921875 21.921875 17.671875 20.9375 
Q 15.4375 19.96875 14.203125 18.09375 
Q 12.984375 16.21875 12.984375 13.921875 
Q 12.984375 10.40625 15.640625 8.0625 
Q 18.3125 5.71875 23.4375 5.71875 
Q 28.515625 5.71875 32.46875 7.9375 
Q 36.421875 10.15625 38.28125 14.015625 
Q 39.703125 17 39.703125 22.796875 
z
" id="ArialMT-97"/>
      <path d="M 21 0 
L 1.265625 51.859375 
L 10.546875 51.859375 
L 21.6875 20.796875 
Q 23.484375 15.765625 25 10.359375 
Q 26.171875 14.453125 28.265625 20.21875 
L 39.796875 51.859375 
L 48.828125 51.859375 
L 29.203125 0 
z
" id="ArialMT-118"/>
      <path d="M 6.59375 -19.875 
L 6.59375 51.859375 
L 14.59375 51.859375 
L 14.59375 45.125 
Q 17.4375 49.078125 21 51.046875 
Q 24.5625 53.03125 29.640625 53.03125 
Q 36.28125 53.03125 41.359375 49.609375 
Q 46.4375 46.1875 49.015625 39.953125 
Q 51.609375 33.734375 51.609375 26.3125 
Q 51.609375 18.359375 48.75 11.984375 
Q 45.90625 5.609375 40.453125 2.21875 
Q 35.015625 -1.171875 29 -1.171875 
Q 24.609375 -1.171875 21.109375 0.6875 
Q 17.625 2.546875 15.375 5.375 
L 15.375 -19.875 
z
M 14.546875 25.640625 
Q 14.546875 15.625 18.59375 10.84375 
Q 22.65625 6.0625 28.421875 6.0625 
Q 34.28125 6.0625 38.453125 11.015625 
Q 42.625 15.96875 42.625 26.375 
Q 42.625 36.28125 38.546875 41.203125 
Q 34.46875 46.140625 28.8125 46.140625 
Q 23.1875 46.140625 18.859375 40.890625 
Q 14.546875 35.640625 14.546875 25.640625 
z
" id="ArialMT-112"/>
      <path d="M 40.578125 0 
L 40.578125 7.625 
Q 34.515625 -1.171875 24.125 -1.171875 
Q 19.53125 -1.171875 15.546875 0.578125 
Q 11.578125 2.34375 9.640625 5 
Q 7.71875 7.671875 6.9375 11.53125 
Q 6.390625 14.109375 6.390625 19.734375 
L 6.390625 51.859375 
L 15.1875 51.859375 
L 15.1875 23.09375 
Q 15.1875 16.21875 15.71875 13.8125 
Q 16.546875 10.359375 19.234375 8.375 
Q 21.921875 6.390625 25.875 6.390625 
Q 29.828125 6.390625 33.296875 8.421875 
Q 36.765625 10.453125 38.203125 13.9375 
Q 39.65625 17.4375 39.65625 24.078125 
L 39.65625 51.859375 
L 48.4375 51.859375 
L 48.4375 0 
z
" id="ArialMT-117"/>
     </defs>
     <g style="fill:#262626;" transform="translate(198.20625 405.425)scale(0.1 -0.1)">
      <use xlink:href="#ArialMT-84"/>
      <use x="61.083984" xlink:href="#ArialMT-83"/>
      <use x="127.783203" xlink:href="#ArialMT-83"/>
      <use x="194.482422" xlink:href="#ArialMT-32"/>
      <use x="222.265625" xlink:href="#ArialMT-80"/>
      <use x="288.964844" xlink:href="#ArialMT-111"/>
      <use x="344.580078" xlink:href="#ArialMT-115"/>
      <use x="394.580078" xlink:href="#ArialMT-105"/>
      <use x="416.796875" xlink:href="#ArialMT-116"/>
      <use x="444.580078" xlink:href="#ArialMT-105"/>
      <use x="466.796875" xlink:href="#ArialMT-111"/>
      <use x="522.412109" xlink:href="#ArialMT-110"/>
      <use x="578.027344" xlink:href="#ArialMT-32"/>
      <use x="605.810547" xlink:href="#ArialMT-114"/>
      <use x="639.111328" xlink:href="#ArialMT-101"/>
      <use x="694.726562" xlink:href="#ArialMT-108"/>
      <use x="716.943359" xlink:href="#ArialMT-97"/>
      <use x="772.558594" xlink:href="#ArialMT-116"/>
      <use x="800.341797" xlink:href="#ArialMT-105"/>
      <use x="822.558594" xlink:href="#ArialMT-118"/>
      <use x="872.558594" xlink:href="#ArialMT-101"/>
      <use x="928.173828" xlink:href="#ArialMT-32"/>
      <use x="955.957031" xlink:href="#ArialMT-116"/>
      <use x="983.740234" xlink:href="#ArialMT-111"/>
      <use x="1039.355469" xlink:href="#ArialMT-32"/>
      <use x="1067.138672" xlink:href="#ArialMT-112"/>
      <use x="1122.753906" xlink:href="#ArialMT-114"/>
      <use x="1156.054688" xlink:href="#ArialMT-101"/>
      <use x="1211.669922" xlink:href="#ArialMT-118"/>
      <use x="1261.669922" xlink:href="#ArialMT-105"/>
      <use x="1283.886719" xlink:href="#ArialMT-111"/>
      <use x="1339.501953" xlink:href="#ArialMT-117"/>
      <use x="1395.117188" xlink:href="#ArialMT-115"/>
      <use x="1445.117188" xlink:href="#ArialMT-32"/>
      <use x="1472.900391" xlink:href="#ArialMT-97"/>
      <use x="1528.515625" xlink:href="#ArialMT-110"/>
      <use x="1584.130859" xlink:href="#ArialMT-110"/>
      <use x="1639.746094" xlink:href="#ArialMT-111"/>
      <use x="1695.361328" xlink:href="#ArialMT-116"/>
      <use x="1723.144531" xlink:href="#ArialMT-97"/>
      <use x="1778.759766" xlink:href="#ArialMT-116"/>
      <use x="1806.542969" xlink:href="#ArialMT-105"/>
      <use x="1828.759766" xlink:href="#ArialMT-111"/>
      <use x="1884.375" xlink:href="#ArialMT-110"/>
     </g>
    </g>
   </g>
   <g id="matplotlib.axis_2">
    <g id="ytick_1">
     <g id="text_9">
      <!-- 0.000 -->
      <defs>
       <path d="M 9.078125 0 
L 9.078125 10.015625 
L 19.09375 10.015625 
L 19.09375 0 
z
" id="ArialMT-46"/>
      </defs>
      <g style="fill:#262626;" transform="translate(39.978125 381.578906)scale(0.1 -0.1)">
       <use xlink:href="#ArialMT-48"/>
       <use x="55.615234" xlink:href="#ArialMT-46"/>
       <use x="83.398438" xlink:href="#ArialMT-48"/>
       <use x="139.013672" xlink:href="#ArialMT-48"/>
       <use x="194.628906" xlink:href="#ArialMT-48"/>
      </g>
     </g>
    </g>
    <g id="ytick_2">
     <g id="text_10">
      <!-- 0.002 -->
      <g style="fill:#262626;" transform="translate(39.978125 335.365056)scale(0.1 -0.1)">
       <use xlink:href="#ArialMT-48"/>
       <use x="55.615234" xlink:href="#ArialMT-46"/>
       <use x="83.398438" xlink:href="#ArialMT-48"/>
       <use x="139.013672" xlink:href="#ArialMT-48"/>
       <use x="194.628906" xlink:href="#ArialMT-50"/>
      </g>
     </g>
    </g>
    <g id="ytick_3">
     <g id="text_11">
      <!-- 0.004 -->
      <g style="fill:#262626;" transform="translate(39.978125 289.151206)scale(0.1 -0.1)">
       <use xlink:href="#ArialMT-48"/>
       <use x="55.615234" xlink:href="#ArialMT-46"/>
       <use x="83.398438" xlink:href="#ArialMT-48"/>
       <use x="139.013672" xlink:href="#ArialMT-48"/>
       <use x="194.628906" xlink:href="#ArialMT-52"/>
      </g>
     </g>
    </g>
    <g id="ytick_4">
     <g id="text_12">
      <!-- 0.006 -->
      <g style="fill:#262626;" transform="translate(39.978125 242.937355)scale(0.1 -0.1)">
       <use xlink:href="#ArialMT-48"/>
       <use x="55.615234" xlink:href="#ArialMT-46"/>
       <use x="83.398438" xlink:href="#ArialMT-48"/>
       <use x="139.013672" xlink:href="#ArialMT-48"/>
       <use x="194.628906" xlink:href="#ArialMT-54"/>
      </g>
     </g>
    </g>
    <g id="ytick_5">
     <g id="text_13">
      <!-- 0.008 -->
      <g style="fill:#262626;" transform="translate(39.978125 196.723505)scale(0.1 -0.1)">
       <use xlink:href="#ArialMT-48"/>
       <use x="55.615234" xlink:href="#ArialMT-46"/>
       <use x="83.398438" xlink:href="#ArialMT-48"/>
       <use x="139.013672" xlink:href="#ArialMT-48"/>
       <use x="194.628906" xlink:href="#ArialMT-56"/>
      </g>
     </g>
    </g>
    <g id="ytick_6">
     <g id="text_14">
      <!-- 0.010 -->
      <g style="fill:#262626;" transform="translate(39.978125 150.509655)scale(0.1 -0.1)">
       <use xlink:href="#ArialMT-48"/>
       <use x="55.615234" xlink:href="#ArialMT-46"/>
       <use x="83.398438" xlink:href="#ArialMT-48"/>
       <use x="139.013672" xlink:href="#ArialMT-49"/>
       <use x="194.628906" xlink:href="#ArialMT-48"/>
      </g>
     </g>
    </g>
    <g id="ytick_7">
     <g id="text_15">
      <!-- 0.012 -->
      <g style="fill:#262626;" transform="translate(39.978125 104.295805)scale(0.1 -0.1)">
       <use xlink:href="#ArialMT-48"/>
       <use x="55.615234" xlink:href="#ArialMT-46"/>
       <use x="83.398438" xlink:href="#ArialMT-48"/>
       <use x="139.013672" xlink:href="#ArialMT-49"/>
       <use x="194.628906" xlink:href="#ArialMT-50"/>
      </g>
     </g>
    </g>
    <g id="ytick_8">
     <g id="text_16">
      <!-- 0.014 -->
      <g style="fill:#262626;" transform="translate(39.978125 58.081954)scale(0.1 -0.1)">
       <use xlink:href="#ArialMT-48"/>
       <use x="55.615234" xlink:href="#ArialMT-46"/>
       <use x="83.398438" xlink:href="#ArialMT-48"/>
       <use x="139.013672" xlink:href="#ArialMT-49"/>
       <use x="194.628906" xlink:href="#ArialMT-52"/>
      </g>
     </g>
    </g>
    <g id="text_17">
     <!-- Frequency -->
     <defs>
      <path d="M 8.203125 0 
L 8.203125 71.578125 
L 56.5 71.578125 
L 56.5 63.140625 
L 17.671875 63.140625 
L 17.671875 40.96875 
L 51.265625 40.96875 
L 51.265625 32.515625 
L 17.671875 32.515625 
L 17.671875 0 
z
" id="ArialMT-70"/>
      <path d="M 39.65625 -19.875 
L 39.65625 5.515625 
Q 37.59375 2.640625 33.90625 0.734375 
Q 30.21875 -1.171875 26.078125 -1.171875 
Q 16.84375 -1.171875 10.171875 6.203125 
Q 3.515625 13.578125 3.515625 26.421875 
Q 3.515625 34.234375 6.21875 40.421875 
Q 8.9375 46.625 14.078125 49.828125 
Q 19.234375 53.03125 25.390625 53.03125 
Q 35.015625 53.03125 40.53125 44.921875 
L 40.53125 51.859375 
L 48.4375 51.859375 
L 48.4375 -19.875 
z
M 12.546875 26.078125 
Q 12.546875 16.0625 16.75 11.0625 
Q 20.953125 6.0625 26.8125 6.0625 
Q 32.421875 6.0625 36.46875 10.8125 
Q 40.53125 15.578125 40.53125 25.296875 
Q 40.53125 35.640625 36.25 40.859375 
Q 31.984375 46.09375 26.21875 46.09375 
Q 20.515625 46.09375 16.53125 41.234375 
Q 12.546875 36.375 12.546875 26.078125 
z
" id="ArialMT-113"/>
      <path d="M 40.4375 19 
L 49.078125 17.875 
Q 47.65625 8.9375 41.8125 3.875 
Q 35.984375 -1.171875 27.484375 -1.171875 
Q 16.84375 -1.171875 10.375 5.78125 
Q 3.90625 12.75 3.90625 25.734375 
Q 3.90625 34.125 6.6875 40.421875 
Q 9.46875 46.734375 15.15625 49.875 
Q 20.84375 53.03125 27.546875 53.03125 
Q 35.984375 53.03125 41.359375 48.75 
Q 46.734375 44.484375 48.25 36.625 
L 39.703125 35.296875 
Q 38.484375 40.53125 35.375 43.15625 
Q 32.28125 45.796875 27.875 45.796875 
Q 21.234375 45.796875 17.078125 41.03125 
Q 12.9375 36.28125 12.9375 25.984375 
Q 12.9375 15.53125 16.9375 10.796875 
Q 20.953125 6.0625 27.390625 6.0625 
Q 32.5625 6.0625 36.03125 9.234375 
Q 39.5 12.40625 40.4375 19 
z
" id="ArialMT-99"/>
      <path d="M 6.203125 -19.96875 
L 5.21875 -11.71875 
Q 8.109375 -12.5 10.25 -12.5 
Q 13.1875 -12.5 14.9375 -11.515625 
Q 16.703125 -10.546875 17.828125 -8.796875 
Q 18.65625 -7.46875 20.515625 -2.25 
Q 20.75 -1.515625 21.296875 -0.09375 
L 1.609375 51.859375 
L 11.078125 51.859375 
L 21.875 21.828125 
Q 23.96875 16.109375 25.640625 9.8125 
Q 27.15625 15.875 29.25 21.625 
L 40.328125 51.859375 
L 49.125 51.859375 
L 29.390625 -0.875 
Q 26.21875 -9.421875 24.46875 -12.640625 
Q 22.125 -17 19.09375 -19.015625 
Q 16.0625 -21.046875 11.859375 -21.046875 
Q 9.328125 -21.046875 6.203125 -19.96875 
z
" id="ArialMT-121"/>
     </defs>
     <g style="fill:#262626;" transform="translate(33.873437 238.541094)rotate(-90)scale(0.1 -0.1)">
      <use xlink:href="#ArialMT-70"/>
      <use x="61.083984" xlink:href="#ArialMT-114"/>
      <use x="94.384766" xlink:href="#ArialMT-101"/>
      <use x="150" xlink:href="#ArialMT-113"/>
      <use x="205.615234" xlink:href="#ArialMT-117"/>
      <use x="261.230469" xlink:href="#ArialMT-101"/>
      <use x="316.845703" xlink:href="#ArialMT-110"/>
      <use x="372.460938" xlink:href="#ArialMT-99"/>
      <use x="422.460938" xlink:href="#ArialMT-121"/>
     </g>
    </g>
   </g>
   <g id="patch_3">
    <path clip-path="url(#p6e0521635d)" d="M 100.753384 378 
L 109.20776 378 
L 109.20776 67.371429 
L 100.753384 67.371429 
z
" style="fill:#1f77b4;opacity:0.4;stroke:#ffffff;stroke-linejoin:miter;"/>
   </g>
   <g id="patch_4">
    <path clip-path="url(#p6e0521635d)" d="M 109.20776 378 
L 117.662137 378 
L 117.662137 158.374006 
L 109.20776 158.374006 
z
" style="fill:#1f77b4;opacity:0.4;stroke:#ffffff;stroke-linejoin:miter;"/>
   </g>
   <g id="patch_5">
    <path clip-path="url(#p6e0521635d)" d="M 117.662137 378 
L 126.116514 378 
L 126.116514 258.917663 
L 117.662137 258.917663 
z
" style="fill:#1f77b4;opacity:0.4;stroke:#ffffff;stroke-linejoin:miter;"/>
   </g>
   <g id="patch_6">
    <path clip-path="url(#p6e0521635d)" d="M 126.116514 378 
L 134.570891 378 
L 134.570891 318.277672 
L 126.116514 318.277672 
z
" style="fill:#1f77b4;opacity:0.4;stroke:#ffffff;stroke-linejoin:miter;"/>
   </g>
   <g id="patch_7">
    <path clip-path="url(#p6e0521635d)" d="M 134.570891 378 
L 143.025267 378 
L 143.025267 344.304288 
L 134.570891 344.304288 
z
" style="fill:#1f77b4;opacity:0.4;stroke:#ffffff;stroke-linejoin:miter;"/>
   </g>
   <g id="patch_8">
    <path clip-path="url(#p6e0521635d)" d="M 143.025267 378 
L 151.479644 378 
L 151.479644 354.69078 
L 143.025267 354.69078 
z
" style="fill:#1f77b4;opacity:0.4;stroke:#ffffff;stroke-linejoin:miter;"/>
   </g>
   <g id="patch_9">
    <path clip-path="url(#p6e0521635d)" d="M 151.479644 378 
L 159.934021 378 
L 159.934021 358.495134 
L 151.479644 358.495134 
z
" style="fill:#1f77b4;opacity:0.4;stroke:#ffffff;stroke-linejoin:miter;"/>
   </g>
   <g id="patch_10">
    <path clip-path="url(#p6e0521635d)" d="M 159.934021 378 
L 168.388398 378 
L 168.388398 362.239102 
L 159.934021 362.239102 
z
" style="fill:#1f77b4;opacity:0.4;stroke:#ffffff;stroke-linejoin:miter;"/>
   </g>
   <g id="patch_11">
    <path clip-path="url(#p6e0521635d)" d="M 168.388398 378 
L 176.842774 378 
L 176.842774 366.52655 
L 168.388398 366.52655 
z
" style="fill:#1f77b4;opacity:0.4;stroke:#ffffff;stroke-linejoin:miter;"/>
   </g>
   <g id="patch_12">
    <path clip-path="url(#p6e0521635d)" d="M 176.842774 378 
L 185.297151 378 
L 185.297151 366.949256 
L 176.842774 366.949256 
z
" style="fill:#1f77b4;opacity:0.4;stroke:#ffffff;stroke-linejoin:miter;"/>
   </g>
   <g id="patch_13">
    <path clip-path="url(#p6e0521635d)" d="M 185.297151 378 
L 193.751528 378 
L 193.751528 368.579693 
L 185.297151 368.579693 
z
" style="fill:#1f77b4;opacity:0.4;stroke:#ffffff;stroke-linejoin:miter;"/>
   </g>
   <g id="patch_14">
    <path clip-path="url(#p6e0521635d)" d="M 193.751528 378 
L 202.205905 378 
L 202.205905 370.874383 
L 193.751528 370.874383 
z
" style="fill:#1f77b4;opacity:0.4;stroke:#ffffff;stroke-linejoin:miter;"/>
   </g>
   <g id="patch_15">
    <path clip-path="url(#p6e0521635d)" d="M 202.205905 378 
L 210.660281 378 
L 210.660281 370.874383 
L 202.205905 370.874383 
z
" style="fill:#1f77b4;opacity:0.4;stroke:#ffffff;stroke-linejoin:miter;"/>
   </g>
   <g id="patch_16">
    <path clip-path="url(#p6e0521635d)" d="M 210.660281 378 
L 219.114658 378 
L 219.114658 372.806754 
L 210.660281 372.806754 
z
" style="fill:#1f77b4;opacity:0.4;stroke:#ffffff;stroke-linejoin:miter;"/>
   </g>
   <g id="patch_17">
    <path clip-path="url(#p6e0521635d)" d="M 219.114658 378 
L 227.569035 378 
L 227.569035 371.719796 
L 219.114658 371.719796 
z
" style="fill:#1f77b4;opacity:0.4;stroke:#ffffff;stroke-linejoin:miter;"/>
   </g>
   <g id="patch_18">
    <path clip-path="url(#p6e0521635d)" d="M 227.569035 378 
L 236.023412 378 
L 236.023412 372.806754 
L 227.569035 372.806754 
z
" style="fill:#1f77b4;opacity:0.4;stroke:#ffffff;stroke-linejoin:miter;"/>
   </g>
   <g id="patch_19">
    <path clip-path="url(#p6e0521635d)" d="M 236.023412 378 
L 244.477788 378 
L 244.477788 373.350233 
L 236.023412 373.350233 
z
" style="fill:#1f77b4;opacity:0.4;stroke:#ffffff;stroke-linejoin:miter;"/>
   </g>
   <g id="patch_20">
    <path clip-path="url(#p6e0521635d)" d="M 244.477788 378 
L 252.932165 378 
L 252.932165 373.772939 
L 244.477788 373.772939 
z
" style="fill:#1f77b4;opacity:0.4;stroke:#ffffff;stroke-linejoin:miter;"/>
   </g>
   <g id="patch_21">
    <path clip-path="url(#p6e0521635d)" d="M 252.932165 378 
L 261.386542 378 
L 261.386542 373.893713 
L 252.932165 373.893713 
z
" style="fill:#1f77b4;opacity:0.4;stroke:#ffffff;stroke-linejoin:miter;"/>
   </g>
   <g id="patch_22">
    <path clip-path="url(#p6e0521635d)" d="M 261.386542 378 
L 269.840919 378 
L 269.840919 374.256032 
L 261.386542 374.256032 
z
" style="fill:#1f77b4;opacity:0.4;stroke:#ffffff;stroke-linejoin:miter;"/>
   </g>
   <g id="patch_23">
    <path clip-path="url(#p6e0521635d)" d="M 269.840919 378 
L 278.295295 378 
L 278.295295 374.316419 
L 269.840919 374.316419 
z
" style="fill:#1f77b4;opacity:0.4;stroke:#ffffff;stroke-linejoin:miter;"/>
   </g>
   <g id="patch_24">
    <path clip-path="url(#p6e0521635d)" d="M 278.295295 378 
L 286.749672 378 
L 286.749672 374.497578 
L 278.295295 374.497578 
z
" style="fill:#1f77b4;opacity:0.4;stroke:#ffffff;stroke-linejoin:miter;"/>
   </g>
   <g id="patch_25">
    <path clip-path="url(#p6e0521635d)" d="M 286.749672 378 
L 295.204049 378 
L 295.204049 374.920284 
L 286.749672 374.920284 
z
" style="fill:#1f77b4;opacity:0.4;stroke:#ffffff;stroke-linejoin:miter;"/>
   </g>
   <g id="patch_26">
    <path clip-path="url(#p6e0521635d)" d="M 295.204049 378 
L 303.658426 378 
L 303.658426 375.52415 
L 295.204049 375.52415 
z
" style="fill:#1f77b4;opacity:0.4;stroke:#ffffff;stroke-linejoin:miter;"/>
   </g>
   <g id="patch_27">
    <path clip-path="url(#p6e0521635d)" d="M 303.658426 378 
L 312.112802 378 
L 312.112802 375.34299 
L 303.658426 375.34299 
z
" style="fill:#1f77b4;opacity:0.4;stroke:#ffffff;stroke-linejoin:miter;"/>
   </g>
   <g id="patch_28">
    <path clip-path="url(#p6e0521635d)" d="M 312.112802 378 
L 320.567179 378 
L 320.567179 375.34299 
L 312.112802 375.34299 
z
" style="fill:#1f77b4;opacity:0.4;stroke:#ffffff;stroke-linejoin:miter;"/>
   </g>
   <g id="patch_29">
    <path clip-path="url(#p6e0521635d)" d="M 320.567179 378 
L 329.021556 378 
L 329.021556 376.067629 
L 320.567179 376.067629 
z
" style="fill:#1f77b4;opacity:0.4;stroke:#ffffff;stroke-linejoin:miter;"/>
   </g>
   <g id="patch_30">
    <path clip-path="url(#p6e0521635d)" d="M 329.021556 378 
L 337.475933 378 
L 337.475933 375.463764 
L 329.021556 375.463764 
z
" style="fill:#1f77b4;opacity:0.4;stroke:#ffffff;stroke-linejoin:miter;"/>
   </g>
   <g id="patch_31">
    <path clip-path="url(#p6e0521635d)" d="M 337.475933 378 
L 345.930309 378 
L 345.930309 376.007243 
L 337.475933 376.007243 
z
" style="fill:#1f77b4;opacity:0.4;stroke:#ffffff;stroke-linejoin:miter;"/>
   </g>
   <g id="patch_32">
    <path clip-path="url(#p6e0521635d)" d="M 345.930309 378 
L 354.384686 378 
L 354.384686 376.007243 
L 345.930309 376.007243 
z
" style="fill:#1f77b4;opacity:0.4;stroke:#ffffff;stroke-linejoin:miter;"/>
   </g>
   <g id="patch_33">
    <path clip-path="url(#p6e0521635d)" d="M 354.384686 378 
L 362.839063 378 
L 362.839063 376.248789 
L 354.384686 376.248789 
z
" style="fill:#1f77b4;opacity:0.4;stroke:#ffffff;stroke-linejoin:miter;"/>
   </g>
   <g id="patch_34">
    <path clip-path="url(#p6e0521635d)" d="M 362.839063 378 
L 371.29344 378 
L 371.29344 376.369562 
L 362.839063 376.369562 
z
" style="fill:#1f77b4;opacity:0.4;stroke:#ffffff;stroke-linejoin:miter;"/>
   </g>
   <g id="patch_35">
    <path clip-path="url(#p6e0521635d)" d="M 371.29344 378 
L 379.747816 378 
L 379.747816 375.88647 
L 371.29344 375.88647 
z
" style="fill:#1f77b4;opacity:0.4;stroke:#ffffff;stroke-linejoin:miter;"/>
   </g>
   <g id="patch_36">
    <path clip-path="url(#p6e0521635d)" d="M 379.747816 378 
L 388.202193 378 
L 388.202193 376.007243 
L 379.747816 376.007243 
z
" style="fill:#1f77b4;opacity:0.4;stroke:#ffffff;stroke-linejoin:miter;"/>
   </g>
   <g id="patch_37">
    <path clip-path="url(#p6e0521635d)" d="M 388.202193 378 
L 396.65657 378 
L 396.65657 375.70531 
L 388.202193 375.70531 
z
" style="fill:#1f77b4;opacity:0.4;stroke:#ffffff;stroke-linejoin:miter;"/>
   </g>
   <g id="patch_38">
    <path clip-path="url(#p6e0521635d)" d="M 396.65657 378 
L 405.110947 378 
L 405.110947 376.671495 
L 396.65657 376.671495 
z
" style="fill:#1f77b4;opacity:0.4;stroke:#ffffff;stroke-linejoin:miter;"/>
   </g>
   <g id="patch_39">
    <path clip-path="url(#p6e0521635d)" d="M 405.110947 378 
L 413.565323 378 
L 413.565323 376.490335 
L 405.110947 376.490335 
z
" style="fill:#1f77b4;opacity:0.4;stroke:#ffffff;stroke-linejoin:miter;"/>
   </g>
   <g id="patch_40">
    <path clip-path="url(#p6e0521635d)" d="M 413.565323 378 
L 422.0197 378 
L 422.0197 376.611109 
L 413.565323 376.611109 
z
" style="fill:#1f77b4;opacity:0.4;stroke:#ffffff;stroke-linejoin:miter;"/>
   </g>
   <g id="patch_41">
    <path clip-path="url(#p6e0521635d)" d="M 422.0197 378 
L 430.474077 378 
L 430.474077 376.852655 
L 422.0197 376.852655 
z
" style="fill:#1f77b4;opacity:0.4;stroke:#ffffff;stroke-linejoin:miter;"/>
   </g>
   <g id="patch_42">
    <path clip-path="url(#p6e0521635d)" d="M 430.474077 378 
L 438.928454 378 
L 438.928454 376.731882 
L 430.474077 376.731882 
z
" style="fill:#1f77b4;opacity:0.4;stroke:#ffffff;stroke-linejoin:miter;"/>
   </g>
   <g id="patch_43">
    <path clip-path="url(#p6e0521635d)" d="M 438.928454 378 
L 447.38283 378 
L 447.38283 377.758454 
L 438.928454 377.758454 
z
" style="fill:#1f77b4;opacity:0.4;stroke:#ffffff;stroke-linejoin:miter;"/>
   </g>
   <g id="patch_44">
    <path clip-path="url(#p6e0521635d)" d="M 447.38283 378 
L 455.837207 378 
L 455.837207 377.879227 
L 447.38283 377.879227 
z
" style="fill:#1f77b4;opacity:0.4;stroke:#ffffff;stroke-linejoin:miter;"/>
   </g>
   <g id="patch_45">
    <path clip-path="url(#p6e0521635d)" d="M 455.837207 378 
L 464.291584 378 
L 464.291584 378 
L 455.837207 378 
z
" style="fill:#1f77b4;opacity:0.4;stroke:#ffffff;stroke-linejoin:miter;"/>
   </g>
   <g id="patch_46">
    <path clip-path="url(#p6e0521635d)" d="M 464.291584 378 
L 472.745961 378 
L 472.745961 378 
L 464.291584 378 
z
" style="fill:#1f77b4;opacity:0.4;stroke:#ffffff;stroke-linejoin:miter;"/>
   </g>
   <g id="patch_47">
    <path clip-path="url(#p6e0521635d)" d="M 472.745961 378 
L 481.200337 378 
L 481.200337 378 
L 472.745961 378 
z
" style="fill:#1f77b4;opacity:0.4;stroke:#ffffff;stroke-linejoin:miter;"/>
   </g>
   <g id="patch_48">
    <path clip-path="url(#p6e0521635d)" d="M 481.200337 378 
L 489.654714 378 
L 489.654714 377.939613 
L 481.200337 377.939613 
z
" style="fill:#1f77b4;opacity:0.4;stroke:#ffffff;stroke-linejoin:miter;"/>
   </g>
   <g id="patch_49">
    <path clip-path="url(#p6e0521635d)" d="M 489.654714 378 
L 498.109091 378 
L 498.109091 378 
L 489.654714 378 
z
" style="fill:#1f77b4;opacity:0.4;stroke:#ffffff;stroke-linejoin:miter;"/>
   </g>
   <g id="line2d_1">
    <path clip-path="url(#p6e0521635d)" d="M 92.290909 377.280572 
L 95.435798 368.068961 
L 98.580688 305.465056 
L 101.725577 168.137296 
L 104.870467 87.598538 
L 108.015356 92.307259 
L 111.160245 130.16793 
L 114.305135 172.546274 
L 117.450024 211.222501 
L 120.594914 247.356599 
L 123.739803 277.216364 
L 126.884692 299.885151 
L 130.029582 317.106835 
L 133.174471 329.953781 
L 136.319361 339.834825 
L 139.46425 346.129204 
L 142.609139 350.044902 
L 148.898918 355.637468 
L 152.043808 358.020431 
L 155.188697 358.663761 
L 158.333586 358.936278 
L 167.768255 364.278738 
L 170.913144 365.664021 
L 174.058033 366.833925 
L 180.347812 366.712917 
L 183.492702 367.567148 
L 186.637591 367.815597 
L 189.78248 368.537406 
L 192.92737 369.894824 
L 196.072259 370.594665 
L 199.217149 370.991479 
L 202.362038 371.161777 
L 205.506927 370.811704 
L 211.796706 372.345639 
L 214.941596 372.473561 
L 218.086485 372.44139 
L 221.231374 371.923712 
L 224.376264 371.80321 
L 230.666042 372.773345 
L 240.100711 373.143864 
L 243.2456 373.734591 
L 252.680268 373.675163 
L 258.970047 374.080516 
L 265.259826 374.062617 
L 268.404715 374.364033 
L 271.549605 374.492404 
L 274.694494 374.487094 
L 277.839383 374.648366 
L 280.984273 374.428763 
L 284.129162 374.353752 
L 290.418941 374.835914 
L 293.56383 374.920842 
L 299.853609 375.536583 
L 306.143388 375.351391 
L 309.288277 375.699882 
L 315.578056 375.194589 
L 318.722946 375.723818 
L 321.867835 376.042337 
L 325.012724 375.928246 
L 328.157614 375.649544 
L 337.592282 375.729668 
L 343.882061 376.063912 
L 350.17184 375.797207 
L 353.316729 376.250123 
L 356.461618 376.33139 
L 359.606508 376.191132 
L 362.751397 375.906903 
L 365.896286 376.153524 
L 369.041176 376.531216 
L 372.186065 376.303084 
L 375.330955 375.9193 
L 378.475844 375.860308 
L 381.620733 376.040571 
L 384.765623 376.056652 
L 391.055402 375.824324 
L 394.200291 375.857055 
L 400.49007 376.749315 
L 406.779849 376.352736 
L 416.214517 376.550179 
L 422.504296 376.918023 
L 431.938964 376.668464 
L 435.083853 376.773401 
L 441.373632 377.63229 
L 444.518521 377.785453 
L 453.95319 377.937395 
L 463.387858 378 
L 491.691862 378 
L 491.691862 378 
" style="fill:none;stroke:#1f77b4;stroke-linecap:round;stroke-width:1.5;"/>
   </g>
  </g>
 </g>
 <defs>
  <clipPath id="p6e0521635d">
   <rect height="326.16" width="446.4" x="72" y="51.84"/>
  </clipPath>
 </defs>
</svg>
