<?xml version="1.0" encoding="utf-8" standalone="no"?>
<!DOCTYPE svg PUBLIC "-//W3C//DTD SVG 1.1//EN"
  "http://www.w3.org/Graphics/SVG/1.1/DTD/svg11.dtd">
<!-- Created with matplotlib (https://matplotlib.org/) -->
<svg height="432pt" version="1.1" viewBox="0 0 576 432" width="576pt" xmlns="http://www.w3.org/2000/svg" xmlns:xlink="http://www.w3.org/1999/xlink">
 <defs>
  <style type="text/css">
*{stroke-linecap:butt;stroke-linejoin:round;}
  </style>
 </defs>
 <g id="figure_1">
  <g id="patch_1">
   <path d="M 0 432 
L 576 432 
L 576 0 
L 0 0 
z
" style="fill:#f0f0f0;"/>
  </g>
  <g id="axes_1">
   <g id="patch_2">
    <path d="M 46.08 210.894545 
L 273.861818 210.894545 
L 273.861818 51.84 
L 46.08 51.84 
z
" style="fill:#ffffff;"/>
   </g>
   <g id="matplotlib.axis_1">
    <g id="xtick_1">
     <g id="line2d_1">
      <path clip-path="url(#p1ed638f995)" d="M 56.433719 210.894545 
L 56.433719 51.84 
" style="fill:none;stroke:#cbcbcb;"/>
     </g>
     <g id="line2d_2"/>
     <g id="text_1">
      <!-- −100 -->
      <defs>
       <path d="M 10.59375 35.5 
L 73.1875 35.5 
L 73.1875 27.203125 
L 10.59375 27.203125 
z
" id="DejaVuSans-8722"/>
       <path d="M 12.40625 8.296875 
L 28.515625 8.296875 
L 28.515625 63.921875 
L 10.984375 60.40625 
L 10.984375 69.390625 
L 28.421875 72.90625 
L 38.28125 72.90625 
L 38.28125 8.296875 
L 54.390625 8.296875 
L 54.390625 0 
L 12.40625 0 
z
" id="DejaVuSans-49"/>
       <path d="M 31.78125 66.40625 
Q 24.171875 66.40625 20.328125 58.90625 
Q 16.5 51.421875 16.5 36.375 
Q 16.5 21.390625 20.328125 13.890625 
Q 24.171875 6.390625 31.78125 6.390625 
Q 39.453125 6.390625 43.28125 13.890625 
Q 47.125 21.390625 47.125 36.375 
Q 47.125 51.421875 43.28125 58.90625 
Q 39.453125 66.40625 31.78125 66.40625 
z
M 31.78125 74.21875 
Q 44.046875 74.21875 50.515625 64.515625 
Q 56.984375 54.828125 56.984375 36.375 
Q 56.984375 17.96875 50.515625 8.265625 
Q 44.046875 -1.421875 31.78125 -1.421875 
Q 19.53125 -1.421875 13.0625 8.265625 
Q 6.59375 17.96875 6.59375 36.375 
Q 6.59375 54.828125 13.0625 64.515625 
Q 19.53125 74.21875 31.78125 74.21875 
z
" id="DejaVuSans-48"/>
      </defs>
      <g transform="translate(37.206688 225.032358)scale(0.14 -0.14)">
       <use xlink:href="#DejaVuSans-8722"/>
       <use x="83.789062" xlink:href="#DejaVuSans-49"/>
       <use x="147.412109" xlink:href="#DejaVuSans-48"/>
       <use x="211.035156" xlink:href="#DejaVuSans-48"/>
      </g>
     </g>
    </g>
    <g id="xtick_2">
     <g id="line2d_3">
      <path clip-path="url(#p1ed638f995)" d="M 108.202314 210.894545 
L 108.202314 51.84 
" style="fill:none;stroke:#cbcbcb;"/>
     </g>
     <g id="line2d_4"/>
     <g id="text_2">
      <!-- −50 -->
      <defs>
       <path d="M 10.796875 72.90625 
L 49.515625 72.90625 
L 49.515625 64.59375 
L 19.828125 64.59375 
L 19.828125 46.734375 
Q 21.96875 47.46875 24.109375 47.828125 
Q 26.265625 48.1875 28.421875 48.1875 
Q 40.625 48.1875 47.75 41.5 
Q 54.890625 34.8125 54.890625 23.390625 
Q 54.890625 11.625 47.5625 5.09375 
Q 40.234375 -1.421875 26.90625 -1.421875 
Q 22.3125 -1.421875 17.546875 -0.640625 
Q 12.796875 0.140625 7.71875 1.703125 
L 7.71875 11.625 
Q 12.109375 9.234375 16.796875 8.0625 
Q 21.484375 6.890625 26.703125 6.890625 
Q 35.15625 6.890625 40.078125 11.328125 
Q 45.015625 15.765625 45.015625 23.390625 
Q 45.015625 31 40.078125 35.4375 
Q 35.15625 39.890625 26.703125 39.890625 
Q 22.75 39.890625 18.8125 39.015625 
Q 14.890625 38.140625 10.796875 36.28125 
z
" id="DejaVuSans-53"/>
      </defs>
      <g transform="translate(93.429033 225.032358)scale(0.14 -0.14)">
       <use xlink:href="#DejaVuSans-8722"/>
       <use x="83.789062" xlink:href="#DejaVuSans-53"/>
       <use x="147.412109" xlink:href="#DejaVuSans-48"/>
      </g>
     </g>
    </g>
    <g id="xtick_3">
     <g id="line2d_5">
      <path clip-path="url(#p1ed638f995)" d="M 159.970909 210.894545 
L 159.970909 51.84 
" style="fill:none;stroke:#cbcbcb;"/>
     </g>
     <g id="line2d_6"/>
     <g id="text_3">
      <!-- 0 -->
      <g transform="translate(155.517159 225.032358)scale(0.14 -0.14)">
       <use xlink:href="#DejaVuSans-48"/>
      </g>
     </g>
    </g>
    <g id="xtick_4">
     <g id="line2d_7">
      <path clip-path="url(#p1ed638f995)" d="M 211.739504 210.894545 
L 211.739504 51.84 
" style="fill:none;stroke:#cbcbcb;"/>
     </g>
     <g id="line2d_8"/>
     <g id="text_4">
      <!-- 50 -->
      <g transform="translate(202.832004 225.032358)scale(0.14 -0.14)">
       <use xlink:href="#DejaVuSans-53"/>
       <use x="63.623047" xlink:href="#DejaVuSans-48"/>
      </g>
     </g>
    </g>
    <g id="xtick_5">
     <g id="line2d_9">
      <path clip-path="url(#p1ed638f995)" d="M 263.508099 210.894545 
L 263.508099 51.84 
" style="fill:none;stroke:#cbcbcb;"/>
     </g>
     <g id="line2d_10"/>
     <g id="text_5">
      <!-- 100 -->
      <g transform="translate(250.146849 225.032358)scale(0.14 -0.14)">
       <use xlink:href="#DejaVuSans-49"/>
       <use x="63.623047" xlink:href="#DejaVuSans-48"/>
       <use x="127.246094" xlink:href="#DejaVuSans-48"/>
      </g>
     </g>
    </g>
    <g id="text_6">
     <!-- bp from TSS -->
     <defs>
      <path d="M 48.6875 27.296875 
Q 48.6875 37.203125 44.609375 42.84375 
Q 40.53125 48.484375 33.40625 48.484375 
Q 26.265625 48.484375 22.1875 42.84375 
Q 18.109375 37.203125 18.109375 27.296875 
Q 18.109375 17.390625 22.1875 11.75 
Q 26.265625 6.109375 33.40625 6.109375 
Q 40.53125 6.109375 44.609375 11.75 
Q 48.6875 17.390625 48.6875 27.296875 
z
M 18.109375 46.390625 
Q 20.953125 51.265625 25.265625 53.625 
Q 29.59375 56 35.59375 56 
Q 45.5625 56 51.78125 48.09375 
Q 58.015625 40.1875 58.015625 27.296875 
Q 58.015625 14.40625 51.78125 6.484375 
Q 45.5625 -1.421875 35.59375 -1.421875 
Q 29.59375 -1.421875 25.265625 0.953125 
Q 20.953125 3.328125 18.109375 8.203125 
L 18.109375 0 
L 9.078125 0 
L 9.078125 75.984375 
L 18.109375 75.984375 
z
" id="DejaVuSans-98"/>
      <path d="M 18.109375 8.203125 
L 18.109375 -20.796875 
L 9.078125 -20.796875 
L 9.078125 54.6875 
L 18.109375 54.6875 
L 18.109375 46.390625 
Q 20.953125 51.265625 25.265625 53.625 
Q 29.59375 56 35.59375 56 
Q 45.5625 56 51.78125 48.09375 
Q 58.015625 40.1875 58.015625 27.296875 
Q 58.015625 14.40625 51.78125 6.484375 
Q 45.5625 -1.421875 35.59375 -1.421875 
Q 29.59375 -1.421875 25.265625 0.953125 
Q 20.953125 3.328125 18.109375 8.203125 
z
M 48.6875 27.296875 
Q 48.6875 37.203125 44.609375 42.84375 
Q 40.53125 48.484375 33.40625 48.484375 
Q 26.265625 48.484375 22.1875 42.84375 
Q 18.109375 37.203125 18.109375 27.296875 
Q 18.109375 17.390625 22.1875 11.75 
Q 26.265625 6.109375 33.40625 6.109375 
Q 40.53125 6.109375 44.609375 11.75 
Q 48.6875 17.390625 48.6875 27.296875 
z
" id="DejaVuSans-112"/>
      <path id="DejaVuSans-32"/>
      <path d="M 37.109375 75.984375 
L 37.109375 68.5 
L 28.515625 68.5 
Q 23.6875 68.5 21.796875 66.546875 
Q 19.921875 64.59375 19.921875 59.515625 
L 19.921875 54.6875 
L 34.71875 54.6875 
L 34.71875 47.703125 
L 19.921875 47.703125 
L 19.921875 0 
L 10.890625 0 
L 10.890625 47.703125 
L 2.296875 47.703125 
L 2.296875 54.6875 
L 10.890625 54.6875 
L 10.890625 58.5 
Q 10.890625 67.625 15.140625 71.796875 
Q 19.390625 75.984375 28.609375 75.984375 
z
" id="DejaVuSans-102"/>
      <path d="M 41.109375 46.296875 
Q 39.59375 47.171875 37.8125 47.578125 
Q 36.03125 48 33.890625 48 
Q 26.265625 48 22.1875 43.046875 
Q 18.109375 38.09375 18.109375 28.8125 
L 18.109375 0 
L 9.078125 0 
L 9.078125 54.6875 
L 18.109375 54.6875 
L 18.109375 46.1875 
Q 20.953125 51.171875 25.484375 53.578125 
Q 30.03125 56 36.53125 56 
Q 37.453125 56 38.578125 55.875 
Q 39.703125 55.765625 41.0625 55.515625 
z
" id="DejaVuSans-114"/>
      <path d="M 30.609375 48.390625 
Q 23.390625 48.390625 19.1875 42.75 
Q 14.984375 37.109375 14.984375 27.296875 
Q 14.984375 17.484375 19.15625 11.84375 
Q 23.34375 6.203125 30.609375 6.203125 
Q 37.796875 6.203125 41.984375 11.859375 
Q 46.1875 17.53125 46.1875 27.296875 
Q 46.1875 37.015625 41.984375 42.703125 
Q 37.796875 48.390625 30.609375 48.390625 
z
M 30.609375 56 
Q 42.328125 56 49.015625 48.375 
Q 55.71875 40.765625 55.71875 27.296875 
Q 55.71875 13.875 49.015625 6.21875 
Q 42.328125 -1.421875 30.609375 -1.421875 
Q 18.84375 -1.421875 12.171875 6.21875 
Q 5.515625 13.875 5.515625 27.296875 
Q 5.515625 40.765625 12.171875 48.375 
Q 18.84375 56 30.609375 56 
z
" id="DejaVuSans-111"/>
      <path d="M 52 44.1875 
Q 55.375 50.25 60.0625 53.125 
Q 64.75 56 71.09375 56 
Q 79.640625 56 84.28125 50.015625 
Q 88.921875 44.046875 88.921875 33.015625 
L 88.921875 0 
L 79.890625 0 
L 79.890625 32.71875 
Q 79.890625 40.578125 77.09375 44.375 
Q 74.3125 48.1875 68.609375 48.1875 
Q 61.625 48.1875 57.5625 43.546875 
Q 53.515625 38.921875 53.515625 30.90625 
L 53.515625 0 
L 44.484375 0 
L 44.484375 32.71875 
Q 44.484375 40.625 41.703125 44.40625 
Q 38.921875 48.1875 33.109375 48.1875 
Q 26.21875 48.1875 22.15625 43.53125 
Q 18.109375 38.875 18.109375 30.90625 
L 18.109375 0 
L 9.078125 0 
L 9.078125 54.6875 
L 18.109375 54.6875 
L 18.109375 46.1875 
Q 21.1875 51.21875 25.484375 53.609375 
Q 29.78125 56 35.6875 56 
Q 41.65625 56 45.828125 52.96875 
Q 50 49.953125 52 44.1875 
z
" id="DejaVuSans-109"/>
      <path d="M -0.296875 72.90625 
L 61.375 72.90625 
L 61.375 64.59375 
L 35.5 64.59375 
L 35.5 0 
L 25.59375 0 
L 25.59375 64.59375 
L -0.296875 64.59375 
z
" id="DejaVuSans-84"/>
      <path d="M 53.515625 70.515625 
L 53.515625 60.890625 
Q 47.90625 63.578125 42.921875 64.890625 
Q 37.9375 66.21875 33.296875 66.21875 
Q 25.25 66.21875 20.875 63.09375 
Q 16.5 59.96875 16.5 54.203125 
Q 16.5 49.359375 19.40625 46.890625 
Q 22.3125 44.4375 30.421875 42.921875 
L 36.375 41.703125 
Q 47.40625 39.59375 52.65625 34.296875 
Q 57.90625 29 57.90625 20.125 
Q 57.90625 9.515625 50.796875 4.046875 
Q 43.703125 -1.421875 29.984375 -1.421875 
Q 24.8125 -1.421875 18.96875 -0.25 
Q 13.140625 0.921875 6.890625 3.21875 
L 6.890625 13.375 
Q 12.890625 10.015625 18.65625 8.296875 
Q 24.421875 6.59375 29.984375 6.59375 
Q 38.421875 6.59375 43.015625 9.90625 
Q 47.609375 13.234375 47.609375 19.390625 
Q 47.609375 24.75 44.3125 27.78125 
Q 41.015625 30.8125 33.5 32.328125 
L 27.484375 33.5 
Q 16.453125 35.6875 11.515625 40.375 
Q 6.59375 45.0625 6.59375 53.421875 
Q 6.59375 63.09375 13.40625 68.65625 
Q 20.21875 74.21875 32.171875 74.21875 
Q 37.3125 74.21875 42.625 73.28125 
Q 47.953125 72.359375 53.515625 70.515625 
z
" id="DejaVuSans-83"/>
     </defs>
     <g transform="translate(108.440847 244.709295)scale(0.168 -0.168)">
      <use xlink:href="#DejaVuSans-98"/>
      <use x="63.476562" xlink:href="#DejaVuSans-112"/>
      <use x="126.953125" xlink:href="#DejaVuSans-32"/>
      <use x="158.740234" xlink:href="#DejaVuSans-102"/>
      <use x="193.945312" xlink:href="#DejaVuSans-114"/>
      <use x="235.027344" xlink:href="#DejaVuSans-111"/>
      <use x="296.208984" xlink:href="#DejaVuSans-109"/>
      <use x="393.621094" xlink:href="#DejaVuSans-32"/>
      <use x="425.408203" xlink:href="#DejaVuSans-84"/>
      <use x="486.492188" xlink:href="#DejaVuSans-83"/>
      <use x="549.96875" xlink:href="#DejaVuSans-83"/>
     </g>
    </g>
   </g>
   <g id="matplotlib.axis_2">
    <g id="ytick_1">
     <g id="line2d_11">
      <path clip-path="url(#p1ed638f995)" d="M 46.08 173.518085 
L 273.861818 173.518085 
" style="fill:none;stroke:#cbcbcb;"/>
     </g>
     <g id="line2d_12"/>
     <g id="text_7">
      <!-- 0.2 -->
      <defs>
       <path d="M 10.6875 12.40625 
L 21 12.40625 
L 21 0 
L 10.6875 0 
z
" id="DejaVuSans-46"/>
       <path d="M 19.1875 8.296875 
L 53.609375 8.296875 
L 53.609375 0 
L 7.328125 0 
L 7.328125 8.296875 
Q 12.9375 14.109375 22.625 23.890625 
Q 32.328125 33.6875 34.8125 36.53125 
Q 39.546875 41.84375 41.421875 45.53125 
Q 43.3125 49.21875 43.3125 52.78125 
Q 43.3125 58.59375 39.234375 62.25 
Q 35.15625 65.921875 28.609375 65.921875 
Q 23.96875 65.921875 18.8125 64.3125 
Q 13.671875 62.703125 7.8125 59.421875 
L 7.8125 69.390625 
Q 13.765625 71.78125 18.9375 73 
Q 24.125 74.21875 28.421875 74.21875 
Q 39.75 74.21875 46.484375 68.546875 
Q 53.21875 62.890625 53.21875 53.421875 
Q 53.21875 48.921875 51.53125 44.890625 
Q 49.859375 40.875 45.40625 35.40625 
Q 44.1875 33.984375 37.640625 27.21875 
Q 31.109375 20.453125 19.1875 8.296875 
z
" id="DejaVuSans-50"/>
      </defs>
      <g transform="translate(20.315625 178.836991)scale(0.14 -0.14)">
       <use xlink:href="#DejaVuSans-48"/>
       <use x="63.623047" xlink:href="#DejaVuSans-46"/>
       <use x="95.410156" xlink:href="#DejaVuSans-50"/>
      </g>
     </g>
    </g>
    <g id="ytick_2">
     <g id="line2d_13">
      <path clip-path="url(#p1ed638f995)" d="M 46.08 122.652159 
L 273.861818 122.652159 
" style="fill:none;stroke:#cbcbcb;"/>
     </g>
     <g id="line2d_14"/>
     <g id="text_8">
      <!-- 0.4 -->
      <defs>
       <path d="M 37.796875 64.3125 
L 12.890625 25.390625 
L 37.796875 25.390625 
z
M 35.203125 72.90625 
L 47.609375 72.90625 
L 47.609375 25.390625 
L 58.015625 25.390625 
L 58.015625 17.1875 
L 47.609375 17.1875 
L 47.609375 0 
L 37.796875 0 
L 37.796875 17.1875 
L 4.890625 17.1875 
L 4.890625 26.703125 
z
" id="DejaVuSans-52"/>
      </defs>
      <g transform="translate(20.315625 127.971066)scale(0.14 -0.14)">
       <use xlink:href="#DejaVuSans-48"/>
       <use x="63.623047" xlink:href="#DejaVuSans-46"/>
       <use x="95.410156" xlink:href="#DejaVuSans-52"/>
      </g>
     </g>
    </g>
    <g id="ytick_3">
     <g id="line2d_15">
      <path clip-path="url(#p1ed638f995)" d="M 46.08 71.786234 
L 273.861818 71.786234 
" style="fill:none;stroke:#cbcbcb;"/>
     </g>
     <g id="line2d_16"/>
     <g id="text_9">
      <!-- 0.6 -->
      <defs>
       <path d="M 33.015625 40.375 
Q 26.375 40.375 22.484375 35.828125 
Q 18.609375 31.296875 18.609375 23.390625 
Q 18.609375 15.53125 22.484375 10.953125 
Q 26.375 6.390625 33.015625 6.390625 
Q 39.65625 6.390625 43.53125 10.953125 
Q 47.40625 15.53125 47.40625 23.390625 
Q 47.40625 31.296875 43.53125 35.828125 
Q 39.65625 40.375 33.015625 40.375 
z
M 52.59375 71.296875 
L 52.59375 62.3125 
Q 48.875 64.0625 45.09375 64.984375 
Q 41.3125 65.921875 37.59375 65.921875 
Q 27.828125 65.921875 22.671875 59.328125 
Q 17.53125 52.734375 16.796875 39.40625 
Q 19.671875 43.65625 24.015625 45.921875 
Q 28.375 48.1875 33.59375 48.1875 
Q 44.578125 48.1875 50.953125 41.515625 
Q 57.328125 34.859375 57.328125 23.390625 
Q 57.328125 12.15625 50.6875 5.359375 
Q 44.046875 -1.421875 33.015625 -1.421875 
Q 20.359375 -1.421875 13.671875 8.265625 
Q 6.984375 17.96875 6.984375 36.375 
Q 6.984375 53.65625 15.1875 63.9375 
Q 23.390625 74.21875 37.203125 74.21875 
Q 40.921875 74.21875 44.703125 73.484375 
Q 48.484375 72.75 52.59375 71.296875 
z
" id="DejaVuSans-54"/>
      </defs>
      <g transform="translate(20.315625 77.10514)scale(0.14 -0.14)">
       <use xlink:href="#DejaVuSans-48"/>
       <use x="63.623047" xlink:href="#DejaVuSans-46"/>
       <use x="95.410156" xlink:href="#DejaVuSans-54"/>
      </g>
     </g>
    </g>
    <g id="text_10">
     <!-- Frequency -->
     <defs>
      <path d="M 9.8125 72.90625 
L 51.703125 72.90625 
L 51.703125 64.59375 
L 19.671875 64.59375 
L 19.671875 43.109375 
L 48.578125 43.109375 
L 48.578125 34.8125 
L 19.671875 34.8125 
L 19.671875 0 
L 9.8125 0 
z
" id="DejaVuSans-70"/>
      <path d="M 56.203125 29.59375 
L 56.203125 25.203125 
L 14.890625 25.203125 
Q 15.484375 15.921875 20.484375 11.0625 
Q 25.484375 6.203125 34.421875 6.203125 
Q 39.59375 6.203125 44.453125 7.46875 
Q 49.3125 8.734375 54.109375 11.28125 
L 54.109375 2.78125 
Q 49.265625 0.734375 44.1875 -0.34375 
Q 39.109375 -1.421875 33.890625 -1.421875 
Q 20.796875 -1.421875 13.15625 6.1875 
Q 5.515625 13.8125 5.515625 26.8125 
Q 5.515625 40.234375 12.765625 48.109375 
Q 20.015625 56 32.328125 56 
Q 43.359375 56 49.78125 48.890625 
Q 56.203125 41.796875 56.203125 29.59375 
z
M 47.21875 32.234375 
Q 47.125 39.59375 43.09375 43.984375 
Q 39.0625 48.390625 32.421875 48.390625 
Q 24.90625 48.390625 20.390625 44.140625 
Q 15.875 39.890625 15.1875 32.171875 
z
" id="DejaVuSans-101"/>
      <path d="M 14.796875 27.296875 
Q 14.796875 17.390625 18.875 11.75 
Q 22.953125 6.109375 30.078125 6.109375 
Q 37.203125 6.109375 41.296875 11.75 
Q 45.40625 17.390625 45.40625 27.296875 
Q 45.40625 37.203125 41.296875 42.84375 
Q 37.203125 48.484375 30.078125 48.484375 
Q 22.953125 48.484375 18.875 42.84375 
Q 14.796875 37.203125 14.796875 27.296875 
z
M 45.40625 8.203125 
Q 42.578125 3.328125 38.25 0.953125 
Q 33.9375 -1.421875 27.875 -1.421875 
Q 17.96875 -1.421875 11.734375 6.484375 
Q 5.515625 14.40625 5.515625 27.296875 
Q 5.515625 40.1875 11.734375 48.09375 
Q 17.96875 56 27.875 56 
Q 33.9375 56 38.25 53.625 
Q 42.578125 51.265625 45.40625 46.390625 
L 45.40625 54.6875 
L 54.390625 54.6875 
L 54.390625 -20.796875 
L 45.40625 -20.796875 
z
" id="DejaVuSans-113"/>
      <path d="M 8.5 21.578125 
L 8.5 54.6875 
L 17.484375 54.6875 
L 17.484375 21.921875 
Q 17.484375 14.15625 20.5 10.265625 
Q 23.53125 6.390625 29.59375 6.390625 
Q 36.859375 6.390625 41.078125 11.03125 
Q 45.3125 15.671875 45.3125 23.6875 
L 45.3125 54.6875 
L 54.296875 54.6875 
L 54.296875 0 
L 45.3125 0 
L 45.3125 8.40625 
Q 42.046875 3.421875 37.71875 1 
Q 33.40625 -1.421875 27.6875 -1.421875 
Q 18.265625 -1.421875 13.375 4.4375 
Q 8.5 10.296875 8.5 21.578125 
z
M 31.109375 56 
z
" id="DejaVuSans-117"/>
      <path d="M 54.890625 33.015625 
L 54.890625 0 
L 45.90625 0 
L 45.90625 32.71875 
Q 45.90625 40.484375 42.875 44.328125 
Q 39.84375 48.1875 33.796875 48.1875 
Q 26.515625 48.1875 22.3125 43.546875 
Q 18.109375 38.921875 18.109375 30.90625 
L 18.109375 0 
L 9.078125 0 
L 9.078125 54.6875 
L 18.109375 54.6875 
L 18.109375 46.1875 
Q 21.34375 51.125 25.703125 53.5625 
Q 30.078125 56 35.796875 56 
Q 45.21875 56 50.046875 50.171875 
Q 54.890625 44.34375 54.890625 33.015625 
z
" id="DejaVuSans-110"/>
      <path d="M 48.78125 52.59375 
L 48.78125 44.1875 
Q 44.96875 46.296875 41.140625 47.34375 
Q 37.3125 48.390625 33.40625 48.390625 
Q 24.65625 48.390625 19.8125 42.84375 
Q 14.984375 37.3125 14.984375 27.296875 
Q 14.984375 17.28125 19.8125 11.734375 
Q 24.65625 6.203125 33.40625 6.203125 
Q 37.3125 6.203125 41.140625 7.25 
Q 44.96875 8.296875 48.78125 10.40625 
L 48.78125 2.09375 
Q 45.015625 0.34375 40.984375 -0.53125 
Q 36.96875 -1.421875 32.421875 -1.421875 
Q 20.0625 -1.421875 12.78125 6.34375 
Q 5.515625 14.109375 5.515625 27.296875 
Q 5.515625 40.671875 12.859375 48.328125 
Q 20.21875 56 33.015625 56 
Q 37.15625 56 41.109375 55.140625 
Q 45.0625 54.296875 48.78125 52.59375 
z
" id="DejaVuSans-99"/>
      <path d="M 32.171875 -5.078125 
Q 28.375 -14.84375 24.75 -17.8125 
Q 21.140625 -20.796875 15.09375 -20.796875 
L 7.90625 -20.796875 
L 7.90625 -13.28125 
L 13.1875 -13.28125 
Q 16.890625 -13.28125 18.9375 -11.515625 
Q 21 -9.765625 23.484375 -3.21875 
L 25.09375 0.875 
L 2.984375 54.6875 
L 12.5 54.6875 
L 29.59375 11.921875 
L 46.6875 54.6875 
L 56.203125 54.6875 
z
" id="DejaVuSans-121"/>
     </defs>
     <g transform="translate(12.82175 175.547335)rotate(-90)scale(0.168 -0.168)">
      <use xlink:href="#DejaVuSans-70"/>
      <use x="57.410156" xlink:href="#DejaVuSans-114"/>
      <use x="98.492188" xlink:href="#DejaVuSans-101"/>
      <use x="160.015625" xlink:href="#DejaVuSans-113"/>
      <use x="223.492188" xlink:href="#DejaVuSans-117"/>
      <use x="286.871094" xlink:href="#DejaVuSans-101"/>
      <use x="348.394531" xlink:href="#DejaVuSans-110"/>
      <use x="411.773438" xlink:href="#DejaVuSans-99"/>
      <use x="466.753906" xlink:href="#DejaVuSans-121"/>
     </g>
    </g>
   </g>
   <g id="LineCollection_1">
    <path clip-path="url(#p1ed638f995)" d="M 159.970909 198.951048 
L 159.970909 59.069752 
" style="fill:none;stroke:#000000;stroke-width:0.5;"/>
   </g>
   <g id="line2d_17">
    <path clip-path="url(#p1ed638f995)" d="M 56.433719 151.408702 
L 57.469091 150.829339 
L 58.504463 151.758659 
L 59.539835 151.043484 
L 60.575207 151.879212 
L 61.610579 152.921709 
L 62.64595 151.813086 
L 63.681322 149.719444 
L 64.716694 150.185122 
L 65.752066 151.395731 
L 66.787438 151.875651 
L 67.82281 151.668881 
L 68.858182 152.314115 
L 69.893554 151.842588 
L 70.928926 151.042213 
L 71.964298 150.62028 
L 72.999669 151.2823 
L 74.035041 150.943024 
L 75.070413 150.032779 
L 76.105785 151.704233 
L 77.141157 151.522133 
L 78.176529 150.777456 
L 79.211901 151.125124 
L 80.247273 151.902864 
L 81.282645 149.56939 
L 82.318017 150.570686 
L 83.353388 149.139319 
L 84.38876 150.612141 
L 85.424132 150.026929 
L 86.459504 149.977335 
L 87.494876 150.564836 
L 88.530248 151.510434 
L 89.56562 150.608581 
L 90.600992 150.252774 
L 91.636364 150.732694 
L 93.707107 149.830841 
L 94.742479 149.235201 
L 96.813223 150.409949 
L 97.848595 149.144151 
L 98.883967 149.698589 
L 99.919339 149.367452 
L 100.954711 149.408908 
L 101.990083 149.028431 
L 103.025455 148.796737 
L 104.060826 148.788344 
L 105.096198 149.615678 
L 107.166942 148.61718 
L 108.202314 150.759907 
L 109.237686 149.68689 
L 110.273058 149.259108 
L 111.30843 149.192728 
L 112.343802 148.045447 
L 113.379174 146.2364 
L 114.414545 146.958442 
L 115.449917 146.296676 
L 116.485289 146.809659 
L 117.520661 146.445713 
L 118.556033 146.809659 
L 119.591405 147.645132 
L 120.626777 147.289325 
L 121.662149 147.835371 
L 122.697521 149.34914 
L 123.732893 151.756116 
L 124.768264 152.16991 
L 125.803636 153.146028 
L 126.839008 151.063831 
L 127.87438 151.311802 
L 128.909752 154.430392 
L 130.980496 155.398116 
L 132.015868 157.226238 
L 133.05124 157.730828 
L 134.086612 152.784371 
L 135.121983 152.378969 
L 136.157355 149.285304 
L 137.192727 147.21735 
L 138.228099 145.869148 
L 139.263471 148.309187 
L 140.298843 147.63089 
L 141.334215 147.184287 
L 142.369587 144.926094 
L 143.404959 145.009005 
L 144.440331 149.367961 
L 145.475702 150.683354 
L 146.511074 146.704621 
L 147.546446 144.537478 
L 148.581818 145.554797 
L 149.61719 149.062002 
L 150.652562 149.682312 
L 151.687934 152.403894 
L 152.723306 150.947857 
L 153.758678 140.955754 
L 154.79405 156.304039 
L 155.829421 145.328443 
L 156.864793 162.888124 
L 157.900165 154.079163 
L 158.935537 95.105972 
L 159.970909 199.624259 
L 161.006281 174.665875 
L 162.041653 180.562253 
L 163.077025 163.311583 
L 164.112397 159.523852 
L 165.147769 154.967282 
L 166.18314 156.621188 
L 167.218512 159.358537 
L 168.253884 153.944114 
L 170.324628 159.120739 
L 171.36 160.642393 
L 172.395372 160.923682 
L 173.430744 156.127279 
L 174.466116 153.629762 
L 175.501488 154.671751 
L 176.53686 152.42246 
L 177.572231 153.398323 
L 178.607603 158.285521 
L 179.642975 158.393102 
L 180.678347 156.209937 
L 181.713719 156.673071 
L 182.749091 159.186865 
L 183.784463 162.54249 
L 184.819835 164.485823 
L 185.855207 158.523319 
L 186.890579 158.366143 
L 187.92595 160.549309 
L 188.961322 158.661674 
L 189.996694 157.354929 
L 191.032066 155.618366 
L 192.067438 152.641183 
L 193.10281 152.326832 
L 194.138182 152.575058 
L 195.173554 153.724373 
L 196.208926 153.565163 
L 197.244298 153.184686 
L 198.279669 154.152156 
L 199.315041 153.961917 
L 200.350413 152.630501 
L 201.385785 154.08603 
L 202.421157 152.944853 
L 203.456529 152.952991 
L 204.491901 151.216174 
L 205.527273 150.215642 
L 206.562645 150.41173 
L 207.598017 149.634244 
L 208.633388 150.949128 
L 210.704132 152.975627 
L 211.739504 152.926032 
L 212.774876 153.537949 
L 213.810248 154.927352 
L 214.84562 154.224385 
L 215.880992 154.836302 
L 216.916364 155.134122 
L 217.951736 154.563407 
L 218.987107 154.704051 
L 220.022479 153.298117 
L 221.057851 152.313861 
L 222.093223 152.247735 
L 223.128595 152.884577 
L 224.163967 153.025221 
L 225.199339 152.562087 
L 226.234711 153.471824 
L 227.270083 152.975627 
L 228.305455 154.365029 
L 229.340826 152.768857 
L 230.376198 153.843908 
L 231.41157 153.165865 
L 232.446942 150.800345 
L 233.482314 151.007115 
L 234.517686 150.461324 
L 235.553058 150.428261 
L 236.58843 151.693551 
L 237.623802 153.595937 
L 238.659174 151.569438 
L 239.694545 152.29733 
L 240.729917 151.404124 
L 241.765289 152.727401 
L 242.800661 151.534086 
L 243.836033 151.823513 
L 244.871405 150.979902 
L 245.906777 150.665551 
L 246.942149 150.549831 
L 247.977521 151.806982 
L 249.012893 152.352773 
L 250.048264 151.658199 
L 251.083636 151.649806 
L 252.119008 153.262765 
L 253.15438 151.492631 
L 254.189752 150.252011 
L 256.260496 150.654869 
L 257.295868 150.911487 
L 258.33124 150.605275 
L 259.366612 151.38276 
L 260.401983 153.028782 
L 261.437355 153.185957 
L 262.472727 152.855074 
L 263.508099 152.995719 
L 263.508099 152.995719 
" style="fill:none;stroke:#0000ff;stroke-width:2;"/>
   </g>
   <g id="line2d_18">
    <path clip-path="url(#p1ed638f995)" d="M 56.433719 171.90767 
L 57.469091 172.412514 
L 58.504463 172.637596 
L 59.539835 172.640902 
L 61.610579 171.341787 
L 62.64595 174.842125 
L 63.681322 172.194045 
L 64.716694 172.81639 
L 65.752066 172.66074 
L 66.787438 172.007113 
L 67.82281 171.212841 
L 68.858182 173.041471 
L 69.893554 172.627677 
L 70.928926 173.374135 
L 72.999669 171.950906 
L 74.035041 172.422687 
L 75.070413 173.125909 
L 76.105785 172.96034 
L 77.141157 174.30905 
L 78.176529 173.721549 
L 79.211901 174.069217 
L 80.247273 173.837523 
L 81.282645 173.382273 
L 82.318017 174.979209 
L 83.353388 174.425025 
L 84.38876 174.383569 
L 85.424132 174.459613 
L 86.459504 173.499773 
L 87.494876 174.401626 
L 88.530248 172.914052 
L 89.56562 173.749779 
L 90.600992 175.214209 
L 91.636364 175.255411 
L 92.671736 174.800415 
L 93.707107 175.346461 
L 94.742479 176.198719 
L 95.777851 174.494457 
L 96.813223 175.305259 
L 97.848595 175.396309 
L 98.883967 175.123159 
L 100.954711 174.816947 
L 101.990083 175.826381 
L 103.025455 175.967025 
L 104.060826 174.783884 
L 105.096198 176.471869 
L 106.13157 175.637668 
L 108.202314 175.770174 
L 109.237686 175.118073 
L 110.273058 176.658547 
L 111.30843 176.666686 
L 112.343802 177.66086 
L 113.379174 178.407064 
L 115.449917 177.672305 
L 116.485289 178.292615 
L 117.520661 178.193427 
L 118.556033 176.125472 
L 119.591405 176.439824 
L 120.626777 175.471845 
L 121.662149 176.572075 
L 122.697521 174.570247 
L 123.732893 173.941544 
L 124.768264 172.254067 
L 125.803636 173.039945 
L 126.839008 175.705066 
L 127.87438 174.505647 
L 129.945124 170.403056 
L 130.980496 167.259796 
L 132.015868 164.769909 
L 133.05124 162.941788 
L 134.086612 168.84783 
L 135.121983 173.215433 
L 136.157355 176.193124 
L 137.192727 178.211484 
L 139.263471 177.632376 
L 140.298843 178.244547 
L 141.334215 178.16189 
L 143.404959 177.74835 
L 144.440331 176.548931 
L 145.475702 177.293354 
L 146.511074 177.508263 
L 147.546446 176.664651 
L 148.581818 178.914451 
L 149.61719 176.085543 
L 150.652562 176.780371 
L 151.687934 175.208869 
L 152.723306 176.987141 
L 153.758678 181.089987 
L 154.79405 159.654068 
L 155.829421 171.076521 
L 156.864793 174.947418 
L 157.900165 188.512088 
L 158.935537 203.664793 
L 159.970909 80.836808 
L 161.006281 173.971301 
L 162.041653 158.688633 
L 163.077025 173.987832 
L 164.112397 175.99729 
L 165.147769 179.925411 
L 166.18314 179.363089 
L 167.218512 176.030353 
L 168.253884 178.794153 
L 169.289256 178.198768 
L 170.324628 177.313701 
L 172.395372 176.065196 
L 173.430744 177.346763 
L 174.466116 176.081728 
L 175.501488 178.206906 
L 176.53686 179.207439 
L 177.572231 179.695497 
L 178.607603 175.353836 
L 179.642975 174.444354 
L 180.678347 172.798587 
L 181.713719 172.459565 
L 182.749091 170.979367 
L 183.784463 172.920919 
L 184.819835 170.001724 
L 185.855207 171.333139 
L 186.890579 169.348351 
L 187.92595 171.200888 
L 188.961322 174.622893 
L 189.996694 173.200427 
L 191.032066 174.953776 
L 192.067438 178.741507 
L 193.10281 179.973734 
L 195.173554 176.98002 
L 197.244298 176.33326 
L 198.279669 176.134883 
L 199.315041 176.134883 
L 200.350413 177.110745 
L 201.385785 176.523498 
L 202.421157 176.788256 
L 203.456529 178.831031 
L 204.491901 179.384961 
L 205.527273 180.567848 
L 206.562645 180.442209 
L 207.598017 180.773092 
L 208.633388 177.977501 
L 209.66876 176.8114 
L 210.704132 175.297884 
L 211.739504 174.942331 
L 212.774876 174.30549 
L 213.810248 173.494941 
L 214.84562 173.38736 
L 215.880992 174.148314 
L 216.916364 173.313095 
L 217.951736 173.097933 
L 218.987107 173.27164 
L 221.057851 175.273214 
L 222.093223 175.670222 
L 223.128595 175.173771 
L 224.163967 175.231758 
L 225.199339 175.149101 
L 227.270083 172.775443 
L 228.305455 173.536397 
L 229.340826 173.097933 
L 230.376198 174.694105 
L 231.41157 174.413071 
L 232.446942 175.438528 
L 233.482314 174.569992 
L 234.517686 175.504654 
L 235.553058 174.388147 
L 236.58843 174.148314 
L 237.623802 173.453485 
L 238.659174 174.636373 
L 239.694545 174.090327 
L 240.729917 173.908481 
L 241.765289 174.016063 
L 242.800661 175.312889 
L 243.836033 174.154927 
L 244.871405 175.106119 
L 245.906777 174.750567 
L 246.942149 175.064664 
L 247.977521 173.286391 
L 249.012893 173.576072 
L 250.048264 174.419684 
L 251.083636 174.436215 
L 252.119008 173.948157 
L 253.15438 174.212914 
L 254.189752 173.724855 
L 255.225124 174.045819 
L 256.260496 174.500815 
L 257.295868 173.384053 
L 258.33124 173.706543 
L 259.366612 173.772923 
L 260.401983 172.391659 
L 261.437355 172.556973 
L 262.472727 172.573505 
L 263.508099 174.351778 
L 263.508099 174.351778 
" style="fill:none;stroke:#008000;stroke-opacity:0.8;stroke-width:2;"/>
   </g>
   <g id="line2d_19">
    <path clip-path="url(#p1ed638f995)" d="M 56.433719 171.080081 
L 57.469091 171.237257 
L 58.504463 170.858306 
L 59.539835 171.689455 
L 60.575207 171.565088 
L 62.64595 169.935089 
L 63.681322 172.458802 
L 64.716694 171.806955 
L 65.752066 171.361879 
L 67.82281 171.825267 
L 68.858182 170.906629 
L 69.893554 171.634774 
L 70.928926 171.653086 
L 71.964298 171.843325 
L 72.999669 172.406156 
L 74.035041 172.133006 
L 75.070413 172.257119 
L 76.105785 172.124613 
L 77.141157 170.155593 
L 78.176529 171.454455 
L 80.247273 171.115179 
L 81.282645 172.943809 
L 82.318017 172.770102 
L 83.353388 173.241629 
L 84.38876 171.206229 
L 85.424132 172.267038 
L 86.459504 171.100428 
L 87.494876 171.820181 
L 88.530248 173.493161 
L 89.56562 173.104291 
L 91.636364 172.045262 
L 92.671736 172.152844 
L 93.707107 173.774449 
L 94.742479 173.038165 
L 96.813223 172.657688 
L 97.848595 172.980178 
L 98.883967 173.104291 
L 99.919339 173.799374 
L 100.954711 173.236797 
L 101.990083 174.610177 
L 103.025455 173.749779 
L 104.060826 174.155181 
L 105.096198 173.716717 
L 106.13157 174.115505 
L 107.166942 174.802195 
L 108.202314 172.874377 
L 109.237686 173.934931 
L 110.273058 174.805247 
L 111.30843 174.615009 
L 112.343802 174.277513 
L 113.379174 174.593391 
L 114.414545 173.817431 
L 115.449917 174.735815 
L 116.485289 174.057518 
L 117.520661 173.916874 
L 118.556033 174.032594 
L 119.591405 173.428815 
L 120.626777 174.388401 
L 121.662149 174.264288 
L 122.697521 175.778058 
L 123.732893 172.742125 
L 124.768264 173.379221 
L 125.803636 172.518824 
L 126.839008 171.056429 
L 128.909752 166.937052 
L 129.945124 166.283679 
L 130.980496 167.077696 
L 132.015868 164.662327 
L 134.086612 172.073747 
L 135.121983 174.819999 
L 136.157355 175.448701 
L 137.192727 176.565463 
L 138.228099 176.863283 
L 139.263471 175.31645 
L 140.298843 174.298877 
L 141.334215 174.621621 
L 142.369587 174.365003 
L 143.404959 173.529784 
L 144.440331 171.858839 
L 145.475702 174.21622 
L 146.511074 175.829178 
L 147.546446 176.788764 
L 149.61719 172.073747 
L 151.687934 170.990303 
L 152.723306 169.435077 
L 153.758678 170.593294 
L 154.79405 173.334459 
L 155.829421 174.252589 
L 156.864793 163.789468 
L 157.900165 154.749067 
L 158.935537 156.213243 
L 159.970909 201.203646 
L 161.006281 160.756079 
L 162.041653 143.282107 
L 163.077025 156.282166 
L 164.112397 158.266955 
L 165.147769 164.262521 
L 166.18314 171.928525 
L 167.218512 170.985979 
L 168.253884 172.195062 
L 169.289256 170.39212 
L 170.324628 170.086161 
L 171.36 173.228658 
L 172.395372 174.245722 
L 173.430744 175.477949 
L 174.466116 173.832437 
L 175.501488 172.823511 
L 176.53686 172.48449 
L 177.572231 173.476629 
L 178.607603 175.659795 
L 179.642975 174.055484 
L 180.678347 176.371155 
L 181.713719 178.181982 
L 182.749091 178.628585 
L 183.784463 176.766383 
L 184.819835 176.344705 
L 185.855207 175.633599 
L 186.890579 176.08834 
L 187.92595 177.965547 
L 188.961322 176.45076 
L 189.996694 173.349465 
L 191.032066 170.628646 
L 193.10281 167.279125 
L 194.138182 166.675346 
L 195.173554 165.682952 
L 196.208926 165.970599 
L 197.244298 166.094712 
L 198.279669 166.020193 
L 199.315041 166.996056 
L 201.385785 167.128308 
L 202.421157 167.856199 
L 203.456529 166.962993 
L 204.491901 167.268952 
L 205.527273 166.623972 
L 206.562645 166.456623 
L 207.598017 167.36636 
L 208.633388 168.788826 
L 209.66876 168.805611 
L 210.704132 169.367934 
L 211.739504 169.070114 
L 212.774876 169.045444 
L 213.810248 167.167983 
L 214.84562 167.879089 
L 215.880992 167.04387 
L 216.916364 166.646862 
L 217.951736 166.804037 
L 218.987107 168.176909 
L 220.022479 167.589661 
L 221.057851 168.706169 
L 222.093223 167.970139 
L 223.128595 168.367147 
L 224.163967 166.804037 
L 225.199339 167.101857 
L 226.234711 167.085326 
L 227.270083 167.647649 
L 228.305455 167.308627 
L 229.340826 168.879876 
L 230.376198 168.49126 
L 231.41157 170.476048 
L 232.446942 170.409923 
L 233.482314 170.087433 
L 234.517686 168.995596 
L 235.553058 169.615906 
L 237.623802 169.02052 
L 238.659174 169.252214 
L 240.729917 171.840781 
L 241.765289 171.452166 
L 242.800661 170.184841 
L 243.836033 172.037632 
L 244.871405 170.333878 
L 245.906777 170.681292 
L 246.942149 169.84582 
L 247.977521 170.681292 
L 249.012893 170.37508 
L 250.048264 171.905381 
L 251.083636 170.209765 
L 252.119008 170.590242 
L 253.15438 171.235222 
L 254.189752 173.228658 
L 255.225124 171.630705 
L 256.260496 171.399011 
L 257.295868 171.498199 
L 259.366612 170.621525 
L 260.401983 171.357555 
L 261.437355 170.381692 
L 262.472727 171.589249 
L 263.508099 171.299822 
L 263.508099 171.299822 
" style="fill:none;stroke:#ff0000;stroke-opacity:0.6;stroke-width:2;"/>
   </g>
   <g id="line2d_20">
    <path clip-path="url(#p1ed638f995)" d="M 56.433719 148.809962 
L 57.469091 148.727305 
L 58.504463 147.951854 
L 60.575207 147.799764 
L 61.610579 148.130647 
L 62.64595 146.616369 
L 63.681322 148.834123 
L 64.716694 148.397948 
L 65.752066 147.788065 
L 66.787438 147.779672 
L 67.82281 148.49968 
L 68.858182 146.9442 
L 69.893554 147.101375 
L 70.928926 147.136981 
L 71.964298 148.055366 
L 72.999669 147.567053 
L 75.070413 147.790609 
L 76.105785 146.416974 
L 77.141157 147.219639 
L 78.176529 147.252701 
L 80.247273 146.350848 
L 81.282645 147.310689 
L 82.318017 144.886418 
L 83.353388 146.400443 
L 84.38876 147.004476 
L 85.424132 146.45258 
L 86.459504 148.628625 
L 87.494876 146.419517 
L 88.530248 145.288768 
L 89.56562 145.743764 
L 90.600992 145.197718 
L 91.636364 145.172794 
L 92.671736 145.934002 
L 93.707107 144.254409 
L 94.742479 144.734329 
L 95.777851 145.967065 
L 96.813223 144.833518 
L 97.848595 145.685777 
L 98.883967 145.280375 
L 99.919339 145.015618 
L 100.954711 145.743764 
L 101.990083 143.741426 
L 103.025455 144.692874 
L 104.060826 145.479007 
L 105.096198 143.402405 
L 106.13157 144.31494 
L 108.202314 143.801957 
L 109.237686 144.46652 
L 110.273058 142.483512 
L 111.30843 142.731738 
L 112.343802 143.222594 
L 113.379174 143.969815 
L 114.414545 144.402429 
L 115.449917 144.501618 
L 116.485289 144.046876 
L 117.520661 144.650655 
L 118.556033 146.238943 
L 119.591405 145.692898 
L 120.626777 146.056843 
L 121.662149 144.534681 
L 122.697521 143.508969 
L 123.732893 144.766375 
L 124.768264 145.403471 
L 125.803636 144.501618 
L 126.839008 145.38109 
L 127.87438 148.449831 
L 128.909752 149.310228 
L 129.945124 151.576559 
L 130.980496 153.470806 
L 132.015868 156.547941 
L 133.05124 154.207091 
L 134.086612 149.500467 
L 135.121983 142.792014 
L 136.157355 142.279285 
L 137.192727 141.212118 
L 138.228099 142.544043 
L 139.263471 141.948403 
L 140.298843 143.031847 
L 141.334215 143.238617 
L 142.369587 145.968337 
L 143.404959 146.91953 
L 144.440331 145.430684 
L 145.475702 141.013741 
L 147.546446 145.215775 
L 148.581818 144.231265 
L 149.61719 145.984868 
L 151.687934 144.603604 
L 152.723306 145.836085 
L 153.758678 150.567379 
L 154.79405 153.913849 
L 155.829421 152.549116 
L 156.864793 141.581405 
L 157.900165 145.866096 
L 158.935537 188.222661 
L 161.006281 133.813161 
L 162.041653 160.673422 
L 163.077025 149.624834 
L 164.112397 149.418318 
L 165.147769 144.0512 
L 166.18314 135.293359 
L 168.253884 138.273339 
L 169.289256 138.074962 
L 170.324628 136.68556 
L 171.36 132.683174 
L 172.395372 131.971814 
L 173.430744 134.254423 
L 174.466116 139.662488 
L 175.501488 137.504247 
L 176.53686 139.092027 
L 178.607603 133.907008 
L 179.642975 136.313475 
L 180.678347 137.826737 
L 181.713719 135.891797 
L 182.749091 134.411344 
L 183.784463 130.976622 
L 184.819835 132.374164 
L 185.855207 137.716358 
L 186.890579 139.40358 
L 187.92595 133.490671 
L 188.961322 133.471087 
L 189.996694 139.301594 
L 191.032066 142.005881 
L 192.067438 142.907225 
L 193.10281 143.626724 
L 194.138182 145.437805 
L 195.173554 146.819069 
L 196.208926 147.047966 
L 197.244298 147.593757 
L 199.315041 146.113559 
L 200.350413 146.436049 
L 201.385785 145.468325 
L 202.421157 145.617362 
L 203.456529 144.459399 
L 204.491901 145.336073 
L 205.527273 145.799208 
L 206.562645 145.895853 
L 207.598017 145.432719 
L 208.633388 145.490706 
L 209.66876 145.680944 
L 210.704132 145.56497 
L 211.739504 146.268191 
L 212.774876 146.317786 
L 213.810248 147.616138 
L 214.84562 147.715327 
L 215.880992 147.177928 
L 216.916364 148.112336 
L 217.951736 148.741038 
L 218.987107 147.053816 
L 220.022479 148.029678 
L 221.057851 146.913171 
L 222.093223 147.318318 
L 223.128595 146.78092 
L 224.163967 148.145398 
L 226.234711 148.616925 
L 227.270083 149.807951 
L 228.305455 147.996616 
L 229.340826 148.45975 
L 230.376198 146.177141 
L 231.41157 145.15143 
L 232.446942 146.557618 
L 233.482314 147.54162 
L 234.517686 148.244841 
L 235.553058 148.774101 
L 237.623802 147.136473 
L 238.659174 147.74839 
L 239.694545 146.268191 
L 240.729917 146.053028 
L 241.765289 145.01104 
L 242.800661 146.174598 
L 243.836033 145.190342 
L 244.871405 146.786515 
L 245.906777 147.109259 
L 246.942149 147.746101 
L 247.977521 147.431749 
L 249.012893 146.902489 
L 250.048264 145.223405 
L 251.083636 146.910628 
L 252.119008 145.405251 
L 253.15438 146.265648 
L 254.189752 146.000891 
L 255.225124 147.123248 
L 256.260496 146.65172 
L 257.295868 147.412675 
L 258.33124 147.851139 
L 259.366612 147.429206 
L 260.401983 146.428419 
L 261.437355 147.081792 
L 262.472727 146.188586 
L 263.508099 144.559096 
L 263.508099 144.559096 
" style="fill:none;stroke:#00bfbf;stroke-opacity:0.4;stroke-width:2;"/>
   </g>
   <g id="text_11">
    <!-- Experimental -->
    <defs>
     <path d="M 9.8125 72.90625 
L 55.90625 72.90625 
L 55.90625 64.59375 
L 19.671875 64.59375 
L 19.671875 43.015625 
L 54.390625 43.015625 
L 54.390625 34.71875 
L 19.671875 34.71875 
L 19.671875 8.296875 
L 56.78125 8.296875 
L 56.78125 0 
L 9.8125 0 
z
" id="DejaVuSans-69"/>
     <path d="M 54.890625 54.6875 
L 35.109375 28.078125 
L 55.90625 0 
L 45.3125 0 
L 29.390625 21.484375 
L 13.484375 0 
L 2.875 0 
L 24.125 28.609375 
L 4.6875 54.6875 
L 15.28125 54.6875 
L 29.78125 35.203125 
L 44.28125 54.6875 
z
" id="DejaVuSans-120"/>
     <path d="M 9.421875 54.6875 
L 18.40625 54.6875 
L 18.40625 0 
L 9.421875 0 
z
M 9.421875 75.984375 
L 18.40625 75.984375 
L 18.40625 64.59375 
L 9.421875 64.59375 
z
" id="DejaVuSans-105"/>
     <path d="M 18.3125 70.21875 
L 18.3125 54.6875 
L 36.8125 54.6875 
L 36.8125 47.703125 
L 18.3125 47.703125 
L 18.3125 18.015625 
Q 18.3125 11.328125 20.140625 9.421875 
Q 21.96875 7.515625 27.59375 7.515625 
L 36.8125 7.515625 
L 36.8125 0 
L 27.59375 0 
Q 17.1875 0 13.234375 3.875 
Q 9.28125 7.765625 9.28125 18.015625 
L 9.28125 47.703125 
L 2.6875 47.703125 
L 2.6875 54.6875 
L 9.28125 54.6875 
L 9.28125 70.21875 
z
" id="DejaVuSans-116"/>
     <path d="M 34.28125 27.484375 
Q 23.390625 27.484375 19.1875 25 
Q 14.984375 22.515625 14.984375 16.5 
Q 14.984375 11.71875 18.140625 8.90625 
Q 21.296875 6.109375 26.703125 6.109375 
Q 34.1875 6.109375 38.703125 11.40625 
Q 43.21875 16.703125 43.21875 25.484375 
L 43.21875 27.484375 
z
M 52.203125 31.203125 
L 52.203125 0 
L 43.21875 0 
L 43.21875 8.296875 
Q 40.140625 3.328125 35.546875 0.953125 
Q 30.953125 -1.421875 24.3125 -1.421875 
Q 15.921875 -1.421875 10.953125 3.296875 
Q 6 8.015625 6 15.921875 
Q 6 25.140625 12.171875 29.828125 
Q 18.359375 34.515625 30.609375 34.515625 
L 43.21875 34.515625 
L 43.21875 35.40625 
Q 43.21875 41.609375 39.140625 45 
Q 35.0625 48.390625 27.6875 48.390625 
Q 23 48.390625 18.546875 47.265625 
Q 14.109375 46.140625 10.015625 43.890625 
L 10.015625 52.203125 
Q 14.9375 54.109375 19.578125 55.046875 
Q 24.21875 56 28.609375 56 
Q 40.484375 56 46.34375 49.84375 
Q 52.203125 43.703125 52.203125 31.203125 
z
" id="DejaVuSans-97"/>
     <path d="M 9.421875 75.984375 
L 18.40625 75.984375 
L 18.40625 0 
L 9.421875 0 
z
" id="DejaVuSans-108"/>
    </defs>
    <g transform="translate(92.751484 45.84)scale(0.2016 -0.2016)">
     <use xlink:href="#DejaVuSans-69"/>
     <use x="63.183594" xlink:href="#DejaVuSans-120"/>
     <use x="122.363281" xlink:href="#DejaVuSans-112"/>
     <use x="185.839844" xlink:href="#DejaVuSans-101"/>
     <use x="247.363281" xlink:href="#DejaVuSans-114"/>
     <use x="288.476562" xlink:href="#DejaVuSans-105"/>
     <use x="316.259766" xlink:href="#DejaVuSans-109"/>
     <use x="413.671875" xlink:href="#DejaVuSans-101"/>
     <use x="475.195312" xlink:href="#DejaVuSans-110"/>
     <use x="538.574219" xlink:href="#DejaVuSans-116"/>
     <use x="577.783203" xlink:href="#DejaVuSans-97"/>
     <use x="639.0625" xlink:href="#DejaVuSans-108"/>
    </g>
   </g>
  </g>
  <g id="axes_2">
   <g id="patch_3">
    <path d="M 319.418182 210.894545 
L 547.2 210.894545 
L 547.2 51.84 
L 319.418182 51.84 
z
" style="fill:#ffffff;"/>
   </g>
   <g id="matplotlib.axis_3">
    <g id="xtick_6">
     <g id="line2d_21">
      <path clip-path="url(#pa5f3b3dd81)" d="M 329.771901 210.894545 
L 329.771901 51.84 
" style="fill:none;stroke:#cbcbcb;"/>
     </g>
     <g id="line2d_22"/>
     <g id="text_12">
      <!-- −100 -->
      <g transform="translate(310.54487 225.032358)scale(0.14 -0.14)">
       <use xlink:href="#DejaVuSans-8722"/>
       <use x="83.789062" xlink:href="#DejaVuSans-49"/>
       <use x="147.412109" xlink:href="#DejaVuSans-48"/>
       <use x="211.035156" xlink:href="#DejaVuSans-48"/>
      </g>
     </g>
    </g>
    <g id="xtick_7">
     <g id="line2d_23">
      <path clip-path="url(#pa5f3b3dd81)" d="M 381.540496 210.894545 
L 381.540496 51.84 
" style="fill:none;stroke:#cbcbcb;"/>
     </g>
     <g id="line2d_24"/>
     <g id="text_13">
      <!-- −50 -->
      <g transform="translate(366.767215 225.032358)scale(0.14 -0.14)">
       <use xlink:href="#DejaVuSans-8722"/>
       <use x="83.789062" xlink:href="#DejaVuSans-53"/>
       <use x="147.412109" xlink:href="#DejaVuSans-48"/>
      </g>
     </g>
    </g>
    <g id="xtick_8">
     <g id="line2d_25">
      <path clip-path="url(#pa5f3b3dd81)" d="M 433.309091 210.894545 
L 433.309091 51.84 
" style="fill:none;stroke:#cbcbcb;"/>
     </g>
     <g id="line2d_26"/>
     <g id="text_14">
      <!-- 0 -->
      <g transform="translate(428.855341 225.032358)scale(0.14 -0.14)">
       <use xlink:href="#DejaVuSans-48"/>
      </g>
     </g>
    </g>
    <g id="xtick_9">
     <g id="line2d_27">
      <path clip-path="url(#pa5f3b3dd81)" d="M 485.077686 210.894545 
L 485.077686 51.84 
" style="fill:none;stroke:#cbcbcb;"/>
     </g>
     <g id="line2d_28"/>
     <g id="text_15">
      <!-- 50 -->
      <g transform="translate(476.170186 225.032358)scale(0.14 -0.14)">
       <use xlink:href="#DejaVuSans-53"/>
       <use x="63.623047" xlink:href="#DejaVuSans-48"/>
      </g>
     </g>
    </g>
    <g id="xtick_10">
     <g id="line2d_29">
      <path clip-path="url(#pa5f3b3dd81)" d="M 536.846281 210.894545 
L 536.846281 51.84 
" style="fill:none;stroke:#cbcbcb;"/>
     </g>
     <g id="line2d_30"/>
     <g id="text_16">
      <!-- 100 -->
      <g transform="translate(523.485031 225.032358)scale(0.14 -0.14)">
       <use xlink:href="#DejaVuSans-49"/>
       <use x="63.623047" xlink:href="#DejaVuSans-48"/>
       <use x="127.246094" xlink:href="#DejaVuSans-48"/>
      </g>
     </g>
    </g>
    <g id="text_17">
     <!-- bp from TSS -->
     <g transform="translate(381.779028 244.709295)scale(0.168 -0.168)">
      <use xlink:href="#DejaVuSans-98"/>
      <use x="63.476562" xlink:href="#DejaVuSans-112"/>
      <use x="126.953125" xlink:href="#DejaVuSans-32"/>
      <use x="158.740234" xlink:href="#DejaVuSans-102"/>
      <use x="193.945312" xlink:href="#DejaVuSans-114"/>
      <use x="235.027344" xlink:href="#DejaVuSans-111"/>
      <use x="296.208984" xlink:href="#DejaVuSans-109"/>
      <use x="393.621094" xlink:href="#DejaVuSans-32"/>
      <use x="425.408203" xlink:href="#DejaVuSans-84"/>
      <use x="486.492188" xlink:href="#DejaVuSans-83"/>
      <use x="549.96875" xlink:href="#DejaVuSans-83"/>
     </g>
    </g>
   </g>
   <g id="matplotlib.axis_4">
    <g id="ytick_4">
     <g id="line2d_31">
      <path clip-path="url(#pa5f3b3dd81)" d="M 319.418182 173.518085 
L 547.2 173.518085 
" style="fill:none;stroke:#cbcbcb;"/>
     </g>
     <g id="line2d_32"/>
     <g id="text_18">
      <!-- 0.2 -->
      <g transform="translate(293.653807 178.836991)scale(0.14 -0.14)">
       <use xlink:href="#DejaVuSans-48"/>
       <use x="63.623047" xlink:href="#DejaVuSans-46"/>
       <use x="95.410156" xlink:href="#DejaVuSans-50"/>
      </g>
     </g>
    </g>
    <g id="ytick_5">
     <g id="line2d_33">
      <path clip-path="url(#pa5f3b3dd81)" d="M 319.418182 122.652159 
L 547.2 122.652159 
" style="fill:none;stroke:#cbcbcb;"/>
     </g>
     <g id="line2d_34"/>
     <g id="text_19">
      <!-- 0.4 -->
      <g transform="translate(293.653807 127.971066)scale(0.14 -0.14)">
       <use xlink:href="#DejaVuSans-48"/>
       <use x="63.623047" xlink:href="#DejaVuSans-46"/>
       <use x="95.410156" xlink:href="#DejaVuSans-52"/>
      </g>
     </g>
    </g>
    <g id="ytick_6">
     <g id="line2d_35">
      <path clip-path="url(#pa5f3b3dd81)" d="M 319.418182 71.786234 
L 547.2 71.786234 
" style="fill:none;stroke:#cbcbcb;"/>
     </g>
     <g id="line2d_36"/>
     <g id="text_20">
      <!-- 0.6 -->
      <g transform="translate(293.653807 77.10514)scale(0.14 -0.14)">
       <use xlink:href="#DejaVuSans-48"/>
       <use x="63.623047" xlink:href="#DejaVuSans-46"/>
       <use x="95.410156" xlink:href="#DejaVuSans-54"/>
      </g>
     </g>
    </g>
    <g id="text_21">
     <!-- Frequency -->
     <g transform="translate(286.159932 175.547335)rotate(-90)scale(0.168 -0.168)">
      <use xlink:href="#DejaVuSans-70"/>
      <use x="57.410156" xlink:href="#DejaVuSans-114"/>
      <use x="98.492188" xlink:href="#DejaVuSans-101"/>
      <use x="160.015625" xlink:href="#DejaVuSans-113"/>
      <use x="223.492188" xlink:href="#DejaVuSans-117"/>
      <use x="286.871094" xlink:href="#DejaVuSans-101"/>
      <use x="348.394531" xlink:href="#DejaVuSans-110"/>
      <use x="411.773438" xlink:href="#DejaVuSans-99"/>
      <use x="466.753906" xlink:href="#DejaVuSans-121"/>
     </g>
    </g>
   </g>
   <g id="LineCollection_2">
    <path clip-path="url(#pa5f3b3dd81)" d="M 433.309091 198.951048 
L 433.309091 59.069752 
" style="fill:none;stroke:#000000;stroke-width:0.5;"/>
   </g>
   <g id="line2d_37">
    <path clip-path="url(#pa5f3b3dd81)" d="M 329.771901 148.906353 
L 330.807273 148.017216 
L 331.842645 150.762196 
L 332.878017 149.440953 
L 333.913388 149.836182 
L 334.94876 149.342274 
L 335.984132 149.280471 
L 337.019504 147.798747 
L 338.054876 147.147918 
L 339.090248 149.185352 
L 340.12562 147.892595 
L 341.160992 148.275361 
L 342.196364 148.324701 
L 343.231736 148.053077 
L 344.267107 148.053077 
L 345.302479 148.386503 
L 346.337851 148.398711 
L 347.373223 147.08993 
L 348.408595 147.559169 
L 349.443967 146.793636 
L 350.479339 147.06526 
L 351.514711 146.089906 
L 352.550083 147.846815 
L 353.585455 147.217095 
L 354.620826 146.278873 
L 355.656198 146.912154 
L 356.69157 148.159132 
L 357.726942 148.171594 
L 358.762314 146.282688 
L 359.797686 147.628346 
L 360.833058 148.425924 
L 361.86843 146.74684 
L 362.903802 146.993794 
L 363.939174 147.006256 
L 364.974545 147.944478 
L 366.009917 147.894884 
L 367.045289 147.364098 
L 368.080661 146.154506 
L 369.116033 146.104912 
L 370.151405 147.697524 
L 371.186777 147.858006 
L 374.292893 146.635952 
L 375.328264 145.709938 
L 376.363636 145.99377 
L 377.399008 147.47524 
L 379.469752 146.67283 
L 380.505124 146.67283 
L 381.540496 146.935807 
L 382.575868 146.911137 
L 383.61124 147.392583 
L 384.646612 147.256771 
L 385.681983 149.244357 
L 386.717355 145.886697 
L 387.752727 147.911161 
L 388.788099 147.293903 
L 389.823471 147.174114 
L 390.858843 147.53221 
L 391.894215 147.359265 
L 392.929587 147.371728 
L 393.964959 145.445944 
L 395.000331 146.613825 
L 397.071074 147.349601 
L 399.141818 147.633433 
L 400.17719 145.930442 
L 401.212562 147.312469 
L 402.247934 146.386963 
L 403.283306 148.509598 
L 404.318678 147.966605 
L 405.35405 145.597015 
L 406.389421 146.251151 
L 407.424793 146.534983 
L 408.460165 147.028637 
L 409.495537 147.139779 
L 410.530909 146.843485 
L 411.566281 147.760598 
L 412.601653 146.94598 
L 413.637025 146.662148 
L 414.672397 147.279152 
L 417.778512 146.193418 
L 418.813884 148.266459 
L 419.849256 147.575446 
L 420.884628 146.069814 
L 421.92 148.538083 
L 422.955372 148.04799 
L 423.990744 149.504282 
L 425.026116 146.567283 
L 426.061488 148.961288 
L 427.09686 142.867296 
L 428.132231 148.441438 
L 429.167603 145.128032 
L 430.202975 150.418342 
L 431.238347 148.223223 
L 432.273719 145.621177 
L 433.309091 149.534038 
L 434.344463 148.103688 
L 435.379835 147.536279 
L 436.415207 151.507127 
L 437.450579 145.686794 
L 438.48595 148.189906 
L 439.521322 147.265164 
L 440.556694 145.945701 
L 441.592066 147.310689 
L 442.627438 149.111088 
L 443.66281 146.940639 
L 444.698182 146.620184 
L 445.733554 148.161675 
L 446.768926 147.470916 
L 447.804298 145.830999 
L 448.839669 148.260355 
L 449.875041 145.596507 
L 450.910413 148.420583 
L 451.945785 148.864388 
L 452.981157 147.051781 
L 454.016529 148.395913 
L 455.051901 150.146973 
L 456.087273 148.469923 
L 458.158017 149.431798 
L 459.193388 148.642613 
L 460.22876 148.211015 
L 461.264132 149.468675 
L 463.334876 147.951854 
L 464.370248 149.382458 
L 465.40562 147.717616 
L 466.440992 148.235685 
L 467.476364 146.953101 
L 468.511736 146.484372 
L 470.582479 149.259108 
L 471.617851 148.420583 
L 472.653223 147.779418 
L 473.688595 148.408121 
L 476.794711 147.927184 
L 477.830083 148.963068 
L 478.865455 148.112336 
L 479.900826 148.137005 
L 480.936198 149.234438 
L 481.97157 148.408121 
L 483.006942 148.7535 
L 484.042314 149.456468 
L 486.113058 147.582058 
L 487.14843 149.345326 
L 488.183802 148.728831 
L 489.219174 150.689458 
L 490.254545 148.679491 
L 491.289917 148.7535 
L 492.325289 150.270322 
L 493.360661 150.036085 
L 494.396033 148.506801 
L 495.431405 149.19756 
L 496.466777 148.7535 
L 497.502149 149.579817 
L 498.537521 148.087666 
L 499.572893 149.320656 
L 500.608264 147.224471 
L 501.643636 147.384698 
L 502.679008 147.976523 
L 503.71438 148.137005 
L 504.749752 149.259108 
L 505.785124 148.247893 
L 506.820496 147.976523 
L 507.855868 149.542685 
L 510.961983 146.965309 
L 511.997355 148.95086 
L 513.032727 148.642613 
L 514.068099 148.469923 
L 515.103471 148.013656 
L 516.138843 148.556141 
L 517.174215 148.469923 
L 518.209587 149.135758 
L 519.244959 147.877844 
L 520.280331 148.864388 
L 521.315702 148.321903 
L 522.351074 149.17289 
L 523.386446 149.22223 
L 524.421818 148.334111 
L 526.492562 148.223223 
L 527.527934 150.50456 
L 528.563306 149.357788 
L 529.598678 148.679491 
L 530.63405 148.531471 
L 531.669421 147.976523 
L 532.704793 149.653827 
L 533.740165 148.506801 
L 534.775537 148.90152 
L 535.810909 149.666035 
L 536.846281 149.144405 
L 536.846281 149.144405 
" style="fill:none;stroke:#0000ff;stroke-width:2;"/>
   </g>
   <g id="line2d_38">
    <path clip-path="url(#pa5f3b3dd81)" d="M 329.771901 173.975115 
L 330.807273 174.320749 
L 331.842645 173.236542 
L 332.878017 174.817201 
L 333.913388 174.619587 
L 334.94876 174.137886 
L 335.984132 174.137886 
L 337.019504 175.916159 
L 338.054876 173.695862 
L 339.090248 175.029566 
L 340.12562 175.525763 
L 341.160992 174.562617 
L 343.231736 174.550409 
L 344.267107 175.538225 
L 345.302479 175.192337 
L 346.337851 174.290993 
L 347.373223 175.624443 
L 348.408595 175.760255 
L 349.443967 176.698731 
L 350.479339 176.636929 
L 351.514711 175.439291 
L 352.550083 175.182418 
L 353.585455 176.65168 
L 354.620826 176.256707 
L 355.656198 175.666408 
L 357.726942 175.863767 
L 359.797686 177.703334 
L 360.833058 175.930402 
L 361.86843 176.991974 
L 362.903802 176.905501 
L 363.939174 176.485858 
L 364.974545 177.300475 
L 366.009917 177.312938 
L 367.045289 176.720349 
L 368.080661 177.671034 
L 369.116033 177.39941 
L 370.151405 176.893294 
L 371.186777 177.312938 
L 372.222149 176.522735 
L 373.257521 177.720374 
L 374.292893 177.979535 
L 375.328264 178.102885 
L 376.363636 177.979535 
L 377.399008 177.152456 
L 378.43438 176.917964 
L 379.469752 177.44875 
L 380.505124 177.683241 
L 381.540496 178.944716 
L 382.575868 179.33969 
L 383.61124 178.623752 
L 384.646612 178.63596 
L 385.681983 177.463246 
L 386.717355 178.833574 
L 387.752727 177.487916 
L 388.788099 178.648422 
L 389.823471 178.379087 
L 390.858843 177.391525 
L 391.894215 178.132133 
L 392.929587 178.193935 
L 393.964959 179.119695 
L 395.000331 179.050009 
L 396.035702 178.200548 
L 399.141818 178.560679 
L 400.17719 180.029432 
L 401.212562 179.535778 
L 403.283306 179.004993 
L 404.318678 178.745831 
L 405.35405 180.04164 
L 406.389421 180.202122 
L 407.424793 179.338164 
L 408.460165 178.955653 
L 409.495537 179.94296 
L 410.530909 179.313494 
L 411.566281 178.957942 
L 412.601653 178.87147 
L 413.637025 178.550506 
L 414.672397 178.476496 
L 415.707769 179.377331 
L 416.74314 179.636493 
L 417.778512 178.760327 
L 418.813884 179.426925 
L 419.849256 179.648955 
L 420.884628 181.401286 
L 421.92 179.389793 
L 422.955372 179.60165 
L 423.990744 178.330765 
L 425.026116 178.602134 
L 426.061488 178.676144 
L 427.09686 183.551643 
L 428.132231 181.578554 
L 429.167603 179.13877 
L 430.202975 176.142258 
L 431.238347 177.104133 
L 432.273719 177.165935 
L 433.309091 174.775745 
L 434.344463 183.012973 
L 435.379835 182.26092 
L 436.415207 176.785712 
L 437.450579 178.647914 
L 438.48595 178.549234 
L 439.521322 180.386511 
L 440.556694 178.055834 
L 441.592066 181.210539 
L 442.627438 178.362047 
L 443.66281 179.582829 
L 444.698182 179.693717 
L 445.733554 179.545952 
L 446.768926 178.694965 
L 447.804298 180.816074 
L 448.839669 176.857433 
L 449.875041 179.681509 
L 450.910413 179.595037 
L 451.945785 178.892325 
L 452.981157 179.878869 
L 454.016529 179.866407 
L 455.051901 177.85644 
L 456.087273 177.38771 
L 457.122645 179.422602 
L 458.158017 178.066008 
L 460.22876 179.755519 
L 461.264132 178.867655 
L 462.299504 178.818315 
L 464.370248 179.447272 
L 465.40562 177.769968 
L 466.440992 178.756513 
L 467.476364 178.744305 
L 468.511736 179.41014 
L 469.547107 178.929202 
L 470.582479 178.991004 
L 471.617851 178.263367 
L 472.653223 178.670295 
L 473.688595 178.398925 
L 474.723967 178.879862 
L 475.759339 178.781182 
L 476.794711 177.991998 
L 477.830083 178.633163 
L 478.865455 180.433816 
L 479.900826 178.855192 
L 480.936198 178.805852 
L 481.97157 180.655592 
L 483.006942 179.101892 
L 484.042314 178.041338 
L 485.077686 180.137777 
L 486.113058 179.422602 
L 487.14843 179.43481 
L 488.183802 180.507826 
L 489.219174 178.534737 
L 490.254545 179.755519 
L 491.289917 179.471942 
L 492.325289 178.423595 
L 493.360661 179.38547 
L 494.396033 179.28679 
L 495.431405 178.152225 
L 496.466777 178.436057 
L 497.502149 180.581582 
L 498.537521 179.545952 
L 499.572893 177.33837 
L 500.608264 179.595037 
L 501.643636 179.41014 
L 502.679008 177.97979 
L 503.71438 179.101892 
L 504.749752 178.362047 
L 505.785124 178.02913 
L 506.820496 179.101892 
L 508.89124 177.646872 
L 509.926612 180.014427 
L 510.961983 178.0538 
L 511.997355 178.374255 
L 513.032727 178.140017 
L 514.068099 179.175902 
L 515.103471 179.299252 
L 517.174215 178.559407 
L 518.209587 178.522275 
L 519.244959 180.039097 
L 520.280331 177.449513 
L 521.315702 177.646872 
L 522.351074 179.027882 
L 523.386446 178.288037 
L 524.421818 178.620955 
L 525.45719 179.21278 
L 526.492562 178.07847 
L 527.527934 177.90578 
L 528.563306 177.301493 
L 529.598678 178.226235 
L 530.63405 177.153473 
L 531.669421 178.226235 
L 533.740165 177.51106 
L 534.775537 179.323922 
L 535.810909 178.214027 
L 536.846281 178.729808 
L 536.846281 178.729808 
" style="fill:none;stroke:#008000;stroke-opacity:0.8;stroke-width:2;"/>
   </g>
   <g id="line2d_39">
    <path clip-path="url(#pa5f3b3dd81)" d="M 329.771901 174.098465 
L 330.807273 173.937983 
L 331.842645 173.446364 
L 332.878017 172.779766 
L 334.94876 173.903395 
L 335.984132 173.915602 
L 337.019504 174.940551 
L 338.054876 174.67147 
L 339.090248 173.275963 
L 340.12562 174.611957 
L 341.160992 173.772415 
L 342.196364 173.871095 
L 343.231736 174.562617 
L 344.267107 175.402159 
L 345.302479 173.513253 
L 346.337851 174.735561 
L 348.408595 174.525739 
L 349.443967 173.908227 
L 350.479339 175.463961 
L 351.514711 176.019671 
L 352.550083 175.3429 
L 353.585455 173.700694 
L 354.620826 175.750336 
L 355.656198 175.542803 
L 356.69157 174.913083 
L 357.726942 175.024225 
L 358.762314 176.061381 
L 359.797686 175.505926 
L 360.833058 175.930402 
L 361.86843 175.559843 
L 362.903802 175.498296 
L 363.939174 177.201795 
L 364.974545 175.251342 
L 366.009917 175.905477 
L 367.045289 176.152431 
L 368.080661 177.028851 
L 369.116033 176.448725 
L 370.151405 176.238904 
L 371.186777 175.300682 
L 372.222149 176.386923 
L 373.257521 175.547636 
L 374.292893 176.436518 
L 375.328264 176.226441 
L 376.363636 175.831467 
L 377.399008 176.930171 
L 378.43438 176.559868 
L 379.469752 176.856162 
L 380.505124 176.312913 
L 381.540496 175.944898 
L 382.575868 174.747515 
L 383.61124 175.587057 
L 384.646612 175.957361 
L 385.681983 174.377211 
L 386.717355 177.031395 
L 387.752727 175.278301 
L 388.788099 175.673274 
L 389.823471 176.539775 
L 390.858843 176.798937 
L 391.894215 176.194141 
L 392.929587 176.650918 
L 393.964959 177.737159 
L 395.000331 176.495013 
L 396.035702 177.052758 
L 397.071074 176.364034 
L 398.106446 176.610733 
L 399.141818 176.030862 
L 400.17719 176.154212 
L 401.212562 175.561878 
L 402.247934 176.462714 
L 403.283306 175.598756 
L 404.318678 175.783908 
L 405.35405 176.820555 
L 406.389421 176.438044 
L 408.460165 176.154212 
L 409.495537 175.413604 
L 410.530909 176.19109 
L 411.566281 175.280335 
L 412.601653 176.613022 
L 413.637025 175.847999 
L 414.672397 175.983811 
L 415.707769 174.873153 
L 416.74314 175.440817 
L 417.778512 176.378785 
L 418.813884 175.613507 
L 419.849256 176.465003 
L 420.884628 176.304521 
L 421.92 175.897339 
L 422.955372 176.072572 
L 423.990744 175.652928 
L 425.026116 178.441907 
L 426.061488 176.08478 
L 427.09686 181.146957 
L 428.132231 172.748484 
L 429.167603 179.126562 
L 430.202975 177.843978 
L 431.238347 180.433816 
L 433.309091 176.687287 
L 434.344463 167.907319 
L 435.379835 176.970864 
L 436.415207 176.983072 
L 437.450579 178.425884 
L 439.521322 176.933732 
L 440.556694 175.219805 
L 441.592066 175.377743 
L 442.627438 177.116595 
L 443.66281 175.760001 
L 444.698182 176.142258 
L 445.733554 176.882103 
L 446.768926 176.845225 
L 447.804298 177.63441 
L 448.839669 176.758753 
L 449.875041 175.402413 
L 450.910413 177.695958 
L 451.945785 177.46172 
L 452.981157 176.721875 
L 454.016529 175.747539 
L 455.051901 177.350833 
L 456.087273 178.546945 
L 457.122645 176.031371 
L 458.158017 175.377743 
L 459.193388 175.846219 
L 460.22876 175.266601 
L 462.299504 176.438298 
L 463.334876 177.88111 
L 464.370248 175.377743 
L 465.40562 175.266601 
L 466.440992 176.709413 
L 467.476364 177.424843 
L 468.511736 176.573856 
L 469.547107 176.450506 
L 470.582479 176.635658 
L 471.617851 176.018908 
L 472.653223 176.610988 
L 473.688595 176.20406 
L 474.723967 175.081704 
L 475.759339 176.117588 
L 476.794711 175.920228 
L 477.830083 175.587311 
L 479.900826 175.735331 
L 480.936198 173.602014 
L 481.97157 174.983024 
L 483.006942 174.970816 
L 484.042314 174.489879 
L 485.077686 174.970816 
L 486.113058 175.291271 
L 487.14843 172.825037 
L 488.183802 174.452747 
L 489.219174 173.897799 
L 490.254545 174.366529 
L 491.289917 175.957361 
L 492.325289 173.663562 
L 493.360661 173.318436 
L 494.396033 174.119829 
L 495.431405 175.315941 
L 496.466777 174.008941 
L 497.502149 173.453994 
L 498.537521 174.181631 
L 499.572893 174.058281 
L 500.608264 174.933684 
L 501.643636 174.958354 
L 502.679008 175.155714 
L 503.71438 175.562641 
L 504.749752 175.537971 
L 505.785124 175.131044 
L 506.820496 175.315941 
L 507.855868 174.230971 
L 508.89124 173.873129 
L 509.926612 174.169169 
L 510.961983 175.242186 
L 511.997355 174.193839 
L 513.032727 175.427083 
L 514.068099 174.637898 
L 515.103471 173.269096 
L 516.138843 173.873129 
L 517.174215 175.217516 
L 518.209587 175.328403 
L 519.244959 174.354067 
L 520.280331 174.835004 
L 521.315702 174.637898 
L 522.351074 174.773456 
L 523.386446 174.452747 
L 524.421818 174.872136 
L 525.45719 174.551426 
L 526.492562 174.995486 
L 527.527934 173.342852 
L 528.563306 175.883351 
L 529.598678 174.650106 
L 530.63405 174.785664 
L 531.669421 175.081704 
L 532.704793 174.946146 
L 533.740165 175.427083 
L 534.775537 174.921476 
L 535.810909 175.870889 
L 536.846281 175.609692 
L 536.846281 175.609692 
" style="fill:none;stroke:#ff0000;stroke-opacity:0.6;stroke-width:2;"/>
   </g>
   <g id="line2d_40">
    <path clip-path="url(#pa5f3b3dd81)" d="M 329.771901 146.226481 
L 330.807273 146.930466 
L 331.842645 145.761058 
L 332.878017 146.168748 
L 333.913388 145.366084 
L 334.94876 145.82286 
L 335.984132 145.8722 
L 337.019504 144.550958 
L 338.054876 147.691166 
L 339.090248 145.715533 
L 340.12562 145.1761 
L 341.160992 146.596022 
L 342.196364 146.447748 
L 343.231736 146.040312 
L 344.267107 144.212954 
L 345.302479 146.114576 
L 346.337851 145.78115 
L 347.373223 145.87983 
L 348.408595 145.361252 
L 349.443967 145.80582 
L 350.479339 144.040264 
L 351.514711 145.657546 
L 352.550083 144.834281 
L 353.585455 145.636691 
L 354.620826 144.920753 
L 355.656198 145.08505 
L 356.69157 144.344188 
L 357.726942 144.146828 
L 358.762314 144.109696 
L 359.797686 142.368809 
L 360.833058 142.919942 
L 361.86843 143.907504 
L 362.903802 143.808824 
L 363.939174 142.51276 
L 364.974545 142.71012 
L 366.009917 142.092862 
L 367.045289 142.969282 
L 368.080661 142.352024 
L 369.116033 143.253368 
L 370.151405 142.376948 
L 371.186777 142.73479 
L 373.257521 142.981744 
L 374.292893 142.154664 
L 375.328264 143.166896 
L 376.363636 143.401388 
L 377.399008 141.648548 
L 378.43438 142.598978 
L 379.469752 142.228674 
L 380.505124 142.53743 
L 381.540496 141.380993 
L 382.575868 142.208073 
L 383.61124 141.603023 
L 384.646612 141.356323 
L 385.681983 142.121601 
L 386.717355 141.455003 
L 387.752727 142.529037 
L 388.788099 141.590815 
L 389.823471 141.113438 
L 390.858843 141.483742 
L 391.894215 141.52062 
L 392.929587 140.990089 
L 393.964959 140.903616 
L 395.000331 141.047313 
L 396.035702 140.940494 
L 397.071074 141.191263 
L 398.106446 140.586467 
L 399.141818 140.981441 
L 400.17719 141.092583 
L 401.212562 140.796289 
L 402.247934 141.043243 
L 403.283306 140.092814 
L 404.318678 140.710072 
L 405.35405 140.746949 
L 406.389421 140.315098 
L 407.424793 141.080121 
L 408.460165 141.067913 
L 409.495537 140.710072 
L 410.530909 140.858091 
L 411.566281 141.20754 
L 412.601653 140.775689 
L 413.637025 142.145508 
L 414.672397 141.466702 
L 415.707769 142.071498 
L 416.74314 141.602514 
L 417.778512 141.874138 
L 418.813884 139.899523 
L 419.849256 139.517011 
L 421.92 139.381199 
L 422.955372 139.483949 
L 423.990744 139.71844 
L 426.061488 139.483949 
L 427.09686 135.640519 
L 428.132231 140.437939 
L 429.167603 139.813051 
L 430.202975 138.801836 
L 431.238347 137.445242 
L 432.273719 141.93416 
L 433.309091 142.209345 
L 434.344463 144.182434 
L 435.379835 136.438351 
L 436.415207 137.930503 
L 437.450579 140.446077 
L 438.48595 138.756566 
L 439.521322 138.621008 
L 440.556694 143.985074 
L 441.592066 139.307444 
L 442.627438 138.616939 
L 443.66281 140.922946 
L 444.698182 140.750256 
L 445.733554 138.616939 
L 446.768926 140.195308 
L 447.804298 138.925186 
L 448.839669 141.329873 
L 449.875041 142.525985 
L 450.910413 137.494582 
L 451.945785 137.987982 
L 452.981157 139.554143 
L 454.016529 139.196302 
L 455.051901 137.85217 
L 456.087273 138.801836 
L 457.122645 138.764704 
L 458.158017 140.330866 
L 459.193388 139.825259 
L 460.22876 139.973279 
L 461.264132 139.073206 
L 462.299504 139.282774 
L 463.334876 138.209757 
L 464.370248 138.999196 
L 465.40562 142.451975 
L 466.440992 139.504804 
L 468.511736 140.737794 
L 469.547107 139.973279 
L 470.582479 138.320899 
L 471.617851 140.503556 
L 472.653223 140.145969 
L 473.688595 140.195308 
L 474.723967 140.972285 
L 475.759339 140.207516 
L 476.794711 141.366751 
L 477.830083 140.022619 
L 478.865455 138.962064 
L 479.900826 140.478886 
L 480.936198 141.564111 
L 481.97157 139.159424 
L 483.006942 140.380206 
L 484.042314 141.218731 
L 485.077686 139.615691 
L 486.113058 140.910483 
L 487.14843 141.600988 
L 488.183802 139.517011 
L 489.219174 140.084421 
L 490.254545 140.404876 
L 491.289917 139.023866 
L 492.325289 140.848936 
L 493.360661 140.466678 
L 494.396033 141.292741 
L 495.431405 140.540688 
L 496.466777 142.00817 
L 497.502149 139.591021 
L 498.537521 141.391421 
L 499.572893 142.489107 
L 500.608264 141.453223 
L 501.643636 141.453223 
L 502.679008 142.094388 
L 503.71438 140.404876 
L 504.749752 140.047289 
L 505.785124 141.798348 
L 506.820496 140.811804 
L 507.855868 140.996955 
L 508.89124 143.0438 
L 509.926612 141.169391 
L 510.961983 142.945375 
L 511.997355 141.68746 
L 513.032727 140.996955 
L 514.068099 140.922946 
L 515.103471 142.624665 
L 518.209587 140.219978 
L 519.244959 140.935153 
L 520.280331 142.057256 
L 521.315702 142.599995 
L 522.351074 140.232186 
L 523.386446 141.243401 
L 524.421818 141.379213 
L 525.45719 141.194061 
L 526.492562 141.90949 
L 527.527934 141.453223 
L 528.563306 140.663784 
L 530.63405 142.735553 
L 531.669421 141.921698 
L 532.704793 140.700916 
L 533.740165 141.76147 
L 534.775537 140.059751 
L 535.810909 139.455464 
L 536.846281 139.72251 
L 536.846281 139.72251 
" style="fill:none;stroke:#00bfbf;stroke-opacity:0.4;stroke-width:2;"/>
   </g>
   <g id="text_22">
    <!-- RefSeq -->
    <defs>
     <path d="M 44.390625 34.1875 
Q 47.5625 33.109375 50.5625 29.59375 
Q 53.5625 26.078125 56.59375 19.921875 
L 66.609375 0 
L 56 0 
L 46.6875 18.703125 
Q 43.0625 26.03125 39.671875 28.421875 
Q 36.28125 30.8125 30.421875 30.8125 
L 19.671875 30.8125 
L 19.671875 0 
L 9.8125 0 
L 9.8125 72.90625 
L 32.078125 72.90625 
Q 44.578125 72.90625 50.734375 67.671875 
Q 56.890625 62.453125 56.890625 51.90625 
Q 56.890625 45.015625 53.6875 40.46875 
Q 50.484375 35.9375 44.390625 34.1875 
z
M 19.671875 64.796875 
L 19.671875 38.921875 
L 32.078125 38.921875 
Q 39.203125 38.921875 42.84375 42.21875 
Q 46.484375 45.515625 46.484375 51.90625 
Q 46.484375 58.296875 42.84375 61.546875 
Q 39.203125 64.796875 32.078125 64.796875 
z
" id="DejaVuSans-82"/>
    </defs>
    <g transform="translate(397.559741 45.84)scale(0.2016 -0.2016)">
     <use xlink:href="#DejaVuSans-82"/>
     <use x="69.419922" xlink:href="#DejaVuSans-101"/>
     <use x="130.943359" xlink:href="#DejaVuSans-102"/>
     <use x="166.148438" xlink:href="#DejaVuSans-83"/>
     <use x="229.625" xlink:href="#DejaVuSans-101"/>
     <use x="291.148438" xlink:href="#DejaVuSans-113"/>
    </g>
   </g>
   <g id="legend_1">
    <g id="patch_4">
     <path d="M 566.111273 70.04 
L 571.711273 70.04 
Q 574.511273 70.04 574.511273 67.24 
L 574.511273 61.64 
Q 574.511273 58.84 571.711273 58.84 
L 566.111273 58.84 
Q 563.311273 58.84 563.311273 61.64 
L 563.311273 67.24 
Q 563.311273 70.04 566.111273 70.04 
z
" style="fill:#f0f0f0;opacity:0.8;stroke:#cccccc;stroke-linejoin:miter;stroke-width:0.5;"/>
    </g>
   </g>
  </g>
 </g>
 <defs>
  <clipPath id="p1ed638f995">
   <rect height="159.054545" width="227.781818" x="46.08" y="51.84"/>
  </clipPath>
  <clipPath id="pa5f3b3dd81">
   <rect height="159.054545" width="227.781818" x="319.418182" y="51.84"/>
  </clipPath>
 </defs>
</svg>
